<svg width="20" height="20" viewBox="0 0 20 20" fill="none" xmlns="http://www.w3.org/2000/svg">
<path fill-rule="evenodd" clip-rule="evenodd" d="M2.8327 6.83458C2.88509 6.78138 2.94734 6.73917 3.01586 6.71037C3.08439 6.68157 3.15785 6.66675 3.23204 6.66675C3.30623 6.66675 3.37969 6.68157 3.44821 6.71037C3.51674 6.73917 3.57898 6.78138 3.63137 6.83458L10.0005 13.2867L16.3696 6.83458C16.422 6.78147 16.4843 6.73933 16.5528 6.71059C16.6213 6.68184 16.6947 6.66705 16.7689 6.66705C16.8431 6.66705 16.9165 6.68184 16.985 6.71059C17.0535 6.73933 17.1158 6.78147 17.1682 6.83458C17.2207 6.8877 17.2623 6.95076 17.2907 7.02015C17.3191 7.08955 17.3337 7.16394 17.3337 7.23905C17.3337 7.31417 17.3191 7.38855 17.2907 7.45795C17.2623 7.52735 17.2207 7.5904 17.1682 7.64352L10.3998 14.4989C10.3474 14.5521 10.2852 14.5943 10.2167 14.6231C10.1481 14.6519 10.0747 14.6667 10.0005 14.6667C9.92628 14.6667 9.85282 14.6519 9.7843 14.6231C9.71577 14.5943 9.65353 14.5521 9.60114 14.4989L2.8327 7.64352C2.78017 7.59045 2.7385 7.52741 2.71006 7.45801C2.68163 7.3886 2.66699 7.3142 2.66699 7.23905C2.66699 7.16391 2.68163 7.0895 2.71006 7.0201C2.7385 6.95069 2.78017 6.88765 2.8327 6.83458Z" fill="black"/>
</svg>
