<svg width="24" height="24" viewBox="0 0 24 24" fill="none" xmlns="http://www.w3.org/2000/svg">
<path fill-rule="evenodd" clip-rule="evenodd" d="M14.0748 10.0578C14.0748 12.3071 12.259 14.1157 10.0374 14.1157C7.8158 14.1157 6 12.3071 6 10.0578C6 7.80855 7.8158 6 10.0374 6C12.259 6 14.0748 7.80855 14.0748 10.0578ZM13.81 16.0169C12.7197 16.7126 11.4255 17.1157 10.0374 17.1157C6.15075 17.1157 3 13.9558 3 10.0578C3 6.1599 6.15075 3 10.0374 3C13.924 3 17.0748 6.1599 17.0748 10.0578C17.0748 11.4764 16.6575 12.7973 15.9393 13.9036L20.5006 18.4967L18.3867 20.6254L13.81 16.0169Z" fill="white"/>
</svg>
