<svg width="100" height="100" viewBox="0 0 100 100" fill="none" xmlns="http://www.w3.org/2000/svg">
<g clip-path="url(#clip0_28_193)">
<path d="M50 0L58.7791 5.86466L69.1342 3.80602L75.0007 12.5839L85.3553 14.6447L87.4161 24.9993L96.194 30.8658L94.1353 41.2209L100 50L94.1353 58.7791L96.194 69.1342L87.4161 75.0007L85.3553 85.3553L75.0007 87.4161L69.1342 96.194L58.7791 94.1353L50 100L41.2209 94.1353L30.8658 96.194L24.9993 87.4161L14.6447 85.3553L12.5839 75.0007L3.80602 69.1342L5.86466 58.7791L0 50L5.86466 41.2209L3.80602 30.8658L12.5839 24.9993L14.6447 14.6447L24.9993 12.5839L30.8658 3.80602L41.2209 5.86466L50 0Z" fill="#FFEC3F"/>
<path d="M33.3346 69.458C32.0459 69.458 31.0635 70.4431 31.0635 71.7291C31.0635 73.0177 32.0486 74.0002 33.3346 74.0002H67.1883C68.4769 74.0002 69.4594 73.0151 69.4594 71.7291C69.4594 70.4405 68.4743 69.458 67.1883 69.458H33.3346Z" fill="black"/>
<path d="M50.2226 40.6045L43.7102 53.9332L27.8813 41.0571L34.6201 67.1869H65.8245L72.5633 41.0571L56.7344 53.9332L50.2226 40.6045Z" fill="black"/>
<path d="M24.0183 34.9222C24.9262 34.7705 25.6078 34.0144 25.6078 33.0292C25.6078 31.9696 24.7744 31.1362 23.7148 31.1362C22.6552 31.1362 21.8218 31.9696 21.8218 33.0292C21.8218 34.0889 22.6552 34.9222 23.7148 34.9222C23.792 34.9995 23.8666 34.9222 24.0183 34.9222H24.0183Z" fill="black"/>
<path d="M23.6402 36.1371C21.9735 36.0599 20.6875 34.6966 20.6875 33.0299C20.6875 31.3632 22.0507 30 23.7174 30C25.3841 30 26.7473 31.3632 26.7473 33.0299C26.7473 34.0896 26.1403 35.0747 25.3096 35.6045L25.3841 35.8308L24.3244 35.9826H24.1727L23.6402 36.1371ZM23.0331 32.7291L24.1701 33.637C24.3218 33.4852 24.4736 33.2589 24.4736 33.0299C24.4736 32.5746 24.0955 32.2737 23.7174 32.2737C23.4139 32.2737 23.1849 32.5 23.0332 32.729L23.0331 32.7291Z" fill="black"/>
<path d="M52.1152 33.0297C52.1152 35.5538 48.3291 35.5538 48.3291 33.0297C48.3291 30.5057 52.1152 30.5057 52.1152 33.0297Z" fill="black"/>
<path d="M50.2228 36.137C48.5561 36.137 47.1929 34.7738 47.1929 33.1071C47.1929 31.4403 48.5561 30.0771 50.2228 30.0771C51.8895 30.0771 53.2527 31.4403 53.2527 33.1071C53.2527 34.7738 51.8895 36.137 50.2228 36.137ZM50.2228 32.2737C49.7675 32.2737 49.4666 32.6517 49.4666 33.0298C49.4666 33.4079 49.8447 33.786 50.2228 33.786C50.6009 33.786 50.979 33.4079 50.979 33.0298C50.979 32.6518 50.6781 32.2737 50.2228 32.2737Z" fill="black"/>
<path d="M76.7309 31.1367C75.6712 31.1367 74.8379 31.9701 74.8379 33.0297C74.8379 34.0148 75.5195 34.771 76.4274 34.9227H76.6537C77.7134 34.9227 78.5467 34.0893 78.5467 33.0297C78.6239 32.0473 77.7905 31.1367 76.7309 31.1367H76.7309Z" fill="black"/>
<path d="M76.8049 36.137H76.3496H76.275H76.2005L75.1381 35.908L75.2127 35.6817C74.3048 35.1518 73.7749 34.1667 73.7749 33.1071C73.7749 31.4403 75.1381 30.0771 76.8048 30.0771C78.4715 30.0771 79.8347 31.4403 79.8347 33.1071C79.7575 34.6966 78.4715 36.0598 76.8048 36.137L76.8049 36.137ZM76.7303 32.2737C76.275 32.2737 75.9741 32.6517 75.9741 33.0298C75.9741 33.2561 76.0487 33.4851 76.2777 33.6369L77.4146 32.6518C77.2601 32.4254 77.0312 32.2737 76.7303 32.2737L76.7303 32.2737Z" fill="black"/>
</g>
<defs>
<clipPath id="clip0_28_193">
<rect width="100" height="100" fill="white"/>
</clipPath>
</defs>
</svg>
