<svg width="100" height="100" viewBox="0 0 100 100" fill="none" xmlns="http://www.w3.org/2000/svg">
<g clip-path="url(#clip0_28_198)">
<path d="M50 0L58.7791 5.86466L69.1342 3.80602L75.0007 12.5839L85.3553 14.6447L87.4161 24.9993L96.194 30.8658L94.1353 41.2209L100 50L94.1353 58.7791L96.194 69.1342L87.4161 75.0007L85.3553 85.3553L75.0007 87.4161L69.1342 96.194L58.7791 94.1353L50 100L41.2209 94.1353L30.8658 96.194L24.9993 87.4161L14.6447 85.3553L12.5839 75.0007L3.80602 69.1342L5.86466 58.7791L0 50L5.86466 41.2209L3.80602 30.8658L12.5839 24.9993L14.6447 14.6447L24.9993 12.5839L30.8658 3.80602L41.2209 5.86466L50 0Z" fill="#94A86B"/>
<g clip-path="url(#clip1_28_198)">
<path d="M75.5244 58.3615L70.7537 65.3095L67.6234 67.2637H30.737L27.0349 65.3095L22.2642 58.3615L24.4087 54.2437H73.124L75.5244 58.3615Z" fill="black"/>
<path fill-rule="evenodd" clip-rule="evenodd" d="M24.1993 53.8984H73.322L75.9324 58.3764L70.9972 65.5639L67.7221 67.6084H30.6514L26.7984 65.5747L21.8623 58.3858L24.1993 53.8984ZM24.6179 54.5884L22.6657 58.3369L27.271 65.0439L30.8224 66.9184H67.5244L70.5098 65.0548L75.1161 58.3462L72.9256 54.5884H24.6179Z" fill="black"/>
<path d="M30.737 67.2709C33.2097 67.2709 35.2142 65.2765 35.2142 62.8161C35.2142 60.3558 33.2097 58.3613 30.737 58.3613C28.2643 58.3613 26.2598 60.3558 26.2598 62.8161C26.2598 65.2765 28.2643 67.2709 30.737 67.2709Z" fill="#94A86B"/>
<path fill-rule="evenodd" clip-rule="evenodd" d="M30.7373 58.7066C28.4535 58.7066 26.605 60.5483 26.605 62.8164C26.605 65.0846 28.4535 66.9262 30.7373 66.9262C33.0211 66.9262 34.8695 65.0846 34.8695 62.8164C34.8695 60.5483 33.0211 58.7066 30.7373 58.7066ZM25.915 62.8164C25.915 60.1639 28.0757 58.0166 30.7373 58.0166C33.3989 58.0166 35.5595 60.1639 35.5595 62.8164C35.5595 65.4689 33.3989 67.6162 30.7373 67.6162C28.0757 67.6162 25.915 65.4689 25.915 62.8164Z" fill="#94A86B"/>
<path d="M24.4089 59.4696C25.8592 59.4696 27.035 58.2998 27.035 56.8566C27.035 55.4135 25.8592 54.2437 24.4089 54.2437C22.9585 54.2437 21.7827 55.4135 21.7827 56.8566C21.7827 58.2998 22.9585 59.4696 24.4089 59.4696Z" fill="black"/>
<path fill-rule="evenodd" clip-rule="evenodd" d="M24.4086 54.5884C23.1472 54.5884 22.1275 55.6055 22.1275 56.8564C22.1275 58.1074 23.1472 59.1244 24.4086 59.1244C25.6701 59.1244 26.6898 58.1074 26.6898 56.8564C26.6898 55.6055 25.6701 54.5884 24.4086 54.5884ZM21.4375 56.8564C21.4375 55.2211 22.7694 53.8984 24.4086 53.8984C26.0479 53.8984 27.3798 55.2211 27.3798 56.8564C27.3798 58.4917 26.0479 59.8144 24.4086 59.8144C22.7694 59.8144 21.4375 58.4917 21.4375 56.8564Z" fill="black"/>
<path d="M73.38 59.4696C74.8304 59.4696 76.0062 58.2998 76.0062 56.8566C76.0062 55.4135 74.8304 54.2437 73.38 54.2437C71.9297 54.2437 70.7539 55.4135 70.7539 56.8566C70.7539 58.2998 71.9297 59.4696 73.38 59.4696Z" fill="black"/>
<path fill-rule="evenodd" clip-rule="evenodd" d="M73.3798 54.5884C72.1184 54.5884 71.0987 55.6055 71.0987 56.8564C71.0987 58.1074 72.1184 59.1244 73.3798 59.1244C74.6413 59.1244 75.661 58.1074 75.661 56.8564C75.661 55.6055 74.6413 54.5884 73.3798 54.5884ZM70.4087 56.8564C70.4087 55.2211 71.7405 53.8984 73.3798 53.8984C75.0191 53.8984 76.351 55.2211 76.351 56.8564C76.351 58.4917 75.0191 59.8144 73.3798 59.8144C71.7405 59.8144 70.4087 58.4917 70.4087 56.8564Z" fill="black"/>
<path d="M35.2145 59.4696C36.6649 59.4696 37.8407 58.2998 37.8407 56.8566C37.8407 55.4135 36.6649 54.2437 35.2145 54.2437C33.7641 54.2437 32.5884 55.4135 32.5884 56.8566C32.5884 58.2998 33.7641 59.4696 35.2145 59.4696Z" fill="black"/>
<path fill-rule="evenodd" clip-rule="evenodd" d="M35.2143 54.5884C33.9528 54.5884 32.9332 55.6055 32.9332 56.8564C32.9332 58.1074 33.9528 59.1244 35.2143 59.1244C36.4758 59.1244 37.4954 58.1074 37.4954 56.8564C37.4954 55.6055 36.4758 54.5884 35.2143 54.5884ZM32.2432 56.8564C32.2432 55.2211 33.575 53.8984 35.2143 53.8984C36.8536 53.8984 38.1854 55.2211 38.1854 56.8564C38.1854 58.4917 36.8536 59.8144 35.2143 59.8144C33.575 59.8144 32.2432 58.4917 32.2432 56.8564Z" fill="black"/>
<path d="M44.4172 59.4696C45.8675 59.4696 47.0433 58.2998 47.0433 56.8566C47.0433 55.4135 45.8675 54.2437 44.4172 54.2437C42.9668 54.2437 41.791 55.4135 41.791 56.8566C41.791 58.2998 42.9668 59.4696 44.4172 59.4696Z" fill="black"/>
<path fill-rule="evenodd" clip-rule="evenodd" d="M44.4169 54.5884C43.1555 54.5884 42.1358 55.6055 42.1358 56.8564C42.1358 58.1074 43.1555 59.1244 44.4169 59.1244C45.6784 59.1244 46.6981 58.1074 46.6981 56.8564C46.6981 55.6055 45.6784 54.5884 44.4169 54.5884ZM41.4458 56.8564C41.4458 55.2211 42.7777 53.8984 44.4169 53.8984C46.0562 53.8984 47.3881 55.2211 47.3881 56.8564C47.3881 58.4917 46.0562 59.8144 44.4169 59.8144C42.7777 59.8144 41.4458 58.4917 41.4458 56.8564Z" fill="black"/>
<path d="M53.6125 59.4696C55.0628 59.4696 56.2386 58.2998 56.2386 56.8566C56.2386 55.4135 55.0628 54.2437 53.6125 54.2437C52.1621 54.2437 50.9863 55.4135 50.9863 56.8566C50.9863 58.2998 52.1621 59.4696 53.6125 59.4696Z" fill="black"/>
<path fill-rule="evenodd" clip-rule="evenodd" d="M53.6123 54.5884C52.3508 54.5884 51.3311 55.6055 51.3311 56.8564C51.3311 58.1074 52.3508 59.1244 53.6123 59.1244C54.8737 59.1244 55.8934 58.1074 55.8934 56.8564C55.8934 55.6055 54.8737 54.5884 53.6123 54.5884ZM50.6411 56.8564C50.6411 55.2211 51.973 53.8984 53.6123 53.8984C55.2515 53.8984 56.5834 55.2211 56.5834 56.8564C56.5834 58.4917 55.2515 59.8144 53.6123 59.8144C51.973 59.8144 50.6411 58.4917 50.6411 56.8564Z" fill="black"/>
<path d="M39.9401 67.2709C42.4128 67.2709 44.4173 65.2765 44.4173 62.8161C44.4173 60.3558 42.4128 58.3613 39.9401 58.3613C37.4674 58.3613 35.4629 60.3558 35.4629 62.8161C35.4629 65.2765 37.4674 67.2709 39.9401 67.2709Z" fill="#94A86B"/>
<path fill-rule="evenodd" clip-rule="evenodd" d="M39.9399 58.7066C37.6561 58.7066 35.8077 60.5483 35.8077 62.8164C35.8077 65.0846 37.6561 66.9262 39.9399 66.9262C42.2237 66.9262 44.0721 65.0846 44.0721 62.8164C44.0721 60.5483 42.2237 58.7066 39.9399 58.7066ZM35.1177 62.8164C35.1177 60.1639 37.2783 58.0166 39.9399 58.0166C42.6015 58.0166 44.7621 60.1639 44.7621 62.8164C44.7621 65.4689 42.6015 67.6162 39.9399 67.6162C37.2783 67.6162 35.1177 65.4689 35.1177 62.8164Z" fill="#94A86B"/>
<path d="M49.1349 67.2709C51.6076 67.2709 53.6122 65.2765 53.6122 62.8161C53.6122 60.3558 51.6076 58.3613 49.1349 58.3613C46.6622 58.3613 44.6577 60.3558 44.6577 62.8161C44.6577 65.2765 46.6622 67.2709 49.1349 67.2709Z" fill="#94A86B"/>
<path fill-rule="evenodd" clip-rule="evenodd" d="M49.1352 58.7066C46.8514 58.7066 45.003 60.5483 45.003 62.8164C45.003 65.0846 46.8514 66.9262 49.1352 66.9262C51.419 66.9262 53.2674 65.0846 53.2674 62.8164C53.2674 60.5483 51.419 58.7066 49.1352 58.7066ZM44.313 62.8164C44.313 60.1639 46.4736 58.0166 49.1352 58.0166C51.7968 58.0166 53.9574 60.1639 53.9574 62.8164C53.9574 65.4689 51.7968 67.6162 49.1352 67.6162C46.4736 67.6162 44.313 65.4689 44.313 62.8164Z" fill="#94A86B"/>
<path d="M67.0441 67.2709C69.5168 67.2709 71.5213 65.2765 71.5213 62.8161C71.5213 60.3558 69.5168 58.3613 67.0441 58.3613C64.5714 58.3613 62.5669 60.3558 62.5669 62.8161C62.5669 65.2765 64.5714 67.2709 67.0441 67.2709Z" fill="#94A86B"/>
<path fill-rule="evenodd" clip-rule="evenodd" d="M67.0439 58.7066C64.7601 58.7066 62.9117 60.5483 62.9117 62.8164C62.9117 65.0846 64.7601 66.9262 67.0439 66.9262C69.3277 66.9262 71.1761 65.0846 71.1761 62.8164C71.1761 60.5483 69.3277 58.7066 67.0439 58.7066ZM62.2217 62.8164C62.2217 60.1639 64.3823 58.0166 67.0439 58.0166C69.7055 58.0166 71.8661 60.1639 71.8661 62.8164C71.8661 65.4689 69.7055 67.6162 67.0439 67.6162C64.3823 67.6162 62.2217 65.4689 62.2217 62.8164Z" fill="#94A86B"/>
<path d="M30.7369 64.1866C31.4974 64.1866 32.1139 63.5731 32.1139 62.8164C32.1139 62.0597 31.4974 61.4463 30.7369 61.4463C29.9764 61.4463 29.3599 62.0597 29.3599 62.8164C29.3599 63.5731 29.9764 64.1866 30.7369 64.1866Z" fill="black"/>
<path d="M39.94 64.1866C40.7005 64.1866 41.317 63.5731 41.317 62.8164C41.317 62.0597 40.7005 61.4463 39.94 61.4463C39.1795 61.4463 38.563 62.0597 38.563 62.8164C38.563 63.5731 39.1795 64.1866 39.94 64.1866Z" fill="black"/>
<path d="M49.1353 64.1866C49.8958 64.1866 50.5124 63.5731 50.5124 62.8164C50.5124 62.0597 49.8958 61.4463 49.1353 61.4463C48.3748 61.4463 47.7583 62.0597 47.7583 62.8164C47.7583 63.5731 48.3748 64.1866 49.1353 64.1866Z" fill="black"/>
<path d="M58.0895 67.2709C60.5622 67.2709 62.5668 65.2765 62.5668 62.8161C62.5668 60.3558 60.5622 58.3613 58.0895 58.3613C55.6168 58.3613 53.6123 60.3558 53.6123 62.8161C53.6123 65.2765 55.6168 67.2709 58.0895 67.2709Z" fill="#94A86B"/>
<path fill-rule="evenodd" clip-rule="evenodd" d="M58.0898 58.7066C55.806 58.7066 53.9576 60.5483 53.9576 62.8164C53.9576 65.0846 55.806 66.9262 58.0898 66.9262C60.3736 66.9262 62.222 65.0846 62.222 62.8164C62.222 60.5483 60.3736 58.7066 58.0898 58.7066ZM53.2676 62.8164C53.2676 60.1639 55.4282 58.0166 58.0898 58.0166C60.7514 58.0166 62.912 60.1639 62.912 62.8164C62.912 65.4689 60.7514 67.6162 58.0898 67.6162C55.4282 67.6162 53.2676 65.4689 53.2676 62.8164Z" fill="#94A86B"/>
<path d="M58.0894 64.1866C58.8499 64.1866 59.4665 63.5731 59.4665 62.8164C59.4665 62.0597 58.8499 61.4463 58.0894 61.4463C57.3289 61.4463 56.7124 62.0597 56.7124 62.8164C56.7124 63.5731 57.3289 64.1866 58.0894 64.1866Z" fill="black"/>
<path d="M67.044 64.1866C67.8045 64.1866 68.4211 63.5731 68.4211 62.8164C68.4211 62.0597 67.8045 61.4463 67.044 61.4463C66.2835 61.4463 65.667 62.0597 65.667 62.8164C65.667 63.5731 66.2835 64.1866 67.044 64.1866Z" fill="black"/>
<path d="M34.2061 52.7758L39.6916 43.6641H55.629L69.467 49.5788L70.8817 52.8956L34.2061 52.7758Z" fill="black"/>
<path d="M41.8813 43.6643L44.5677 39.1196H53.4243C54.6433 39.1196 55.6291 40.1004 55.6291 41.3133V43.6643H41.8813Z" fill="black"/>
<path d="M47.3895 42.4215L24.2734 38.3185L24.5519 36.7388L47.6679 40.8417L47.3895 42.4215Z" fill="black"/>
<path d="M47.7467 40.3933L41.7969 39.3452L41.3574 41.815L47.3073 42.8631L47.7467 40.3933Z" fill="black"/>
<path d="M27.8634 36.7995L23.2695 35.9902L22.8051 38.6001L27.399 39.4093L27.8634 36.7995Z" fill="black"/>
<path fill-rule="evenodd" clip-rule="evenodd" d="M72.605 53.2036H73.6791L73.6885 53.2176C73.7087 53.2192 73.7275 53.2207 73.7444 53.2221L73.7386 53.2923L74.0032 53.6871L73.6883 53.8981L73.5725 55.295C73.4883 55.2881 73.4327 55.2843 73.3918 55.2837C73.3893 55.284 73.3861 55.2843 73.382 55.2848L73.3594 55.2876L73.327 55.2916C73.3027 55.2946 73.2699 55.2985 73.2329 55.3018L72.6187 55.3574L72.2603 54.8226L72.605 54.5916V53.2036Z" fill="black"/>
<path fill-rule="evenodd" clip-rule="evenodd" d="M20.7427 56.8566C20.7427 54.8323 22.3871 53.2036 24.4088 53.2036H71.5589V55.2836H24.4088C23.526 55.2836 22.8227 55.9909 22.8227 56.8566C22.8227 56.9614 22.8355 57.0766 22.8608 57.1975L20.8249 57.6238C20.775 57.3853 20.7427 57.1261 20.7427 56.8566Z" fill="black"/>
<path fill-rule="evenodd" clip-rule="evenodd" d="M21.4114 58.9492C21.274 58.7575 21.1494 58.5394 21.0532 58.316L22.9635 57.4932C23.0002 57.5782 23.052 57.6687 23.1059 57.7429L23.1161 57.757L23.4194 58.2057L21.696 59.3704L21.4114 58.9492Z" fill="black"/>
<path fill-rule="evenodd" clip-rule="evenodd" d="M75.7954 59.7954L71.3018 66.3572H71.2519C70.4524 67.3008 69.3397 67.9676 68.0727 68.2054L67.9032 68.3038H30.7369C28.8306 68.3038 27.1521 67.3448 26.1602 65.8803L22.2793 60.2228L23.9945 59.0462L27.8812 64.7121C28.4998 65.6268 29.5443 66.2238 30.7369 66.2238H67.3433L67.3636 66.2121L67.5603 66.1828C68.5244 66.0392 69.3547 65.4998 69.8795 64.7309L70.1892 64.2772H70.2053L74.0792 58.6201L75.7954 59.7954Z" fill="black"/>
<path fill-rule="evenodd" clip-rule="evenodd" d="M76.7421 58.3002C76.6358 58.5589 76.5014 58.7762 76.3814 58.9507L76.0879 59.3775L74.374 58.1989L74.6675 57.7722L74.6675 57.7722C74.7431 57.6622 74.7893 57.58 74.8184 57.5093L76.7421 58.3002Z" fill="black"/>
<path fill-rule="evenodd" clip-rule="evenodd" d="M74.4443 53.3691C75.9407 53.8273 77.0385 55.2144 77.0385 56.8643V56.9612L74.9585 56.9616V56.8644C74.9585 56.1634 74.4912 55.5588 73.8354 55.358L74.4443 53.3691Z" fill="black"/>
<path d="M50.9259 23L51.7762 25.6055H54.5303L52.303 27.2152L53.1533 29.8207L50.9259 28.211L48.6986 29.8207L49.5489 27.2152L47.3291 25.6055H50.0756L50.9259 23Z" fill="black"/>
<path d="M68.2856 29.0719L67.3149 31.6325L69.4595 33.3471L66.713 33.2198L65.7347 35.7804L65.0124 33.1374L62.2583 33.0027L64.5609 31.5052L63.8385 28.8623L65.9831 30.5768L68.2856 29.0719Z" fill="black"/>
<path d="M78.0002 44.6224L75.6299 46.015L76.2243 48.6879L74.1626 46.876L71.7923 48.2611L72.8909 45.753L70.8291 43.9336L73.5681 44.2032L74.6667 41.6875L75.2612 44.3604L78.0002 44.6224Z" fill="black"/>
<path d="M33.5662 29.0719L34.5445 31.6325L32.3999 33.3471L35.1464 33.2198L36.1247 35.7804L36.847 33.1374L39.5936 33.0027L37.291 31.5052L38.0134 28.8623L35.8688 30.5768L33.5662 29.0719Z" fill="black"/>
<path d="M23.8521 44.6224L26.2299 46.015L25.6354 48.6879L27.6897 46.876L30.0675 48.2611L28.9689 45.753L31.0231 43.9336L28.2841 44.2032L27.1855 41.6875L26.5911 44.3604L23.8521 44.6224Z" fill="black"/>
<path fill-rule="evenodd" clip-rule="evenodd" d="M65.6671 74.6919H35.3574V73.1919H65.6671V74.6919Z" fill="black"/>
<path fill-rule="evenodd" clip-rule="evenodd" d="M57.4275 78.1885H43.6045V76.6885H57.4275V78.1885Z" fill="black"/>
</g>
</g>
<defs>
<clipPath id="clip0_28_198">
<rect width="100" height="100" fill="white"/>
</clipPath>
<clipPath id="clip1_28_198">
<rect width="57" height="55" fill="white" transform="translate(21 23)"/>
</clipPath>
</defs>
</svg>
