<svg width="100" height="100" viewBox="0 0 100 100" fill="none" xmlns="http://www.w3.org/2000/svg">
<g clip-path="url(#clip0_28_200)">
<path d="M50 0L58.7791 5.86466L69.1342 3.80602L75.0007 12.5839L85.3553 14.6447L87.4161 24.9993L96.194 30.8658L94.1353 41.2209L100 50L94.1353 58.7791L96.194 69.1342L87.4161 75.0007L85.3553 85.3553L75.0007 87.4161L69.1342 96.194L58.7791 94.1353L50 100L41.2209 94.1353L30.8658 96.194L24.9993 87.4161L14.6447 85.3553L12.5839 75.0007L3.80602 69.1342L5.86466 58.7791L0 50L5.86466 41.2209L3.80602 30.8658L12.5839 24.9993L14.6447 14.6447L24.9993 12.5839L30.8658 3.80602L41.2209 5.86466L50 0Z" fill="#FF8A00"/>
<path d="M75.9448 54.1651L75.8256 53.8531C75.7983 53.7887 75.7859 53.7193 75.7511 53.6574L69.8215 38.2466C70.9414 37.7512 71.7285 36.6342 71.7285 35.3314C71.7285 33.5704 70.2933 32.1413 68.5303 32.1413C67.9691 32.1413 67.4179 32.2899 66.9312 32.5723C66.1614 33.0206 65.4736 33.2236 64.8578 33.1865L53.1277 32.5376L49.4998 24C49.1373 24 48.8145 24.2279 48.6953 24.5672L45.9068 32.4359C45.877 32.473 45.8447 32.5077 45.8174 32.5448L33.7643 33.2111C33.1312 33.2557 32.4483 33.0402 31.6735 32.582C31.1844 32.2947 30.6257 32.1411 30.057 32.1411C28.2915 32.1411 26.8588 33.5727 26.8588 35.3312C26.8588 36.7653 27.8173 37.9665 29.1234 38.3678L23.2632 53.6296C23.1962 53.7361 23.1713 53.8575 23.1316 53.9739L23.0571 54.1671C23.0199 54.2661 23 54.3677 23 54.4717C23 58.4941 26.2802 61.7659 30.3128 61.7659C34.3454 61.7659 37.6257 58.4941 37.6257 54.4717C37.6257 54.3677 37.6058 54.2637 37.5685 54.1646L37.4494 53.8525C37.422 53.7881 37.4096 53.7188 37.3749 53.6568L31.4203 38.189C31.4998 38.1518 31.5842 38.132 31.6612 38.0874C32.4334 37.6366 33.1163 37.4459 33.742 37.4682L45.825 38.137C46.0609 38.4391 46.3291 38.7066 46.632 38.9419V65.9516H41.5764C41.1046 65.9516 40.7222 66.333 40.7222 66.8036V70.3875H38.758C38.2862 70.3875 37.9038 70.7689 37.9038 71.2395V74.2959H35.5002C35.0284 74.2959 34.646 74.6773 34.646 75.148C34.646 75.6185 35.0284 76 35.5002 76H64.3517C64.8235 76 65.2059 75.6186 65.2059 75.148C65.2059 74.6774 64.8235 74.2959 64.3517 74.2959H61.9481V71.2395C61.9481 70.769 61.5657 70.3875 61.0938 70.3875H58.4171V66.8036C58.4171 66.333 58.0347 65.9516 57.5628 65.9516H52.2415V38.9419C52.5569 38.6992 52.835 38.4168 53.0783 38.1023L64.8631 37.4856C65.4765 37.4558 66.1643 37.649 66.934 38.0973C67.1153 38.2013 67.314 38.2682 67.5101 38.3351L61.6376 53.6267C61.5705 53.7332 61.5457 53.8546 61.506 53.971L61.4314 54.1642C61.3942 54.2632 61.3743 54.3648 61.3743 54.4688C61.3743 58.4912 64.6546 61.763 68.6872 61.763C72.7198 61.763 76 58.4912 76 54.4688C76 54.3648 75.9826 54.2608 75.9454 54.1642L75.9448 54.1651ZM29.4508 42.2816V51.6238C28.2415 51.6758 26.841 51.8344 25.6491 52.1836L29.4508 42.2816ZM35.8571 54.4771C35.4921 54.8709 33.6397 55.6362 30.3049 55.6362C26.8583 55.6362 25.0084 54.8239 24.7328 54.5638L24.775 54.4523C25.1549 54.056 26.9875 53.3031 30.3049 53.3031C33.6248 53.3031 35.4722 54.061 35.8497 54.4573L35.8571 54.4771ZM34.9732 52.1861C33.7763 51.8368 32.3734 51.6758 31.1591 51.6238V42.274L34.9732 52.1861ZM50.5326 65.9521H48.34V39.775C48.6926 39.8617 49.0577 39.9211 49.4376 39.9211C49.8175 39.9211 50.1801 39.8617 50.5327 39.775L50.5326 65.9521ZM49.4351 38.2171C47.8434 38.2171 46.5472 36.9242 46.5472 35.3366C46.5472 33.7489 47.8434 32.4585 49.4351 32.4585C51.0267 32.4585 52.3205 33.7514 52.3205 35.3366C52.3229 36.9267 51.0267 38.2171 49.4351 38.2171ZM69.5358 42.2716L73.3499 52.1838C72.153 51.8346 70.7501 51.6736 69.5358 51.6216V42.2716ZM67.8249 42.2815V51.6237C66.6157 51.6757 65.2152 51.8342 64.0233 52.1835L67.8249 42.2815ZM68.6816 55.636C65.2351 55.636 63.3852 54.8237 63.1096 54.5636L63.1518 54.4521C63.5317 54.0559 65.3642 53.3029 68.6817 53.3029C72.0016 53.3029 73.849 54.0608 74.2265 54.4571L74.2339 54.4769C73.8664 54.8707 72.0165 55.636 68.6817 55.636L68.6816 55.636Z" fill="black"/>
<path d="M48.5968 15L49.4471 17.6055H52.2012L49.9739 19.2152L50.8242 21.8207L48.5968 20.211L46.3695 21.8207L47.2198 19.2152L45 17.6055H47.7465L48.5968 15Z" fill="black"/>
</g>
<defs>
<clipPath id="clip0_28_200">
<rect width="100" height="100" fill="white"/>
</clipPath>
</defs>
</svg>
