<svg width="100" height="100" viewBox="0 0 100 100" fill="none" xmlns="http://www.w3.org/2000/svg">
<g clip-path="url(#clip0_28_202)">
<path d="M50 0L58.7791 5.86466L69.1342 3.80602L75.0007 12.5839L85.3553 14.6447L87.4161 24.9993L96.194 30.8658L94.1353 41.2209L100 50L94.1353 58.7791L96.194 69.1342L87.4161 75.0007L85.3553 85.3553L75.0007 87.4161L69.1342 96.194L58.7791 94.1353L50 100L41.2209 94.1353L30.8658 96.194L24.9993 87.4161L14.6447 85.3553L12.5839 75.0007L3.80602 69.1342L5.86466 58.7791L0 50L5.86466 41.2209L3.80602 30.8658L12.5839 24.9993L14.6447 14.6447L24.9993 12.5839L30.8658 3.80602L41.2209 5.86466L50 0Z" fill="#676DFF"/>
<path fill-rule="evenodd" clip-rule="evenodd" d="M63.227 26.7622C62.7415 26.7622 62.347 26.3815 62.347 25.9111C62.347 25.4408 62.7415 25.0586 63.227 25.0586C63.7124 25.0586 64.1069 25.4408 64.1069 25.9111C64.1069 26.3815 63.7124 26.7622 63.227 26.7622ZM58.5498 26.7622C58.0643 26.7622 57.6714 26.3815 57.6714 25.9111C57.6714 25.4408 58.0643 25.0586 58.5498 25.0586C59.0353 25.0586 59.4297 25.4408 59.4297 25.9111C59.4297 26.3815 59.0353 26.7622 58.5498 26.7622ZM69.7474 26.1228H68.4427C67.9056 22.1028 64.7273 19 60.8876 19C57.0493 19 53.871 22.1028 53.334 26.1228H52.0293V28.5172H53.334C53.871 32.5372 57.0493 35.64 60.8876 35.64C64.7273 35.64 67.9056 32.5372 68.4427 28.5172H69.7474V26.1228Z" fill="black"/>
<path fill-rule="evenodd" clip-rule="evenodd" d="M41.5101 26.7622C41.0246 26.7622 40.6317 26.3815 40.6317 25.9111C40.6317 25.4408 41.0246 25.0586 41.5101 25.0586C41.9956 25.0586 42.39 25.4408 42.39 25.9111C42.39 26.3815 41.9956 26.7622 41.5101 26.7622ZM36.8329 26.7622C36.3474 26.7622 35.9545 26.3815 35.9545 25.9111C35.9545 25.4408 36.3474 25.0586 36.8329 25.0586C37.3183 25.0586 37.7128 25.4408 37.7128 25.9111C37.7128 26.3815 37.3183 26.7622 36.8329 26.7622ZM48.0305 26.1228H46.7258C46.1903 22.1028 43.012 19 39.1723 19C35.3325 19 32.1542 22.1028 31.6171 26.1228H30.314V28.5172H31.6171C32.1542 32.5372 35.3325 35.64 39.1723 35.64C43.012 35.64 46.1888 32.5372 46.7258 28.5172H48.0305V26.1228Z" fill="black"/>
<path fill-rule="evenodd" clip-rule="evenodd" d="M30.1376 43.7964C29.6521 43.7964 29.2592 43.4157 29.2592 42.9439C29.2592 42.475 29.6521 42.0929 30.1376 42.0929C30.623 42.0929 31.0175 42.475 31.0175 42.9439C31.0175 43.4157 30.623 43.7964 30.1376 43.7964ZM25.4603 43.7964C24.9748 43.7964 24.5819 43.4157 24.5819 42.9439C24.5819 42.475 24.9748 42.0929 25.4603 42.0929C25.9458 42.0929 26.3402 42.475 26.3402 42.9439C26.3402 43.4157 25.9458 43.7964 25.4603 43.7964ZM36.658 43.157H35.3533C34.8162 39.1355 31.6395 36.0327 27.7997 36.0327C23.9599 36.0327 20.7816 39.1355 20.2446 43.157H18.9414V45.5499H20.2446C20.7816 49.5714 23.9599 52.6742 27.7997 52.6742C31.6395 52.6742 34.8178 49.5714 35.3533 45.5499H36.658V43.157Z" fill="black"/>
<path fill-rule="evenodd" clip-rule="evenodd" d="M74.5995 43.7964C74.114 43.7964 73.7196 43.4157 73.7196 42.9439C73.7196 42.475 74.114 42.0929 74.5995 42.0929C75.085 42.0929 75.4794 42.475 75.4794 42.9439C75.4794 43.4157 75.085 43.7964 74.5995 43.7964ZM69.9222 43.7964C69.4367 43.7964 69.0438 43.4157 69.0438 42.9439C69.0438 42.475 69.4367 42.0929 69.9222 42.0929C70.4077 42.0929 70.8021 42.475 70.8021 42.9439C70.8021 43.4157 70.4077 43.7964 69.9222 43.7964ZM81.12 43.157H79.8153C79.2782 39.1355 76.0999 36.0327 72.2601 36.0327C68.4219 36.0327 65.2436 39.1355 64.7066 43.157H63.4019V45.5499H64.7066C65.2436 49.5714 68.4219 52.6742 72.2601 52.6742C76.0999 52.6742 79.2782 49.5714 79.8153 45.5499H81.12V43.157Z" fill="black"/>
<path fill-rule="evenodd" clip-rule="evenodd" d="M55.9599 52.4722C55.7323 52.6971 55.4926 52.9087 55.2423 53.1086C54.5915 53.626 53.8648 54.0346 53.0941 54.3477L51.0642 57.7548L53.2701 61.4558L50.0296 76.2864L46.7906 61.4558L48.9949 57.7548L46.9651 54.3462C46.1944 54.0346 45.4677 53.626 44.8169 53.1086C44.5665 52.9087 44.3284 52.6971 44.1008 52.4722L43.4363 55.5867L30.8096 59.7905V79.9551C31.1858 80.158 31.5651 80.3549 31.9474 80.5475V60.5783L44.0583 56.5451L50.0296 81.2074L56.0009 56.5451L68.1118 60.5783V80.5475C68.4956 80.3549 68.8749 80.158 69.2496 79.9551V59.7905L56.6229 55.5867L55.9599 52.4722Z" fill="black"/>
<path fill-rule="evenodd" clip-rule="evenodd" d="M21.8886 56.6992L13 59.6594C13.129 60.0063 13.2716 60.3458 13.4111 60.6868L22.8717 57.537L23.7031 53.6331L22.5895 53.4097L21.8886 56.6992Z" fill="black"/>
<path fill-rule="evenodd" clip-rule="evenodd" d="M33.5418 57.0073L32.7757 53.4106L31.6621 53.6326L32.4282 57.2293L33.5418 57.0073Z" fill="black"/>
<path fill-rule="evenodd" clip-rule="evenodd" d="M78.1714 56.6992L77.4705 53.4097L76.3569 53.6331L77.1883 57.537L86.6489 60.6868C86.7884 60.3458 86.9311 60.0063 87.0615 59.6594L78.1714 56.6992Z" fill="black"/>
<path fill-rule="evenodd" clip-rule="evenodd" d="M68.3993 53.6326L67.2857 53.4106L66.5181 57.0073L67.6331 57.2293L68.3993 53.6326Z" fill="black"/>
<path fill-rule="evenodd" clip-rule="evenodd" d="M52.369 44.9863C51.8836 44.9863 51.4891 44.6056 51.4891 44.1353C51.4891 43.6649 51.8836 43.2828 52.369 43.2828C52.8545 43.2828 53.2474 43.6649 53.2474 44.1353C53.2474 44.6056 52.8545 44.9863 52.369 44.9863ZM47.6918 44.9863C47.2063 44.9863 46.8119 44.6056 46.8119 44.1353C46.8119 43.6649 47.2063 43.2828 47.6918 43.2828C48.1773 43.2828 48.5717 43.6649 48.5717 44.1353C48.5717 44.6056 48.1773 44.9863 47.6918 44.9863ZM58.888 44.3469H57.5848C57.0477 40.3269 53.8694 37.2241 50.0297 37.2241C46.1914 37.2241 43.0131 40.3269 42.4761 44.3469H41.1714V46.7398H42.4761C43.0131 50.7613 46.1914 53.8641 50.0297 53.8641C53.8694 53.8641 57.0477 50.7613 57.5848 46.7398H58.888V44.3469Z" fill="black"/>
</g>
<defs>
<clipPath id="clip0_28_202">
<rect width="100" height="100" fill="white"/>
</clipPath>
</defs>
</svg>
