<svg width="180" height="180" viewBox="0 0 180 180" fill="none" xmlns="http://www.w3.org/2000/svg">
<rect x="2" y="2" width="176" height="176" fill="#676DFF"/>
<path fill-rule="evenodd" clip-rule="evenodd" d="M102.022 68.0458C99.3926 68.0458 97.256 65.9838 97.256 63.436C97.256 60.8882 99.3926 58.8182 102.022 58.8182C104.652 58.8182 106.78 60.8882 106.78 63.436C106.78 65.9838 104.652 68.0458 102.022 68.0458V68.0458ZM76.6877 68.0458C74.058 68.0458 71.9214 65.9838 71.9214 63.436C71.9214 60.8882 74.058 58.8182 76.6877 58.8182C79.3174 58.8182 81.454 60.8882 81.454 63.436C81.454 65.9838 79.3174 68.0458 76.6877 68.0458V68.0458ZM137.334 64.5826H130.275C127.366 42.8073 110.15 26 89.3505 26C68.5596 26 51.3435 42.8073 48.4344 64.5826H41.3672V77.5444H48.4344C51.3435 99.3277 68.5596 116.135 89.3505 116.135C110.15 116.135 127.366 99.3277 130.275 77.5444H137.334V64.5826Z" fill="black"/>
<path fill-rule="evenodd" clip-rule="evenodd" d="M11.9219 162H7V136.392L61.6202 121.962L64.4946 111.27C65.479 112.042 66.5093 112.769 67.5921 113.455C70.4074 115.231 73.5509 116.634 76.8847 117.703L85.6654 129.404L76.13 142.109L81.6043 162H75.523L64.3108 125.251L11.9219 139.097V162ZM168.36 162V139.097L115.971 125.251L104.759 162H98.6818L104.159 142.109L94.6167 129.404L103.397 117.708C106.731 116.634 109.875 115.231 112.69 113.455C113.773 112.769 114.81 112.042 115.794 111.27L118.662 121.962L173.282 136.392V162H168.36Z" fill="black"/>
<rect x="2" y="2" width="176" height="176" stroke="#676DFF" stroke-width="4"/>
</svg>
