<svg width="20" height="20" viewBox="0 0 20 20" fill="none" xmlns="http://www.w3.org/2000/svg">
<path fill-rule="evenodd" clip-rule="evenodd" d="M17.1673 14.4989C17.1149 14.5521 17.0527 14.5943 16.9841 14.6231C16.9156 14.6519 16.8422 14.6667 16.768 14.6667C16.6938 14.6667 16.6203 14.6519 16.5518 14.6231C16.4833 14.5943 16.421 14.5521 16.3686 14.4989L9.99953 8.04684L3.63043 14.4989C3.57798 14.552 3.51573 14.5942 3.44721 14.6229C3.37869 14.6517 3.30525 14.6664 3.23109 14.6664C3.15693 14.6664 3.08349 14.6517 3.01497 14.6229C2.94645 14.5942 2.88419 14.552 2.83175 14.4989C2.77931 14.4458 2.73771 14.3827 2.70933 14.3133C2.68095 14.2439 2.66634 14.1696 2.66634 14.0944C2.66634 14.0193 2.68095 13.9449 2.70933 13.8755C2.73771 13.8061 2.77931 13.7431 2.83175 13.69L9.60019 6.83458C9.65258 6.78138 9.71483 6.73917 9.78335 6.71037C9.85187 6.68157 9.92534 6.66675 9.99953 6.66675C10.0737 6.66675 10.1472 6.68157 10.2157 6.71037C10.2842 6.73917 10.3465 6.78138 10.3989 6.83458L17.1673 13.69C17.2198 13.743 17.2615 13.8061 17.2899 13.8755C17.3184 13.9449 17.333 14.0193 17.333 14.0944C17.333 14.1696 17.3184 14.244 17.2899 14.3134C17.2615 14.3828 17.2198 14.4458 17.1673 14.4989Z" fill="black"/>
</svg>
