<svg width="1280" height="832" viewBox="0 0 1280 832" fill="none" xmlns="http://www.w3.org/2000/svg">
<rect width="1280" height="832" fill="black"/>
<circle cx="633" cy="118" r="30" fill="#F92D46"/>
<rect x="621.947" y="115" width="21.0526" height="5.26316" fill="black"/>
<circle cx="109" cy="433" r="30" fill="#F92D46"/>
<rect x="97.9473" y="430" width="21.0526" height="5.26316" fill="black"/>
<circle cx="1170" cy="449" r="30" fill="#F92D46"/>
<rect x="1158.95" y="446" width="21.0526" height="5.26316" fill="black"/>
<circle cx="327" cy="209" r="30" fill="#84DBCB"/>
<rect x="316" y="205.895" width="21.0526" height="5.26316" fill="black"/>
<rect x="329.158" y="198" width="21.0526" height="5.26316" transform="rotate(90 329.158 198)" fill="black"/>
<circle cx="944" cy="237" r="30" fill="#84DBCB"/>
<rect x="933" y="233.895" width="21.0526" height="5.26316" fill="black"/>
<rect x="946.158" y="226" width="21.0526" height="5.26316" transform="rotate(90 946.158 226)" fill="black"/>
<path d="M226.837 264.998L252.228 272.321L238.325 294.793L238.171 295.042L238.312 295.298L251.089 318.429L225.367 324.489L225.083 324.556L225.002 324.837L217.679 350.228L195.207 336.325L194.958 336.171L194.702 336.312L171.571 349.089L165.511 323.367L165.444 323.083L165.163 323.002L139.772 315.679L153.675 293.207L153.829 292.958L153.688 292.702L140.911 269.571L166.633 263.511L166.917 263.444L166.998 263.163L174.321 237.772L196.793 251.675L197.042 251.829L197.298 251.688L220.429 238.911L226.489 264.633L226.556 264.917L226.837 264.998Z" fill="white" stroke="black"/>
<path d="M177.473 301.7L178.763 305.651" stroke="black" stroke-width="0.75" stroke-linecap="round" stroke-linejoin="round"/>
<path d="M195.142 307.609C195.156 307.52 194.881 307.4 194.527 307.34C194.172 307.281 193.873 307.304 193.858 307.393C193.843 307.481 194.118 307.602 194.473 307.661C194.827 307.721 195.127 307.697 195.142 307.609Z" stroke="black" stroke-width="0.75" stroke-linecap="round" stroke-linejoin="round"/>
<path d="M194.522 307.406C194.953 307.511 195.352 307.718 195.685 308.011C196.126 308.381 196.678 308.593 197.254 308.615" stroke="black" stroke-width="0.75" stroke-linecap="round" stroke-linejoin="round"/>
<path d="M200.108 307.739C200.463 307.68 200.738 307.559 200.723 307.471C200.708 307.382 200.409 307.359 200.054 307.418C199.7 307.478 199.425 307.598 199.44 307.687C199.454 307.775 199.754 307.799 200.108 307.739Z" stroke="black" stroke-width="0.75" stroke-linecap="round" stroke-linejoin="round"/>
<path d="M200.112 307.406C199.682 307.511 199.283 307.718 198.95 308.011C198.505 308.382 197.949 308.595 197.37 308.615" stroke="black" stroke-width="0.75" stroke-linecap="round" stroke-linejoin="round"/>
<path d="M191.814 307.406C191.814 307.406 190.977 306.442 192.605 304.756" stroke="black" stroke-width="0.5" stroke-linecap="round" stroke-linejoin="round"/>
<path d="M190.815 314.646H203.82" stroke="black" stroke-width="0.5" stroke-linecap="round" stroke-linejoin="round"/>
<path d="M191.698 314.646C191.698 314.646 195.336 316.971 197.312 316.971C199.389 316.827 201.363 316.011 202.937 314.646" fill="black"/>
<path d="M191.698 314.646C191.698 314.646 195.336 316.971 197.312 316.971C199.389 316.827 201.363 316.011 202.937 314.646" stroke="black" stroke-width="0.5" stroke-linecap="round" stroke-linejoin="round"/>
<path d="M202.855 314.646C201.356 314.646 199.496 311.973 197.311 313.31C195.138 311.973 193.43 314.646 191.779 314.646" fill="black"/>
<path d="M202.855 314.646C201.356 314.646 199.496 311.973 197.311 313.31C195.138 311.973 193.43 314.646 191.779 314.646" stroke="black" stroke-width="0.5" stroke-linecap="round" stroke-linejoin="round"/>
<path d="M183.807 295.854C183.807 295.854 189.42 292.495 192.105 296.447" stroke="black" stroke-width="0.75" stroke-linecap="round" stroke-linejoin="round"/>
<path d="M188.711 296.923C189.295 296.923 189.769 296.449 189.769 295.865C189.769 295.281 189.295 294.808 188.711 294.808C188.127 294.808 187.654 295.281 187.654 295.865C187.654 296.449 188.127 296.923 188.711 296.923Z" fill="black" stroke="black" stroke-width="0.75" stroke-linecap="round" stroke-linejoin="round"/>
<path d="M210.828 295.854C210.828 295.854 205.214 292.495 202.53 296.447" stroke="black" stroke-width="0.75" stroke-linecap="round" stroke-linejoin="round"/>
<path d="M205.923 296.923C206.507 296.923 206.981 296.449 206.981 295.865C206.981 295.281 206.507 294.808 205.923 294.808C205.339 294.808 204.866 295.281 204.866 295.865C204.866 296.449 205.339 296.923 205.923 296.923Z" fill="black" stroke="black" stroke-width="0.75" stroke-linecap="round" stroke-linejoin="round"/>
<path d="M181.68 291.809C181.68 291.809 185.295 288.985 193 291.809L192.105 290.357C192.105 290.357 186.619 289.485 186.073 289.485C184.551 290.145 183.082 290.922 181.68 291.809Z" fill="black" stroke="black" stroke-width="0.75" stroke-linecap="round" stroke-linejoin="round"/>
<path d="M197.311 274.807C218.231 274.807 217.15 301.688 217.15 301.688C217.15 301.688 218.637 300.41 219.474 301.002C220.311 301.595 219.776 303.269 218.312 305.058C216.848 306.848 216.685 311.474 214.314 310.486C212.633 314.789 210.149 318.734 206.992 322.108C202.053 327.14 198.462 327.245 197.335 327.245C196.207 327.245 192.686 327.14 187.688 322.108C184.532 318.734 182.047 314.789 180.367 310.486C178.042 311.474 177.798 306.837 176.369 305.058C174.939 303.28 174.439 301.572 175.206 301.002C175.973 300.433 177.531 301.688 177.531 301.688C177.531 301.688 176.427 274.807 197.311 274.807Z" stroke="black" stroke-width="0.75" stroke-linecap="round" stroke-linejoin="round"/>
<path d="M217.15 301.7L215.872 305.651" stroke="black" stroke-width="0.75" stroke-linecap="round" stroke-linejoin="round"/>
<path d="M202.82 307.406C202.82 307.406 203.657 306.442 202.03 304.756" stroke="black" stroke-width="0.5" stroke-linecap="round" stroke-linejoin="round"/>
<path d="M212.954 291.809C212.954 291.809 209.34 288.985 201.635 291.809L202.53 290.357C202.53 290.357 208.015 289.485 208.561 289.485C210.084 290.145 211.552 290.922 212.954 291.809Z" fill="black" stroke="black" stroke-width="0.75" stroke-linecap="round" stroke-linejoin="round"/>
<path d="M177.822 302.757C178.054 295.412 180.971 274.807 197.311 274.807C215.36 274.807 216.685 297.016 216.801 302.478L219.126 300.491C220.172 299.224 222.24 291.81 219.788 279.293C217.196 266.067 203.808 264.707 203.808 264.707C191.198 255.514 177.659 262.952 174.149 273.319C167.129 294.099 177.368 302.537 177.822 302.757Z" fill="black" stroke="black" stroke-width="0.75" stroke-linecap="round" stroke-linejoin="round"/>
<path d="M181.68 287.997C196.44 256.99 202.228 274.156 202.228 274.156" stroke="white" stroke-width="0.5" stroke-linecap="round" stroke-linejoin="round"/>
<path d="M178.763 313.263C179.283 313.263 179.705 312.842 179.705 312.322C179.705 311.802 179.283 311.381 178.763 311.381C178.243 311.381 177.822 311.802 177.822 312.322C177.822 312.842 178.243 313.263 178.763 313.263Z" fill="black" stroke="black" stroke-width="0.75" stroke-linecap="round" stroke-linejoin="round"/>
<path d="M215.872 313.263C216.391 313.263 216.813 312.842 216.813 312.322C216.813 311.802 216.391 311.381 215.872 311.381C215.352 311.381 214.93 311.802 214.93 312.322C214.93 312.842 215.352 313.263 215.872 313.263Z" fill="black" stroke="black" stroke-width="0.75" stroke-linecap="round" stroke-linejoin="round"/>
<path d="M176.043 302.479C176.59 302.672 177.089 302.979 177.508 303.38C177.926 303.78 178.255 304.266 178.472 304.803" stroke="black" stroke-width="0.5" stroke-linecap="round" stroke-linejoin="round"/>
<path d="M218.591 302.479C218.045 302.672 217.546 302.979 217.127 303.38C216.708 303.78 216.379 304.266 216.162 304.803" stroke="black" stroke-width="0.5" stroke-linecap="round" stroke-linejoin="round"/>
<path d="M1113.84 294.998L1139.23 302.321L1125.32 324.793L1125.17 325.042L1125.31 325.298L1138.09 348.429L1112.37 354.489L1112.08 354.556L1112 354.837L1104.68 380.228L1082.21 366.325L1081.96 366.171L1081.7 366.312L1058.57 379.089L1052.51 353.367L1052.44 353.083L1052.16 353.002L1026.77 345.679L1040.68 323.207L1040.83 322.958L1040.69 322.702L1027.91 299.571L1053.63 293.511L1053.92 293.444L1054 293.163L1061.32 267.772L1083.79 281.675L1084.04 281.829L1084.3 281.688L1107.43 268.911L1113.49 294.633L1113.56 294.917L1113.84 294.998Z" fill="white" stroke="black"/>
<path d="M1064.47 331.7L1065.76 335.651" stroke="black" stroke-width="0.75" stroke-linecap="round" stroke-linejoin="round"/>
<path d="M1082.14 337.609C1082.16 337.52 1081.88 337.4 1081.53 337.34C1081.17 337.281 1080.87 337.304 1080.86 337.393C1080.84 337.481 1081.12 337.602 1081.47 337.661C1081.83 337.721 1082.13 337.697 1082.14 337.609Z" stroke="black" stroke-width="0.75" stroke-linecap="round" stroke-linejoin="round"/>
<path d="M1081.52 337.406C1081.95 337.511 1082.35 337.718 1082.68 338.011C1083.13 338.381 1083.68 338.593 1084.25 338.615" stroke="black" stroke-width="0.75" stroke-linecap="round" stroke-linejoin="round"/>
<path d="M1087.11 337.739C1087.46 337.68 1087.74 337.559 1087.72 337.471C1087.71 337.382 1087.41 337.359 1087.05 337.418C1086.7 337.478 1086.42 337.598 1086.44 337.687C1086.45 337.775 1086.75 337.799 1087.11 337.739Z" stroke="black" stroke-width="0.75" stroke-linecap="round" stroke-linejoin="round"/>
<path d="M1087.11 337.406C1086.68 337.511 1086.28 337.718 1085.95 338.011C1085.51 338.382 1084.95 338.595 1084.37 338.615" stroke="black" stroke-width="0.75" stroke-linecap="round" stroke-linejoin="round"/>
<path d="M1078.81 337.406C1078.81 337.406 1077.98 336.442 1079.6 334.756" stroke="black" stroke-width="0.5" stroke-linecap="round" stroke-linejoin="round"/>
<path d="M1077.81 344.646H1090.82" stroke="black" stroke-width="0.5" stroke-linecap="round" stroke-linejoin="round"/>
<path d="M1078.7 344.646C1078.7 344.646 1082.34 346.971 1084.31 346.971C1086.39 346.827 1088.36 346.011 1089.94 344.646" fill="black"/>
<path d="M1078.7 344.646C1078.7 344.646 1082.34 346.971 1084.31 346.971C1086.39 346.827 1088.36 346.011 1089.94 344.646" stroke="black" stroke-width="0.5" stroke-linecap="round" stroke-linejoin="round"/>
<path d="M1089.85 344.646C1088.36 344.646 1086.5 341.973 1084.31 343.31C1082.14 341.973 1080.43 344.646 1078.78 344.646" fill="black"/>
<path d="M1089.85 344.646C1088.36 344.646 1086.5 341.973 1084.31 343.31C1082.14 341.973 1080.43 344.646 1078.78 344.646" stroke="black" stroke-width="0.5" stroke-linecap="round" stroke-linejoin="round"/>
<path d="M1070.81 325.854C1070.81 325.854 1076.42 322.495 1079.1 326.447" stroke="black" stroke-width="0.75" stroke-linecap="round" stroke-linejoin="round"/>
<path d="M1075.71 326.923C1076.3 326.923 1076.77 326.449 1076.77 325.865C1076.77 325.281 1076.3 324.808 1075.71 324.808C1075.13 324.808 1074.65 325.281 1074.65 325.865C1074.65 326.449 1075.13 326.923 1075.71 326.923Z" fill="black" stroke="black" stroke-width="0.75" stroke-linecap="round" stroke-linejoin="round"/>
<path d="M1097.83 325.854C1097.83 325.854 1092.21 322.495 1089.53 326.447" stroke="black" stroke-width="0.75" stroke-linecap="round" stroke-linejoin="round"/>
<path d="M1092.92 326.923C1093.51 326.923 1093.98 326.449 1093.98 325.865C1093.98 325.281 1093.51 324.808 1092.92 324.808C1092.34 324.808 1091.87 325.281 1091.87 325.865C1091.87 326.449 1092.34 326.923 1092.92 326.923Z" fill="black" stroke="black" stroke-width="0.75" stroke-linecap="round" stroke-linejoin="round"/>
<path d="M1068.68 321.809C1068.68 321.809 1072.29 318.985 1080 321.809L1079.11 320.357C1079.11 320.357 1073.62 319.485 1073.07 319.485C1071.55 320.145 1070.08 320.922 1068.68 321.809Z" fill="black" stroke="black" stroke-width="0.75" stroke-linecap="round" stroke-linejoin="round"/>
<path d="M1084.31 304.807C1105.23 304.807 1104.15 331.688 1104.15 331.688C1104.15 331.688 1105.64 330.41 1106.47 331.002C1107.31 331.595 1106.78 333.269 1105.31 335.058C1103.85 336.848 1103.68 341.474 1101.31 340.486C1099.63 344.789 1097.15 348.734 1093.99 352.108C1089.05 357.14 1085.46 357.245 1084.33 357.245C1083.21 357.245 1079.69 357.14 1074.69 352.108C1071.53 348.734 1069.05 344.789 1067.37 340.486C1065.04 341.474 1064.8 336.837 1063.37 335.058C1061.94 333.28 1061.44 331.572 1062.21 331.002C1062.97 330.433 1064.53 331.688 1064.53 331.688C1064.53 331.688 1063.43 304.807 1084.31 304.807Z" stroke="black" stroke-width="0.75" stroke-linecap="round" stroke-linejoin="round"/>
<path d="M1104.15 331.7L1102.87 335.651" stroke="black" stroke-width="0.75" stroke-linecap="round" stroke-linejoin="round"/>
<path d="M1089.82 337.406C1089.82 337.406 1090.66 336.442 1089.03 334.756" stroke="black" stroke-width="0.5" stroke-linecap="round" stroke-linejoin="round"/>
<path d="M1099.95 321.809C1099.95 321.809 1096.34 318.985 1088.63 321.809L1089.53 320.357C1089.53 320.357 1095.02 319.485 1095.56 319.485C1097.08 320.145 1098.55 320.922 1099.95 321.809Z" fill="black" stroke="black" stroke-width="0.75" stroke-linecap="round" stroke-linejoin="round"/>
<path d="M1064.82 332.757C1065.05 325.412 1067.97 304.807 1084.31 304.807C1102.36 304.807 1103.69 327.016 1103.8 332.478L1106.13 330.491C1107.17 329.224 1109.24 321.81 1106.79 309.293C1104.2 296.067 1090.81 294.707 1090.81 294.707C1078.2 285.514 1064.66 292.952 1061.15 303.319C1054.13 324.099 1064.37 332.537 1064.82 332.757Z" fill="black" stroke="black" stroke-width="0.75" stroke-linecap="round" stroke-linejoin="round"/>
<path d="M1068.68 317.997C1083.44 286.99 1089.23 304.156 1089.23 304.156" stroke="white" stroke-width="0.5" stroke-linecap="round" stroke-linejoin="round"/>
<path d="M1065.76 343.263C1066.28 343.263 1066.7 342.842 1066.7 342.322C1066.7 341.802 1066.28 341.381 1065.76 341.381C1065.24 341.381 1064.82 341.802 1064.82 342.322C1064.82 342.842 1065.24 343.263 1065.76 343.263Z" fill="black" stroke="black" stroke-width="0.75" stroke-linecap="round" stroke-linejoin="round"/>
<path d="M1102.87 343.263C1103.39 343.263 1103.81 342.842 1103.81 342.322C1103.81 341.802 1103.39 341.381 1102.87 341.381C1102.35 341.381 1101.93 341.802 1101.93 342.322C1101.93 342.842 1102.35 343.263 1102.87 343.263Z" fill="black" stroke="black" stroke-width="0.75" stroke-linecap="round" stroke-linejoin="round"/>
<path d="M1063.04 332.479C1063.59 332.672 1064.09 332.979 1064.51 333.38C1064.93 333.78 1065.26 334.266 1065.47 334.803" stroke="black" stroke-width="0.5" stroke-linecap="round" stroke-linejoin="round"/>
<path d="M1105.59 332.479C1105.04 332.672 1104.55 332.979 1104.13 333.38C1103.71 333.78 1103.38 334.266 1103.16 334.803" stroke="black" stroke-width="0.5" stroke-linecap="round" stroke-linejoin="round"/>
<path d="M507.837 125.998L533.228 133.321L519.325 155.793L519.171 156.042L519.312 156.298L532.089 179.429L506.367 185.489L506.083 185.556L506.002 185.837L498.679 211.228L476.207 197.325L475.958 197.171L475.702 197.312L452.571 210.089L446.511 184.367L446.444 184.083L446.163 184.002L420.772 176.679L434.675 154.207L434.829 153.958L434.688 153.702L421.911 130.571L447.633 124.511L447.917 124.444L447.998 124.163L455.321 98.7721L477.793 112.675L478.042 112.829L478.298 112.688L501.429 99.9112L507.489 125.633L507.556 125.917L507.837 125.998Z" fill="white" stroke="black"/>
<path d="M459.343 151.336L458.881 160.588" stroke="black" stroke-width="0.75" stroke-linecap="round" stroke-linejoin="round"/>
<path d="M495.188 151.336L496.191 159.856" stroke="black" stroke-width="0.75" stroke-linecap="round" stroke-linejoin="round"/>
<path d="M475.589 163.298C475.582 163.415 475.551 163.53 475.499 163.635C475.447 163.741 475.374 163.835 475.286 163.912C475.197 163.989 475.094 164.049 474.983 164.086C474.871 164.124 474.753 164.139 474.636 164.131C474.52 164.143 474.402 164.131 474.29 164.096C474.179 164.06 474.076 164.001 473.989 163.923C473.902 163.845 473.832 163.749 473.784 163.642C473.737 163.535 473.712 163.42 473.712 163.303C473.712 163.185 473.737 163.07 473.784 162.963C473.832 162.856 473.902 162.76 473.989 162.682C474.076 162.604 474.179 162.545 474.29 162.51C474.402 162.474 474.52 162.462 474.636 162.475C474.871 162.458 475.104 162.535 475.282 162.69C475.461 162.844 475.571 163.062 475.589 163.298Z" fill="black"/>
<path d="M473.773 150.834C474.477 151.745 474.906 152.839 475.007 153.985" stroke="black" stroke-width="0.5" stroke-linecap="round" stroke-linejoin="round"/>
<path d="M480.757 150.834C480.053 151.745 479.625 152.839 479.523 153.985" stroke="black" stroke-width="0.5" stroke-linecap="round" stroke-linejoin="round"/>
<path d="M489.408 153.132C489.408 153.132 485.303 151.336 482.152 153.132" stroke="black" stroke-width="0.75" stroke-linecap="round" stroke-linejoin="round"/>
<path d="M490.361 149.981C489.608 149.66 488.033 149.419 485.574 148.797L479.875 147.332L480.396 145.486C481.641 145.837 485.042 146.78 485.855 146.901C487.066 147.228 488.253 147.637 489.408 148.125L490.361 149.981Z" fill="black"/>
<path d="M465.173 153.514C465.173 153.514 469.047 151.336 472.429 153.514" stroke="black" stroke-width="0.75" stroke-linecap="round" stroke-linejoin="round"/>
<path d="M469.779 153.704C469.779 153.903 469.721 154.097 469.61 154.262C469.5 154.427 469.343 154.555 469.16 154.631C468.977 154.707 468.775 154.727 468.58 154.688C468.386 154.65 468.207 154.554 468.066 154.414C467.926 154.273 467.83 154.095 467.792 153.9C467.753 153.705 467.773 153.504 467.849 153.32C467.925 153.137 468.053 152.98 468.218 152.87C468.383 152.76 468.577 152.701 468.776 152.701C469.042 152.701 469.297 152.806 469.486 152.995C469.674 153.183 469.779 153.438 469.779 153.704Z" fill="black" stroke="black" stroke-width="0.75" stroke-linecap="round" stroke-linejoin="round"/>
<path d="M486.146 153.704C486.146 153.903 486.087 154.097 485.977 154.262C485.867 154.427 485.71 154.555 485.527 154.631C485.343 154.707 485.142 154.727 484.947 154.688C484.752 154.65 484.573 154.554 484.433 154.414C484.293 154.273 484.197 154.095 484.158 153.9C484.12 153.705 484.14 153.504 484.216 153.32C484.291 153.137 484.42 152.98 484.585 152.87C484.75 152.76 484.944 152.701 485.143 152.701C485.409 152.701 485.664 152.806 485.852 152.995C486.04 153.183 486.146 153.438 486.146 153.704Z" fill="black" stroke="black" stroke-width="0.75" stroke-linecap="round" stroke-linejoin="round"/>
<path d="M463.327 150.423L464.331 148.265C465.668 147.512 467.148 147.047 468.676 146.901C469.729 146.74 474.145 145.486 474.145 145.486L474.396 147.131C472.697 148.008 470.855 148.572 468.957 148.797C467.016 149.087 465.123 149.633 463.327 150.423Z" fill="black"/>
<path d="M471.104 171.617C475.073 170.09 479.468 170.09 483.437 171.617" stroke="black" stroke-width="0.75" stroke-linecap="round" stroke-linejoin="round"/>
<path d="M499.292 157.327C497.184 158.25 496.281 163.84 496.281 163.84" stroke="black" stroke-width="0.5" stroke-linecap="round" stroke-linejoin="round"/>
<path d="M472.579 161.411C472.579 161.411 470.211 163.819 473.262 165.425" stroke="black" stroke-width="0.5" stroke-linecap="round" stroke-linejoin="round"/>
<path d="M478.941 163.298C478.948 163.42 478.98 163.539 479.036 163.648C479.091 163.757 479.168 163.854 479.262 163.932C479.356 164.01 479.465 164.068 479.583 164.102C479.7 164.136 479.823 164.146 479.944 164.131C480.061 164.144 480.179 164.132 480.29 164.096C480.402 164.06 480.504 164.001 480.591 163.923C480.679 163.845 480.748 163.749 480.796 163.643C480.844 163.536 480.869 163.42 480.869 163.303C480.869 163.186 480.844 163.07 480.796 162.963C480.748 162.856 480.679 162.761 480.591 162.682C480.504 162.604 480.402 162.545 480.29 162.51C480.179 162.474 480.061 162.462 479.944 162.475C479.824 162.46 479.702 162.469 479.585 162.503C479.468 162.536 479.359 162.593 479.265 162.67C479.172 162.747 479.094 162.843 479.039 162.951C478.983 163.058 478.95 163.177 478.941 163.298Z" fill="black"/>
<path d="M481.962 161.411C481.962 161.411 484.32 163.819 480.858 165.425" stroke="black" stroke-width="0.5" stroke-linecap="round" stroke-linejoin="round"/>
<path d="M477.265 143.389V147.051" stroke="black" stroke-width="0.5" stroke-linecap="round" stroke-linejoin="round"/>
<path d="M471.796 163.107L468.635 173.232" stroke="black" stroke-width="0.5" stroke-linecap="round" stroke-linejoin="round"/>
<path d="M482.734 163.107L485.905 173.232" stroke="black" stroke-width="0.5" stroke-linecap="round" stroke-linejoin="round"/>
<path d="M475.017 155.942V157.949C475.013 158.452 474.82 158.936 474.475 159.304L473.261 160.568" stroke="black" stroke-width="0.5" stroke-linecap="round" stroke-linejoin="round"/>
<path d="M476.091 172.981H478.941" stroke="black" stroke-width="0.5" stroke-linecap="round" stroke-linejoin="round"/>
<path d="M496.271 162.375V165.315" stroke="black" stroke-width="0.5" stroke-linecap="round" stroke-linejoin="round"/>
<path d="M455.239 157.327C457.416 158.25 458.249 163.84 458.249 163.84" stroke="black" stroke-width="0.5" stroke-linecap="round" stroke-linejoin="round"/>
<path d="M458.259 162.375V165.315" stroke="black" stroke-width="0.5" stroke-linecap="round" stroke-linejoin="round"/>
<path d="M477.265 184.08C477.265 184.08 465.565 184.923 461.731 177.417C460.778 175.155 460.058 172.801 459.584 170.392C458.029 170.754 456.834 168.957 456.714 167.874C456.594 166.79 454.797 164.532 453.603 162.134C452.409 159.735 451.807 154.959 454.677 154.838C457.547 154.718 458.821 158.28 458.821 158.28" stroke="black" stroke-width="0.75" stroke-linecap="round" stroke-linejoin="round"/>
<path d="M477.265 184.08C477.265 184.08 488.966 184.923 492.799 177.417C493.742 175.151 494.461 172.798 494.947 170.392C496.502 170.754 497.696 168.957 497.816 167.873C497.937 166.79 499.733 164.532 500.927 162.134C502.121 159.735 502.724 154.959 499.854 154.838C496.984 154.718 496.03 157.949 496.03 157.949" stroke="black" stroke-width="0.75" stroke-linecap="round" stroke-linejoin="round"/>
<path d="M497.184 155.942C497.184 155.942 500.737 146.068 499.904 142.124C499.071 138.18 492.719 133.986 492.719 133.986C492.719 133.986 492.488 130.283 487.461 127.764C482.433 125.246 478.158 124.292 470.983 126.45C463.809 128.607 461.159 130.624 459.263 131.959C457.366 133.293 452.489 140.589 454.075 147.744C455.66 154.899 456.553 155.28 456.553 155.28C457.273 155.842 457.894 156.52 458.39 157.287L459.343 151.266L460.056 143.308C460.056 143.308 456.313 136.665 468.916 132.722C468.916 132.722 475.941 129.129 491.224 135.02C491.224 135.02 496.241 138.361 495.238 151.748L495.91 156.946" fill="black"/>
<path d="M497.184 155.942C497.184 155.942 500.737 146.068 499.904 142.124C499.071 138.18 492.719 133.986 492.719 133.986C492.719 133.986 492.488 130.283 487.461 127.764C482.433 125.246 478.158 124.292 470.983 126.45C463.809 128.607 461.159 130.624 459.263 131.959C457.366 133.293 452.489 140.589 454.075 147.744C455.66 154.899 456.553 155.28 456.553 155.28C457.273 155.842 457.894 156.52 458.39 157.287L459.343 151.266L460.056 143.308C460.056 143.308 456.313 136.665 468.916 132.722C468.916 132.722 475.941 129.129 491.224 135.02C491.224 135.02 496.241 138.361 495.238 151.748L495.91 156.946" stroke="black" stroke-width="0.75" stroke-linecap="round" stroke-linejoin="round"/>
<path d="M459.584 170.362L459.082 168.175" stroke="black" stroke-width="0.75" stroke-linecap="round" stroke-linejoin="round"/>
<path d="M494.957 170.362L495.378 168.175" stroke="black" stroke-width="0.75" stroke-linecap="round" stroke-linejoin="round"/>
<path d="M456.042 161.411L456.754 164.131" stroke="black" stroke-width="0.5" stroke-linecap="round" stroke-linejoin="round"/>
<path d="M498.489 161.411L497.787 164.131" stroke="black" stroke-width="0.5" stroke-linecap="round" stroke-linejoin="round"/>
<path d="M843.837 122.998L869.228 130.321L855.325 152.793L855.171 153.042L855.312 153.298L868.089 176.429L842.367 182.489L842.083 182.556L842.002 182.837L834.679 208.228L812.207 194.325L811.958 194.171L811.702 194.312L788.571 207.089L782.511 181.367L782.444 181.083L782.163 181.002L756.772 173.679L770.675 151.207L770.829 150.958L770.688 150.702L757.911 127.571L783.633 121.511L783.917 121.444L783.998 121.163L791.321 95.7721L813.793 109.675L814.042 109.829L814.298 109.688L837.429 96.9112L843.489 122.633L843.556 122.917L843.837 122.998Z" fill="white" stroke="black"/>
<path d="M795.343 148.336L794.881 157.588" stroke="black" stroke-width="0.75" stroke-linecap="round" stroke-linejoin="round"/>
<path d="M831.188 148.336L832.191 156.856" stroke="black" stroke-width="0.75" stroke-linecap="round" stroke-linejoin="round"/>
<path d="M811.589 160.298C811.582 160.415 811.551 160.53 811.499 160.635C811.447 160.741 811.374 160.835 811.286 160.912C811.197 160.989 811.094 161.049 810.983 161.086C810.871 161.124 810.753 161.139 810.636 161.131C810.52 161.143 810.402 161.131 810.29 161.096C810.179 161.06 810.076 161.001 809.989 160.923C809.902 160.845 809.832 160.749 809.784 160.642C809.737 160.535 809.712 160.42 809.712 160.303C809.712 160.185 809.737 160.07 809.784 159.963C809.832 159.856 809.902 159.76 809.989 159.682C810.076 159.604 810.179 159.545 810.29 159.51C810.402 159.474 810.52 159.462 810.636 159.475C810.871 159.458 811.104 159.535 811.282 159.69C811.461 159.844 811.571 160.062 811.589 160.298Z" fill="black"/>
<path d="M809.773 147.834C810.477 148.745 810.906 149.839 811.007 150.985" stroke="black" stroke-width="0.5" stroke-linecap="round" stroke-linejoin="round"/>
<path d="M816.757 147.834C816.053 148.745 815.625 149.839 815.523 150.985" stroke="black" stroke-width="0.5" stroke-linecap="round" stroke-linejoin="round"/>
<path d="M825.408 150.132C825.408 150.132 821.303 148.336 818.152 150.132" stroke="black" stroke-width="0.75" stroke-linecap="round" stroke-linejoin="round"/>
<path d="M826.361 146.981C825.608 146.66 824.033 146.419 821.574 145.797L815.875 144.332L816.396 142.486C817.641 142.837 821.042 143.78 821.855 143.901C823.066 144.228 824.253 144.637 825.408 145.125L826.361 146.981Z" fill="black"/>
<path d="M801.173 150.514C801.173 150.514 805.047 148.336 808.429 150.514" stroke="black" stroke-width="0.75" stroke-linecap="round" stroke-linejoin="round"/>
<path d="M805.779 150.704C805.779 150.903 805.721 151.097 805.61 151.262C805.5 151.427 805.343 151.555 805.16 151.631C804.977 151.707 804.775 151.727 804.58 151.688C804.386 151.65 804.207 151.554 804.066 151.414C803.926 151.273 803.83 151.095 803.792 150.9C803.753 150.705 803.773 150.504 803.849 150.32C803.925 150.137 804.053 149.98 804.218 149.87C804.383 149.76 804.577 149.701 804.776 149.701C805.042 149.701 805.297 149.806 805.486 149.995C805.674 150.183 805.779 150.438 805.779 150.704Z" fill="black" stroke="black" stroke-width="0.75" stroke-linecap="round" stroke-linejoin="round"/>
<path d="M822.146 150.704C822.146 150.903 822.087 151.097 821.977 151.262C821.867 151.427 821.71 151.555 821.527 151.631C821.343 151.707 821.142 151.727 820.947 151.688C820.752 151.65 820.573 151.554 820.433 151.414C820.293 151.273 820.197 151.095 820.158 150.9C820.12 150.705 820.14 150.504 820.216 150.32C820.291 150.137 820.42 149.98 820.585 149.87C820.75 149.76 820.944 149.701 821.143 149.701C821.409 149.701 821.664 149.806 821.852 149.995C822.04 150.183 822.146 150.438 822.146 150.704Z" fill="black" stroke="black" stroke-width="0.75" stroke-linecap="round" stroke-linejoin="round"/>
<path d="M799.327 147.423L800.331 145.265C801.668 144.512 803.148 144.047 804.676 143.901C805.729 143.74 810.145 142.486 810.145 142.486L810.396 144.131C808.697 145.008 806.855 145.572 804.957 145.797C803.016 146.087 801.123 146.633 799.327 147.423Z" fill="black"/>
<path d="M807.104 168.617C811.073 167.09 815.468 167.09 819.437 168.617" stroke="black" stroke-width="0.75" stroke-linecap="round" stroke-linejoin="round"/>
<path d="M835.292 154.327C833.184 155.25 832.281 160.84 832.281 160.84" stroke="black" stroke-width="0.5" stroke-linecap="round" stroke-linejoin="round"/>
<path d="M808.579 158.411C808.579 158.411 806.211 160.819 809.262 162.425" stroke="black" stroke-width="0.5" stroke-linecap="round" stroke-linejoin="round"/>
<path d="M814.941 160.298C814.948 160.42 814.98 160.539 815.036 160.648C815.091 160.757 815.168 160.854 815.262 160.932C815.356 161.01 815.465 161.068 815.583 161.102C815.7 161.136 815.823 161.146 815.944 161.131C816.061 161.144 816.179 161.132 816.29 161.096C816.402 161.06 816.504 161.001 816.591 160.923C816.679 160.845 816.748 160.749 816.796 160.643C816.844 160.536 816.869 160.42 816.869 160.303C816.869 160.186 816.844 160.07 816.796 159.963C816.748 159.856 816.679 159.761 816.591 159.682C816.504 159.604 816.402 159.545 816.29 159.51C816.179 159.474 816.061 159.462 815.944 159.475C815.824 159.46 815.702 159.469 815.585 159.503C815.468 159.536 815.359 159.593 815.265 159.67C815.172 159.747 815.094 159.843 815.039 159.951C814.983 160.058 814.95 160.177 814.941 160.298Z" fill="black"/>
<path d="M817.962 158.411C817.962 158.411 820.32 160.819 816.858 162.425" stroke="black" stroke-width="0.5" stroke-linecap="round" stroke-linejoin="round"/>
<path d="M813.265 140.389V144.051" stroke="black" stroke-width="0.5" stroke-linecap="round" stroke-linejoin="round"/>
<path d="M807.796 160.107L804.635 170.232" stroke="black" stroke-width="0.5" stroke-linecap="round" stroke-linejoin="round"/>
<path d="M818.734 160.107L821.905 170.232" stroke="black" stroke-width="0.5" stroke-linecap="round" stroke-linejoin="round"/>
<path d="M811.017 152.942V154.949C811.013 155.452 810.82 155.936 810.475 156.304L809.261 157.568" stroke="black" stroke-width="0.5" stroke-linecap="round" stroke-linejoin="round"/>
<path d="M812.091 169.981H814.941" stroke="black" stroke-width="0.5" stroke-linecap="round" stroke-linejoin="round"/>
<path d="M832.271 159.375V162.315" stroke="black" stroke-width="0.5" stroke-linecap="round" stroke-linejoin="round"/>
<path d="M791.239 154.327C793.416 155.25 794.249 160.84 794.249 160.84" stroke="black" stroke-width="0.5" stroke-linecap="round" stroke-linejoin="round"/>
<path d="M794.259 159.375V162.315" stroke="black" stroke-width="0.5" stroke-linecap="round" stroke-linejoin="round"/>
<path d="M813.265 181.08C813.265 181.08 801.565 181.923 797.731 174.417C796.778 172.155 796.058 169.801 795.584 167.392C794.029 167.754 792.834 165.957 792.714 164.874C792.594 163.79 790.797 161.532 789.603 159.134C788.409 156.735 787.807 151.959 790.677 151.838C793.547 151.718 794.821 155.28 794.821 155.28" stroke="black" stroke-width="0.75" stroke-linecap="round" stroke-linejoin="round"/>
<path d="M813.265 181.08C813.265 181.08 824.966 181.923 828.799 174.417C829.742 172.151 830.461 169.798 830.947 167.392C832.502 167.754 833.696 165.957 833.816 164.873C833.937 163.79 835.733 161.532 836.927 159.134C838.121 156.735 838.724 151.959 835.854 151.838C832.984 151.718 832.03 154.949 832.03 154.949" stroke="black" stroke-width="0.75" stroke-linecap="round" stroke-linejoin="round"/>
<path d="M833.184 152.942C833.184 152.942 836.737 143.068 835.904 139.124C835.071 135.18 828.719 130.986 828.719 130.986C828.719 130.986 828.488 127.283 823.461 124.764C818.433 122.246 814.158 121.292 806.983 123.45C799.809 125.607 797.159 127.624 795.263 128.959C793.366 130.293 788.489 137.589 790.075 144.744C791.66 151.899 792.553 152.28 792.553 152.28C793.273 152.842 793.894 153.52 794.39 154.287L795.343 148.266L796.056 140.308C796.056 140.308 792.313 133.665 804.916 129.722C804.916 129.722 811.941 126.129 827.224 132.02C827.224 132.02 832.241 135.361 831.238 148.748L831.91 153.946" fill="black"/>
<path d="M833.184 152.942C833.184 152.942 836.737 143.068 835.904 139.124C835.071 135.18 828.719 130.986 828.719 130.986C828.719 130.986 828.488 127.283 823.461 124.764C818.433 122.246 814.158 121.292 806.983 123.45C799.809 125.607 797.159 127.624 795.263 128.959C793.366 130.293 788.489 137.589 790.075 144.744C791.66 151.899 792.553 152.28 792.553 152.28C793.273 152.842 793.894 153.52 794.39 154.287L795.343 148.266L796.056 140.308C796.056 140.308 792.313 133.665 804.916 129.722C804.916 129.722 811.941 126.129 827.224 132.02C827.224 132.02 832.241 135.361 831.238 148.748L831.91 153.946" stroke="black" stroke-width="0.75" stroke-linecap="round" stroke-linejoin="round"/>
<path d="M795.584 167.362L795.082 165.175" stroke="black" stroke-width="0.75" stroke-linecap="round" stroke-linejoin="round"/>
<path d="M830.957 167.362L831.378 165.175" stroke="black" stroke-width="0.75" stroke-linecap="round" stroke-linejoin="round"/>
<path d="M792.042 158.411L792.754 161.131" stroke="black" stroke-width="0.5" stroke-linecap="round" stroke-linejoin="round"/>
<path d="M834.489 158.411L833.787 161.131" stroke="black" stroke-width="0.5" stroke-linecap="round" stroke-linejoin="round"/>
</svg>
