<svg width="210" height="118" viewBox="0 0 210 118" fill="none" xmlns="http://www.w3.org/2000/svg">
<rect x="34.7134" y="8.06372" width="20.9399" height="5.23497" fill="black"/>
<rect x="47.7998" y="0.211182" width="20.9399" height="5.23497" transform="rotate(90 47.7998 0.211182)" fill="black"/>
<rect x="189.06" y="35.6165" width="20.9399" height="5.23497" fill="black"/>
<rect x="202.147" y="27.7639" width="20.9399" height="5.23497" transform="rotate(90 202.147 27.7639)" fill="black"/>
<rect x="138.82" y="104.365" width="20.9399" height="5.23497" fill="black"/>
<rect x="151.907" y="96.5127" width="20.9399" height="5.23497" transform="rotate(90 151.907 96.5127)" fill="black"/>
<rect x="158.652" y="10.52" width="20.9399" height="5.23497" transform="rotate(-30.1577 158.652 10.52)" fill="black"/>
<rect x="1.95898" y="38.3406" width="20.9399" height="5.23497" transform="rotate(21.9739 1.95898 38.3406)" fill="black"/>
<rect x="38.3413" y="107.256" width="20.9399" height="5.23497" transform="rotate(-11.3813 38.3413 107.256)" fill="black"/>
<g clip-path="url(#clip0_514_445975)">
<path d="M159 41L162.512 43.3459L166.654 42.5224L169.001 46.0335L173.143 46.8579L173.967 50.9997L177.478 53.3463L176.655 57.4884L179 61L176.655 64.5116L177.478 68.6537L173.967 71.0003L173.143 75.1421L169.001 75.9665L166.654 79.4776L162.512 78.6541L159 81L155.489 78.6541L151.347 79.4776L149 75.9665L144.858 75.1421L144.034 71.0003L140.523 68.6537L141.346 64.5116L139 61L141.346 57.4884L140.523 53.3463L144.034 50.9997L144.858 46.8579L149 46.0335L151.347 42.5224L155.489 43.3459L159 41Z" fill="black"/>
<path d="M152.334 68.7832C151.819 68.7832 151.426 69.1773 151.426 69.6916C151.426 70.2071 151.82 70.6001 152.334 70.6001H165.876C166.391 70.6001 166.784 70.206 166.784 69.6916C166.784 69.1762 166.39 68.7832 165.876 68.7832H152.334Z" fill="#EEEEEE"/>
<path d="M159.089 57.2417L156.484 62.5732L150.153 57.4227L152.848 67.8747H165.33L168.026 57.4227L161.694 62.5732L159.089 57.2417Z" fill="#EEEEEE"/>
<path d="M148.608 54.969C148.971 54.9083 149.243 54.6058 149.243 54.2118C149.243 53.7879 148.91 53.4546 148.486 53.4546C148.062 53.4546 147.729 53.7879 147.729 54.2118C147.729 54.6357 148.062 54.969 148.486 54.969C148.517 54.9999 148.547 54.969 148.608 54.969H148.608Z" fill="#EEEEEE"/>
<path d="M148.456 55.4548C147.79 55.4239 147.275 54.8787 147.275 54.212C147.275 53.5453 147.821 53 148.487 53C149.154 53 149.699 53.5453 149.699 54.212C149.699 54.6358 149.457 55.0299 149.124 55.2418L149.154 55.3323L148.73 55.393H148.669L148.456 55.4548ZM148.214 54.0916L148.668 54.4548C148.729 54.3941 148.79 54.3035 148.79 54.212C148.79 54.0298 148.639 53.9095 148.487 53.9095C148.366 53.9095 148.274 54 148.214 54.0916L148.214 54.0916Z" fill="#EEEEEE"/>
<path d="M159.846 54.2118C159.846 55.2214 158.332 55.2214 158.332 54.2118C158.332 53.2022 159.846 53.2022 159.846 54.2118Z" fill="#EEEEEE"/>
<path d="M159.089 55.4549C158.423 55.4549 157.877 54.9097 157.877 54.243C157.877 53.5763 158.423 53.031 159.089 53.031C159.756 53.031 160.301 53.5763 160.301 54.243C160.301 54.9097 159.756 55.4549 159.089 55.4549ZM159.089 53.9096C158.907 53.9096 158.787 54.0608 158.787 54.2121C158.787 54.3633 158.938 54.5145 159.089 54.5145C159.241 54.5145 159.392 54.3633 159.392 54.2121C159.392 54.0609 159.272 53.9096 159.089 53.9096Z" fill="#EEEEEE"/>
<path d="M169.693 53.4548C169.269 53.4548 168.936 53.7882 168.936 54.212C168.936 54.6061 169.208 54.9086 169.571 54.9692H169.662C170.086 54.9692 170.419 54.6359 170.419 54.212C170.45 53.8191 170.117 53.4548 169.693 53.4548H169.693Z" fill="#EEEEEE"/>
<path d="M169.722 55.4549H169.54H169.51H169.48L169.056 55.3633L169.085 55.2728C168.722 55.0609 168.51 54.6668 168.51 54.243C168.51 53.5763 169.056 53.031 169.722 53.031C170.389 53.031 170.934 53.5763 170.934 54.243C170.903 54.8788 170.389 55.424 169.722 55.4549L169.722 55.4549ZM169.692 53.9096C169.51 53.9096 169.39 54.0608 169.39 54.2121C169.39 54.3026 169.42 54.3942 169.511 54.4549L169.966 54.0608C169.904 53.9703 169.813 53.9096 169.692 53.9096L169.692 53.9096Z" fill="#EEEEEE"/>
</g>
<g clip-path="url(#clip1_514_445975)">
<path d="M58 41L61.5116 43.3459L65.6537 42.5224L68.0003 46.0335L72.1421 46.8579L72.9665 50.9997L76.4776 53.3463L75.6541 57.4884L78 61L75.6541 64.5116L76.4776 68.6537L72.9665 71.0003L72.1421 75.1421L68.0003 75.9665L65.6537 79.4776L61.5116 78.6541L58 81L54.4884 78.6541L50.3463 79.4776L47.9997 75.9665L43.8579 75.1421L43.0335 71.0003L39.5224 68.6537L40.3459 64.5116L38 61L40.3459 57.4884L39.5224 53.3463L43.0335 50.9997L43.8579 46.8579L47.9997 46.0335L50.3463 42.5224L54.4884 43.3459L58 41Z" fill="black"/>
<g clip-path="url(#clip2_514_445975)">
<path d="M68.2094 64.3444L66.3011 67.1236L65.049 67.9053H50.2944L48.8136 67.1236L46.9053 64.3444L47.7631 62.6973H67.2492L68.2094 64.3444Z" fill="white"/>
<path fill-rule="evenodd" clip-rule="evenodd" d="M47.6794 62.5593H67.3285L68.3726 64.3505L66.3986 67.2255L65.0885 68.0433H50.2603L48.7191 67.2298L46.7446 64.3543L47.6794 62.5593ZM47.8469 62.8353L47.066 64.3347L48.9081 67.0175L50.3286 67.7673H65.0095L66.2036 67.0219L68.0461 64.3384L67.1699 62.8353H47.8469Z" fill="white"/>
<path d="M50.2948 67.9083C51.2839 67.9083 52.0857 67.1105 52.0857 66.1264C52.0857 65.1423 51.2839 64.3445 50.2948 64.3445C49.3057 64.3445 48.5039 65.1423 48.5039 66.1264C48.5039 67.1105 49.3057 67.9083 50.2948 67.9083Z" fill="black"/>
<path fill-rule="evenodd" clip-rule="evenodd" d="M50.2946 64.4825C49.3811 64.4825 48.6417 65.2192 48.6417 66.1265C48.6417 67.0337 49.3811 67.7704 50.2946 67.7704C51.2081 67.7704 51.9475 67.0337 51.9475 66.1265C51.9475 65.2192 51.2081 64.4825 50.2946 64.4825ZM48.3657 66.1265C48.3657 65.0655 49.23 64.2065 50.2946 64.2065C51.3593 64.2065 52.2235 65.0655 52.2235 66.1265C52.2235 67.1875 51.3593 68.0464 50.2946 68.0464C49.23 68.0464 48.3657 67.1875 48.3657 66.1265Z" fill="black"/>
<path d="M47.7633 64.7877C48.3435 64.7877 48.8138 64.3197 48.8138 63.7425C48.8138 63.1652 48.3435 62.6973 47.7633 62.6973C47.1832 62.6973 46.7129 63.1652 46.7129 63.7425C46.7129 64.3197 47.1832 64.7877 47.7633 64.7877Z" fill="white"/>
<path fill-rule="evenodd" clip-rule="evenodd" d="M47.7632 62.8353C47.2586 62.8353 46.8507 63.2421 46.8507 63.7425C46.8507 64.2429 47.2586 64.6497 47.7632 64.6497C48.2678 64.6497 48.6756 64.2429 48.6756 63.7425C48.6756 63.2421 48.2678 62.8353 47.7632 62.8353ZM46.5747 63.7425C46.5747 63.0884 47.1075 62.5593 47.7632 62.5593C48.4189 62.5593 48.9516 63.0884 48.9516 63.7425C48.9516 64.3966 48.4189 64.9257 47.7632 64.9257C47.1075 64.9257 46.5747 64.3966 46.5747 63.7425Z" fill="white"/>
<path d="M67.3517 64.7877C67.9319 64.7877 68.4022 64.3197 68.4022 63.7425C68.4022 63.1652 67.9319 62.6973 67.3517 62.6973C66.7716 62.6973 66.3013 63.1652 66.3013 63.7425C66.3013 64.3197 66.7716 64.7877 67.3517 64.7877Z" fill="white"/>
<path fill-rule="evenodd" clip-rule="evenodd" d="M67.3515 62.8353C66.847 62.8353 66.4391 63.2421 66.4391 63.7425C66.4391 64.2429 66.847 64.6497 67.3515 64.6497C67.8561 64.6497 68.264 64.2429 68.264 63.7425C68.264 63.2421 67.8561 62.8353 67.3515 62.8353ZM66.1631 63.7425C66.1631 63.0884 66.6958 62.5593 67.3515 62.5593C68.0073 62.5593 68.54 63.0884 68.54 63.7425C68.54 64.3966 68.0073 64.9257 67.3515 64.9257C66.6958 64.9257 66.1631 64.3966 66.1631 63.7425Z" fill="white"/>
<path d="M52.0856 64.7877C52.6658 64.7877 53.1361 64.3197 53.1361 63.7425C53.1361 63.1652 52.6658 62.6973 52.0856 62.6973C51.5055 62.6973 51.0352 63.1652 51.0352 63.7425C51.0352 64.3197 51.5055 64.7877 52.0856 64.7877Z" fill="white"/>
<path fill-rule="evenodd" clip-rule="evenodd" d="M52.0854 62.8353C51.5808 62.8353 51.173 63.2421 51.173 63.7425C51.173 64.2429 51.5808 64.6497 52.0854 64.6497C52.59 64.6497 52.9979 64.2429 52.9979 63.7425C52.9979 63.2421 52.59 62.8353 52.0854 62.8353ZM50.897 63.7425C50.897 63.0884 51.4297 62.5593 52.0854 62.5593C52.7411 62.5593 53.2739 63.0884 53.2739 63.7425C53.2739 64.3966 52.7411 64.9257 52.0854 64.9257C51.4297 64.9257 50.897 64.3966 50.897 63.7425Z" fill="white"/>
<path d="M55.7668 64.7877C56.3469 64.7877 56.8172 64.3197 56.8172 63.7425C56.8172 63.1652 56.3469 62.6973 55.7668 62.6973C55.1866 62.6973 54.7163 63.1652 54.7163 63.7425C54.7163 64.3197 55.1866 64.7877 55.7668 64.7877Z" fill="white"/>
<path fill-rule="evenodd" clip-rule="evenodd" d="M55.7666 62.8353C55.262 62.8353 54.8541 63.2421 54.8541 63.7425C54.8541 64.2429 55.262 64.6497 55.7666 64.6497C56.2712 64.6497 56.679 64.2429 56.679 63.7425C56.679 63.2421 56.2712 62.8353 55.7666 62.8353ZM54.5781 63.7425C54.5781 63.0884 55.1109 62.5593 55.7666 62.5593C56.4223 62.5593 56.955 63.0884 56.955 63.7425C56.955 64.3966 56.4223 64.9257 55.7666 64.9257C55.1109 64.9257 54.5781 64.3966 54.5781 63.7425Z" fill="white"/>
<path d="M59.445 64.7877C60.0251 64.7877 60.4954 64.3197 60.4954 63.7425C60.4954 63.1652 60.0251 62.6973 59.445 62.6973C58.8648 62.6973 58.3945 63.1652 58.3945 63.7425C58.3945 64.3197 58.8648 64.7877 59.445 64.7877Z" fill="white"/>
<path fill-rule="evenodd" clip-rule="evenodd" d="M59.4448 62.8353C58.9402 62.8353 58.5323 63.2421 58.5323 63.7425C58.5323 64.2429 58.9402 64.6497 59.4448 64.6497C59.9494 64.6497 60.3573 64.2429 60.3573 63.7425C60.3573 63.2421 59.9494 62.8353 59.4448 62.8353ZM58.2563 63.7425C58.2563 63.0884 58.7891 62.5593 59.4448 62.5593C60.1005 62.5593 60.6333 63.0884 60.6333 63.7425C60.6333 64.3966 60.1005 64.9257 59.4448 64.9257C58.7891 64.9257 58.2563 64.3966 58.2563 63.7425Z" fill="white"/>
<path d="M53.976 67.9083C54.965 67.9083 55.7668 67.1105 55.7668 66.1264C55.7668 65.1423 54.965 64.3445 53.976 64.3445C52.9869 64.3445 52.1851 65.1423 52.1851 66.1264C52.1851 67.1105 52.9869 67.9083 53.976 67.9083Z" fill="black"/>
<path fill-rule="evenodd" clip-rule="evenodd" d="M53.9758 64.4825C53.0622 64.4825 52.3229 65.2192 52.3229 66.1265C52.3229 67.0337 53.0622 67.7704 53.9758 67.7704C54.8893 67.7704 55.6287 67.0337 55.6287 66.1265C55.6287 65.2192 54.8893 64.4825 53.9758 64.4825ZM52.0469 66.1265C52.0469 65.0655 52.9111 64.2065 53.9758 64.2065C55.0404 64.2065 55.9047 65.0655 55.9047 66.1265C55.9047 67.1875 55.0404 68.0464 53.9758 68.0464C52.9111 68.0464 52.0469 67.1875 52.0469 66.1265Z" fill="black"/>
<path d="M57.6537 67.9083C58.6428 67.9083 59.4446 67.1105 59.4446 66.1264C59.4446 65.1423 58.6428 64.3445 57.6537 64.3445C56.6646 64.3445 55.8628 65.1423 55.8628 66.1264C55.8628 67.1105 56.6646 67.9083 57.6537 67.9083Z" fill="black"/>
<path fill-rule="evenodd" clip-rule="evenodd" d="M57.654 64.4825C56.7405 64.4825 56.0011 65.2192 56.0011 66.1265C56.0011 67.0337 56.7405 67.7704 57.654 67.7704C58.5675 67.7704 59.3069 67.0337 59.3069 66.1265C59.3069 65.2192 58.5675 64.4825 57.654 64.4825ZM55.7251 66.1265C55.7251 65.0655 56.5893 64.2065 57.654 64.2065C58.7186 64.2065 59.5829 65.0655 59.5829 66.1265C59.5829 67.1875 58.7186 68.0464 57.654 68.0464C56.5893 68.0464 55.7251 67.1875 55.7251 66.1265Z" fill="black"/>
<path d="M64.8173 67.9083C65.8063 67.9083 66.6081 67.1105 66.6081 66.1264C66.6081 65.1423 65.8063 64.3445 64.8173 64.3445C63.8282 64.3445 63.0264 65.1423 63.0264 66.1264C63.0264 67.1105 63.8282 67.9083 64.8173 67.9083Z" fill="black"/>
<path fill-rule="evenodd" clip-rule="evenodd" d="M64.8176 64.4825C63.904 64.4825 63.1647 65.2192 63.1647 66.1265C63.1647 67.0337 63.904 67.7704 64.8176 67.7704C65.7311 67.7704 66.4705 67.0337 66.4705 66.1265C66.4705 65.2192 65.7311 64.4825 64.8176 64.4825ZM62.8887 66.1265C62.8887 65.0655 63.7529 64.2065 64.8176 64.2065C65.8822 64.2065 66.7465 65.0655 66.7465 66.1265C66.7465 67.1875 65.8822 68.0464 64.8176 68.0464C63.7529 68.0464 62.8887 67.1875 62.8887 66.1265Z" fill="black"/>
<path d="M50.2945 66.6745C50.5987 66.6745 50.8453 66.4291 50.8453 66.1264C50.8453 65.8237 50.5987 65.5784 50.2945 65.5784C49.9903 65.5784 49.7437 65.8237 49.7437 66.1264C49.7437 66.4291 49.9903 66.6745 50.2945 66.6745Z" fill="white"/>
<path d="M53.9756 66.6745C54.2798 66.6745 54.5264 66.4291 54.5264 66.1264C54.5264 65.8237 54.2798 65.5784 53.9756 65.5784C53.6714 65.5784 53.4248 65.8237 53.4248 66.1264C53.4248 66.4291 53.6714 66.6745 53.9756 66.6745Z" fill="white"/>
<path d="M57.6538 66.6745C57.958 66.6745 58.2047 66.4291 58.2047 66.1264C58.2047 65.8237 57.958 65.5784 57.6538 65.5784C57.3496 65.5784 57.103 65.8237 57.103 66.1264C57.103 66.4291 57.3496 66.6745 57.6538 66.6745Z" fill="white"/>
<path d="M61.2357 67.9083C62.2248 67.9083 63.0266 67.1105 63.0266 66.1264C63.0266 65.1423 62.2248 64.3445 61.2357 64.3445C60.2466 64.3445 59.4448 65.1423 59.4448 66.1264C59.4448 67.1105 60.2466 67.9083 61.2357 67.9083Z" fill="black"/>
<path fill-rule="evenodd" clip-rule="evenodd" d="M61.2355 64.4825C60.322 64.4825 59.5826 65.2192 59.5826 66.1265C59.5826 67.0337 60.322 67.7704 61.2355 67.7704C62.1491 67.7704 62.8884 67.0337 62.8884 66.1265C62.8884 65.2192 62.1491 64.4825 61.2355 64.4825ZM59.3066 66.1265C59.3066 65.0655 60.1709 64.2065 61.2355 64.2065C62.3002 64.2065 63.1644 65.0655 63.1644 66.1265C63.1644 67.1875 62.3002 68.0464 61.2355 68.0464C60.1709 68.0464 59.3066 67.1875 59.3066 66.1265Z" fill="black"/>
<path d="M61.2359 66.6745C61.5401 66.6745 61.7867 66.4291 61.7867 66.1264C61.7867 65.8237 61.5401 65.5784 61.2359 65.5784C60.9317 65.5784 60.6851 65.8237 60.6851 66.1264C60.6851 66.4291 60.9317 66.6745 61.2359 66.6745Z" fill="white"/>
<path d="M64.8174 66.6745C65.1216 66.6745 65.3682 66.4291 65.3682 66.1264C65.3682 65.8237 65.1216 65.5784 64.8174 65.5784C64.5132 65.5784 64.2666 65.8237 64.2666 66.1264C64.2666 66.4291 64.5132 66.6745 64.8174 66.6745Z" fill="white"/>
<path d="M51.6821 62.1103L53.8763 58.4656H60.2513L65.7865 60.8315L66.3524 62.1582L51.6821 62.1103Z" fill="white"/>
<path d="M54.7524 58.4656L55.827 56.6477H59.3696C59.8572 56.6477 60.2515 57.04 60.2515 57.5252V58.4656H54.7524Z" fill="white"/>
<path d="M56.9554 57.9684L47.709 56.3272L47.8204 55.6953L57.0668 57.3365L56.9554 57.9684Z" fill="white"/>
<path d="M57.0987 57.1573L54.7188 56.738L54.543 57.7259L56.9229 58.1452L57.0987 57.1573Z" fill="white"/>
<path d="M49.1452 55.7197L47.3076 55.396L47.1219 56.4399L48.9594 56.7636L49.1452 55.7197Z" fill="white"/>
<path fill-rule="evenodd" clip-rule="evenodd" d="M67.0417 62.2812H67.4714L67.4751 62.2868C67.4832 62.2875 67.4907 62.2881 67.4975 62.2887L67.4951 62.3167L67.601 62.4746L67.475 62.559L67.4287 63.1178C67.395 63.115 67.3728 63.1135 67.3564 63.1133C67.3554 63.1134 67.3541 63.1135 67.3525 63.1137L67.3435 63.1148L67.3305 63.1165C67.3208 63.1177 67.3077 63.1192 67.2929 63.1205L67.0472 63.1428L66.9038 62.9288L67.0417 62.8364V62.2812Z" fill="white"/>
<path fill-rule="evenodd" clip-rule="evenodd" d="M46.2969 63.7424C46.2969 62.9327 46.9546 62.2812 47.7633 62.2812H66.6234V63.1133H47.7633C47.4102 63.1133 47.1289 63.3962 47.1289 63.7424C47.1289 63.7844 47.134 63.8304 47.1441 63.8788L46.3298 64.0493C46.3098 63.9539 46.2969 63.8503 46.2969 63.7424Z" fill="white"/>
<path fill-rule="evenodd" clip-rule="evenodd" d="M46.5642 64.5795C46.5092 64.5028 46.4594 64.4156 46.4209 64.3262L47.185 63.9971C47.1997 64.0311 47.2204 64.0673 47.242 64.097L47.2461 64.1026L47.3674 64.2821L46.678 64.748L46.5642 64.5795Z" fill="white"/>
<path fill-rule="evenodd" clip-rule="evenodd" d="M68.3181 64.9178L66.5206 67.5426H66.5007C66.1809 67.92 65.7358 68.1868 65.229 68.2819L65.1612 68.3212H50.2947C49.5321 68.3212 48.8607 67.9376 48.464 67.3518L46.9116 65.0888L47.5977 64.6182L49.1524 66.8845C49.3998 67.2504 49.8176 67.4892 50.2947 67.4892H64.9372L64.9453 67.4845L65.024 67.4728C65.4097 67.4154 65.7418 67.1996 65.9517 66.8921L66.0756 66.7106H66.082L67.6316 64.4478L68.3181 64.9178Z" fill="white"/>
<path fill-rule="evenodd" clip-rule="evenodd" d="M68.6968 64.3198C68.6542 64.4233 68.6004 64.5102 68.5525 64.58L68.4351 64.7507L67.7495 64.2793L67.8669 64.1086L67.8669 64.1086C67.8972 64.0646 67.9156 64.0317 67.9273 64.0034L68.6968 64.3198Z" fill="white"/>
<path fill-rule="evenodd" clip-rule="evenodd" d="M67.7777 62.3474C68.3763 62.5307 68.8154 63.0855 68.8154 63.7455V63.7842L67.9834 63.7844V63.7455C67.9834 63.4651 67.7965 63.2233 67.5342 63.143L67.7777 62.3474Z" fill="white"/>
<path d="M58.3704 50.2L58.7105 51.2422H59.8121L58.9212 51.886L59.2613 52.9282L58.3704 52.2844L57.4794 52.9282L57.8196 51.886L56.9316 51.2422H58.0303L58.3704 50.2Z" fill="white"/>
<path d="M65.3143 52.6288L64.926 53.653L65.7838 54.3388L64.6852 54.2879L64.2939 55.3121L64.0049 54.255L62.9033 54.2011L63.8243 53.6021L63.5354 52.5449L64.3932 53.2307L65.3143 52.6288Z" fill="white"/>
<path d="M69.2 58.849L68.2519 59.4061L68.4896 60.4752L67.6649 59.7505L66.7168 60.3045L67.1563 59.3012L66.3315 58.5735L67.4271 58.6813L67.8666 57.675L68.1044 58.7442L69.2 58.849Z" fill="white"/>
<path d="M51.4265 52.6288L51.8178 53.653L50.96 54.3388L52.0586 54.2879L52.4499 55.3121L52.7388 54.255L53.8374 54.2011L52.9164 53.6021L53.2053 52.5449L52.3475 53.2307L51.4265 52.6288Z" fill="white"/>
<path d="M47.5405 58.849L48.4917 59.4061L48.2539 60.4752L49.0756 59.7505L50.0267 60.3045L49.5873 59.3012L50.409 58.5735L49.3134 58.6813L48.8739 57.675L48.6361 58.7442L47.5405 58.849Z" fill="white"/>
<path fill-rule="evenodd" clip-rule="evenodd" d="M64.2665 70.8769H52.1426V70.2769H64.2665V70.8769Z" fill="white"/>
<path fill-rule="evenodd" clip-rule="evenodd" d="M60.9706 72.2753H55.4414V71.6753H60.9706V72.2753Z" fill="white"/>
</g>
</g>
<g clip-path="url(#clip3_514_445975)">
<path d="M107 70L110.512 72.3459L114.654 71.5224L117.001 75.0335L121.143 75.8579L121.967 79.9997L125.478 82.3463L124.655 86.4884L127 90L124.655 93.5116L125.478 97.6537L121.967 100L121.143 104.142L117.001 104.966L114.654 108.478L110.512 107.654L107 110L103.489 107.654L99.3468 108.478L97.0002 104.966L92.8584 104.142L92.034 100L88.5229 97.6537L89.3464 93.5116L87.0005 90L89.3464 86.4884L88.5229 82.3463L92.034 79.9997L92.8584 75.8579L97.0002 75.0335L99.3468 71.5224L103.489 72.3459L107 70Z" fill="black"/>
<path d="M117.379 91.6662L117.331 91.5413C117.32 91.5156 117.315 91.4878 117.301 91.4631L114.929 85.2987C115.377 85.1006 115.692 84.6538 115.692 84.1326C115.692 83.4283 115.118 82.8566 114.413 82.8566C114.188 82.8566 113.968 82.9161 113.773 83.029C113.465 83.2083 113.19 83.2895 112.944 83.2747L108.252 83.0151L106.801 79.6001C106.656 79.6001 106.526 79.6912 106.479 79.827L105.363 82.9744C105.351 82.9893 105.339 83.0032 105.328 83.018L100.506 83.2845C100.253 83.3024 99.98 83.2162 99.6701 83.0329C99.4744 82.918 99.251 82.8566 99.0235 82.8566C98.3173 82.8566 97.7442 83.4292 97.7442 84.1326C97.7442 84.7062 98.1276 85.1867 98.65 85.3472L96.306 91.4519C96.2792 91.4945 96.2692 91.5431 96.2533 91.5896L96.2235 91.6669C96.2086 91.7066 96.2007 91.7472 96.2007 91.7888C96.2007 93.3977 97.5128 94.7065 99.1258 94.7065C100.739 94.7065 102.051 93.3977 102.051 91.7888C102.051 91.7472 102.043 91.7056 102.028 91.6659L101.98 91.5411C101.97 91.5153 101.965 91.4876 101.951 91.4628L99.5688 85.2757C99.6006 85.2608 99.6344 85.2529 99.6652 85.2351C99.9741 85.0548 100.247 84.9785 100.497 84.9874L105.331 85.2549C105.425 85.3757 105.532 85.4827 105.653 85.5769V96.3807H103.631C103.443 96.3807 103.29 96.5333 103.29 96.7215V98.1551H102.504C102.315 98.1551 102.162 98.3077 102.162 98.4959V99.7185H101.201C101.012 99.7185 100.859 99.871 100.859 100.059C100.859 100.248 101.012 100.4 101.201 100.4H112.741C112.93 100.4 113.083 100.248 113.083 100.059C113.083 99.871 112.93 99.7185 112.741 99.7185H111.78V98.4959C111.78 98.3077 111.627 98.1551 111.438 98.1551H110.368V96.7215C110.368 96.5333 110.215 96.3807 110.026 96.3807H107.897V85.5769C108.023 85.4798 108.135 85.3668 108.232 85.241L112.946 84.9943C113.191 84.9824 113.466 85.0597 113.774 85.239C113.847 85.2806 113.926 85.3074 114.005 85.3341L111.656 91.4508C111.629 91.4934 111.619 91.5419 111.603 91.5885L111.573 91.6658C111.558 91.7054 111.55 91.746 111.55 91.7876C111.55 93.3966 112.863 94.7053 114.476 94.7053C116.089 94.7053 117.401 93.3966 117.401 91.7876C117.401 91.746 117.394 91.7044 117.379 91.6658L117.379 91.6662ZM98.781 86.9127V90.6496C98.2973 90.6704 97.7371 90.7338 97.2603 90.8735L98.781 86.9127ZM101.344 91.7909C101.198 91.9485 100.457 92.2546 99.1226 92.2546C97.744 92.2546 97.004 91.9296 96.8938 91.8256L96.9107 91.781C97.0626 91.6225 97.7957 91.3213 99.1226 91.3213C100.451 91.3213 101.19 91.6245 101.341 91.783L101.344 91.7909ZM100.99 90.8745C100.511 90.7348 99.95 90.6704 99.4643 90.6496V86.9097L100.99 90.8745ZM107.214 96.3809H106.337V85.9101C106.478 85.9448 106.624 85.9685 106.776 85.9685C106.928 85.9685 107.073 85.9448 107.214 85.9101L107.214 96.3809ZM106.775 85.2869C106.138 85.2869 105.62 84.7698 105.62 84.1347C105.62 83.4997 106.138 82.9835 106.775 82.9835C107.411 82.9835 107.929 83.5007 107.929 84.1347C107.93 84.7708 107.411 85.2869 106.775 85.2869ZM114.815 86.9087L116.341 90.8736C115.862 90.7339 115.301 90.6695 114.815 90.6487V86.9087ZM114.131 86.9127V90.6496C113.647 90.6704 113.087 90.7338 112.61 90.8735L114.131 86.9127ZM114.473 92.2545C113.095 92.2545 112.355 91.9296 112.245 91.8255L112.261 91.781C112.413 91.6224 113.146 91.3213 114.473 91.3213C115.801 91.3213 116.54 91.6244 116.691 91.7829L116.694 91.7909C116.547 91.9484 115.807 92.2545 114.473 92.2545L114.473 92.2545Z" fill="#EEEEEE"/>
<path d="M106.439 76L106.779 77.0422H107.881L106.99 77.6861L107.33 78.7283L106.439 78.0844L105.548 78.7283L105.888 77.6861L105 77.0422H106.099L106.439 76Z" fill="#EEEEEE"/>
</g>
<g clip-path="url(#clip4_514_445975)">
<path d="M107 3L110.512 5.34587L114.654 4.52241L117.001 8.03355L121.143 8.85786L121.967 12.9997L125.478 15.3463L124.655 19.4884L127 23L124.655 26.5116L125.478 30.6537L121.967 33.0003L121.143 37.1421L117.001 37.9665L114.654 41.4776L110.512 40.6541L107 43L103.489 40.6541L99.3468 41.4776L97.0002 37.9665L92.8584 37.1421L92.034 33.0003L88.5229 30.6537L89.3464 26.5116L87.0005 23L89.3464 19.4884L88.5229 15.3463L92.034 12.9997L92.8584 8.85786L97.0002 8.03355L99.3468 4.52241L103.489 5.34587L107 3Z" fill="black"/>
<path fill-rule="evenodd" clip-rule="evenodd" d="M112.292 13.705C112.097 13.705 111.94 13.5527 111.94 13.3646C111.94 13.1764 112.097 13.0235 112.292 13.0235C112.486 13.0235 112.644 13.1764 112.644 13.3646C112.644 13.5527 112.486 13.705 112.292 13.705V13.705ZM110.421 13.705C110.227 13.705 110.069 13.5527 110.069 13.3646C110.069 13.1764 110.227 13.0235 110.421 13.0235C110.615 13.0235 110.773 13.1764 110.773 13.3646C110.773 13.5527 110.615 13.705 110.421 13.705V13.705ZM114.9 13.4492H114.378C114.163 11.8412 112.892 10.6001 111.356 10.6001C109.821 10.6001 108.549 11.8412 108.334 13.4492H107.812V14.407H108.334C108.549 16.015 109.821 17.2561 111.356 17.2561C112.892 17.2561 114.163 16.015 114.378 14.407H114.9V13.4492Z" fill="white"/>
<path fill-rule="evenodd" clip-rule="evenodd" d="M103.605 13.705C103.411 13.705 103.254 13.5527 103.254 13.3646C103.254 13.1764 103.411 13.0235 103.605 13.0235C103.799 13.0235 103.957 13.1764 103.957 13.3646C103.957 13.5527 103.799 13.705 103.605 13.705V13.705ZM101.734 13.705C101.54 13.705 101.383 13.5527 101.383 13.3646C101.383 13.1764 101.54 13.0235 101.734 13.0235C101.928 13.0235 102.086 13.1764 102.086 13.3646C102.086 13.5527 101.928 13.705 101.734 13.705V13.705ZM106.213 13.4492H105.691C105.477 11.8412 104.206 10.6001 102.67 10.6001C101.134 10.6001 99.8626 11.8412 99.6477 13.4492H99.1265V14.407H99.6477C99.8626 16.015 101.134 17.2561 102.67 17.2561C104.206 17.2561 105.476 16.015 105.691 14.407H106.213V13.4492Z" fill="white"/>
<path fill-rule="evenodd" clip-rule="evenodd" d="M99.0556 20.5188C98.8614 20.5188 98.7042 20.3665 98.7042 20.1778C98.7042 19.9903 98.8614 19.8374 99.0556 19.8374C99.2498 19.8374 99.4076 19.9903 99.4076 20.1778C99.4076 20.3665 99.2498 20.5188 99.0556 20.5188V20.5188ZM97.1847 20.5188C96.9905 20.5188 96.8333 20.3665 96.8333 20.1778C96.8333 19.9903 96.9905 19.8374 97.1847 19.8374C97.3789 19.8374 97.5367 19.9903 97.5367 20.1778C97.5367 20.3665 97.3789 20.5188 97.1847 20.5188V20.5188ZM101.664 20.263H101.142C100.927 18.6545 99.6564 17.4133 98.1205 17.4133C96.5846 17.4133 95.3132 18.6545 95.0984 20.263H94.5771V21.2202H95.0984C95.3132 22.8288 96.5846 24.0699 98.1205 24.0699C99.6564 24.0699 100.928 22.8288 101.142 21.2202H101.664V20.263Z" fill="white"/>
<path fill-rule="evenodd" clip-rule="evenodd" d="M116.84 20.5188C116.646 20.5188 116.488 20.3665 116.488 20.1778C116.488 19.9903 116.646 19.8374 116.84 19.8374C117.035 19.8374 117.192 19.9903 117.192 20.1778C117.192 20.3665 117.035 20.5188 116.84 20.5188V20.5188ZM114.969 20.5188C114.775 20.5188 114.618 20.3665 114.618 20.1778C114.618 19.9903 114.775 19.8374 114.969 19.8374C115.164 19.8374 115.321 19.9903 115.321 20.1778C115.321 20.3665 115.164 20.5188 114.969 20.5188V20.5188ZM119.449 20.263H118.927C118.712 18.6545 117.441 17.4133 115.905 17.4133C114.369 17.4133 113.098 18.6545 112.883 20.263H112.361V21.2202H112.883C113.098 22.8288 114.369 24.0699 115.905 24.0699C117.441 24.0699 118.712 22.8288 118.927 21.2202H119.449V20.263Z" fill="white"/>
<path fill-rule="evenodd" clip-rule="evenodd" d="M109.385 23.989C109.294 24.079 109.198 24.1636 109.098 24.2436C108.837 24.4505 108.547 24.614 108.239 24.7392L107.427 26.102L108.309 27.5825L107.013 33.5147L105.717 27.5825L106.599 26.102L105.787 24.7386C105.479 24.614 105.188 24.4505 104.928 24.2436C104.827 24.1636 104.732 24.079 104.641 23.989L104.375 25.2348L99.3247 26.9163V34.9822C99.4752 35.0633 99.6269 35.1421 99.7798 35.2191V27.2315L104.624 25.6182L107.013 35.4831L109.401 25.6182L114.246 27.2315V35.2191C114.399 35.1421 114.551 35.0633 114.701 34.9822V26.9163L109.65 25.2348L109.385 23.989Z" fill="white"/>
<path fill-rule="evenodd" clip-rule="evenodd" d="M95.7561 25.6798L92.2007 26.8639C92.2523 27.0027 92.3093 27.1385 92.3651 27.2749L96.1494 26.0149L96.4819 24.4534L96.0365 24.364L95.7561 25.6798Z" fill="white"/>
<path fill-rule="evenodd" clip-rule="evenodd" d="M100.417 25.8029L100.111 24.3643L99.6655 24.453L99.972 25.8917L100.417 25.8029Z" fill="white"/>
<path fill-rule="evenodd" clip-rule="evenodd" d="M118.269 25.6798L117.989 24.364L117.543 24.4534L117.876 26.0149L121.66 27.2749C121.716 27.1385 121.773 27.0027 121.825 26.8639L118.269 25.6798Z" fill="white"/>
<path fill-rule="evenodd" clip-rule="evenodd" d="M114.36 24.4533L113.915 24.3645L113.608 25.8032L114.054 25.892L114.36 24.4533Z" fill="white"/>
<path fill-rule="evenodd" clip-rule="evenodd" d="M107.948 20.9948C107.754 20.9948 107.596 20.8425 107.596 20.6544C107.596 20.4662 107.754 20.3134 107.948 20.3134C108.142 20.3134 108.3 20.4662 108.3 20.6544C108.3 20.8425 108.142 20.9948 107.948 20.9948V20.9948ZM106.077 20.9948C105.883 20.9948 105.725 20.8425 105.725 20.6544C105.725 20.4662 105.883 20.3134 106.077 20.3134C106.272 20.3134 106.429 20.4662 106.429 20.6544C106.429 20.8425 106.272 20.9948 106.077 20.9948V20.9948ZM110.556 20.739H110.035C109.82 19.131 108.548 17.8899 107.013 17.8899C105.477 17.8899 104.206 19.131 103.991 20.739H103.469V21.6962H103.991C104.206 23.3048 105.477 24.5459 107.013 24.5459C108.548 24.5459 109.82 23.3048 110.035 21.6962H110.556V20.739Z" fill="white"/>
</g>
<defs>
<clipPath id="clip0_514_445975">
<rect width="40" height="40" fill="white" transform="translate(139 41)"/>
</clipPath>
<clipPath id="clip1_514_445975">
<rect width="40" height="40" fill="white" transform="translate(38 41)"/>
</clipPath>
<clipPath id="clip2_514_445975">
<rect width="22.8" height="22" fill="white" transform="translate(46.3999 50.2)"/>
</clipPath>
<clipPath id="clip3_514_445975">
<rect width="40" height="40" fill="white" transform="translate(87.0005 70)"/>
</clipPath>
<clipPath id="clip4_514_445975">
<rect width="40" height="40" fill="white" transform="translate(87.0005 3)"/>
</clipPath>
</defs>
</svg>
