<svg width="56" height="176" viewBox="0 0 56 176" fill="none" xmlns="http://www.w3.org/2000/svg">
<circle cx="28" cy="10" r="8" fill="#84DBCB"/>
<rect x="22.207" y="8.89655" width="11.0345" height="2.75862" fill="black"/>
<rect x="29.1035" y="4.75861" width="11.0345" height="2.75862" transform="rotate(90 29.1035 4.75861)" fill="black"/>
<path d="M5.09008 32C4.48208 32 4.03408 31.852 3.74608 31.556C3.46608 31.26 3.32608 30.832 3.32608 30.272V25.352H5.10208V30.62H5.93008V32H5.09008ZM7.07214 25.352H8.84814V27.2L10.3721 26.996C10.6041 26.964 10.7681 26.888 10.8641 26.768C10.9681 26.64 11.0361 26.432 11.0681 26.144L11.1521 25.352H12.9881L12.9041 26.204C12.8641 26.572 12.7201 26.888 12.4721 27.152C12.2241 27.408 11.8681 27.556 11.4041 27.596V27.656C11.7081 27.704 11.9521 27.808 12.1361 27.968C12.3201 28.128 12.4641 28.316 12.5681 28.532C12.6801 28.74 12.7561 28.96 12.7961 29.192C12.8441 29.424 12.8761 29.632 12.8921 29.816L13.0961 32H11.2721L11.0921 29.696C11.0601 29.28 10.9521 28.964 10.7681 28.748C10.5841 28.524 10.3281 28.432 10.0001 28.472L8.84814 28.616V32H7.07214V25.352ZM17.297 32.144C16.297 32.144 15.529 31.856 14.993 31.28C14.457 30.696 14.189 29.82 14.189 28.652C14.189 27.524 14.365 26.668 14.717 26.084C15.077 25.5 15.609 25.208 16.313 25.208C16.705 25.208 17.021 25.312 17.261 25.52C17.509 25.728 17.665 26.024 17.729 26.408H17.813C17.877 26.024 18.049 25.728 18.329 25.52C18.609 25.312 18.965 25.208 19.397 25.208C19.901 25.208 20.305 25.38 20.609 25.724C20.921 26.06 21.077 26.532 21.077 27.14V32H19.301V27.392C19.301 27.152 19.257 26.972 19.169 26.852C19.081 26.732 18.961 26.672 18.809 26.672C18.625 26.672 18.493 26.752 18.413 26.912C18.333 27.072 18.277 27.28 18.245 27.536H17.189C17.157 27.28 17.105 27.072 17.033 26.912C16.961 26.752 16.833 26.672 16.649 26.672C16.433 26.672 16.277 26.78 16.181 26.996C16.093 27.212 16.049 27.528 16.049 27.944V29.252C16.049 29.468 16.073 29.664 16.121 29.84C16.169 30.016 16.249 30.168 16.361 30.296C16.481 30.416 16.637 30.512 16.829 30.584C17.021 30.648 17.265 30.68 17.561 30.68C17.697 30.68 17.833 30.664 17.969 30.632L18.173 32.048C18.085 32.08 17.953 32.104 17.777 32.12C17.601 32.136 17.441 32.144 17.297 32.144ZM19.6281 34.388H18.7761V33.248H19.9641C20.3641 33.248 20.6521 33.332 20.8281 33.5C20.9961 33.668 21.0801 33.896 21.0801 34.184V36.2H19.6281V34.388ZM23.2341 28.508L22.1901 28.088C22.2221 27.648 22.3261 27.252 22.5021 26.9C22.6861 26.54 22.9261 26.236 23.2221 25.988C23.5181 25.74 23.8661 25.548 24.2661 25.412C24.6741 25.276 25.1181 25.208 25.5981 25.208C26.0861 25.208 26.5221 25.276 26.9061 25.412C27.2981 25.54 27.6301 25.728 27.9021 25.976C28.1741 26.216 28.3821 26.512 28.5261 26.864C28.6781 27.208 28.7541 27.592 28.7541 28.016V32H26.9781V28.244C26.9781 27.732 26.8461 27.332 26.5821 27.044C26.3261 26.756 25.9461 26.612 25.4421 26.612C25.0581 26.612 24.7261 26.692 24.4461 26.852C24.1741 27.012 23.9741 27.212 23.8461 27.452L24.2661 27.608C24.5541 27.72 24.7501 27.848 24.8541 27.992C24.9581 28.136 25.0101 28.352 25.0101 28.64V32H23.2341V28.508ZM33.0847 27.596C33.0847 27.292 33.0047 27.052 32.8447 26.876C32.6927 26.7 32.4367 26.612 32.0767 26.612C31.7327 26.612 31.4607 26.688 31.2607 26.84C31.0607 26.984 30.8927 27.152 30.7567 27.344L29.7007 26.408C29.9567 26.032 30.2727 25.74 30.6487 25.532C31.0327 25.316 31.5527 25.208 32.2087 25.208C33.0807 25.208 33.7407 25.404 34.1887 25.796C34.6367 26.188 34.8607 26.76 34.8607 27.512V32H33.0847V27.596ZM38.8993 32.144C38.2593 32.144 37.7153 32.04 37.2673 31.832C36.8273 31.624 36.4393 31.332 36.1033 30.956L37.1713 29.924C37.4033 30.18 37.6673 30.388 37.9633 30.548C38.2673 30.7 38.6073 30.776 38.9833 30.776C39.3513 30.776 39.6193 30.716 39.7873 30.596C39.9553 30.476 40.0393 30.32 40.0393 30.128C40.0393 29.92 39.9713 29.772 39.8353 29.684C39.6993 29.588 39.5153 29.524 39.2833 29.492L38.5993 29.408C37.8713 29.32 37.3113 29.108 36.9193 28.772C36.5353 28.436 36.3433 27.968 36.3433 27.368C36.3433 27.032 36.4033 26.732 36.5233 26.468C36.6513 26.204 36.8273 25.98 37.0513 25.796C37.2833 25.604 37.5553 25.46 37.8673 25.364C38.1873 25.26 38.5393 25.208 38.9233 25.208C39.2433 25.208 39.5313 25.232 39.7873 25.28C40.0433 25.32 40.2753 25.384 40.4833 25.472C40.6993 25.56 40.8953 25.668 41.0713 25.796C41.2473 25.924 41.4193 26.072 41.5873 26.24L40.5433 27.272C40.3513 27.064 40.1153 26.896 39.8353 26.768C39.5553 26.64 39.2633 26.576 38.9593 26.576C38.6313 26.576 38.3913 26.636 38.2393 26.756C38.0873 26.876 38.0113 27.032 38.0113 27.224C38.0113 27.416 38.0713 27.572 38.1913 27.692C38.3193 27.804 38.5353 27.88 38.8393 27.92L39.5233 28.016C39.8673 28.064 40.1713 28.136 40.4353 28.232C40.7073 28.328 40.9353 28.456 41.1193 28.616C41.3113 28.768 41.4553 28.956 41.5513 29.18C41.6553 29.404 41.7073 29.672 41.7073 29.984C41.7073 30.296 41.6393 30.584 41.5033 30.848C41.3673 31.112 41.1753 31.34 40.9273 31.532C40.6873 31.724 40.3913 31.876 40.0393 31.988C39.6953 32.092 39.3153 32.144 38.8993 32.144ZM49.0604 32.144C48.4284 32.144 47.9444 31.924 47.6084 31.484C47.2804 31.044 47.1084 30.416 47.0924 29.6V28.244C47.0924 27.716 46.9844 27.312 46.7684 27.032C46.5524 26.752 46.1924 26.612 45.6884 26.612C45.3284 26.612 45.0244 26.692 44.7764 26.852C44.5284 27.012 44.3484 27.208 44.2364 27.44L44.6684 27.608C44.9564 27.72 45.1524 27.848 45.2564 27.992C45.3604 28.136 45.4124 28.352 45.4124 28.64V30.62H46.0004V32H45.4004C44.7924 32 44.3444 31.852 44.0564 31.556C43.7764 31.26 43.6364 30.832 43.6364 30.272V28.508L42.5924 28.088C42.6244 27.648 42.7244 27.252 42.8924 26.9C43.0604 26.54 43.2804 26.236 43.5524 25.988C43.8244 25.74 44.1444 25.548 44.5124 25.412C44.8804 25.276 45.2844 25.208 45.7244 25.208C46.2364 25.208 46.6884 25.28 47.0804 25.424C47.4724 25.568 47.8004 25.768 48.0644 26.024C48.3284 26.272 48.5284 26.568 48.6644 26.912C48.8004 27.248 48.8684 27.616 48.8684 28.016V29.372C48.8684 29.556 48.8804 29.728 48.9044 29.888C48.9364 30.048 48.9844 30.188 49.0484 30.308C49.1204 30.428 49.2164 30.524 49.3364 30.596C49.4644 30.668 49.6244 30.704 49.8164 30.704C50.0884 30.704 50.3324 30.616 50.5484 30.44C50.7724 30.264 50.8844 30.008 50.8844 29.672V25.352H52.6604V30.62H53.2484V32H52.1804C51.4684 32 51.1004 31.588 51.0764 30.764H50.9924C50.9284 30.948 50.8444 31.124 50.7404 31.292C50.6444 31.452 50.5164 31.596 50.3564 31.724C50.2044 31.852 50.0204 31.952 49.8044 32.024C49.5884 32.104 49.3404 32.144 49.0604 32.144ZM49.4821 23.348C49.4821 22.9 49.6141 22.56 49.8781 22.328C50.1341 22.096 50.5101 21.98 51.0061 21.98H53.5021V23.276H50.8861V24.332H49.4821V23.348Z" fill="white"/>
<path d="M6.65164 53C5.94231 53 5.41964 52.8273 5.08364 52.482C4.75697 52.1367 4.59364 51.6373 4.59364 50.984V45.244H6.66564V51.39H7.63164V53H6.65164ZM12.352 53.168C11.8107 53.168 11.3254 53.0933 10.896 52.944C10.4667 52.7947 10.1027 52.5847 9.80405 52.314C9.50538 52.0433 9.27671 51.712 9.11805 51.32C8.95938 50.928 8.88005 50.494 8.88005 50.018V45.244H10.952V49.92C10.952 50.4333 11.0734 50.83 11.316 51.11C11.568 51.39 11.9134 51.53 12.352 51.53C12.7907 51.53 13.1314 51.39 13.374 51.11C13.6167 50.83 13.738 50.4333 13.738 49.92V42.542H15.81V50.018C15.81 50.494 15.7307 50.928 15.572 51.32C15.4134 51.712 15.1847 52.0433 14.886 52.314C14.5874 52.5847 14.2234 52.7947 13.794 52.944C13.3647 53.0933 12.884 53.168 12.352 53.168ZM8.93823 44.236C8.49023 44.236 8.1309 44.0773 7.86023 43.76C7.58023 43.4427 7.44023 43.0133 7.44023 42.472C7.44023 41.828 7.6269 41.352 8.00023 41.044C8.36423 40.7267 8.86823 40.568 9.51223 40.568H12.9702V41.786H9.56823C9.38157 41.786 9.22757 41.8373 9.10623 41.94C8.9849 42.0427 8.92423 42.2153 8.92423 42.458C8.92423 42.5887 8.96157 42.724 9.03623 42.864C9.10157 42.9947 9.21357 43.06 9.37223 43.06C9.5589 43.06 9.6849 42.99 9.75023 42.85C9.80623 42.71 9.82957 42.5373 9.82023 42.332H10.6182C10.6276 42.5467 10.6649 42.724 10.7302 42.864C10.7956 42.9947 10.9076 43.06 11.0662 43.06C11.1969 43.06 11.2996 43.0133 11.3742 42.92C11.4489 42.8173 11.4862 42.6727 11.4862 42.486V42.094H12.9702V42.626C12.9702 43.1487 12.8396 43.55 12.5782 43.83C12.3169 44.1007 11.9576 44.236 11.5002 44.236C11.3976 44.236 11.2856 44.222 11.1642 44.194C11.0429 44.166 10.9216 44.1193 10.8002 44.054C10.6789 43.9793 10.5716 43.886 10.4782 43.774C10.3756 43.6527 10.3009 43.5033 10.2542 43.326H10.1842C10.0816 43.6713 9.91357 43.9093 9.68023 44.04C9.43757 44.1707 9.19023 44.236 8.93823 44.236ZM20.0254 53.168C19.2227 53.168 18.6114 52.9067 18.1914 52.384C17.7807 51.852 17.5754 51.096 17.5754 50.116V45.244H19.6474V49.934C19.6474 50.158 19.666 50.368 19.7034 50.564C19.7407 50.7507 19.806 50.914 19.8994 51.054C19.9927 51.1847 20.1187 51.292 20.2774 51.376C20.4454 51.4507 20.6507 51.488 20.8934 51.488C21.0614 51.488 21.2294 51.4647 21.3974 51.418C21.5747 51.362 21.7287 51.2827 21.8594 51.18C21.99 51.0773 22.0974 50.9513 22.1814 50.802C22.2654 50.6527 22.3074 50.48 22.3074 50.284V45.244H24.3794V51.39H25.0654V53H23.8194C22.9794 53 22.5454 52.5193 22.5174 51.558H22.4194C22.3447 51.7727 22.242 51.978 22.1114 52.174C21.99 52.3607 21.8314 52.5287 21.6354 52.678C21.4487 52.8273 21.22 52.944 20.9494 53.028C20.688 53.1213 20.38 53.168 20.0254 53.168ZM28.4654 53.168C28.0081 53.168 27.6254 53.0747 27.3174 52.888C27.0187 52.692 26.7807 52.4213 26.6034 52.076C26.4261 51.7213 26.3001 51.2967 26.2254 50.802C26.1601 50.3073 26.1274 49.7567 26.1274 49.15C26.1274 47.9273 26.3794 46.9707 26.8834 46.28C27.3967 45.5893 28.1527 45.244 29.1514 45.244H29.5994V46.938H29.3614C28.9694 46.938 28.6941 47.0593 28.5354 47.302C28.3767 47.5447 28.2974 47.876 28.2974 48.296V50.27C28.2974 50.662 28.3394 50.97 28.4234 51.194C28.5167 51.4087 28.6801 51.516 28.9134 51.516C29.1094 51.516 29.2541 51.446 29.3474 51.306C29.4501 51.1567 29.5014 50.9607 29.5014 50.718V49.374H31.1954V50.718C31.1954 50.9607 31.2467 51.1567 31.3494 51.306C31.4521 51.446 31.5967 51.516 31.7834 51.516C31.9701 51.516 32.1101 51.4507 32.2034 51.32C32.3061 51.1893 32.3574 51.0073 32.3574 50.774V45.244H34.4294V50.984C34.4294 51.6467 34.2521 52.1787 33.8974 52.58C33.5521 52.972 33.0621 53.168 32.4274 53.168C31.8301 53.168 31.3634 53.028 31.0274 52.748C30.7007 52.468 30.5001 52.1227 30.4254 51.712H30.3274C30.2527 52.1227 30.0521 52.468 29.7254 52.748C29.4081 53.028 28.9881 53.168 28.4654 53.168ZM38.4505 53.14C37.7038 53.14 37.1065 52.958 36.6585 52.594C36.2198 52.2207 36.0005 51.642 36.0005 50.858C36.0005 50.13 36.2105 49.5653 36.6305 49.164C37.0505 48.7627 37.6571 48.562 38.4505 48.562H40.7605V48.156C40.7605 47.6893 40.6345 47.3347 40.3825 47.092C40.1398 46.84 39.7385 46.714 39.1785 46.714C38.9078 46.714 38.6698 46.7467 38.4645 46.812C38.2591 46.8773 38.0725 46.966 37.9045 47.078C37.7365 47.1807 37.5871 47.302 37.4565 47.442C37.3258 47.5727 37.2091 47.7127 37.1065 47.862L35.7905 46.714C36.1451 46.21 36.5931 45.8133 37.1345 45.524C37.6758 45.2253 38.4038 45.076 39.3185 45.076C40.4851 45.076 41.3625 45.3327 41.9505 45.846C42.5385 46.35 42.8325 47.0967 42.8325 48.086V53H40.7605V49.878H39.1925C38.4645 49.878 38.1005 50.1767 38.1005 50.774V51.012C38.1005 51.3013 38.1751 51.5347 38.3245 51.712C38.4738 51.88 38.6931 51.964 38.9825 51.964C39.0385 51.964 39.0945 51.964 39.1505 51.964C39.2065 51.964 39.2625 51.9547 39.3185 51.936L39.4585 53.042C39.4118 53.0607 39.3465 53.0747 39.2625 53.084C39.1878 53.1027 39.0991 53.112 38.9965 53.112C38.9031 53.1213 38.8051 53.126 38.7025 53.126C38.6091 53.1353 38.5251 53.14 38.4505 53.14ZM47.741 53.168C47.1997 53.168 46.7143 53.0747 46.285 52.888C45.8557 52.7013 45.4917 52.4353 45.193 52.09C44.8943 51.7447 44.6657 51.3247 44.507 50.83C44.3483 50.326 44.269 49.7567 44.269 49.122C44.269 48.506 44.3577 47.9507 44.535 47.456C44.7123 46.952 44.9643 46.5273 45.291 46.182C45.627 45.8273 46.0283 45.5567 46.495 45.37C46.9617 45.174 47.4843 45.076 48.063 45.076C48.6137 45.076 49.113 45.1553 49.561 45.314C50.009 45.4633 50.387 45.6827 50.695 45.972C51.0123 46.2613 51.255 46.6113 51.423 47.022C51.6003 47.4327 51.689 47.8947 51.689 48.408V53H49.617V48.506C49.617 47.9367 49.477 47.498 49.197 47.19C48.9263 46.8727 48.5437 46.714 48.049 46.714C47.545 46.714 47.1483 46.882 46.859 47.218C46.579 47.5447 46.439 48.002 46.439 48.59V49.626C46.439 50.8953 46.9523 51.53 47.979 51.53C48.0723 51.53 48.1517 51.53 48.217 51.53C48.2917 51.5207 48.3663 51.5067 48.441 51.488L48.679 53.084C48.539 53.1213 48.3757 53.1447 48.189 53.154C48.0023 53.1633 47.853 53.168 47.741 53.168ZM45.2254 42.542H49.8174V41.31H51.6934V44.054H45.2254V42.542Z" fill="white"/>
<path d="M4.28486 67.508L3.24086 67.088C3.27286 66.648 3.37686 66.252 3.55286 65.9C3.73686 65.54 3.97686 65.236 4.27286 64.988C4.56886 64.74 4.91686 64.548 5.31686 64.412C5.72486 64.276 6.16886 64.208 6.64886 64.208C7.13686 64.208 7.57286 64.276 7.95686 64.412C8.34886 64.54 8.68086 64.728 8.95286 64.976C9.22486 65.216 9.43286 65.512 9.57686 65.864C9.72886 66.208 9.80486 66.592 9.80486 67.016V71H8.02886V67.244C8.02886 66.732 7.89686 66.332 7.63286 66.044C7.37686 65.756 6.99686 65.612 6.49286 65.612C6.10886 65.612 5.77686 65.692 5.49686 65.852C5.22486 66.012 5.02486 66.212 4.89686 66.452L5.31686 66.608C5.60486 66.72 5.80086 66.848 5.90486 66.992C6.00886 67.136 6.06086 67.352 6.06086 67.64V71H4.28486V67.508ZM8.15064 63.332C7.65464 63.332 7.27864 63.216 7.02264 62.984C6.75864 62.752 6.62664 62.412 6.62664 61.964V60.98H8.03064V62.036H11.2466V63.332H8.15064ZM14.2886 71.144C13.8246 71.144 13.4086 71.08 13.0406 70.952C12.6726 70.824 12.3606 70.644 12.1046 70.412C11.8486 70.18 11.6526 69.896 11.5166 69.56C11.3806 69.224 11.3126 68.852 11.3126 68.444V64.352H13.0886V68.36C13.0886 68.8 13.1926 69.14 13.4006 69.38C13.6166 69.62 13.9126 69.74 14.2886 69.74C14.6646 69.74 14.9566 69.62 15.1646 69.38C15.3726 69.14 15.4766 68.8 15.4766 68.36V64.352H17.2526V68.444C17.2526 68.852 17.1846 69.224 17.0486 69.56C16.9126 69.896 16.7166 70.18 16.4606 70.412C16.2046 70.644 15.8926 70.824 15.5246 70.952C15.1566 71.08 14.7446 71.144 14.2886 71.144ZM21.2978 71.144C20.6578 71.144 20.1138 71.04 19.6658 70.832C19.2258 70.624 18.8378 70.332 18.5018 69.956L19.5698 68.924C19.8018 69.18 20.0658 69.388 20.3618 69.548C20.6658 69.7 21.0058 69.776 21.3818 69.776C21.7498 69.776 22.0178 69.716 22.1858 69.596C22.3538 69.476 22.4378 69.32 22.4378 69.128C22.4378 68.92 22.3698 68.772 22.2338 68.684C22.0978 68.588 21.9138 68.524 21.6818 68.492L20.9978 68.408C20.2698 68.32 19.7098 68.108 19.3178 67.772C18.9338 67.436 18.7418 66.968 18.7418 66.368C18.7418 66.032 18.8018 65.732 18.9218 65.468C19.0498 65.204 19.2258 64.98 19.4498 64.796C19.6818 64.604 19.9538 64.46 20.2658 64.364C20.5858 64.26 20.9378 64.208 21.3218 64.208C21.6418 64.208 21.9298 64.232 22.1858 64.28C22.4418 64.32 22.6738 64.384 22.8818 64.472C23.0978 64.56 23.2938 64.668 23.4698 64.796C23.6458 64.924 23.8178 65.072 23.9858 65.24L22.9418 66.272C22.7498 66.064 22.5138 65.896 22.2338 65.768C21.9538 65.64 21.6618 65.576 21.3578 65.576C21.0298 65.576 20.7898 65.636 20.6378 65.756C20.4858 65.876 20.4098 66.032 20.4098 66.224C20.4098 66.416 20.4698 66.572 20.5898 66.692C20.7178 66.804 20.9338 66.88 21.2378 66.92L21.9218 67.016C22.2658 67.064 22.5698 67.136 22.8338 67.232C23.1058 67.328 23.3338 67.456 23.5178 67.616C23.7098 67.768 23.8538 67.956 23.9498 68.18C24.0538 68.404 24.1058 68.672 24.1058 68.984C24.1058 69.296 24.0378 69.584 23.9018 69.848C23.7658 70.112 23.5738 70.34 23.3258 70.532C23.0858 70.724 22.7898 70.876 22.4378 70.988C22.0938 71.092 21.7138 71.144 21.2978 71.144ZM22.3889 63.332C21.8929 63.332 21.5169 63.216 21.2609 62.984C20.9969 62.752 20.8649 62.412 20.8649 61.964V60.98H22.2689V62.036H25.4849V63.332H22.3889ZM25.9629 68.552H25.3269V67.172H26.2389C26.5429 67.172 26.7789 67.232 26.9469 67.352C27.1149 67.472 27.2469 67.668 27.3429 67.94L27.9549 69.68H28.2789C28.5269 69.68 28.7269 69.552 28.8789 69.296C29.0309 69.032 29.1069 68.664 29.1069 68.192V67.088C29.1069 66.624 28.9749 66.264 28.7109 66.008C28.4549 65.744 28.0909 65.612 27.6189 65.612C27.3629 65.612 27.1349 65.648 26.9349 65.72C26.7429 65.792 26.5709 65.88 26.4189 65.984C26.2669 66.08 26.1389 66.188 26.0349 66.308C25.9309 66.428 25.8469 66.536 25.7829 66.632L24.7029 65.672C24.8309 65.48 24.9829 65.296 25.1589 65.12C25.3429 64.944 25.5549 64.788 25.7949 64.652C26.0429 64.516 26.3229 64.408 26.6349 64.328C26.9469 64.248 27.3029 64.208 27.7029 64.208C28.0949 64.208 28.4549 64.256 28.7829 64.352C29.1109 64.44 29.4029 64.572 29.6589 64.748C29.7069 64.492 29.8189 64.304 29.9949 64.184C30.1709 64.064 30.3989 64.004 30.6789 64.004H32.1429V65.468H30.4149V65.54C30.7749 66.108 30.9549 66.808 30.9549 67.64C30.9549 68.168 30.8909 68.64 30.7629 69.056C30.6349 69.472 30.4509 69.824 30.2109 70.112C29.9789 70.4 29.6949 70.62 29.3589 70.772C29.0309 70.924 28.6589 71 28.2429 71H26.8629L25.9629 68.552ZM25.1469 72.62H25.6989C25.9789 72.62 26.1669 72.548 26.2629 72.404C26.3669 72.268 26.4269 72.08 26.4429 71.84H27.6549C27.6709 72.048 27.7229 72.228 27.8109 72.38C27.8989 72.54 28.0589 72.62 28.2909 72.62C28.4509 72.62 28.5789 72.568 28.6749 72.464C28.7789 72.36 28.8309 72.2 28.8309 71.984V71.504H30.6069V71.948C30.6069 72.612 30.4469 73.12 30.1269 73.472C29.8069 73.824 29.3469 74 28.7469 74C28.2909 74 27.9189 73.9 27.6309 73.7C27.3429 73.5 27.1629 73.26 27.0909 72.98H27.0189C26.9789 73.116 26.9269 73.244 26.8629 73.364C26.8069 73.492 26.7269 73.6 26.6229 73.688C26.5189 73.784 26.3909 73.86 26.2389 73.916C26.0949 73.972 25.9149 74 25.6989 74H25.1469V72.62ZM35.98 71.144C35.516 71.144 35.1 71.08 34.732 70.952C34.364 70.824 34.052 70.644 33.796 70.412C33.54 70.18 33.344 69.896 33.208 69.56C33.072 69.224 33.004 68.852 33.004 68.444V64.352H34.78V68.36C34.78 68.8 34.884 69.14 35.092 69.38C35.308 69.62 35.604 69.74 35.98 69.74C36.356 69.74 36.648 69.62 36.856 69.38C37.064 69.14 37.168 68.8 37.168 68.36V64.352H38.944V68.444C38.944 68.852 38.876 69.224 38.74 69.56C38.604 69.896 38.408 70.18 38.152 70.412C37.896 70.644 37.584 70.824 37.216 70.952C36.848 71.08 36.436 71.144 35.98 71.144ZM43.3972 66.596C43.3972 66.292 43.3172 66.052 43.1572 65.876C43.0052 65.7 42.7492 65.612 42.3892 65.612C42.0452 65.612 41.7732 65.688 41.5732 65.84C41.3732 65.984 41.2052 66.152 41.0692 66.344L40.0132 65.408C40.2692 65.032 40.5852 64.74 40.9612 64.532C41.3452 64.316 41.8652 64.208 42.5212 64.208C43.3932 64.208 44.0532 64.404 44.5012 64.796C44.9492 65.188 45.1732 65.76 45.1732 66.512V71H43.3972V66.596ZM48.6118 71.12C47.9718 71.12 47.4598 70.964 47.0758 70.652C46.6998 70.332 46.5118 69.836 46.5118 69.164C46.5118 68.54 46.6918 68.056 47.0518 67.712C47.4118 67.368 47.9318 67.196 48.6118 67.196H50.5918V66.848C50.5918 66.448 50.4838 66.144 50.2678 65.936C50.0598 65.72 49.7158 65.612 49.2358 65.612C49.0038 65.612 48.7998 65.64 48.6238 65.696C48.4478 65.752 48.2878 65.828 48.1438 65.924C47.9998 66.012 47.8718 66.116 47.7598 66.236C47.6478 66.348 47.5478 66.468 47.4598 66.596L46.3318 65.612C46.6358 65.18 47.0198 64.84 47.4838 64.592C47.9478 64.336 48.5718 64.208 49.3558 64.208C50.3558 64.208 51.1078 64.428 51.6118 64.868C52.1158 65.3 52.3678 65.94 52.3678 66.788V71H50.5918V68.324H49.2478C48.6238 68.324 48.3118 68.58 48.3118 69.092V69.296C48.3118 69.544 48.3758 69.744 48.5038 69.896C48.6318 70.04 48.8198 70.112 49.0678 70.112C49.1158 70.112 49.1638 70.112 49.2118 70.112C49.2598 70.112 49.3078 70.104 49.3558 70.088L49.4758 71.036C49.4358 71.052 49.3798 71.064 49.3078 71.072C49.2438 71.088 49.1678 71.096 49.0798 71.096C48.9998 71.104 48.9158 71.108 48.8278 71.108C48.7478 71.116 48.6758 71.12 48.6118 71.12Z" fill="white"/>
<circle cx="28" cy="107" r="8" fill="#F92D46"/>
<rect x="22.207" y="105.621" width="11.0345" height="2.75862" fill="black"/>
<path d="M5.09008 129C4.48208 129 4.03408 128.852 3.74608 128.556C3.46608 128.26 3.32608 127.832 3.32608 127.272V122.352H5.10208V127.62H5.93008V129H5.09008ZM7.07214 122.352H8.84814V124.2L10.3721 123.996C10.6041 123.964 10.7681 123.888 10.8641 123.768C10.9681 123.64 11.0361 123.432 11.0681 123.144L11.1521 122.352H12.9881L12.9041 123.204C12.8641 123.572 12.7201 123.888 12.4721 124.152C12.2241 124.408 11.8681 124.556 11.4041 124.596V124.656C11.7081 124.704 11.9521 124.808 12.1361 124.968C12.3201 125.128 12.4641 125.316 12.5681 125.532C12.6801 125.74 12.7561 125.96 12.7961 126.192C12.8441 126.424 12.8761 126.632 12.8921 126.816L13.0961 129H11.2721L11.0921 126.696C11.0601 126.28 10.9521 125.964 10.7681 125.748C10.5841 125.524 10.3281 125.432 10.0001 125.472L8.84814 125.616V129H7.07214V122.352ZM17.297 129.144C16.297 129.144 15.529 128.856 14.993 128.28C14.457 127.696 14.189 126.82 14.189 125.652C14.189 124.524 14.365 123.668 14.717 123.084C15.077 122.5 15.609 122.208 16.313 122.208C16.705 122.208 17.021 122.312 17.261 122.52C17.509 122.728 17.665 123.024 17.729 123.408H17.813C17.877 123.024 18.049 122.728 18.329 122.52C18.609 122.312 18.965 122.208 19.397 122.208C19.901 122.208 20.305 122.38 20.609 122.724C20.921 123.06 21.077 123.532 21.077 124.14V129H19.301V124.392C19.301 124.152 19.257 123.972 19.169 123.852C19.081 123.732 18.961 123.672 18.809 123.672C18.625 123.672 18.493 123.752 18.413 123.912C18.333 124.072 18.277 124.28 18.245 124.536H17.189C17.157 124.28 17.105 124.072 17.033 123.912C16.961 123.752 16.833 123.672 16.649 123.672C16.433 123.672 16.277 123.78 16.181 123.996C16.093 124.212 16.049 124.528 16.049 124.944V126.252C16.049 126.468 16.073 126.664 16.121 126.84C16.169 127.016 16.249 127.168 16.361 127.296C16.481 127.416 16.637 127.512 16.829 127.584C17.021 127.648 17.265 127.68 17.561 127.68C17.697 127.68 17.833 127.664 17.969 127.632L18.173 129.048C18.085 129.08 17.953 129.104 17.777 129.12C17.601 129.136 17.441 129.144 17.297 129.144ZM19.6281 131.388H18.7761V130.248H19.9641C20.3641 130.248 20.6521 130.332 20.8281 130.5C20.9961 130.668 21.0801 130.896 21.0801 131.184V133.2H19.6281V131.388ZM23.2341 125.508L22.1901 125.088C22.2221 124.648 22.3261 124.252 22.5021 123.9C22.6861 123.54 22.9261 123.236 23.2221 122.988C23.5181 122.74 23.8661 122.548 24.2661 122.412C24.6741 122.276 25.1181 122.208 25.5981 122.208C26.0861 122.208 26.5221 122.276 26.9061 122.412C27.2981 122.54 27.6301 122.728 27.9021 122.976C28.1741 123.216 28.3821 123.512 28.5261 123.864C28.6781 124.208 28.7541 124.592 28.7541 125.016V129H26.9781V125.244C26.9781 124.732 26.8461 124.332 26.5821 124.044C26.3261 123.756 25.9461 123.612 25.4421 123.612C25.0581 123.612 24.7261 123.692 24.4461 123.852C24.1741 124.012 23.9741 124.212 23.8461 124.452L24.2661 124.608C24.5541 124.72 24.7501 124.848 24.8541 124.992C24.9581 125.136 25.0101 125.352 25.0101 125.64V129H23.2341V125.508ZM33.0847 124.596C33.0847 124.292 33.0047 124.052 32.8447 123.876C32.6927 123.7 32.4367 123.612 32.0767 123.612C31.7327 123.612 31.4607 123.688 31.2607 123.84C31.0607 123.984 30.8927 124.152 30.7567 124.344L29.7007 123.408C29.9567 123.032 30.2727 122.74 30.6487 122.532C31.0327 122.316 31.5527 122.208 32.2087 122.208C33.0807 122.208 33.7407 122.404 34.1887 122.796C34.6367 123.188 34.8607 123.76 34.8607 124.512V129H33.0847V124.596ZM38.8993 129.144C38.2593 129.144 37.7153 129.04 37.2673 128.832C36.8273 128.624 36.4393 128.332 36.1033 127.956L37.1713 126.924C37.4033 127.18 37.6673 127.388 37.9633 127.548C38.2673 127.7 38.6073 127.776 38.9833 127.776C39.3513 127.776 39.6193 127.716 39.7873 127.596C39.9553 127.476 40.0393 127.32 40.0393 127.128C40.0393 126.92 39.9713 126.772 39.8353 126.684C39.6993 126.588 39.5153 126.524 39.2833 126.492L38.5993 126.408C37.8713 126.32 37.3113 126.108 36.9193 125.772C36.5353 125.436 36.3433 124.968 36.3433 124.368C36.3433 124.032 36.4033 123.732 36.5233 123.468C36.6513 123.204 36.8273 122.98 37.0513 122.796C37.2833 122.604 37.5553 122.46 37.8673 122.364C38.1873 122.26 38.5393 122.208 38.9233 122.208C39.2433 122.208 39.5313 122.232 39.7873 122.28C40.0433 122.32 40.2753 122.384 40.4833 122.472C40.6993 122.56 40.8953 122.668 41.0713 122.796C41.2473 122.924 41.4193 123.072 41.5873 123.24L40.5433 124.272C40.3513 124.064 40.1153 123.896 39.8353 123.768C39.5553 123.64 39.2633 123.576 38.9593 123.576C38.6313 123.576 38.3913 123.636 38.2393 123.756C38.0873 123.876 38.0113 124.032 38.0113 124.224C38.0113 124.416 38.0713 124.572 38.1913 124.692C38.3193 124.804 38.5353 124.88 38.8393 124.92L39.5233 125.016C39.8673 125.064 40.1713 125.136 40.4353 125.232C40.7073 125.328 40.9353 125.456 41.1193 125.616C41.3113 125.768 41.4553 125.956 41.5513 126.18C41.6553 126.404 41.7073 126.672 41.7073 126.984C41.7073 127.296 41.6393 127.584 41.5033 127.848C41.3673 128.112 41.1753 128.34 40.9273 128.532C40.6873 128.724 40.3913 128.876 40.0393 128.988C39.6953 129.092 39.3153 129.144 38.8993 129.144ZM49.0604 129.144C48.4284 129.144 47.9444 128.924 47.6084 128.484C47.2804 128.044 47.1084 127.416 47.0924 126.6V125.244C47.0924 124.716 46.9844 124.312 46.7684 124.032C46.5524 123.752 46.1924 123.612 45.6884 123.612C45.3284 123.612 45.0244 123.692 44.7764 123.852C44.5284 124.012 44.3484 124.208 44.2364 124.44L44.6684 124.608C44.9564 124.72 45.1524 124.848 45.2564 124.992C45.3604 125.136 45.4124 125.352 45.4124 125.64V127.62H46.0004V129H45.4004C44.7924 129 44.3444 128.852 44.0564 128.556C43.7764 128.26 43.6364 127.832 43.6364 127.272V125.508L42.5924 125.088C42.6244 124.648 42.7244 124.252 42.8924 123.9C43.0604 123.54 43.2804 123.236 43.5524 122.988C43.8244 122.74 44.1444 122.548 44.5124 122.412C44.8804 122.276 45.2844 122.208 45.7244 122.208C46.2364 122.208 46.6884 122.28 47.0804 122.424C47.4724 122.568 47.8004 122.768 48.0644 123.024C48.3284 123.272 48.5284 123.568 48.6644 123.912C48.8004 124.248 48.8684 124.616 48.8684 125.016V126.372C48.8684 126.556 48.8804 126.728 48.9044 126.888C48.9364 127.048 48.9844 127.188 49.0484 127.308C49.1204 127.428 49.2164 127.524 49.3364 127.596C49.4644 127.668 49.6244 127.704 49.8164 127.704C50.0884 127.704 50.3324 127.616 50.5484 127.44C50.7724 127.264 50.8844 127.008 50.8844 126.672V122.352H52.6604V127.62H53.2484V129H52.1804C51.4684 129 51.1004 128.588 51.0764 127.764H50.9924C50.9284 127.948 50.8444 128.124 50.7404 128.292C50.6444 128.452 50.5164 128.596 50.3564 128.724C50.2044 128.852 50.0204 128.952 49.8044 129.024C49.5884 129.104 49.3404 129.144 49.0604 129.144ZM49.4821 120.348C49.4821 119.9 49.6141 119.56 49.8781 119.328C50.1341 119.096 50.5101 118.98 51.0061 118.98H53.5021V120.276H50.8861V121.332H49.4821V120.348Z" fill="white"/>
<path d="M2.53641 150C1.82707 150 1.30441 149.827 0.968406 149.482C0.64174 149.137 0.478406 148.637 0.478406 147.984V142.244H2.55041V148.39H3.51641V150H2.53641ZM8.23681 150.168C7.69548 150.168 7.21015 150.093 6.78081 149.944C6.35148 149.795 5.98748 149.585 5.68881 149.314C5.39015 149.043 5.16148 148.712 5.00281 148.32C4.84415 147.928 4.76481 147.494 4.76481 147.018V142.244H6.83681V146.92C6.83681 147.433 6.95815 147.83 7.20081 148.11C7.45281 148.39 7.79815 148.53 8.23681 148.53C8.67548 148.53 9.01615 148.39 9.25881 148.11C9.50148 147.83 9.62281 147.433 9.62281 146.92V139.542H11.6948V147.018C11.6948 147.494 11.6155 147.928 11.4568 148.32C11.2981 148.712 11.0695 149.043 10.7708 149.314C10.4721 149.585 10.1081 149.795 9.67881 149.944C9.24948 150.093 8.76881 150.168 8.23681 150.168ZM4.823 141.236C4.375 141.236 4.01567 141.077 3.745 140.76C3.465 140.443 3.325 140.013 3.325 139.472C3.325 138.828 3.51167 138.352 3.885 138.044C4.249 137.727 4.753 137.568 5.397 137.568H8.855V138.786H5.453C5.26633 138.786 5.11233 138.837 4.991 138.94C4.86967 139.043 4.809 139.215 4.809 139.458C4.809 139.589 4.84633 139.724 4.921 139.864C4.98633 139.995 5.09833 140.06 5.257 140.06C5.44367 140.06 5.56967 139.99 5.635 139.85C5.691 139.71 5.71433 139.537 5.705 139.332H6.503C6.51233 139.547 6.54967 139.724 6.615 139.864C6.68033 139.995 6.79233 140.06 6.951 140.06C7.08167 140.06 7.18433 140.013 7.259 139.92C7.33367 139.817 7.371 139.673 7.371 139.486V139.094H8.855V139.626C8.855 140.149 8.72433 140.55 8.463 140.83C8.20167 141.101 7.84233 141.236 7.385 141.236C7.28233 141.236 7.17033 141.222 7.049 141.194C6.92767 141.166 6.80633 141.119 6.685 141.054C6.56367 140.979 6.45633 140.886 6.363 140.774C6.26033 140.653 6.18567 140.503 6.139 140.326H6.069C5.96633 140.671 5.79833 140.909 5.565 141.04C5.32233 141.171 5.075 141.236 4.823 141.236ZM15.9101 150.168C15.1075 150.168 14.4961 149.907 14.0761 149.384C13.6655 148.852 13.4601 148.096 13.4601 147.116V142.244H15.5321V146.934C15.5321 147.158 15.5508 147.368 15.5881 147.564C15.6255 147.751 15.6908 147.914 15.7841 148.054C15.8775 148.185 16.0035 148.292 16.1621 148.376C16.3301 148.451 16.5355 148.488 16.7781 148.488C16.9461 148.488 17.1141 148.465 17.2821 148.418C17.4595 148.362 17.6135 148.283 17.7441 148.18C17.8748 148.077 17.9821 147.951 18.0661 147.802C18.1501 147.653 18.1921 147.48 18.1921 147.284V142.244H20.2641V148.39H20.9501V150H19.7041C18.8641 150 18.4301 149.519 18.4021 148.558H18.3041C18.2295 148.773 18.1268 148.978 17.9961 149.174C17.8748 149.361 17.7161 149.529 17.5201 149.678C17.3335 149.827 17.1048 149.944 16.8341 150.028C16.5728 150.121 16.2648 150.168 15.9101 150.168ZM24.3502 150.168C23.8928 150.168 23.5102 150.075 23.2022 149.888C22.9035 149.692 22.6655 149.421 22.4882 149.076C22.3108 148.721 22.1848 148.297 22.1102 147.802C22.0448 147.307 22.0122 146.757 22.0122 146.15C22.0122 144.927 22.2642 143.971 22.7682 143.28C23.2815 142.589 24.0375 142.244 25.0362 142.244H25.4842V143.938H25.2462C24.8542 143.938 24.5788 144.059 24.4202 144.302C24.2615 144.545 24.1822 144.876 24.1822 145.296V147.27C24.1822 147.662 24.2242 147.97 24.3082 148.194C24.4015 148.409 24.5648 148.516 24.7982 148.516C24.9942 148.516 25.1388 148.446 25.2322 148.306C25.3348 148.157 25.3862 147.961 25.3862 147.718V146.374H27.0802V147.718C27.0802 147.961 27.1315 148.157 27.2342 148.306C27.3368 148.446 27.4815 148.516 27.6682 148.516C27.8548 148.516 27.9948 148.451 28.0882 148.32C28.1908 148.189 28.2422 148.007 28.2422 147.774V142.244H30.3142V147.984C30.3142 148.647 30.1368 149.179 29.7822 149.58C29.4368 149.972 28.9468 150.168 28.3122 150.168C27.7148 150.168 27.2482 150.028 26.9122 149.748C26.5855 149.468 26.3848 149.123 26.3102 148.712H26.2122C26.1375 149.123 25.9368 149.468 25.6102 149.748C25.2928 150.028 24.8728 150.168 24.3502 150.168ZM34.3352 150.14C33.5886 150.14 32.9912 149.958 32.5432 149.594C32.1046 149.221 31.8852 148.642 31.8852 147.858C31.8852 147.13 32.0952 146.565 32.5152 146.164C32.9352 145.763 33.5419 145.562 34.3352 145.562H36.6452V145.156C36.6452 144.689 36.5192 144.335 36.2672 144.092C36.0246 143.84 35.6232 143.714 35.0632 143.714C34.7926 143.714 34.5546 143.747 34.3492 143.812C34.1439 143.877 33.9572 143.966 33.7892 144.078C33.6212 144.181 33.4719 144.302 33.3412 144.442C33.2106 144.573 33.0939 144.713 32.9912 144.862L31.6752 143.714C32.0299 143.21 32.4779 142.813 33.0192 142.524C33.5606 142.225 34.2886 142.076 35.2032 142.076C36.3699 142.076 37.2472 142.333 37.8352 142.846C38.4232 143.35 38.7172 144.097 38.7172 145.086V150H36.6452V146.878H35.0772C34.3492 146.878 33.9852 147.177 33.9852 147.774V148.012C33.9852 148.301 34.0599 148.535 34.2092 148.712C34.3586 148.88 34.5779 148.964 34.8672 148.964C34.9232 148.964 34.9792 148.964 35.0352 148.964C35.0912 148.964 35.1472 148.955 35.2032 148.936L35.3432 150.042C35.2966 150.061 35.2312 150.075 35.1472 150.084C35.0726 150.103 34.9839 150.112 34.8812 150.112C34.7879 150.121 34.6899 150.126 34.5872 150.126C34.4939 150.135 34.4099 150.14 34.3352 150.14ZM42.7298 150.14C41.9831 150.14 41.3858 149.958 40.9378 149.594C40.4991 149.221 40.2798 148.642 40.2798 147.858C40.2798 147.13 40.4898 146.565 40.9098 146.164C41.3298 145.763 41.9364 145.562 42.7298 145.562H45.0398V145.156C45.0398 144.689 44.9138 144.335 44.6618 144.092C44.4191 143.84 44.0178 143.714 43.4578 143.714C43.1871 143.714 42.9491 143.747 42.7438 143.812C42.5384 143.877 42.3518 143.966 42.1838 144.078C42.0158 144.181 41.8664 144.302 41.7358 144.442C41.6051 144.573 41.4884 144.713 41.3858 144.862L40.0698 143.714C40.4244 143.21 40.8724 142.813 41.4138 142.524C41.9551 142.225 42.6831 142.076 43.5978 142.076C44.7644 142.076 45.6418 142.333 46.2298 142.846C46.8178 143.35 47.1118 144.097 47.1118 145.086V150H45.0398V146.878H43.4718C42.7438 146.878 42.3798 147.177 42.3798 147.774V148.012C42.3798 148.301 42.4544 148.535 42.6038 148.712C42.7531 148.88 42.9724 148.964 43.2618 148.964C43.3178 148.964 43.3738 148.964 43.4298 148.964C43.4858 148.964 43.5418 148.955 43.5978 148.936L43.7378 150.042C43.6911 150.061 43.6258 150.075 43.5418 150.084C43.4671 150.103 43.3784 150.112 43.2758 150.112C43.1824 150.121 43.0844 150.126 42.9818 150.126C42.8884 150.135 42.8044 150.14 42.7298 150.14ZM52.3423 150.168C51.8009 150.168 51.3156 150.093 50.8863 149.944C50.4569 149.795 50.0929 149.585 49.7943 149.314C49.4956 149.043 49.2669 148.712 49.1083 148.32C48.9496 147.928 48.8703 147.494 48.8703 147.018V142.244H50.9423V146.92C50.9423 147.433 51.0636 147.83 51.3063 148.11C51.5583 148.39 51.9036 148.53 52.3423 148.53C52.7809 148.53 53.1216 148.39 53.3643 148.11C53.6069 147.83 53.7283 147.433 53.7283 146.92V142.244H55.8003V147.018C55.8003 147.494 55.7209 147.928 55.5623 148.32C55.4036 148.712 55.1749 149.043 54.8763 149.314C54.5776 149.585 54.2136 149.795 53.7843 149.944C53.3549 150.093 52.8743 150.168 52.3423 150.168Z" fill="white"/>
<path d="M4.28486 164.508L3.24086 164.088C3.27286 163.648 3.37686 163.252 3.55286 162.9C3.73686 162.54 3.97686 162.236 4.27286 161.988C4.56886 161.74 4.91686 161.548 5.31686 161.412C5.72486 161.276 6.16886 161.208 6.64886 161.208C7.13686 161.208 7.57286 161.276 7.95686 161.412C8.34886 161.54 8.68086 161.728 8.95286 161.976C9.22486 162.216 9.43286 162.512 9.57686 162.864C9.72886 163.208 9.80486 163.592 9.80486 164.016V168H8.02886V164.244C8.02886 163.732 7.89686 163.332 7.63286 163.044C7.37686 162.756 6.99686 162.612 6.49286 162.612C6.10886 162.612 5.77686 162.692 5.49686 162.852C5.22486 163.012 5.02486 163.212 4.89686 163.452L5.31686 163.608C5.60486 163.72 5.80086 163.848 5.90486 163.992C6.00886 164.136 6.06086 164.352 6.06086 164.64V168H4.28486V164.508ZM8.15064 160.332C7.65464 160.332 7.27864 160.216 7.02264 159.984C6.75864 159.752 6.62664 159.412 6.62664 158.964V157.98H8.03064V159.036H11.2466V160.332H8.15064ZM14.2886 168.144C13.8246 168.144 13.4086 168.08 13.0406 167.952C12.6726 167.824 12.3606 167.644 12.1046 167.412C11.8486 167.18 11.6526 166.896 11.5166 166.56C11.3806 166.224 11.3126 165.852 11.3126 165.444V161.352H13.0886V165.36C13.0886 165.8 13.1926 166.14 13.4006 166.38C13.6166 166.62 13.9126 166.74 14.2886 166.74C14.6646 166.74 14.9566 166.62 15.1646 166.38C15.3726 166.14 15.4766 165.8 15.4766 165.36V161.352H17.2526V165.444C17.2526 165.852 17.1846 166.224 17.0486 166.56C16.9126 166.896 16.7166 167.18 16.4606 167.412C16.2046 167.644 15.8926 167.824 15.5246 167.952C15.1566 168.08 14.7446 168.144 14.2886 168.144ZM21.2978 168.144C20.6578 168.144 20.1138 168.04 19.6658 167.832C19.2258 167.624 18.8378 167.332 18.5018 166.956L19.5698 165.924C19.8018 166.18 20.0658 166.388 20.3618 166.548C20.6658 166.7 21.0058 166.776 21.3818 166.776C21.7498 166.776 22.0178 166.716 22.1858 166.596C22.3538 166.476 22.4378 166.32 22.4378 166.128C22.4378 165.92 22.3698 165.772 22.2338 165.684C22.0978 165.588 21.9138 165.524 21.6818 165.492L20.9978 165.408C20.2698 165.32 19.7098 165.108 19.3178 164.772C18.9338 164.436 18.7418 163.968 18.7418 163.368C18.7418 163.032 18.8018 162.732 18.9218 162.468C19.0498 162.204 19.2258 161.98 19.4498 161.796C19.6818 161.604 19.9538 161.46 20.2658 161.364C20.5858 161.26 20.9378 161.208 21.3218 161.208C21.6418 161.208 21.9298 161.232 22.1858 161.28C22.4418 161.32 22.6738 161.384 22.8818 161.472C23.0978 161.56 23.2938 161.668 23.4698 161.796C23.6458 161.924 23.8178 162.072 23.9858 162.24L22.9418 163.272C22.7498 163.064 22.5138 162.896 22.2338 162.768C21.9538 162.64 21.6618 162.576 21.3578 162.576C21.0298 162.576 20.7898 162.636 20.6378 162.756C20.4858 162.876 20.4098 163.032 20.4098 163.224C20.4098 163.416 20.4698 163.572 20.5898 163.692C20.7178 163.804 20.9338 163.88 21.2378 163.92L21.9218 164.016C22.2658 164.064 22.5698 164.136 22.8338 164.232C23.1058 164.328 23.3338 164.456 23.5178 164.616C23.7098 164.768 23.8538 164.956 23.9498 165.18C24.0538 165.404 24.1058 165.672 24.1058 165.984C24.1058 166.296 24.0378 166.584 23.9018 166.848C23.7658 167.112 23.5738 167.34 23.3258 167.532C23.0858 167.724 22.7898 167.876 22.4378 167.988C22.0938 168.092 21.7138 168.144 21.2978 168.144ZM22.3889 160.332C21.8929 160.332 21.5169 160.216 21.2609 159.984C20.9969 159.752 20.8649 159.412 20.8649 158.964V157.98H22.2689V159.036H25.4849V160.332H22.3889ZM25.9629 165.552H25.3269V164.172H26.2389C26.5429 164.172 26.7789 164.232 26.9469 164.352C27.1149 164.472 27.2469 164.668 27.3429 164.94L27.9549 166.68H28.2789C28.5269 166.68 28.7269 166.552 28.8789 166.296C29.0309 166.032 29.1069 165.664 29.1069 165.192V164.088C29.1069 163.624 28.9749 163.264 28.7109 163.008C28.4549 162.744 28.0909 162.612 27.6189 162.612C27.3629 162.612 27.1349 162.648 26.9349 162.72C26.7429 162.792 26.5709 162.88 26.4189 162.984C26.2669 163.08 26.1389 163.188 26.0349 163.308C25.9309 163.428 25.8469 163.536 25.7829 163.632L24.7029 162.672C24.8309 162.48 24.9829 162.296 25.1589 162.12C25.3429 161.944 25.5549 161.788 25.7949 161.652C26.0429 161.516 26.3229 161.408 26.6349 161.328C26.9469 161.248 27.3029 161.208 27.7029 161.208C28.0949 161.208 28.4549 161.256 28.7829 161.352C29.1109 161.44 29.4029 161.572 29.6589 161.748C29.7069 161.492 29.8189 161.304 29.9949 161.184C30.1709 161.064 30.3989 161.004 30.6789 161.004H32.1429V162.468H30.4149V162.54C30.7749 163.108 30.9549 163.808 30.9549 164.64C30.9549 165.168 30.8909 165.64 30.7629 166.056C30.6349 166.472 30.4509 166.824 30.2109 167.112C29.9789 167.4 29.6949 167.62 29.3589 167.772C29.0309 167.924 28.6589 168 28.2429 168H26.8629L25.9629 165.552ZM25.1469 169.62H25.6989C25.9789 169.62 26.1669 169.548 26.2629 169.404C26.3669 169.268 26.4269 169.08 26.4429 168.84H27.6549C27.6709 169.048 27.7229 169.228 27.8109 169.38C27.8989 169.54 28.0589 169.62 28.2909 169.62C28.4509 169.62 28.5789 169.568 28.6749 169.464C28.7789 169.36 28.8309 169.2 28.8309 168.984V168.504H30.6069V168.948C30.6069 169.612 30.4469 170.12 30.1269 170.472C29.8069 170.824 29.3469 171 28.7469 171C28.2909 171 27.9189 170.9 27.6309 170.7C27.3429 170.5 27.1629 170.26 27.0909 169.98H27.0189C26.9789 170.116 26.9269 170.244 26.8629 170.364C26.8069 170.492 26.7269 170.6 26.6229 170.688C26.5189 170.784 26.3909 170.86 26.2389 170.916C26.0949 170.972 25.9149 171 25.6989 171H25.1469V169.62ZM35.98 168.144C35.516 168.144 35.1 168.08 34.732 167.952C34.364 167.824 34.052 167.644 33.796 167.412C33.54 167.18 33.344 166.896 33.208 166.56C33.072 166.224 33.004 165.852 33.004 165.444V161.352H34.78V165.36C34.78 165.8 34.884 166.14 35.092 166.38C35.308 166.62 35.604 166.74 35.98 166.74C36.356 166.74 36.648 166.62 36.856 166.38C37.064 166.14 37.168 165.8 37.168 165.36V161.352H38.944V165.444C38.944 165.852 38.876 166.224 38.74 166.56C38.604 166.896 38.408 167.18 38.152 167.412C37.896 167.644 37.584 167.824 37.216 167.952C36.848 168.08 36.436 168.144 35.98 168.144ZM43.3972 163.596C43.3972 163.292 43.3172 163.052 43.1572 162.876C43.0052 162.7 42.7492 162.612 42.3892 162.612C42.0452 162.612 41.7732 162.688 41.5732 162.84C41.3732 162.984 41.2052 163.152 41.0692 163.344L40.0132 162.408C40.2692 162.032 40.5852 161.74 40.9612 161.532C41.3452 161.316 41.8652 161.208 42.5212 161.208C43.3932 161.208 44.0532 161.404 44.5012 161.796C44.9492 162.188 45.1732 162.76 45.1732 163.512V168H43.3972V163.596ZM48.6118 168.12C47.9718 168.12 47.4598 167.964 47.0758 167.652C46.6998 167.332 46.5118 166.836 46.5118 166.164C46.5118 165.54 46.6918 165.056 47.0518 164.712C47.4118 164.368 47.9318 164.196 48.6118 164.196H50.5918V163.848C50.5918 163.448 50.4838 163.144 50.2678 162.936C50.0598 162.72 49.7158 162.612 49.2358 162.612C49.0038 162.612 48.7998 162.64 48.6238 162.696C48.4478 162.752 48.2878 162.828 48.1438 162.924C47.9998 163.012 47.8718 163.116 47.7598 163.236C47.6478 163.348 47.5478 163.468 47.4598 163.596L46.3318 162.612C46.6358 162.18 47.0198 161.84 47.4838 161.592C47.9478 161.336 48.5718 161.208 49.3558 161.208C50.3558 161.208 51.1078 161.428 51.6118 161.868C52.1158 162.3 52.3678 162.94 52.3678 163.788V168H50.5918V165.324H49.2478C48.6238 165.324 48.3118 165.58 48.3118 166.092V166.296C48.3118 166.544 48.3758 166.744 48.5038 166.896C48.6318 167.04 48.8198 167.112 49.0678 167.112C49.1158 167.112 49.1638 167.112 49.2118 167.112C49.2598 167.112 49.3078 167.104 49.3558 167.088L49.4758 168.036C49.4358 168.052 49.3798 168.064 49.3078 168.072C49.2438 168.088 49.1678 168.096 49.0798 168.096C48.9998 168.104 48.9158 168.108 48.8278 168.108C48.7478 168.116 48.6758 168.12 48.6118 168.12Z" fill="white"/>
</svg>
