<svg width="175" height="175" viewBox="0 0 175 175" fill="none" xmlns="http://www.w3.org/2000/svg">
<path d="M134.391 42.886L173.554 54.1795L152.11 88.8406L151.956 89.0894L152.097 89.3454L171.804 125.023L132.131 134.369L131.847 134.436L131.766 134.717L120.472 173.879L85.811 152.436L85.5622 152.282L85.3062 152.423L49.6286 172.129L40.2825 132.457L40.2154 132.173L39.9344 132.091L0.772136 120.798L22.2159 86.1368L22.3698 85.888L22.2284 85.632L2.52227 49.9544L42.1944 40.6083L42.4791 40.5413L42.5602 40.2602L53.8537 1.09794L88.5148 22.5417L88.7636 22.6956L89.0196 22.5542L124.697 2.84807L134.043 42.5202L134.11 42.8049L134.391 42.886Z" fill="white" stroke="black"/>
<path d="M60.1628 81.8857L59.4569 96.0338" stroke="black" stroke-width="0.75" stroke-linecap="round" stroke-linejoin="round"/>
<path d="M114.975 81.8857L116.51 94.9136" stroke="black" stroke-width="0.75" stroke-linecap="round" stroke-linejoin="round"/>
<path d="M85.0064 100.177C84.9947 100.357 84.9477 100.532 84.868 100.693C84.7883 100.855 84.6776 100.998 84.5421 101.117C84.4067 101.235 84.2492 101.326 84.0787 101.383C83.9082 101.44 83.728 101.463 83.5486 101.451C83.3706 101.47 83.1906 101.452 83.0201 101.398C82.8496 101.343 82.6926 101.253 82.5592 101.133C82.4259 101.014 82.3192 100.868 82.2462 100.704C82.1731 100.541 82.1354 100.364 82.1354 100.185C82.1354 100.006 82.1731 99.8287 82.2462 99.6653C82.3192 99.5018 82.4259 99.3556 82.5592 99.2361C82.6926 99.1167 82.8496 99.0267 83.0201 98.972C83.1906 98.9173 83.3706 98.8992 83.5486 98.9188C83.9085 98.8934 84.2639 99.0116 84.537 99.2474C84.8101 99.4831 84.9789 99.8174 85.0064 100.177Z" fill="black"/>
<path d="M82.2288 81.1187C83.3056 82.5113 83.9606 84.1835 84.1162 85.937" stroke="black" stroke-width="0.5" stroke-linecap="round" stroke-linejoin="round"/>
<path d="M92.9089 81.1187C91.8321 82.5113 91.1771 84.1835 91.0215 85.937" stroke="black" stroke-width="0.5" stroke-linecap="round" stroke-linejoin="round"/>
<path d="M106.136 84.6326C106.136 84.6326 99.8602 81.8859 95.0419 84.6326" stroke="black" stroke-width="0.75" stroke-linecap="round" stroke-linejoin="round"/>
<path d="M107.594 79.8142C106.443 79.3232 104.034 78.9548 100.275 78.0034L91.5587 75.7631L92.3567 72.9397C94.2594 73.4768 99.4614 74.9191 100.704 75.1032C102.555 75.6033 104.37 76.2287 106.136 76.9753L107.594 79.8142Z" fill="black"/>
<path d="M69.0782 85.2158C69.0782 85.2158 75.0014 81.8859 80.1727 85.2158" stroke="black" stroke-width="0.75" stroke-linecap="round" stroke-linejoin="round"/>
<path d="M76.1215 85.5072C76.1215 85.8107 76.0315 86.1073 75.8629 86.3596C75.6943 86.612 75.4546 86.8086 75.1742 86.9248C74.8938 87.0409 74.5853 87.0715 74.2876 87.0123C73.99 86.953 73.7165 86.8069 73.5019 86.5923C73.2873 86.3777 73.1412 86.1042 73.082 85.8065C73.0228 85.5088 73.0532 85.2003 73.1693 84.9199C73.2854 84.6395 73.4821 84.4 73.7345 84.2313C73.9868 84.0627 74.2835 83.9727 74.587 83.9727C74.994 83.9727 75.3843 84.1343 75.672 84.422C75.9598 84.7098 76.1215 85.1002 76.1215 85.5072Z" fill="black" stroke="black" stroke-width="0.75" stroke-linecap="round" stroke-linejoin="round"/>
<path d="M101.149 85.5072C101.149 85.8107 101.059 86.1073 100.891 86.3596C100.722 86.612 100.482 86.8086 100.202 86.9248C99.9217 87.0409 99.6131 87.0715 99.3155 87.0123C99.0178 86.953 98.7444 86.8069 98.5298 86.5923C98.3152 86.3777 98.169 86.1042 98.1098 85.8065C98.0506 85.5088 98.081 85.2003 98.1971 84.9199C98.3133 84.6395 98.51 84.4 98.7623 84.2313C99.0147 84.0627 99.3113 83.9727 99.6148 83.9727C100.022 83.9727 100.412 84.1343 100.7 84.422C100.988 84.7098 101.149 85.1002 101.149 85.5072Z" fill="black" stroke="black" stroke-width="0.75" stroke-linecap="round" stroke-linejoin="round"/>
<path d="M66.2548 80.4893L67.7893 77.1901C69.8338 76.0377 72.0973 75.3267 74.4336 75.1032C76.0449 74.8577 82.7967 72.9397 82.7967 72.9397L83.1803 75.4561C80.5827 76.7959 77.7657 77.6587 74.8633 78.0034C71.8961 78.4459 69.0011 79.2819 66.2548 80.4893Z" fill="black"/>
<path d="M78.1472 112.898C84.2169 110.564 90.9366 110.564 97.0062 112.898" stroke="black" stroke-width="0.75" stroke-linecap="round" stroke-linejoin="round"/>
<path d="M121.251 91.0466C118.029 92.4584 116.648 101.006 116.648 101.006" stroke="black" stroke-width="0.5" stroke-linecap="round" stroke-linejoin="round"/>
<path d="M80.4028 97.2922C80.4028 97.2922 76.7814 100.975 81.4462 103.43" stroke="black" stroke-width="0.5" stroke-linecap="round" stroke-linejoin="round"/>
<path d="M90.1316 100.177C90.1427 100.364 90.192 100.546 90.2765 100.713C90.361 100.88 90.4788 101.027 90.6226 101.147C90.7665 101.266 90.9333 101.355 91.1128 101.407C91.2923 101.459 91.4806 101.474 91.6661 101.451C91.844 101.47 92.0241 101.452 92.1946 101.398C92.3651 101.343 92.5221 101.253 92.6555 101.134C92.7888 101.014 92.8955 100.868 92.9685 100.704C93.0416 100.541 93.0793 100.364 93.0793 100.185C93.0793 100.006 93.0416 99.8288 92.9685 99.6653C92.8955 99.5019 92.7888 99.3556 92.6555 99.2362C92.5221 99.1167 92.3651 99.0267 92.1946 98.9721C92.0241 98.9174 91.844 98.8992 91.6661 98.9189C91.4818 98.8954 91.2947 98.9098 91.1162 98.9612C90.9377 99.0126 90.7715 99.0999 90.6279 99.2176C90.4843 99.3354 90.3662 99.4812 90.2808 99.6462C90.1955 99.8112 90.1447 99.992 90.1316 100.177V100.177Z" fill="black"/>
<path d="M94.7505 97.2922C94.7505 97.2922 98.3565 100.975 93.0625 103.43" stroke="black" stroke-width="0.5" stroke-linecap="round" stroke-linejoin="round"/>
<path d="M87.5688 69.7327V75.3334" stroke="black" stroke-width="0.5" stroke-linecap="round" stroke-linejoin="round"/>
<path d="M79.2059 99.8855L74.3722 115.369" stroke="black" stroke-width="0.5" stroke-linecap="round" stroke-linejoin="round"/>
<path d="M95.932 99.8855L100.781 115.369" stroke="black" stroke-width="0.5" stroke-linecap="round" stroke-linejoin="round"/>
<path d="M84.1315 88.9292V91.9982C84.125 92.7682 83.8292 93.5076 83.3029 94.0697L81.4462 96.0032" stroke="black" stroke-width="0.5" stroke-linecap="round" stroke-linejoin="round"/>
<path d="M85.7736 114.985H90.1315" stroke="black" stroke-width="0.5" stroke-linecap="round" stroke-linejoin="round"/>
<path d="M116.632 98.7654V103.262" stroke="black" stroke-width="0.5" stroke-linecap="round" stroke-linejoin="round"/>
<path d="M53.8866 91.0466C57.2165 92.4584 58.4901 101.006 58.4901 101.006" stroke="black" stroke-width="0.5" stroke-linecap="round" stroke-linejoin="round"/>
<path d="M58.5055 98.7654V103.262" stroke="black" stroke-width="0.5" stroke-linecap="round" stroke-linejoin="round"/>
<path d="M87.569 131.957C87.569 131.957 69.6767 133.246 63.8149 121.768C62.3568 118.309 61.2564 114.709 60.5311 111.026C58.1526 111.579 56.3265 108.832 56.1424 107.175C55.9583 105.517 53.2115 102.065 51.3854 98.3972C49.5594 94.7298 48.6387 87.4255 53.0274 87.2414C57.416 87.0572 59.3648 92.5048 59.3648 92.5048" stroke="black" stroke-width="0.75" stroke-linecap="round" stroke-linejoin="round"/>
<path d="M87.5688 131.956C87.5688 131.956 105.461 133.245 111.323 121.767C112.764 118.302 113.864 114.705 114.607 111.026C116.985 111.578 118.811 108.832 118.995 107.174C119.18 105.517 121.926 102.064 123.752 98.397C125.578 94.7295 126.499 87.4252 122.11 87.2411C117.722 87.057 116.264 91.998 116.264 91.998" stroke="black" stroke-width="0.75" stroke-linecap="round" stroke-linejoin="round"/>
<path d="M118.029 88.9291C118.029 88.9291 123.461 73.8296 122.187 67.799C120.914 61.7684 111.2 55.3542 111.2 55.3542C111.2 55.3542 110.847 49.692 103.159 45.8404C95.4716 41.9888 88.9346 40.5309 77.9629 43.8301C66.9912 47.1293 62.9402 50.2136 60.04 52.2545C57.1397 54.2954 49.6821 65.4514 52.1066 76.3924C54.5311 87.3334 55.8968 87.9163 55.8968 87.9163C56.9974 88.7756 57.9466 89.8129 58.7049 90.9853L60.1627 81.7783L61.2522 69.6098C61.2522 69.6098 55.5285 59.4513 74.8019 53.4207C74.8019 53.4207 85.5434 47.9273 108.914 56.9348C108.914 56.9348 116.586 62.0448 115.052 82.515L116.08 90.4636" fill="black"/>
<path d="M118.029 88.9291C118.029 88.9291 123.461 73.8296 122.187 67.799C120.914 61.7684 111.2 55.3542 111.2 55.3542C111.2 55.3542 110.847 49.692 103.159 45.8404C95.4716 41.9888 88.9346 40.5309 77.9629 43.8301C66.9912 47.1293 62.9402 50.2136 60.04 52.2545C57.1397 54.2954 49.6821 65.4514 52.1066 76.3924C54.5311 87.3334 55.8968 87.9163 55.8968 87.9163C56.9974 88.7756 57.9466 89.8129 58.7049 90.9853L60.1627 81.7783L61.2522 69.6098C61.2522 69.6098 55.5285 59.4513 74.8019 53.4207C74.8019 53.4207 85.5434 47.9273 108.914 56.9348C108.914 56.9348 116.586 62.0448 115.052 82.515L116.08 90.4636" stroke="black" stroke-width="0.75" stroke-linecap="round" stroke-linejoin="round"/>
<path d="M60.5309 110.98L59.7637 107.635" stroke="black" stroke-width="0.75" stroke-linecap="round" stroke-linejoin="round"/>
<path d="M114.622 110.98L115.267 107.635" stroke="black" stroke-width="0.75" stroke-linecap="round" stroke-linejoin="round"/>
<path d="M55.1143 97.2922L56.2038 101.451" stroke="black" stroke-width="0.5" stroke-linecap="round" stroke-linejoin="round"/>
<path d="M120.024 97.2922L118.949 101.451" stroke="black" stroke-width="0.5" stroke-linecap="round" stroke-linejoin="round"/>
</svg>
