<svg width="42" height="94" viewBox="0 0 42 94" fill="none" xmlns="http://www.w3.org/2000/svg">
<path d="M6.23331 12.144C5.59331 12.144 5.04931 12.04 4.60131 11.832C4.16131 11.624 3.77331 11.332 3.43731 10.956L4.50531 9.924C4.73731 10.18 5.00131 10.388 5.29731 10.548C5.60131 10.7 5.94131 10.776 6.31731 10.776C6.68531 10.776 6.95331 10.716 7.12131 10.596C7.28931 10.476 7.37331 10.32 7.37331 10.128C7.37331 9.92 7.30531 9.772 7.16931 9.684C7.03331 9.588 6.84931 9.524 6.61731 9.492L5.93331 9.408C5.20531 9.32 4.64531 9.108 4.25331 8.772C3.86931 8.436 3.67731 7.968 3.67731 7.368C3.67731 7.032 3.73731 6.732 3.85731 6.468C3.98531 6.204 4.16131 5.98 4.38531 5.796C4.61731 5.604 4.88931 5.46 5.20131 5.364C5.52131 5.26 5.87331 5.208 6.25731 5.208C6.57731 5.208 6.86531 5.232 7.12131 5.28C7.37731 5.32 7.60931 5.384 7.81731 5.472C8.03331 5.56 8.22931 5.668 8.40531 5.796C8.58131 5.924 8.75331 6.072 8.92131 6.24L7.87731 7.272C7.68531 7.064 7.44931 6.896 7.16931 6.768C6.88931 6.64 6.59731 6.576 6.29331 6.576C5.96531 6.576 5.72531 6.636 5.57331 6.756C5.42131 6.876 5.34531 7.032 5.34531 7.224C5.34531 7.416 5.40531 7.572 5.52531 7.692C5.65331 7.804 5.86931 7.88 6.17331 7.92L6.85731 8.016C7.20131 8.064 7.50531 8.136 7.76931 8.232C8.04131 8.328 8.26931 8.456 8.45331 8.616C8.64531 8.768 8.78931 8.956 8.88531 9.18C8.98931 9.404 9.04131 9.672 9.04131 9.984C9.04131 10.296 8.97331 10.584 8.83731 10.848C8.70131 11.112 8.50931 11.34 8.26131 11.532C8.02131 11.724 7.72531 11.876 7.37331 11.988C7.02931 12.092 6.64931 12.144 6.23331 12.144ZM7.32447 4.332C6.82847 4.332 6.45247 4.216 6.19647 3.984C5.93247 3.752 5.80047 3.412 5.80047 2.964V1.98H7.20447V3.036H10.4205V4.332H7.32447ZM10.8984 9.552H10.2624V8.172H11.1744C11.4784 8.172 11.7144 8.232 11.8824 8.352C12.0504 8.472 12.1824 8.668 12.2784 8.94L12.8904 10.68H13.2144C13.4624 10.68 13.6624 10.552 13.8144 10.296C13.9664 10.032 14.0424 9.664 14.0424 9.192V8.088C14.0424 7.624 13.9104 7.264 13.6464 7.008C13.3904 6.744 13.0264 6.612 12.5544 6.612C12.2984 6.612 12.0704 6.648 11.8704 6.72C11.6784 6.792 11.5064 6.88 11.3544 6.984C11.2024 7.08 11.0744 7.188 10.9704 7.308C10.8664 7.428 10.7824 7.536 10.7184 7.632L9.63841 6.672C9.76641 6.48 9.91841 6.296 10.0944 6.12C10.2784 5.944 10.4904 5.788 10.7304 5.652C10.9784 5.516 11.2584 5.408 11.5704 5.328C11.8824 5.248 12.2384 5.208 12.6384 5.208C13.0304 5.208 13.3904 5.256 13.7184 5.352C14.0464 5.44 14.3384 5.572 14.5944 5.748C14.6424 5.492 14.7544 5.304 14.9304 5.184C15.1064 5.064 15.3344 5.004 15.6144 5.004H17.0784V6.468H15.3504V6.54C15.7104 7.108 15.8904 7.808 15.8904 8.64C15.8904 9.168 15.8264 9.64 15.6984 10.056C15.5704 10.472 15.3864 10.824 15.1464 11.112C14.9144 11.4 14.6304 11.62 14.2944 11.772C13.9664 11.924 13.5944 12 13.1784 12H11.7984L10.8984 9.552ZM10.0824 13.62H10.6344C10.9144 13.62 11.1024 13.548 11.1984 13.404C11.3024 13.268 11.3624 13.08 11.3784 12.84H12.5904C12.6064 13.048 12.6584 13.228 12.7464 13.38C12.8344 13.54 12.9944 13.62 13.2264 13.62C13.3864 13.62 13.5144 13.568 13.6104 13.464C13.7144 13.36 13.7664 13.2 13.7664 12.984V12.504H15.5424V12.948C15.5424 13.612 15.3824 14.12 15.0624 14.472C14.7424 14.824 14.2824 15 13.6824 15C13.2264 15 12.8544 14.9 12.5664 14.7C12.2784 14.5 12.0984 14.26 12.0264 13.98H11.9544C11.9144 14.116 11.8624 14.244 11.7984 14.364C11.7424 14.492 11.6624 14.6 11.5584 14.688C11.4544 14.784 11.3264 14.86 11.1744 14.916C11.0304 14.972 10.8504 15 10.6344 15H10.0824V13.62ZM20.9156 12.144C20.4516 12.144 20.0356 12.08 19.6676 11.952C19.2996 11.824 18.9876 11.644 18.7316 11.412C18.4756 11.18 18.2796 10.896 18.1436 10.56C18.0076 10.224 17.9396 9.852 17.9396 9.444V5.352H19.7156V9.36C19.7156 9.8 19.8196 10.14 20.0276 10.38C20.2436 10.62 20.5396 10.74 20.9156 10.74C21.2916 10.74 21.5836 10.62 21.7916 10.38C21.9996 10.14 22.1036 9.8 22.1036 9.36V5.352H23.8796V9.444C23.8796 9.852 23.8116 10.224 23.6756 10.56C23.5396 10.896 23.3436 11.18 23.0876 11.412C22.8316 11.644 22.5196 11.824 22.1516 11.952C21.7836 12.08 21.3716 12.144 20.9156 12.144ZM28.3327 7.596C28.3327 7.292 28.2527 7.052 28.0927 6.876C27.9407 6.7 27.6847 6.612 27.3247 6.612C26.9807 6.612 26.7087 6.688 26.5087 6.84C26.3087 6.984 26.1407 7.152 26.0047 7.344L24.9487 6.408C25.2047 6.032 25.5207 5.74 25.8967 5.532C26.2807 5.316 26.8007 5.208 27.4567 5.208C28.3287 5.208 28.9887 5.404 29.4367 5.796C29.8847 6.188 30.1087 6.76 30.1087 7.512V12H28.3327V7.596ZM33.5474 12.12C32.9074 12.12 32.3954 11.964 32.0114 11.652C31.6354 11.332 31.4474 10.836 31.4474 10.164C31.4474 9.54 31.6274 9.056 31.9874 8.712C32.3474 8.368 32.8674 8.196 33.5474 8.196H35.5274V7.848C35.5274 7.448 35.4194 7.144 35.2034 6.936C34.9954 6.72 34.6514 6.612 34.1714 6.612C33.9394 6.612 33.7354 6.64 33.5594 6.696C33.3834 6.752 33.2234 6.828 33.0794 6.924C32.9354 7.012 32.8074 7.116 32.6954 7.236C32.5834 7.348 32.4834 7.468 32.3954 7.596L31.2674 6.612C31.5714 6.18 31.9554 5.84 32.4194 5.592C32.8834 5.336 33.5074 5.208 34.2914 5.208C35.2914 5.208 36.0434 5.428 36.5474 5.868C37.0514 6.3 37.3034 6.94 37.3034 7.788V12H35.5274V9.324H34.1834C33.5594 9.324 33.2474 9.58 33.2474 10.092V10.296C33.2474 10.544 33.3114 10.744 33.4394 10.896C33.5674 11.04 33.7554 11.112 34.0034 11.112C34.0514 11.112 34.0994 11.112 34.1474 11.112C34.1954 11.112 34.2434 11.104 34.2914 11.088L34.4114 12.036C34.3714 12.052 34.3154 12.064 34.2434 12.072C34.1794 12.088 34.1034 12.096 34.0154 12.096C33.9354 12.104 33.8514 12.108 33.7634 12.108C33.6834 12.116 33.6114 12.12 33.5474 12.12ZM4.02302 30.144C3.55902 30.144 3.14302 30.08 2.77502 29.952C2.40702 29.824 2.09502 29.644 1.83902 29.412C1.58302 29.18 1.38702 28.896 1.25102 28.56C1.11502 28.224 1.04702 27.852 1.04702 27.444V23.352H2.82302V27.36C2.82302 27.8 2.92702 28.14 3.13502 28.38C3.35102 28.62 3.64702 28.74 4.02302 28.74C4.39902 28.74 4.69102 28.62 4.89902 28.38C5.10702 28.14 5.21102 27.8 5.21102 27.36V21.036H6.98702V27.444C6.98702 27.852 6.91902 28.224 6.78302 28.56C6.64702 28.896 6.45102 29.18 6.19502 29.412C5.93902 29.644 5.62702 29.824 5.25902 29.952C4.89102 30.08 4.47902 30.144 4.02302 30.144ZM11.0321 30.144C10.3921 30.144 9.84814 30.04 9.40014 29.832C8.96014 29.624 8.57214 29.332 8.23614 28.956L9.30414 27.924C9.53614 28.18 9.80014 28.388 10.0961 28.548C10.4001 28.7 10.7401 28.776 11.1161 28.776C11.4841 28.776 11.7521 28.716 11.9201 28.596C12.0881 28.476 12.1721 28.32 12.1721 28.128C12.1721 27.92 12.1041 27.772 11.9681 27.684C11.8321 27.588 11.6481 27.524 11.4161 27.492L10.7321 27.408C10.0041 27.32 9.44414 27.108 9.05214 26.772C8.66814 26.436 8.47614 25.968 8.47614 25.368C8.47614 25.032 8.53614 24.732 8.65614 24.468C8.78414 24.204 8.96014 23.98 9.18414 23.796C9.41614 23.604 9.68814 23.46 10.0001 23.364C10.3201 23.26 10.6721 23.208 11.0561 23.208C11.3761 23.208 11.6641 23.232 11.9201 23.28C12.1761 23.32 12.4081 23.384 12.6161 23.472C12.8321 23.56 13.0281 23.668 13.2041 23.796C13.3801 23.924 13.5521 24.072 13.7201 24.24L12.6761 25.272C12.4841 25.064 12.2481 24.896 11.9681 24.768C11.6881 24.64 11.3961 24.576 11.0921 24.576C10.7641 24.576 10.5241 24.636 10.3721 24.756C10.2201 24.876 10.1441 25.032 10.1441 25.224C10.1441 25.416 10.2041 25.572 10.3241 25.692C10.4521 25.804 10.6681 25.88 10.9721 25.92L11.6561 26.016C12.0001 26.064 12.3041 26.136 12.5681 26.232C12.8401 26.328 13.0681 26.456 13.2521 26.616C13.4441 26.768 13.5881 26.956 13.6841 27.18C13.7881 27.404 13.8401 27.672 13.8401 27.984C13.8401 28.296 13.7721 28.584 13.6361 28.848C13.5001 29.112 13.3081 29.34 13.0601 29.532C12.8201 29.724 12.5241 29.876 12.1721 29.988C11.8281 30.092 11.4481 30.144 11.0321 30.144ZM16.6452 29.052C16.1492 29.052 15.7692 28.936 15.5052 28.704C15.2492 28.472 15.1212 28.132 15.1212 27.684V26.94H16.5972V27.6H18.4932V29.052H16.6452ZM16.6452 26.112C16.1492 26.112 15.7692 25.996 15.5052 25.764C15.2492 25.532 15.1212 25.192 15.1212 24.744V24H16.5972V24.66H18.4932V26.112H16.6452ZM22.576 30.144C21.704 30.144 21.02 29.976 20.524 29.64C20.028 29.296 19.78 28.812 19.78 28.188C19.78 27.804 19.892 27.476 20.116 27.204C20.348 26.932 20.644 26.74 21.004 26.628V26.556C20.604 26.452 20.292 26.256 20.068 25.968C19.844 25.68 19.732 25.336 19.732 24.936C19.732 24.68 19.78 24.448 19.876 24.24C19.972 24.024 20.104 23.84 20.272 23.688C20.448 23.536 20.656 23.42 20.896 23.34C21.144 23.252 21.412 23.208 21.7 23.208C21.884 23.208 22.092 23.228 22.324 23.268C22.564 23.3 22.776 23.368 22.96 23.472L22.588 24.744C22.492 24.688 22.396 24.652 22.3 24.636C22.212 24.612 22.116 24.6 22.012 24.6C21.828 24.6 21.664 24.656 21.52 24.768C21.384 24.872 21.316 25.028 21.316 25.236C21.316 25.676 21.596 25.896 22.156 25.896H22.78V27.072H22.156C21.98 27.072 21.836 27.132 21.724 27.252C21.612 27.364 21.556 27.516 21.556 27.708V27.936C21.556 28.208 21.648 28.412 21.832 28.548C22.016 28.676 22.284 28.74 22.636 28.74C23.036 28.74 23.352 28.632 23.584 28.416C23.816 28.192 23.932 27.868 23.932 27.444V23.352H25.708V27.672C25.708 28.048 25.632 28.388 25.48 28.692C25.336 28.996 25.128 29.256 24.856 29.472C24.584 29.688 24.256 29.856 23.872 29.976C23.488 30.088 23.056 30.144 22.576 30.144ZM24.257 32.388H23.405V31.248H24.593C24.993 31.248 25.281 31.332 25.457 31.5C25.625 31.668 25.709 31.896 25.709 32.184V34.2H24.257V32.388ZM27.287 23.352H29.063V24.468H29.123C29.179 24.3 29.259 24.14 29.363 23.988C29.467 23.836 29.595 23.704 29.747 23.592C29.907 23.472 30.095 23.38 30.311 23.316C30.527 23.244 30.779 23.208 31.067 23.208C31.779 23.208 32.315 23.436 32.675 23.892C33.043 24.34 33.227 24.984 33.227 25.824V30H31.451V25.98C31.451 25.548 31.363 25.22 31.187 24.996C31.019 24.764 30.731 24.648 30.323 24.648C30.163 24.648 30.007 24.672 29.855 24.72C29.711 24.76 29.579 24.824 29.459 24.912C29.339 25 29.243 25.108 29.171 25.236C29.099 25.364 29.063 25.512 29.063 25.68V30H27.287V23.352ZM34.6904 27.48H36.2744V28.68H38.5664V27.768C38.5664 27.456 38.4864 27.236 38.3264 27.108C38.1744 26.98 37.9104 26.9 37.5344 26.868L34.5704 26.628V25.656C34.5704 24.88 34.8184 24.28 35.3144 23.856C35.8184 23.424 36.5504 23.208 37.5104 23.208C38.1424 23.208 38.6784 23.292 39.1184 23.46C39.5664 23.628 39.9504 23.852 40.2704 24.132L39.4304 25.272C39.2224 25.064 38.9384 24.896 38.5784 24.768C38.2264 24.64 37.8304 24.576 37.3904 24.576C36.9904 24.576 36.6824 24.656 36.4664 24.816C36.2504 24.976 36.1424 25.188 36.1424 25.452L37.7624 25.596C38.1704 25.636 38.5304 25.696 38.8424 25.776C39.1544 25.848 39.4144 25.964 39.6224 26.124C39.8384 26.276 39.9984 26.476 40.1024 26.724C40.2144 26.964 40.2704 27.268 40.2704 27.636V28.272C40.2704 28.832 40.1264 29.26 39.8384 29.556C39.5584 29.852 39.1184 30 38.5184 30H34.6904V27.48ZM37.0954 21.348C37.0954 20.9 37.2274 20.56 37.4914 20.328C37.7474 20.096 38.1234 19.98 38.6194 19.98H41.1154V21.276H38.4994V22.332H37.0954V21.348Z" fill="white"/>
<path d="M4.16852 48.12C3.50452 48.12 2.97652 47.956 2.58452 47.628C2.19252 47.3 1.99652 46.824 1.99652 46.2C1.99652 45.592 2.18852 45.124 2.57252 44.796C2.96452 44.468 3.49652 44.304 4.16852 44.304H6.25652V43.68C6.25652 42.648 5.69252 42.132 4.56452 42.132C4.08452 42.132 3.68052 42.232 3.35252 42.432C3.03252 42.624 2.77252 42.892 2.57252 43.236L1.96052 42.696C2.16852 42.304 2.48852 41.976 2.92052 41.712C3.35252 41.44 3.91652 41.304 4.61252 41.304C5.30052 41.304 5.85652 41.448 6.28052 41.736C6.31252 41.32 6.53652 41.112 6.95252 41.112H8.54852V42H6.61652C7.01652 42.4 7.21652 42.944 7.21652 43.632V48H6.25652V44.988H4.38452C3.95252 44.988 3.61652 45.08 3.37652 45.264C3.13652 45.448 3.01652 45.708 3.01652 46.044V46.32C3.01652 46.68 3.12452 46.956 3.34052 47.148C3.56452 47.332 3.86452 47.424 4.24052 47.424C4.35252 47.424 4.44452 47.42 4.51652 47.412C4.59652 47.404 4.66052 47.396 4.70852 47.388L4.79252 48.048C4.74452 48.072 4.65252 48.088 4.51652 48.096C4.38852 48.112 4.27252 48.12 4.16852 48.12ZM10.009 48.144C9.75295 48.144 9.56495 48.08 9.44495 47.952C9.33295 47.824 9.27695 47.656 9.27695 47.448V47.292C9.27695 47.084 9.33295 46.916 9.44495 46.788C9.56495 46.66 9.75295 46.596 10.009 46.596C10.265 46.596 10.449 46.66 10.561 46.788C10.681 46.916 10.741 47.084 10.741 47.292V47.448C10.741 47.656 10.681 47.824 10.561 47.952C10.449 48.08 10.265 48.144 10.009 48.144ZM12.6065 43.896C12.6065 43.504 12.6705 43.148 12.7985 42.828C12.9345 42.508 13.1265 42.236 13.3745 42.012C13.6225 41.78 13.9225 41.604 14.2745 41.484C14.6265 41.364 15.0225 41.304 15.4625 41.304C15.8945 41.304 16.2865 41.364 16.6385 41.484C16.9905 41.604 17.2905 41.78 17.5385 42.012C17.7865 42.236 17.9785 42.508 18.1145 42.828C18.2505 43.148 18.3185 43.504 18.3185 43.896V48H17.3585V43.992C17.3585 43.392 17.1905 42.932 16.8545 42.612C16.5265 42.292 16.0625 42.132 15.4625 42.132C14.8625 42.132 14.3945 42.292 14.0585 42.612C13.7305 42.932 13.5665 43.392 13.5665 43.992V45.552H13.6265C13.6825 45.4 13.7585 45.256 13.8545 45.12C13.9505 44.976 14.0705 44.852 14.2145 44.748C14.3585 44.636 14.5265 44.548 14.7185 44.484C14.9185 44.42 15.1465 44.388 15.4025 44.388H15.7985V45.348H15.2465C14.7345 45.348 14.3265 45.448 14.0225 45.648C13.7185 45.848 13.5665 46.124 13.5665 46.476V48H12.6065V43.896ZM20.9074 48.144C20.6514 48.144 20.4634 48.08 20.3434 47.952C20.2314 47.824 20.1754 47.656 20.1754 47.448V47.292C20.1754 47.084 20.2314 46.916 20.3434 46.788C20.4634 46.66 20.6514 46.596 20.9074 46.596C21.1634 46.596 21.3474 46.66 21.4594 46.788C21.5794 46.916 21.6394 47.084 21.6394 47.292V47.448C21.6394 47.656 21.5794 47.824 21.4594 47.952C21.3474 48.08 21.1634 48.144 20.9074 48.144ZM31.3569 40.512H27.6849L27.4449 43.704H27.5289C27.7289 43.424 27.9529 43.2 28.2009 43.032C28.4569 42.864 28.8049 42.78 29.2449 42.78C29.6049 42.78 29.9369 42.84 30.2409 42.96C30.5449 43.08 30.8089 43.252 31.0329 43.476C31.2569 43.692 31.4289 43.96 31.5489 44.28C31.6769 44.6 31.7409 44.964 31.7409 45.372C31.7409 45.78 31.6769 46.156 31.5489 46.5C31.4209 46.836 31.2329 47.128 30.9849 47.376C30.7449 47.616 30.4489 47.804 30.0969 47.94C29.7529 48.076 29.3609 48.144 28.9209 48.144C28.5689 48.144 28.2569 48.104 27.9849 48.024C27.7209 47.944 27.4849 47.836 27.2769 47.7C27.0689 47.564 26.8849 47.412 26.7249 47.244C26.5729 47.076 26.4329 46.9 26.3049 46.716L27.0609 46.14C27.1649 46.308 27.2729 46.46 27.3849 46.596C27.5049 46.732 27.6329 46.848 27.7689 46.944C27.9129 47.04 28.0769 47.116 28.2609 47.172C28.4449 47.22 28.6649 47.244 28.9209 47.244C29.4969 47.244 29.9329 47.092 30.2289 46.788C30.5249 46.484 30.6729 46.056 30.6729 45.504V45.384C30.6729 44.832 30.5249 44.404 30.2289 44.1C29.9329 43.796 29.4969 43.644 28.9209 43.644C28.5369 43.644 28.2329 43.716 28.0089 43.86C27.7929 43.996 27.5969 44.16 27.4209 44.352L26.5689 44.232L26.8689 39.624H31.3569V40.512ZM34.6762 48L37.8802 40.488H34.3042V42.048H33.4042V39.624H38.9002V40.512L35.7562 48H34.6762Z" fill="white"/>
<path d="M31.2301 64.1358L39.7279 66.5864L35.0748 74.1075L34.9209 74.3563L35.0623 74.6123L39.3383 82.354L30.7299 84.382L30.4452 84.449L30.3642 84.7301L27.9136 93.2279L20.3925 88.5748L20.1437 88.4209L19.8877 88.5623L12.146 92.8383L10.1181 84.2299L10.051 83.9452L9.76992 83.8642L1.27214 81.4136L5.9252 73.8925L6.0791 73.6437L5.93768 73.3877L1.66166 65.646L10.2701 63.6181L10.5548 63.551L10.6358 63.2699L13.0864 54.7721L20.6075 59.4252L20.8563 59.5791L21.1123 59.4377L28.854 55.1617L30.882 63.7701L30.949 64.0548L31.2301 64.1358Z" fill="white" stroke="white"/>
<path d="M14.3045 72.7144L14.1426 75.9607" stroke="black" stroke-width="0.75" stroke-linecap="round" stroke-linejoin="round"/>
<path d="M26.8818 72.7144L27.2339 75.7037" stroke="black" stroke-width="0.75" stroke-linecap="round" stroke-linejoin="round"/>
<path d="M20.0054 76.9115C20.0028 76.9527 19.992 76.9929 19.9737 77.0299C19.9554 77.0669 19.93 77.0999 19.8989 77.1271C19.8678 77.1542 19.8317 77.175 19.7926 77.1881C19.7535 77.2013 19.7121 77.2066 19.671 77.2037C19.6301 77.2082 19.5888 77.204 19.5497 77.1915C19.5106 77.179 19.4745 77.1583 19.4439 77.1309C19.4133 77.1035 19.3889 77.0699 19.3721 77.0324C19.3553 76.9949 19.3467 76.9543 19.3467 76.9132C19.3467 76.8721 19.3553 76.8315 19.3721 76.794C19.3889 76.7565 19.4133 76.723 19.4439 76.6955C19.4745 76.6681 19.5106 76.6475 19.5497 76.6349C19.5888 76.6224 19.6301 76.6182 19.671 76.6227C19.7535 76.6169 19.8351 76.644 19.8977 76.6981C19.9604 76.7522 19.9991 76.8289 20.0054 76.9115Z" fill="black"/>
<path d="M19.3682 72.5383C19.6153 72.8579 19.7656 73.2416 19.8012 73.6439" stroke="black" stroke-width="0.5" stroke-linecap="round" stroke-linejoin="round"/>
<path d="M21.8188 72.5383C21.5717 72.8579 21.4214 73.2416 21.3857 73.6439" stroke="black" stroke-width="0.5" stroke-linecap="round" stroke-linejoin="round"/>
<path d="M24.8533 73.3447C24.8533 73.3447 23.4132 72.7144 22.3076 73.3447" stroke="black" stroke-width="0.75" stroke-linecap="round" stroke-linejoin="round"/>
<path d="M25.1882 72.239C24.9242 72.1263 24.3714 72.0418 23.5087 71.8235L21.5088 71.3095L21.6919 70.6616C22.1285 70.7849 23.3221 71.1158 23.6073 71.1581C24.032 71.2728 24.4485 71.4163 24.8537 71.5876L25.1882 72.239Z" fill="black"/>
<path d="M16.3506 73.4785C16.3506 73.4785 17.7097 72.7144 18.8963 73.4785" stroke="black" stroke-width="0.75" stroke-linecap="round" stroke-linejoin="round"/>
<path d="M17.9669 73.5453C17.9669 73.615 17.9462 73.683 17.9076 73.7409C17.8689 73.7988 17.8139 73.844 17.7495 73.8706C17.6852 73.8973 17.6144 73.9043 17.5461 73.8907C17.4778 73.8771 17.4151 73.8436 17.3658 73.7943C17.3166 73.7451 17.283 73.6823 17.2695 73.614C17.2559 73.5457 17.2628 73.4749 17.2895 73.4106C17.3161 73.3463 17.3613 73.2913 17.4192 73.2526C17.4771 73.2139 17.5452 73.1932 17.6148 73.1932C17.7082 73.1932 17.7977 73.2303 17.8638 73.2963C17.9298 73.3624 17.9669 73.452 17.9669 73.5453Z" fill="black" stroke="black" stroke-width="0.75" stroke-linecap="round" stroke-linejoin="round"/>
<path d="M23.7091 73.5453C23.7091 73.615 23.6884 73.683 23.6497 73.7409C23.6111 73.7988 23.5561 73.844 23.4917 73.8706C23.4274 73.8973 23.3566 73.9043 23.2883 73.8907C23.22 73.8771 23.1573 73.8436 23.108 73.7943C23.0588 73.7451 23.0252 73.6823 23.0116 73.614C22.9981 73.5457 23.005 73.4749 23.0317 73.4106C23.0583 73.3463 23.1035 73.2913 23.1614 73.2526C23.2193 73.2139 23.2873 73.1932 23.357 73.1932C23.4504 73.1932 23.5399 73.2303 23.606 73.2963C23.672 73.3624 23.7091 73.452 23.7091 73.5453Z" fill="black" stroke="black" stroke-width="0.75" stroke-linecap="round" stroke-linejoin="round"/>
<path d="M15.7021 72.3939L16.0542 71.6369C16.5234 71.3725 17.0428 71.2093 17.5788 71.1581C17.9485 71.1017 19.4978 70.6616 19.4978 70.6616L19.5858 71.239C18.9898 71.5464 18.3434 71.7444 17.6774 71.8235C16.9966 71.925 16.3323 72.1169 15.7021 72.3939Z" fill="black"/>
<path d="M18.4316 79.8303C19.8244 79.2947 21.3662 79.2947 22.7589 79.8303" stroke="black" stroke-width="0.75" stroke-linecap="round" stroke-linejoin="round"/>
<path d="M28.3219 74.8164C27.5825 75.1403 27.2656 77.1015 27.2656 77.1015" stroke="black" stroke-width="0.5" stroke-linecap="round" stroke-linejoin="round"/>
<path d="M18.949 76.2495C18.949 76.2495 18.1181 77.0946 19.1885 77.6579" stroke="black" stroke-width="0.5" stroke-linecap="round" stroke-linejoin="round"/>
<path d="M21.1807 76.9115C21.1832 76.9543 21.1945 76.9961 21.2139 77.0344C21.2333 77.0727 21.2603 77.1066 21.2933 77.134C21.3263 77.1614 21.3646 77.1817 21.4058 77.1937C21.447 77.2057 21.4902 77.2091 21.5328 77.2037C21.5736 77.2082 21.6149 77.2041 21.654 77.1915C21.6932 77.179 21.7292 77.1583 21.7598 77.1309C21.7904 77.1035 21.8149 77.0699 21.8316 77.0324C21.8484 76.9949 21.857 76.9543 21.857 76.9132C21.857 76.8721 21.8484 76.8315 21.8316 76.794C21.8149 76.7565 21.7904 76.723 21.7598 76.6956C21.7292 76.6681 21.6932 76.6475 21.654 76.6349C21.6149 76.6224 21.5736 76.6182 21.5328 76.6227C21.4905 76.6174 21.4476 76.6207 21.4066 76.6325C21.3656 76.6442 21.3275 76.6643 21.2945 76.6913C21.2616 76.7183 21.2345 76.7518 21.2149 76.7896C21.1953 76.8275 21.1837 76.869 21.1807 76.9115Z" fill="black"/>
<path d="M22.2408 76.2495C22.2408 76.2495 23.0683 77.0946 21.8535 77.6579" stroke="black" stroke-width="0.5" stroke-linecap="round" stroke-linejoin="round"/>
<path d="M20.5928 69.9258V71.2109" stroke="black" stroke-width="0.5" stroke-linecap="round" stroke-linejoin="round"/>
<path d="M18.6745 76.8445L17.5654 80.3972" stroke="black" stroke-width="0.5" stroke-linecap="round" stroke-linejoin="round"/>
<path d="M22.5117 76.8445L23.6244 80.3972" stroke="black" stroke-width="0.5" stroke-linecap="round" stroke-linejoin="round"/>
<path d="M19.8047 74.3306V75.0348C19.8032 75.2115 19.7353 75.3811 19.6145 75.5101L19.1885 75.9537" stroke="black" stroke-width="0.5" stroke-linecap="round" stroke-linejoin="round"/>
<path d="M20.1807 80.3092H21.1806" stroke="black" stroke-width="0.5" stroke-linecap="round" stroke-linejoin="round"/>
<path d="M27.2617 76.5875V77.6192" stroke="black" stroke-width="0.5" stroke-linecap="round" stroke-linejoin="round"/>
<path d="M12.8643 74.8164C13.6283 75.1403 13.9206 77.1015 13.9206 77.1015" stroke="black" stroke-width="0.5" stroke-linecap="round" stroke-linejoin="round"/>
<path d="M13.9248 76.5875V77.6192" stroke="black" stroke-width="0.5" stroke-linecap="round" stroke-linejoin="round"/>
<path d="M20.5931 84.2034C20.5931 84.2034 16.4876 84.4991 15.1426 81.8654C14.808 81.0717 14.5555 80.2458 14.3891 79.4007C13.8433 79.5275 13.4243 78.8972 13.3821 78.517C13.3398 78.1367 12.7096 77.3445 12.2906 76.503C11.8716 75.6614 11.6603 73.9854 12.6673 73.9432C13.6743 73.9009 14.1215 75.1509 14.1215 75.1509" stroke="black" stroke-width="0.75" stroke-linecap="round" stroke-linejoin="round"/>
<path d="M20.5928 84.2034C20.5928 84.2034 24.6983 84.4991 26.0433 81.8654C26.374 81.0703 26.6263 80.2448 26.7968 79.4007C27.3425 79.5275 27.7615 78.8972 27.8038 78.5169C27.846 78.1367 28.4763 77.3445 28.8953 76.5029C29.3143 75.6614 29.5255 73.9854 28.5185 73.9432C27.5115 73.9009 27.177 75.0347 27.177 75.0347" stroke="black" stroke-width="0.75" stroke-linecap="round" stroke-linejoin="round"/>
<path d="M27.5824 74.3305C27.5824 74.3305 28.8288 70.8659 28.5366 69.4821C28.2443 68.0984 26.0155 66.6266 26.0155 66.6266C26.0155 66.6266 25.9345 65.3273 24.1705 64.4436C22.4065 63.5598 20.9066 63.2253 18.3891 63.9823C15.8715 64.7393 14.942 65.447 14.2765 65.9153C13.6111 66.3836 11.8999 68.9434 12.4562 71.4539C13.0125 73.9644 13.3259 74.0981 13.3259 74.0981C13.5784 74.2953 13.7962 74.5333 13.9702 74.8023L14.3047 72.6897L14.5547 69.8976C14.5547 69.8976 13.2414 67.5667 17.6637 66.1829C17.6637 66.1829 20.1284 64.9224 25.4909 66.9893C25.4909 66.9893 27.2514 68.1618 26.8993 72.8588L27.1352 74.6826" fill="black"/>
<path d="M27.5824 74.3305C27.5824 74.3305 28.8288 70.8659 28.5366 69.4821C28.2443 68.0984 26.0155 66.6266 26.0155 66.6266C26.0155 66.6266 25.9345 65.3273 24.1705 64.4436C22.4065 63.5598 20.9066 63.2253 18.3891 63.9823C15.8715 64.7393 14.942 65.447 14.2765 65.9153C13.6111 66.3836 11.8999 68.9434 12.4562 71.4539C13.0125 73.9644 13.3259 74.0981 13.3259 74.0981C13.5784 74.2953 13.7962 74.5333 13.9702 74.8023L14.3047 72.6897L14.5547 69.8976C14.5547 69.8976 13.2414 67.5667 17.6637 66.1829C17.6637 66.1829 20.1284 64.9224 25.4909 66.9893C25.4909 66.9893 27.2514 68.1618 26.8993 72.8588L27.1352 74.6826" stroke="black" stroke-width="0.75" stroke-linecap="round" stroke-linejoin="round"/>
<path d="M14.3889 79.3903L14.2129 78.6227" stroke="black" stroke-width="0.75" stroke-linecap="round" stroke-linejoin="round"/>
<path d="M26.8008 79.3903L26.9487 78.6227" stroke="black" stroke-width="0.75" stroke-linecap="round" stroke-linejoin="round"/>
<path d="M13.1465 76.2495L13.3965 77.2037" stroke="black" stroke-width="0.5" stroke-linecap="round" stroke-linejoin="round"/>
<path d="M28.0404 76.2495L27.7939 77.2037" stroke="black" stroke-width="0.5" stroke-linecap="round" stroke-linejoin="round"/>
</svg>
