<svg width="175" height="175" viewBox="0 0 175 175" fill="none" xmlns="http://www.w3.org/2000/svg">
<path d="M134.391 42.5602L173.554 53.8537L152.11 88.5148L151.956 88.7636L152.097 89.0196L171.804 124.697L132.131 134.043L131.847 134.11L131.766 134.391L120.472 173.554L85.811 152.11L85.5622 151.956L85.3062 152.097L49.6286 171.804L40.2825 132.131L40.2154 131.847L39.9344 131.766L0.772136 120.472L22.2159 85.811L22.3698 85.5622L22.2284 85.3062L2.52227 49.6285L42.1944 40.2825L42.4791 40.2155L42.5602 39.9344L53.8537 0.772136L88.5148 22.2159L88.7636 22.3698L89.0196 22.2284L124.697 2.52227L134.043 42.1944L134.11 42.4791L134.391 42.5602Z" fill="white" stroke="black"/>
<path d="M58.8319 98.937L60.8046 104.98" stroke="black" stroke-width="0.75" stroke-linecap="round" stroke-linejoin="round"/>
<path d="M85.8501 107.973C85.8729 107.838 85.4519 107.654 84.9099 107.563C84.3678 107.472 83.9103 107.508 83.8875 107.643C83.8647 107.779 84.2853 107.962 84.8273 108.053C85.3693 108.145 85.8273 108.109 85.8501 107.973Z" stroke="black" stroke-width="0.75" stroke-linecap="round" stroke-linejoin="round"/>
<path d="M84.9034 107.663C85.5618 107.823 86.1716 108.14 86.6806 108.588C87.3554 109.154 88.1996 109.479 89.0798 109.512" stroke="black" stroke-width="0.75" stroke-linecap="round" stroke-linejoin="round"/>
<path d="M93.4456 108.173C93.9876 108.082 94.4085 107.898 94.3857 107.762C94.3629 107.627 93.9051 107.591 93.363 107.682C92.821 107.773 92.4 107.957 92.4228 108.092C92.4456 108.228 92.9036 108.264 93.4456 108.173Z" stroke="black" stroke-width="0.75" stroke-linecap="round" stroke-linejoin="round"/>
<path d="M93.4516 107.663C92.7933 107.823 92.1835 108.14 91.6744 108.588C90.9942 109.156 90.1435 109.481 89.2574 109.512" stroke="black" stroke-width="0.75" stroke-linecap="round" stroke-linejoin="round"/>
<path d="M80.7624 107.663C80.7624 107.663 79.4829 106.188 81.9709 103.611" stroke="black" stroke-width="0.5" stroke-linecap="round" stroke-linejoin="round"/>
<path d="M79.234 118.735H99.1207" stroke="black" stroke-width="0.5" stroke-linecap="round" stroke-linejoin="round"/>
<path d="M80.5846 118.735C80.5846 118.735 86.1472 122.289 89.1684 122.289C92.3452 122.069 95.3642 120.822 97.77 118.735" fill="black"/>
<path d="M80.5846 118.735C80.5846 118.735 86.1472 122.289 89.1684 122.289C92.3452 122.069 95.3642 120.822 97.77 118.735" stroke="black" stroke-width="0.5" stroke-linecap="round" stroke-linejoin="round"/>
<path d="M97.6457 118.735C95.3531 118.735 92.5096 114.647 89.1685 116.691C85.8452 114.647 83.2327 118.735 80.7091 118.735" fill="black"/>
<path d="M97.6457 118.735C95.3531 118.735 92.5096 114.647 89.1685 116.691C85.8452 114.647 83.2327 118.735 80.7091 118.735" stroke="black" stroke-width="0.5" stroke-linecap="round" stroke-linejoin="round"/>
<path d="M68.5177 89.998C68.5177 89.998 77.1015 84.862 81.2068 90.9044" stroke="black" stroke-width="0.75" stroke-linecap="round" stroke-linejoin="round"/>
<path d="M76.0174 91.633C76.9106 91.633 77.6346 90.9087 77.6346 90.0155C77.6346 89.1223 76.9106 88.3984 76.0174 88.3984C75.1242 88.3984 74.4001 89.1223 74.4001 90.0155C74.4001 90.9087 75.1242 91.633 76.0174 91.633Z" fill="black" stroke="black" stroke-width="0.75" stroke-linecap="round" stroke-linejoin="round"/>
<path d="M109.837 89.998C109.837 89.998 101.253 84.862 97.1482 90.9044" stroke="black" stroke-width="0.75" stroke-linecap="round" stroke-linejoin="round"/>
<path d="M102.338 91.633C103.231 91.633 103.955 90.9087 103.955 90.0155C103.955 89.1223 103.231 88.3984 102.338 88.3984C101.445 88.3984 100.72 89.1223 100.72 90.0155C100.72 90.9087 101.445 91.633 102.338 91.633Z" fill="black" stroke="black" stroke-width="0.75" stroke-linecap="round" stroke-linejoin="round"/>
<path d="M65.2653 83.8132C65.2653 83.8132 70.7923 79.4946 82.5751 83.8132L81.2066 81.5917C81.2066 81.5917 72.8183 80.2588 71.983 80.2588C69.6553 81.2682 67.4093 82.4566 65.2653 83.8132V83.8132Z" fill="black" stroke="black" stroke-width="0.75" stroke-linecap="round" stroke-linejoin="round"/>
<path d="M89.1685 57.8131C121.158 57.8131 119.505 98.9193 119.505 98.9193C119.505 98.9193 121.78 96.9646 123.059 97.871C124.339 98.7774 123.522 101.336 121.282 104.073C119.043 106.81 118.794 113.883 115.169 112.373C112.599 118.954 108.799 124.985 103.972 130.145C96.4194 137.84 90.9279 138 89.204 138C87.4802 138 82.0953 137.84 74.4534 130.145C69.6269 124.985 65.8271 118.954 63.2571 112.373C59.7027 113.883 59.3295 106.792 57.1436 104.073C54.9576 101.354 54.1934 98.7418 55.3664 97.871C56.5393 97.0002 58.9208 98.9193 58.9208 98.9193C58.9208 98.9193 57.2324 57.8131 89.1685 57.8131Z" stroke="black" stroke-width="0.75" stroke-linecap="round" stroke-linejoin="round"/>
<path d="M119.505 98.937L117.55 104.98" stroke="black" stroke-width="0.75" stroke-linecap="round" stroke-linejoin="round"/>
<path d="M97.5924 107.663C97.5924 107.663 98.872 106.188 96.3839 103.611" stroke="black" stroke-width="0.5" stroke-linecap="round" stroke-linejoin="round"/>
<path d="M113.09 83.8132C113.09 83.8132 107.563 79.4946 95.7798 83.8132L97.1482 81.5917C97.1482 81.5917 105.537 80.2588 106.372 80.2588C108.7 81.2682 110.946 82.4566 113.09 83.8132V83.8132Z" fill="black" stroke="black" stroke-width="0.75" stroke-linecap="round" stroke-linejoin="round"/>
<path d="M59.3651 100.555C59.7205 89.3228 64.1813 57.8132 89.1685 57.8132C116.768 57.8132 118.794 91.7753 118.972 100.128L122.526 97.0892C124.126 95.1521 127.289 83.8136 123.539 64.6733C119.576 44.4489 99.103 42.3695 99.103 42.3695C79.8205 28.312 59.1163 39.6858 53.7492 55.5383C43.015 87.3144 58.672 100.217 59.3651 100.555Z" fill="black" stroke="black" stroke-width="0.75" stroke-linecap="round" stroke-linejoin="round"/>
<path d="M65.2653 77.9844C87.8355 30.569 96.6859 56.8178 96.6859 56.8178" stroke="white" stroke-width="0.5" stroke-linecap="round" stroke-linejoin="round"/>
<path d="M60.8048 116.62C61.5998 116.62 62.2443 115.976 62.2443 115.181C62.2443 114.386 61.5998 113.741 60.8048 113.741C60.0097 113.741 59.3652 114.386 59.3652 115.181C59.3652 115.976 60.0097 116.62 60.8048 116.62Z" fill="black" stroke="black" stroke-width="0.75" stroke-linecap="round" stroke-linejoin="round"/>
<path d="M117.55 116.62C118.345 116.62 118.99 115.976 118.99 115.181C118.99 114.386 118.345 113.741 117.55 113.741C116.755 113.741 116.111 114.386 116.111 115.181C116.111 115.976 116.755 116.62 117.55 116.62Z" fill="black" stroke="black" stroke-width="0.75" stroke-linecap="round" stroke-linejoin="round"/>
<path d="M56.646 100.128C57.4816 100.424 58.2448 100.893 58.8851 101.506C59.5255 102.119 60.0283 102.861 60.3603 103.682" stroke="black" stroke-width="0.5" stroke-linecap="round" stroke-linejoin="round"/>
<path d="M121.709 100.128C120.873 100.424 120.11 100.893 119.47 101.506C118.829 102.119 118.327 102.861 117.995 103.682" stroke="black" stroke-width="0.5" stroke-linecap="round" stroke-linejoin="round"/>
</svg>
