<svg width="80" height="81" viewBox="0 0 80 81" fill="none" xmlns="http://www.w3.org/2000/svg">
<path d="M61.5987 20.4429L79.2279 25.5268L69.5748 41.1297L69.4209 41.3784L69.5623 41.6345L78.4332 57.695L60.5745 61.9022L60.2898 61.9693L60.2087 62.2503L55.1249 79.8795L39.5219 70.2264L39.2732 70.0725L39.0171 70.2139L22.9566 79.0848L18.7494 61.2261L18.6824 60.9414L18.4013 60.8603L0.772136 55.7765L10.4252 40.1735L10.5791 39.9248L10.4377 39.6687L1.56683 23.6082L19.4255 19.401L19.7102 19.334L19.7913 19.0529L24.8751 1.42375L40.4781 11.0768L40.7268 11.2307L40.9829 11.0893L57.0434 2.21844L61.2506 20.0771L61.3177 20.3618L61.5987 20.4429Z" fill="white" stroke="black"/>
<path d="M27.6093 38.0804L27.2854 44.5731" stroke="black" stroke-width="0.75" stroke-linecap="round" stroke-linejoin="round"/>
<path d="M52.7633 38.0804L53.4675 44.0591" stroke="black" stroke-width="0.75" stroke-linecap="round" stroke-linejoin="round"/>
<path d="M39.0103 46.4744C39.0049 46.5568 38.9833 46.6373 38.9468 46.7113C38.9102 46.7853 38.8594 46.8513 38.7972 46.9056C38.7351 46.9599 38.6628 47.0015 38.5845 47.0278C38.5063 47.0541 38.4236 47.0646 38.3413 47.0589C38.2596 47.0679 38.177 47.0596 38.0987 47.0345C38.0205 47.0094 37.9484 46.9681 37.8872 46.9133C37.8261 46.8585 37.7771 46.7914 37.7436 46.7163C37.7101 46.6413 37.6927 46.56 37.6927 46.4779C37.6927 46.3957 37.7101 46.3145 37.7436 46.2395C37.7771 46.1645 37.8261 46.0974 37.8872 46.0426C37.9484 45.9878 38.0205 45.9465 38.0987 45.9214C38.177 45.8963 38.2596 45.8879 38.3413 45.897C38.5065 45.8853 38.6695 45.9395 38.7949 46.0477C38.9202 46.1559 38.9977 46.3093 39.0103 46.4744Z" fill="black"/>
<path d="M37.7356 37.7283C38.2298 38.3674 38.5304 39.1348 38.6018 39.9395" stroke="black" stroke-width="0.5" stroke-linecap="round" stroke-linejoin="round"/>
<path d="M42.6369 37.7283C42.1427 38.3674 41.8421 39.1348 41.7708 39.9395" stroke="black" stroke-width="0.5" stroke-linecap="round" stroke-linejoin="round"/>
<path d="M48.7071 39.341C48.7071 39.341 45.8269 38.0805 43.6157 39.341" stroke="black" stroke-width="0.75" stroke-linecap="round" stroke-linejoin="round"/>
<path d="M49.3761 37.1298C48.8479 36.9044 47.7424 36.7354 46.0171 36.2988L42.0172 35.2707L42.3834 33.975C43.2566 34.2214 45.6438 34.8833 46.2142 34.9678C47.0637 35.1973 47.8966 35.4843 48.7071 35.8269L49.3761 37.1298Z" fill="black"/>
<path d="M31.7007 39.6085C31.7007 39.6085 34.4189 38.0804 36.792 39.6085" stroke="black" stroke-width="0.75" stroke-linecap="round" stroke-linejoin="round"/>
<path d="M34.9329 39.7423C34.9329 39.8816 34.8916 40.0177 34.8143 40.1335C34.7369 40.2493 34.6269 40.3395 34.4982 40.3928C34.3695 40.4461 34.228 40.4602 34.0914 40.433C33.9548 40.4058 33.8293 40.3387 33.7308 40.2403C33.6323 40.1418 33.5652 40.0163 33.5381 39.8797C33.5109 39.7431 33.5248 39.6015 33.5781 39.4728C33.6314 39.3441 33.7217 39.2342 33.8375 39.1568C33.9533 39.0794 34.0895 39.0381 34.2287 39.0381C34.4155 39.0381 34.5946 39.1122 34.7267 39.2443C34.8587 39.3764 34.9329 39.5555 34.9329 39.7423Z" fill="black" stroke="black" stroke-width="0.75" stroke-linecap="round" stroke-linejoin="round"/>
<path d="M46.4185 39.7423C46.4185 39.8816 46.3772 40.0177 46.2999 40.1335C46.2225 40.2493 46.1125 40.3395 45.9838 40.3928C45.8551 40.4461 45.7136 40.4602 45.577 40.433C45.4403 40.4058 45.3149 40.3387 45.2164 40.2403C45.1179 40.1418 45.0508 40.0163 45.0237 39.8797C44.9965 39.7431 45.0104 39.6015 45.0637 39.4728C45.117 39.3441 45.2073 39.2342 45.3231 39.1568C45.4389 39.0794 45.5751 39.0381 45.7143 39.0381C45.9011 39.0381 46.0802 39.1122 46.2123 39.2443C46.3443 39.3764 46.4185 39.5555 46.4185 39.7423Z" fill="black" stroke="black" stroke-width="0.75" stroke-linecap="round" stroke-linejoin="round"/>
<path d="M30.405 37.4396L31.1092 35.9255C32.0475 35.3967 33.0862 35.0704 34.1584 34.9678C34.8978 34.8552 37.9963 33.975 37.9963 33.975L38.1723 35.1298C36.9803 35.7446 35.6875 36.1406 34.3556 36.2988C32.9939 36.5018 31.6653 36.8855 30.405 37.4396Z" fill="black"/>
<path d="M35.8625 52.3122C38.648 51.241 41.7317 51.241 44.5172 52.3122" stroke="black" stroke-width="0.75" stroke-linecap="round" stroke-linejoin="round"/>
<path d="M55.6435 42.2844C54.1647 42.9323 53.5309 46.8547 53.5309 46.8547" stroke="black" stroke-width="0.5" stroke-linecap="round" stroke-linejoin="round"/>
<path d="M36.8977 45.1506C36.8977 45.1506 35.2358 46.8407 37.3765 47.9674" stroke="black" stroke-width="0.5" stroke-linecap="round" stroke-linejoin="round"/>
<path d="M41.3623 46.4745C41.3674 46.5601 41.39 46.6438 41.4288 46.7203C41.4676 46.7969 41.5216 46.8646 41.5877 46.9194C41.6537 46.9742 41.7302 47.0148 41.8126 47.0388C41.895 47.0628 41.9814 47.0697 42.0665 47.0589C42.1482 47.0679 42.2308 47.0596 42.3091 47.0345C42.3873 47.0094 42.4594 46.9681 42.5205 46.9133C42.5817 46.8585 42.6307 46.7914 42.6642 46.7164C42.6977 46.6413 42.715 46.5601 42.715 46.4779C42.715 46.3957 42.6977 46.3145 42.6642 46.2395C42.6307 46.1645 42.5817 46.0974 42.5205 46.0426C42.4594 45.9878 42.3873 45.9465 42.3091 45.9214C42.2308 45.8963 42.1482 45.888 42.0665 45.897C41.9819 45.8862 41.8961 45.8928 41.8142 45.9164C41.7322 45.94 41.656 45.98 41.5901 46.0341C41.5242 46.0881 41.47 46.155 41.4308 46.2308C41.3916 46.3065 41.3683 46.3894 41.3623 46.4745V46.4745Z" fill="black"/>
<path d="M43.482 45.1506C43.482 45.1506 45.1369 46.8407 42.7074 47.9674" stroke="black" stroke-width="0.5" stroke-linecap="round" stroke-linejoin="round"/>
<path d="M40.1863 32.5032V35.0734" stroke="black" stroke-width="0.5" stroke-linecap="round" stroke-linejoin="round"/>
<path d="M36.3484 46.3406L34.1301 53.446" stroke="black" stroke-width="0.5" stroke-linecap="round" stroke-linejoin="round"/>
<path d="M44.0242 46.3406L46.2494 53.446" stroke="black" stroke-width="0.5" stroke-linecap="round" stroke-linejoin="round"/>
<path d="M38.6088 41.3126V42.721C38.6058 43.0744 38.4701 43.4137 38.2285 43.6717L37.3765 44.559" stroke="black" stroke-width="0.5" stroke-linecap="round" stroke-linejoin="round"/>
<path d="M39.3624 53.27H41.3624" stroke="black" stroke-width="0.5" stroke-linecap="round" stroke-linejoin="round"/>
<path d="M53.5238 45.8265V47.8899" stroke="black" stroke-width="0.5" stroke-linecap="round" stroke-linejoin="round"/>
<path d="M24.7291 42.2844C26.2572 42.9323 26.8417 46.8547 26.8417 46.8547" stroke="black" stroke-width="0.5" stroke-linecap="round" stroke-linejoin="round"/>
<path d="M26.8488 45.8265V47.8899" stroke="black" stroke-width="0.5" stroke-linecap="round" stroke-linejoin="round"/>
<path d="M40.1863 61.0585C40.1863 61.0585 31.9753 61.65 29.2853 56.3826C28.6162 54.7952 28.1112 53.1434 27.7783 51.4532C26.6868 51.7067 25.8488 50.4462 25.7643 49.6856C25.6798 48.9251 24.4193 47.3407 23.5813 45.6576C22.7433 43.9746 22.3208 40.6226 24.3348 40.5381C26.3488 40.4536 27.2431 42.9535 27.2431 42.9535" stroke="black" stroke-width="0.75" stroke-linecap="round" stroke-linejoin="round"/>
<path d="M40.1863 61.0584C40.1863 61.0584 48.3972 61.65 51.0873 56.3826C51.7487 54.7923 52.2534 53.1414 52.5943 51.4532C53.6858 51.7067 54.5238 50.4461 54.6083 49.6856C54.6928 48.9251 55.9533 47.3407 56.7913 45.6576C57.6293 43.9746 58.0518 40.6226 56.0378 40.5381C54.0238 40.4536 53.3548 42.7211 53.3548 42.7211" stroke="black" stroke-width="0.75" stroke-linecap="round" stroke-linejoin="round"/>
<path d="M54.1646 41.3127C54.1646 41.3127 56.6575 34.3833 56.073 31.6158C55.4885 28.8483 51.0309 25.9048 51.0309 25.9048C51.0309 25.9048 50.869 23.3063 47.3409 21.5388C43.8129 19.7712 40.813 19.1022 35.778 20.6162C30.743 22.1303 28.8839 23.5457 27.5529 24.4823C26.222 25.4189 22.7996 30.5385 23.9122 35.5594C25.0249 40.5803 25.6516 40.8479 25.6516 40.8479C26.1567 41.2422 26.5923 41.7182 26.9403 42.2563L27.6093 38.0311L28.1093 32.4468C28.1093 32.4468 25.4826 27.785 34.3273 25.0175C34.3273 25.0175 39.2567 22.4965 49.9817 26.6301C49.9817 26.6301 53.5027 28.9751 52.7985 38.3691L53.2703 42.0169" fill="black"/>
<path d="M54.1646 41.3127C54.1646 41.3127 56.6575 34.3833 56.073 31.6158C55.4885 28.8483 51.0309 25.9048 51.0309 25.9048C51.0309 25.9048 50.869 23.3063 47.3409 21.5388C43.8129 19.7712 40.813 19.1022 35.778 20.6162C30.743 22.1303 28.8839 23.5457 27.5529 24.4823C26.222 25.4189 22.7996 30.5385 23.9122 35.5594C25.0249 40.5803 25.6516 40.8479 25.6516 40.8479C26.1567 41.2422 26.5923 41.7182 26.9403 42.2563L27.6093 38.0311L28.1093 32.4468C28.1093 32.4468 25.4826 27.785 34.3273 25.0175C34.3273 25.0175 39.2567 22.4965 49.9817 26.6301C49.9817 26.6301 53.5027 28.9751 52.7985 38.3691L53.2703 42.0169" stroke="black" stroke-width="0.75" stroke-linecap="round" stroke-linejoin="round"/>
<path d="M27.7782 51.432L27.4261 49.8969" stroke="black" stroke-width="0.75" stroke-linecap="round" stroke-linejoin="round"/>
<path d="M52.6013 51.432L52.8971 49.8969" stroke="black" stroke-width="0.75" stroke-linecap="round" stroke-linejoin="round"/>
<path d="M25.2925 45.1506L25.7925 47.059" stroke="black" stroke-width="0.5" stroke-linecap="round" stroke-linejoin="round"/>
<path d="M55.0801 45.1506L54.5872 47.059" stroke="black" stroke-width="0.5" stroke-linecap="round" stroke-linejoin="round"/>
</svg>
