<svg width="210" height="118" viewBox="0 0 210 118" fill="none" xmlns="http://www.w3.org/2000/svg">
<path d="M167 55.9348L76.3838 41.5681L67.6162 96.6629L158.232 111.03L167 55.9348Z" fill="white"/>
<path d="M91.9929 69.885C92.0647 69.4345 92.2556 69.0882 92.5658 68.846C92.8774 68.594 93.2491 68.5024 93.6808 68.5712L95.6826 68.8883L95.8228 69.9045L95.7431 70.4042L95.2136 70.3201C94.9388 70.2769 94.7763 70.4117 94.7264 70.725L94.2285 73.8546L94.3021 73.8662L95.3724 72.5445L96.2853 72.6891L96.9518 74.286L97.0254 74.2976L97.5465 71.0216C97.5558 70.9626 97.553 70.917 97.5381 70.8845C97.5232 70.8519 97.4832 70.8208 97.4175 70.7901L96.9378 70.5786L97.1693 69.124L101.291 69.7776L101.059 71.2322L100.538 71.2847C100.466 71.2936 100.418 71.3112 100.394 71.3373C100.369 71.3638 100.353 71.4061 100.343 71.4651L99.3895 77.4593L96.5778 77.0134L95.5391 74.4389L93.9724 76.6006L90.9995 76.1292L91.9929 69.885ZM95.7026 81.3935C94.9081 81.2675 94.2854 81.0081 93.8345 80.6153C93.3744 80.2211 93.1969 79.6907 93.3031 79.025L93.345 78.7604L92.5505 78.6345L92.6203 78.1938L93.0432 77.4323L95.7222 77.8567L95.5047 79.2235C95.4674 79.4582 95.4795 79.6358 95.541 79.7562C95.5909 79.8845 95.7189 79.965 95.9248 79.998C96.1311 80.0305 96.2825 79.9942 96.3798 79.8892C96.4655 79.7925 96.5275 79.6265 96.5647 79.3913L96.7822 78.025L99.0192 78.3797L98.7784 79.8929C98.6713 80.5688 98.3476 81.0198 97.8087 81.2452C97.2587 81.4795 96.5563 81.5288 95.7026 81.3935ZM97.6224 66.7707C97.6504 66.5946 97.5465 66.4876 97.3113 66.4504L96.1926 66.2729L96.2839 65.7001L96.7254 64.821L98.9037 65.1665C99.3648 65.2394 99.6955 65.4073 99.8953 65.6699C100.087 65.9214 100.153 66.2282 100.096 66.5904L100.065 66.7814L102.391 67.1501L102.298 67.7382L101.851 68.6461L97.4352 67.946L97.6224 66.7707ZM105.777 70.3382C106.886 70.514 107.731 70.9291 108.31 71.5832C108.9 72.2391 109.116 73.0666 108.956 74.0656L108.692 75.7257C108.594 76.3431 108.365 76.8637 108.006 77.2891C107.656 77.7154 107.206 78.0208 106.653 78.204C106.101 78.3876 105.491 78.4267 104.824 78.3207L102.689 77.9822L102.566 75.9145C102.556 75.722 102.517 75.5904 102.448 75.5188C102.39 75.4393 102.282 75.3873 102.125 75.3626L101.684 75.2924L101.941 73.6765L105.003 74.1619L105.029 76.3649C105.248 76.3798 105.428 76.3231 105.569 76.1948C105.712 76.0567 105.806 75.8457 105.851 75.5616L106.118 73.8867C106.242 73.1033 105.991 72.6617 105.363 72.5622C104.813 72.4748 104.42 72.6733 104.182 73.1577L102.018 72.8151C102.024 72.1429 102.082 71.4642 102.191 70.7789C102.607 70.5637 103.12 70.4089 103.728 70.3145C104.348 70.2122 105.031 70.2197 105.777 70.3382ZM107.555 69.5056C106.751 69.3778 106.202 69.1254 105.911 68.7474C105.619 68.3699 105.522 67.8725 105.62 67.2556L105.688 66.8293L106.329 66.7805L107.654 66.9906L107.575 67.4899C107.534 67.7447 107.636 67.8916 107.882 67.9306L111.532 68.5094L111.441 69.0821L110.985 70.0491L107.555 69.5056ZM118.834 79.051L118.602 80.5051L114.628 79.8752L114.859 78.4206L115.381 78.3676C115.453 78.3593 115.501 78.3416 115.525 78.3156C115.55 78.2891 115.566 78.2468 115.576 78.1877L116.055 75.1758C116.115 74.7941 116.039 74.4808 115.827 74.2362C115.626 73.9833 115.309 73.8225 114.877 73.7542C114.446 73.6858 114.095 73.7407 113.825 73.9187C113.557 74.087 113.393 74.3622 113.332 74.7444L112.794 78.1236C113.027 78.0496 113.205 77.9427 113.328 77.8014C113.461 77.6619 113.54 77.5136 113.565 77.357C113.585 77.2296 113.571 77.1269 113.524 77.0492C113.476 76.9711 113.398 76.9186 113.292 76.8916L113.646 75.1404L115.236 75.3924C115.491 75.7443 115.575 76.1994 115.486 76.7578C115.399 77.3063 115.184 77.8042 114.841 78.2519C114.51 78.6916 114.064 79.0226 113.506 79.2453C112.959 79.4601 112.341 79.5126 111.654 79.4038L109.255 79.0236L109.487 77.569L110.009 77.516C110.08 77.5071 110.128 77.4899 110.152 77.4634C110.177 77.4374 110.193 77.3946 110.203 77.3361L110.682 74.3241C110.774 73.7463 111.025 73.2437 111.435 72.817C111.847 72.38 112.379 72.0727 113.031 71.8946C113.684 71.7073 114.404 71.6757 115.189 71.8003C115.974 71.9244 116.648 72.1773 117.211 72.5576C117.776 72.9285 118.186 73.385 118.442 73.9276C118.709 74.4622 118.796 75.0182 118.704 75.596L118.225 78.608C118.215 78.6665 118.218 78.7121 118.234 78.7446C118.249 78.7772 118.289 78.8088 118.354 78.839L118.834 79.051ZM119.346 79.1319L119.867 79.0794C119.939 79.0705 119.987 79.0529 120.011 79.0268C120.036 79.0003 120.053 78.958 120.062 78.899L120.28 77.5327C120.326 77.2389 120.46 76.999 120.681 76.8131C120.903 76.6174 121.169 76.4937 121.479 76.4426L120.392 75.5923L120.511 74.8434C120.696 74.5012 121.006 74.1986 121.44 73.9359C121.876 73.664 122.385 73.4683 122.967 73.3497C123.559 73.2326 124.164 73.2233 124.783 73.3214C125.951 73.5064 126.818 73.9048 127.384 74.517C127.952 75.119 128.165 75.8708 128.021 76.7722L127.495 80.0774C127.486 80.1365 127.489 80.1821 127.504 80.2146C127.519 80.2471 127.559 80.2783 127.624 80.309L128.104 80.5205L127.872 81.9751L123.751 81.3215L123.982 79.8673L124.504 79.8143C124.576 79.8055 124.624 79.7883 124.648 79.7618C124.673 79.7353 124.689 79.693 124.699 79.6344L125.225 76.3287C125.272 76.0349 125.214 75.7945 125.053 75.6086C124.901 75.4235 124.658 75.305 124.325 75.252C123.726 75.1572 123.329 75.3101 123.135 75.7108L123.925 76.4388L123.822 77.085C123.415 77.111 123.174 77.3593 123.1 77.8293L122.859 79.3425C122.849 79.4015 122.852 79.4471 122.867 79.4796C122.882 79.5117 122.922 79.5433 122.988 79.574L123.467 79.7855L123.236 81.2401L119.114 80.5865L119.346 79.1319ZM131.341 81.0337L131.903 80.9119C131.955 80.9003 131.993 80.8859 132.016 80.8696C132.04 80.8431 132.057 80.8008 132.066 80.7422L132.583 77.495C132.65 77.0739 132.502 76.8344 132.139 76.7768C131.952 76.7475 131.802 76.774 131.689 76.8563C131.586 76.9302 131.5 77.0622 131.429 77.2519L129.251 76.9065L129.402 75.1985C129.773 74.9559 130.244 74.7746 130.816 74.6546C131.399 74.5361 131.984 74.5231 132.573 74.6165C133.642 74.7862 134.412 75.1641 134.882 75.7508C135.353 76.3375 135.518 77.0669 135.379 77.9385L134.863 81.1853C134.853 81.2443 134.856 81.2899 134.871 81.3224C134.888 81.3452 134.919 81.3703 134.965 81.3972L135.462 81.6873L135.231 83.1415L131.109 82.4883L131.341 81.0337ZM139.348 83.915C138.651 83.8044 138.022 83.6496 137.46 83.4501C136.9 83.2405 136.451 83.0239 136.115 82.7998L136.578 80.93L138.713 81.2685C138.706 81.4382 138.778 81.5851 138.929 81.7096C139.09 81.8356 139.293 81.9179 139.539 81.957C139.843 82.0053 140.061 81.9946 140.193 81.9249C140.336 81.8472 140.418 81.745 140.438 81.6176C140.467 81.4312 140.368 81.2652 140.14 81.1183C139.923 80.9635 139.496 80.7701 138.859 80.5386C138.174 80.2894 137.652 79.9357 137.292 79.4768C136.933 79.0185 136.807 78.4508 136.914 77.7754C137.036 77.0111 137.45 76.4644 138.156 76.1343C138.863 75.8047 139.746 75.7239 140.806 75.8917C141.385 75.9837 141.936 76.1213 142.46 76.3045C142.984 76.4881 143.405 76.6903 143.722 76.9116C143.625 77.5188 143.49 78.1798 143.316 78.8957L141.373 78.5875C141.332 78.4002 141.222 78.2375 141.043 78.0985C140.874 77.9613 140.686 77.8762 140.48 77.8432C139.96 77.761 139.678 77.8618 139.632 78.1459C139.604 78.3221 139.7 78.4778 139.92 78.6131C140.151 78.7405 140.585 78.9194 141.223 79.1509C141.973 79.4308 142.514 79.7925 142.846 80.2369C143.178 80.6813 143.297 81.1922 143.206 81.7701C143.123 82.2893 142.911 82.7328 142.571 83.1006C142.242 83.4599 141.799 83.7161 141.242 83.8685C140.685 84.0117 140.054 84.0271 139.348 83.915Z" fill="black"/>
<path d="M167 55.9348L76.3838 41.5681L67.6162 96.6629L158.232 111.03L167 55.9348Z" stroke="black"/>
<path d="M164.671 53.6103L74.0552 39.2437L65.2876 94.3385L155.904 108.705L164.671 53.6103Z" fill="white"/>
<path d="M89.6643 67.5605C89.7361 67.11 89.927 66.7637 90.2372 66.5215C90.5488 66.2695 90.9205 66.178 91.3522 66.2468L93.354 66.5638L93.4942 67.58L93.4145 68.0798L92.885 67.9956C92.6102 67.9524 92.4476 68.0872 92.3978 68.4005L91.8999 71.5301L91.9735 71.5417L93.0438 70.2201L93.9567 70.3647L94.6231 71.9615L94.6967 71.9732L95.2179 68.6971C95.2272 68.6381 95.2244 68.5925 95.2095 68.56C95.1946 68.5275 95.1546 68.4963 95.0889 68.4656L94.6092 68.2541L94.8407 66.7995L98.962 67.4531L98.7306 68.9077L98.2094 68.9603C98.1377 68.9691 98.0892 68.9868 98.065 69.0128C98.0408 69.0393 98.024 69.0816 98.0147 69.1406L97.0609 75.1348L94.2492 74.689L93.2105 72.1145L91.6438 74.2762L88.6709 73.8048L89.6643 67.5605ZM93.374 79.0691C92.5795 78.9431 91.9567 78.6837 91.5059 78.2909C91.0457 77.8966 90.8683 77.3662 90.9745 76.7005L91.0164 76.436L90.2218 76.31L90.2917 75.8693L90.7146 75.1078L93.3936 75.5323L93.1761 76.899C93.1388 77.1338 93.1509 77.3113 93.2124 77.4318C93.2622 77.5601 93.3903 77.6405 93.5962 77.6735C93.8025 77.706 93.9539 77.6698 94.0512 77.5647C94.1369 77.468 94.1989 77.3021 94.2361 77.0668L94.4536 75.7005L96.6906 76.0552L96.4498 77.5684C96.3427 78.2444 96.019 78.6953 95.4801 78.9208C94.9301 79.1551 94.2277 79.2043 93.374 79.0691ZM95.2938 64.4463C95.3218 64.2701 95.2179 64.1632 94.9827 64.126L93.864 63.9484L93.9553 63.3757L94.3968 62.4966L96.5751 62.842C97.0362 62.915 97.3669 63.0828 97.5667 63.3454C97.7581 63.5969 97.8247 63.9038 97.7669 64.2659L97.7367 64.457L100.062 64.8256L99.969 65.4137L99.5223 66.3216L95.1066 65.6215L95.2938 64.4463ZM103.449 68.0138C104.558 68.1895 105.402 68.6046 105.982 69.2587C106.571 69.9147 106.787 70.7421 106.628 71.7412L106.364 73.4013C106.265 74.0186 106.037 74.5393 105.677 74.9646C105.328 75.3909 104.877 75.6964 104.325 75.8795C103.772 76.0632 103.162 76.1022 102.495 75.9962L100.361 75.6578L100.237 73.59C100.227 73.3975 100.188 73.266 100.119 73.1944C100.061 73.1149 99.9536 73.0628 99.7967 73.0382L99.3551 72.968L99.6122 71.3521L102.674 71.8374L102.701 74.0405C102.92 74.0553 103.1 73.9986 103.241 73.8703C103.383 73.7323 103.477 73.5212 103.523 73.2372L103.789 71.5622C103.914 70.7789 103.662 70.3372 103.034 70.2378C102.485 70.1504 102.091 70.3488 101.853 70.8333L99.6891 70.4906C99.6956 69.8184 99.7529 69.1397 99.8623 68.4545C100.279 68.2392 100.792 68.0844 101.4 67.9901C102.02 67.8878 102.702 67.8952 103.449 68.0138ZM105.227 67.1812C104.422 67.0533 103.874 66.8009 103.582 66.4229C103.29 66.0455 103.193 65.548 103.291 64.9312L103.359 64.5049L104.001 64.456L105.326 64.6662L105.246 65.1655C105.205 65.4202 105.308 65.5671 105.553 65.6062L109.203 66.1849L109.113 66.7577L108.657 67.7246L105.227 67.1812ZM116.505 76.7265L116.273 78.1807L112.299 77.5508L112.531 76.0962L113.052 76.0432C113.124 76.0348 113.172 76.0171 113.196 75.9911C113.221 75.9646 113.238 75.9223 113.247 75.8633L113.726 72.8513C113.787 72.4696 113.711 72.1563 113.498 71.9118C113.297 71.6589 112.981 71.498 112.549 71.4297C112.117 71.3614 111.766 71.4162 111.497 71.5943C111.228 71.7626 111.064 72.0378 111.003 72.4199L110.466 75.7991C110.698 75.7252 110.876 75.6183 111 75.4769C111.132 75.3375 111.211 75.1892 111.236 75.0325C111.256 74.9051 111.243 74.8024 111.195 74.7248C111.147 74.6467 111.07 74.5941 110.963 74.5672L111.317 72.816L112.907 73.0679C113.163 73.4198 113.247 73.875 113.158 74.4333C113.07 74.9818 112.855 75.4797 112.512 75.9274C112.181 76.3672 111.736 76.6982 111.177 76.9208C110.63 77.1356 110.013 77.1882 109.326 77.0794L106.927 76.6991L107.158 75.2445L107.68 75.1915C107.752 75.1827 107.8 75.1655 107.824 75.139C107.848 75.1129 107.865 75.0702 107.874 75.0116L108.354 71.9996C108.446 71.4218 108.697 70.9193 109.106 70.4925C109.518 70.0555 110.05 69.7482 110.702 69.5702C111.356 69.3828 112.075 69.3512 112.86 69.4758C113.645 69.5999 114.319 69.8528 114.882 70.2331C115.447 70.6041 115.858 71.0606 116.113 71.6031C116.38 72.1377 116.468 72.6937 116.376 73.2716L115.897 76.2835C115.887 76.3421 115.89 76.3876 115.905 76.4202C115.92 76.4527 115.96 76.4843 116.026 76.5145L116.505 76.7265ZM117.017 76.8074L117.539 76.7549C117.611 76.7461 117.659 76.7284 117.683 76.7024C117.707 76.6759 117.724 76.6336 117.734 76.5745L117.951 75.2082C117.998 74.9144 118.131 74.6746 118.352 74.4886C118.574 74.2929 118.841 74.1692 119.15 74.1181L118.063 73.2678L118.183 72.5189C118.368 72.1768 118.678 71.8741 119.112 71.6115C119.548 71.3395 120.057 71.1438 120.639 71.0253C121.231 70.9081 121.836 70.8988 122.454 70.9969C123.622 71.1819 124.489 71.5803 125.056 72.1926C125.624 72.7946 125.836 73.5463 125.693 74.4477L125.167 77.753C125.158 77.812 125.16 77.8576 125.175 77.8901C125.19 77.9227 125.23 77.9538 125.296 77.9845L125.775 78.196L125.544 79.6506L121.422 78.997L121.654 77.5429L122.175 77.4899C122.247 77.481 122.295 77.4638 122.32 77.4373C122.344 77.4108 122.361 77.3685 122.37 77.31L122.896 74.0042C122.943 73.7104 122.886 73.4701 122.724 73.2841C122.572 73.0991 122.33 72.9805 121.996 72.9275C121.398 72.8327 121.001 72.9856 120.806 73.3864L121.596 74.1144L121.493 74.7606C121.086 74.7866 120.846 75.0348 120.771 75.5048L120.53 77.018C120.521 77.0771 120.523 77.1226 120.539 77.1551C120.554 77.1872 120.594 77.2188 120.659 77.2495L121.139 77.461L120.907 78.9157L116.786 78.262L117.017 76.8074ZM129.012 78.7092L129.575 78.5875C129.627 78.5758 129.664 78.5614 129.687 78.5451C129.711 78.5186 129.728 78.4763 129.737 78.4178L130.254 75.1706C130.321 74.7494 130.173 74.51 129.81 74.4523C129.624 74.4231 129.474 74.4496 129.36 74.5318C129.258 74.6058 129.171 74.7378 129.101 74.9274L126.922 74.5821L127.073 72.8741C127.444 72.6314 127.915 72.4501 128.488 72.3302C129.07 72.2116 129.656 72.1986 130.244 72.292C131.314 72.4617 132.084 72.8397 132.554 73.4264C133.024 74.013 133.189 74.7424 133.051 75.6141L132.534 78.8608C132.525 78.9198 132.528 78.9654 132.542 78.9979C132.559 79.0207 132.59 79.0458 132.636 79.0728L133.133 79.3629L132.902 80.817L128.781 80.1639L129.012 78.7092ZM137.019 81.5906C136.322 81.4799 135.693 81.3251 135.132 81.1257C134.571 80.916 134.123 80.6994 133.786 80.4753L134.25 78.6056L136.384 78.944C136.377 79.1137 136.45 79.2606 136.6 79.3852C136.762 79.5112 136.965 79.5934 137.21 79.6325C137.514 79.6808 137.732 79.6701 137.864 79.6004C138.008 79.5228 138.089 79.4205 138.109 79.2931C138.139 79.1067 138.04 78.9408 137.811 78.7939C137.594 78.6391 137.168 78.4457 136.531 78.2141C135.846 77.965 135.323 77.6112 134.964 77.1524C134.604 76.694 134.478 76.1264 134.586 75.4509C134.707 74.6866 135.121 74.1399 135.828 73.8099C136.534 73.4803 137.417 73.3994 138.477 73.5672C139.056 73.6593 139.608 73.7969 140.132 73.98C140.656 74.1637 141.076 74.3659 141.393 74.5872C141.297 75.1943 141.162 75.8554 140.987 76.5713L139.044 76.2631C139.004 76.0757 138.894 75.913 138.715 75.774C138.545 75.6369 138.358 75.5518 138.151 75.5188C137.631 75.4365 137.349 75.5374 137.304 75.8214C137.275 75.9976 137.371 76.1533 137.591 76.2886C137.823 76.416 138.257 76.595 138.894 76.8265C139.644 77.1063 140.185 77.468 140.517 77.9124C140.849 78.3569 140.969 78.8678 140.877 79.4456C140.794 79.9649 140.583 80.4084 140.243 80.7761C139.914 81.1354 139.47 81.3916 138.913 81.5441C138.357 81.6873 137.726 81.7026 137.019 81.5906Z" fill="black"/>
<path d="M164.671 53.6103L74.0552 39.2437L65.2876 94.3385L155.904 108.705L164.671 53.6103Z" stroke="black"/>
<path d="M162.342 51.2861L71.7261 36.9194L62.9585 92.0142L153.575 106.381L162.342 51.2861Z" fill="white"/>
<path d="M87.3352 65.2361C87.407 64.7856 87.5979 64.4392 87.9081 64.197C88.2197 63.9451 88.5914 63.8535 89.0231 63.9223L91.0249 64.2393L91.1651 65.2556L91.0854 65.7553L90.5559 65.6712C90.2811 65.6279 90.1185 65.7627 90.0687 66.0761L89.5708 69.2057L89.6444 69.2173L90.7147 67.8956L91.6276 68.0402L92.294 69.6371L92.3676 69.6487L92.8888 66.3727C92.8981 66.3136 92.8953 66.2681 92.8804 66.2355C92.8655 66.203 92.8255 66.1718 92.7598 66.1412L92.2801 65.9297L92.5115 64.475L96.6329 65.1287L96.4015 66.5833L95.8803 66.6358C95.8086 66.6446 95.7601 66.6623 95.7359 66.6883C95.7117 66.7148 95.6949 66.7571 95.6856 66.8162L94.7318 72.8103L91.9201 72.3645L90.8814 69.79L89.3147 71.9517L86.3418 71.4803L87.3352 65.2361ZM91.0449 76.7446C90.2504 76.6186 89.6276 76.3592 89.1768 75.9664C88.7166 75.5722 88.5392 75.0417 88.6454 74.376L88.6873 74.1115L87.8927 73.9855L87.9626 73.5448L88.3855 72.7834L91.0645 73.2078L90.847 74.5745C90.8097 74.8093 90.8218 74.9869 90.8833 75.1073C90.9331 75.2356 91.0612 75.316 91.2671 75.349C91.4734 75.3816 91.6248 75.3453 91.7221 75.2402C91.8078 75.1436 91.8698 74.9776 91.907 74.7424L92.1245 73.3761L94.3615 73.7308L94.1207 75.244C94.0136 75.9199 93.6899 76.3708 93.151 76.5963C92.601 76.8306 91.8986 76.8799 91.0449 76.7446ZM92.9647 62.1218C92.9927 61.9456 92.8888 61.8387 92.6536 61.8015L91.5349 61.6239L91.6262 61.0512L92.0677 60.1721L94.246 60.5175C94.7071 60.5905 95.0378 60.7583 95.2376 61.021C95.429 61.2725 95.4956 61.5793 95.4378 61.9414L95.4076 62.1325L97.733 62.5012L97.6399 63.0892L97.1932 63.9971L92.7775 63.297L92.9647 62.1218ZM101.119 65.6893C102.228 65.865 103.073 66.2802 103.653 66.9342C104.242 67.5902 104.458 68.4177 104.299 69.4167L104.035 71.0768C103.936 71.6942 103.708 72.2148 103.348 72.6402C102.999 73.0665 102.548 73.3719 101.996 73.5551C101.443 73.7387 100.833 73.7777 100.166 73.6717L98.0316 73.3333L97.9082 71.2655C97.8984 71.0731 97.8588 70.9415 97.7899 70.8699C97.7321 70.7904 97.6245 70.7384 97.4676 70.7137L97.026 70.6435L97.2831 69.0276L100.345 69.5129L100.372 71.716C100.59 71.7309 100.771 71.6742 100.912 71.5459C101.054 71.4078 101.148 71.1967 101.194 70.9127L101.46 69.2377C101.585 68.4544 101.333 68.0128 100.705 67.9133C100.155 67.8259 99.7618 68.0244 99.5238 68.5088L97.36 68.1662C97.3665 67.494 97.4238 66.8152 97.5332 66.13C97.9496 65.9148 98.4624 65.76 99.0707 65.6656C99.6906 65.5633 100.373 65.5708 101.119 65.6893ZM102.898 64.8567C102.093 64.7289 101.545 64.4764 101.253 64.0985C100.961 63.721 100.864 63.2236 100.962 62.6067L101.03 62.1804L101.671 62.1316L102.996 62.3417L102.917 62.841C102.876 63.0957 102.979 63.2426 103.224 63.2817L106.874 63.8605L106.783 64.4332L106.327 65.4002L102.898 64.8567ZM114.176 74.4021L113.944 75.8562L109.97 75.2263L110.202 73.7717L110.723 73.7187C110.795 73.7103 110.843 73.6927 110.867 73.6666C110.892 73.6401 110.909 73.5978 110.918 73.5388L111.397 70.5268C111.458 70.1452 111.382 69.8318 111.169 69.5873C110.968 69.3344 110.651 69.1736 110.22 69.1052C109.788 69.0369 109.437 69.0918 109.168 69.2698C108.899 69.4381 108.735 69.7133 108.674 70.0954L108.136 73.4746C108.369 73.4007 108.547 73.2938 108.671 73.1525C108.803 73.013 108.882 72.8647 108.907 72.7081C108.927 72.5807 108.914 72.4779 108.866 72.4003C108.818 72.3222 108.741 72.2697 108.634 72.2427L108.988 70.4915L110.578 70.7435C110.834 71.0954 110.917 71.5505 110.828 72.1088C110.741 72.6574 110.526 73.1553 110.183 73.6029C109.852 74.0427 109.407 74.3737 108.848 74.5964C108.301 74.8112 107.684 74.8637 106.997 74.7549L104.598 74.3746L104.829 72.92L105.351 72.867C105.423 72.8582 105.471 72.841 105.495 72.8145C105.519 72.7885 105.536 72.7457 105.545 72.6871L106.025 69.6752C106.116 69.0973 106.368 68.5948 106.777 68.168C107.189 67.731 107.721 67.4238 108.373 67.2457C109.026 67.0584 109.746 67.0268 110.531 67.1514C111.316 67.2755 111.99 67.5284 112.553 67.9086C113.118 68.2796 113.528 68.7361 113.784 69.2786C114.051 69.8132 114.139 70.3692 114.047 70.9471L113.568 73.959C113.558 74.0176 113.561 74.0632 113.576 74.0957C113.591 74.1283 113.631 74.1599 113.697 74.1901L114.176 74.4021ZM114.688 74.483L115.21 74.4304C115.281 74.4216 115.329 74.4039 115.354 74.3779C115.378 74.3514 115.395 74.3091 115.404 74.2501L115.622 72.8838C115.669 72.59 115.802 72.3501 116.023 72.1641C116.245 71.9684 116.512 71.8448 116.821 71.7936L115.734 70.9434L115.853 70.1944C116.039 69.8523 116.348 69.5497 116.783 69.287C117.219 69.015 117.728 68.8193 118.31 68.7008C118.902 68.5836 119.507 68.5743 120.125 68.6724C121.293 68.8575 122.16 69.2559 122.726 69.8681C123.295 70.4701 123.507 71.2218 123.364 72.1232L122.838 75.4285C122.828 75.4876 122.831 75.5331 122.846 75.5657C122.861 75.5982 122.901 75.6294 122.967 75.66L123.446 75.8716L123.215 77.3262L119.093 76.6725L119.325 75.2184L119.846 75.1654C119.918 75.1566 119.966 75.1394 119.991 75.1129C120.015 75.0864 120.032 75.0441 120.041 74.9855L120.567 71.6797C120.614 71.3859 120.557 71.1456 120.395 70.9596C120.243 70.7746 120 70.6561 119.667 70.6031C119.068 70.5082 118.672 70.6612 118.477 71.0619L119.267 71.7899L119.164 72.4361C118.757 72.4621 118.517 72.7104 118.442 73.1804L118.201 74.6936C118.191 74.7526 118.194 74.7981 118.21 74.8307C118.225 74.8628 118.265 74.8944 118.33 74.9251L118.81 75.1366L118.578 76.5912L114.457 75.9376L114.688 74.483ZM126.683 76.3848L127.246 76.263C127.298 76.2514 127.335 76.237 127.358 76.2207C127.382 76.1942 127.399 76.1519 127.408 76.0933L127.925 72.8461C127.992 72.4249 127.844 72.1855 127.481 72.1279C127.294 72.0986 127.145 72.1251 127.031 72.2074C126.928 72.2813 126.842 72.4133 126.771 72.603L124.593 72.2576L124.744 70.5496C125.115 70.307 125.586 70.1256 126.159 70.0057C126.741 69.8872 127.327 69.8741 127.915 69.9676C128.985 70.1373 129.755 70.5152 130.225 71.1019C130.695 71.6886 130.86 72.418 130.721 73.2896L130.205 76.5363C130.196 76.5954 130.198 76.6409 130.213 76.6735C130.23 76.6963 130.261 76.7213 130.307 76.7483L130.804 77.0384L130.573 78.4925L126.451 77.8394L126.683 76.3848ZM134.69 79.2661C133.993 79.1555 133.364 79.0007 132.802 78.8012C132.242 78.5916 131.794 78.3749 131.457 78.1509L131.921 76.2811L134.055 76.6195C134.048 76.7892 134.12 76.9361 134.271 77.0607C134.433 77.1867 134.636 77.269 134.881 77.308C135.185 77.3564 135.403 77.3457 135.535 77.276C135.678 77.1983 135.76 77.096 135.78 76.9687C135.81 76.7822 135.711 76.6163 135.482 76.4694C135.265 76.3146 134.839 76.1212 134.202 75.8897C133.516 75.6405 132.994 75.2867 132.635 74.8279C132.275 74.3695 132.149 73.8019 132.257 73.1264C132.378 72.3622 132.792 71.8155 133.499 71.4854C134.205 71.1558 135.088 71.0749 136.148 71.2428C136.727 71.3348 137.279 71.4724 137.803 71.6556C138.327 71.8392 138.747 72.0414 139.064 72.2627C138.968 72.8698 138.832 73.5309 138.658 74.2468L136.715 73.9386C136.675 73.7512 136.565 73.5885 136.385 73.4495C136.216 73.3124 136.029 73.2273 135.822 73.1943C135.302 73.112 135.02 73.2129 134.975 73.497C134.946 73.6731 135.042 73.8289 135.262 73.9642C135.494 74.0915 135.928 74.2705 136.565 74.502C137.315 74.7819 137.856 75.1436 138.188 75.588C138.52 76.0324 138.64 76.5433 138.548 77.1211C138.465 77.6404 138.254 78.0839 137.914 78.4516C137.585 78.811 137.141 79.0671 136.584 79.2196C136.028 79.3628 135.397 79.3781 134.69 79.2661Z" fill="black"/>
<path d="M162.342 51.2861L71.7261 36.9194L62.9585 92.0142L153.575 106.381L162.342 51.2861Z" stroke="black"/>
<path d="M160.014 48.9619L69.3979 34.5952L60.6303 89.69L151.247 104.057L160.014 48.9619Z" fill="white"/>
<path d="M85.0071 62.9116C85.0788 62.4611 85.2698 62.1148 85.58 61.8726C85.8915 61.6206 86.2632 61.529 86.695 61.5978L88.6967 61.9149L88.8369 62.9311L88.7573 63.4309L88.2277 63.3467C87.9529 63.3035 87.7904 63.4383 87.7406 63.7516L87.2427 66.8812L87.3163 66.8928L88.3866 65.5712L89.2994 65.7157L89.9659 67.3126L90.0395 67.3242L90.5607 64.0482C90.57 63.9892 90.5672 63.9436 90.5523 63.9111C90.5374 63.8785 90.4969 63.8474 90.4316 63.8167L89.9519 63.6052L90.1834 62.1506L94.3048 62.8042L94.0733 64.2588L93.5522 64.3113C93.4804 64.3202 93.432 64.3378 93.4078 64.3639C93.3836 64.3904 93.3668 64.4327 93.3575 64.4917L92.4036 70.4859L89.5919 70.04L88.5533 67.4655L86.9865 69.6272L84.0132 69.1558L85.0071 62.9116ZM88.7168 74.4201C87.9222 74.2941 87.2995 74.0348 86.8487 73.6419C86.3885 73.2477 86.211 72.7173 86.3172 72.0516L86.3592 71.7871L85.5646 71.6611L85.6345 71.2204L86.0574 70.4589L88.7363 70.8833L88.5188 72.2501C88.4816 72.4848 88.4937 72.6624 88.5547 72.7828C88.605 72.9111 88.7331 72.9916 88.9389 73.0246C89.1453 73.0571 89.2966 73.0208 89.394 72.9158C89.4797 72.8191 89.5416 72.6531 89.5789 72.4179L89.7964 71.0516L92.0334 71.4063L91.7926 72.9195C91.685 73.5954 91.3617 74.0464 90.8229 74.2718C90.2728 74.5061 89.5705 74.5554 88.7168 74.4201ZM90.6366 59.7974C90.6645 59.6212 90.5607 59.5143 90.3255 59.4771L89.2067 59.2995L89.2976 58.7267L89.7396 57.8477L91.9178 58.1931C92.3789 58.2661 92.7096 58.4339 92.9094 58.6965C93.1009 58.948 93.1674 59.2548 93.1097 59.617L93.0794 59.8081L95.4049 60.1767L95.3117 60.7648L94.8651 61.6727L90.4493 60.9726L90.6366 59.7974ZM98.7914 63.3648C99.9003 63.5406 100.745 63.9557 101.325 64.6098C101.914 65.2657 102.13 66.0932 101.971 67.0922L101.706 68.7523C101.608 69.3697 101.38 69.8904 101.02 70.3157C100.671 70.742 100.22 71.0474 99.6674 71.2306C99.115 71.4142 98.5049 71.4533 97.838 71.3473L95.7034 71.0089L95.58 68.9411C95.5702 68.7486 95.5307 68.617 95.4617 68.5455C95.404 68.466 95.2964 68.4139 95.1394 68.3893L94.6979 68.3191L94.955 66.7031L98.0168 67.1885L98.0434 69.3915C98.2623 69.4064 98.4425 69.3497 98.5836 69.2214C98.7261 69.0833 98.8202 68.8723 98.8654 68.5882L99.1318 66.9133C99.2566 66.1299 99.0051 65.6883 98.3768 65.5888C97.8273 65.5014 97.4337 65.6999 97.1957 66.1843L95.0318 65.8417C95.0384 65.1695 95.0956 64.4908 95.2051 63.8056C95.6215 63.5903 96.1343 63.4355 96.7425 63.3411C97.3624 63.2389 98.0452 63.2463 98.7914 63.3648ZM100.57 62.5322C99.7652 62.4044 99.2166 62.152 98.9246 61.774C98.633 61.3965 98.5357 60.8991 98.6339 60.2822L98.7019 59.8559L99.3433 59.8071L100.668 60.0172L100.589 60.5165C100.548 60.7713 100.651 60.9182 100.896 60.9572L104.546 61.536L104.455 62.1087L103.999 63.0757L100.57 62.5322ZM111.848 72.0776L111.616 73.5318L107.642 72.9018L107.873 71.4472L108.395 71.3942C108.467 71.3859 108.515 71.3682 108.539 71.3422C108.564 71.3157 108.58 71.2734 108.59 71.2143L109.069 68.2024C109.13 67.8207 109.054 67.5074 108.841 67.2629C108.64 67.01 108.323 66.8491 107.892 66.7808C107.46 66.7124 107.109 66.7673 106.839 66.9453C106.571 67.1136 106.407 67.3888 106.346 67.771L105.808 71.1502C106.041 71.0763 106.219 70.9693 106.342 70.828C106.475 70.6885 106.554 70.5403 106.579 70.3836C106.599 70.2562 106.586 70.1535 106.538 70.0758C106.49 69.9977 106.412 69.9452 106.306 69.9182L106.66 68.167L108.25 68.419C108.505 68.7709 108.589 69.226 108.5 69.7844C108.413 70.3329 108.198 70.8308 107.855 71.2785C107.524 71.7183 107.078 72.0492 106.52 72.2719C105.973 72.4867 105.356 72.5392 104.669 72.4304L102.27 72.0502L102.501 70.5956L103.023 70.5426C103.094 70.5337 103.142 70.5165 103.167 70.4901C103.191 70.464 103.208 70.4212 103.217 70.3627L103.697 67.3507C103.788 66.7729 104.039 66.2703 104.449 65.8436C104.861 65.4066 105.393 65.0993 106.045 64.9213C106.698 64.7339 107.418 64.7023 108.203 64.8269C108.988 64.951 109.662 65.2039 110.225 65.5842C110.79 65.9551 111.2 66.4117 111.456 66.9542C111.723 67.4888 111.81 68.0448 111.719 68.6226L111.239 71.6346C111.23 71.6931 111.232 71.7387 111.248 71.7712C111.263 71.8038 111.303 71.8354 111.368 71.8656L111.848 72.0776ZM112.36 72.1585L112.882 72.106C112.953 72.0971 113.001 72.0795 113.026 72.0534C113.05 72.0269 113.067 71.9846 113.076 71.9256L113.294 70.5593C113.34 70.2655 113.474 70.0256 113.695 69.8397C113.917 69.644 114.183 69.5203 114.493 69.4692L113.406 68.6189L113.525 67.87C113.711 67.5278 114.02 67.2252 114.454 66.9625C114.89 66.6906 115.399 66.4949 115.982 66.3763C116.574 66.2592 117.179 66.2499 117.797 66.348C118.965 66.533 119.832 66.9314 120.398 67.5436C120.967 68.1457 121.179 68.8974 121.035 69.7988L120.51 73.1041C120.5 73.1631 120.503 73.2087 120.518 73.2412C120.533 73.2737 120.573 73.3049 120.639 73.3356L121.118 73.5471L120.886 75.0017L116.765 74.3481L116.996 72.8939L117.518 72.8409C117.59 72.8321 117.638 72.8149 117.662 72.7884C117.687 72.7619 117.703 72.7196 117.713 72.661L118.239 69.3553C118.286 69.0615 118.228 68.8211 118.067 68.6352C117.915 68.4502 117.672 68.3316 117.339 68.2786C116.74 68.1838 116.343 68.3367 116.149 68.7374L116.939 69.4655L116.836 70.1116C116.429 70.1377 116.188 70.3859 116.114 70.8559L115.873 72.3691C115.863 72.4281 115.866 72.4737 115.881 72.5062C115.896 72.5383 115.936 72.5699 116.002 72.6006L116.481 72.8121L116.25 74.2667L112.128 73.6131L112.36 72.1585ZM124.355 74.0603L124.917 73.9385C124.97 73.9269 125.007 73.9125 125.03 73.8962C125.054 73.8697 125.071 73.8274 125.08 73.7688L125.597 70.5217C125.664 70.1005 125.516 69.8611 125.153 69.8034C124.966 69.7741 124.816 69.8006 124.703 69.8829C124.6 69.9568 124.514 70.0889 124.443 70.2785L122.265 69.9331L122.416 68.2252C122.787 67.9825 123.258 67.8012 123.83 67.6812C124.413 67.5627 124.998 67.5497 125.587 67.6431C126.657 67.8128 127.426 68.1907 127.896 68.7774C128.367 69.3641 128.532 70.0935 128.393 70.9652L127.877 74.2119C127.867 74.2709 127.87 74.3165 127.885 74.349C127.901 74.3718 127.933 74.3969 127.979 74.4238L128.476 74.7139L128.245 76.1681L124.123 75.5149L124.355 74.0603ZM132.362 76.9416C131.665 76.831 131.036 76.6762 130.474 76.4768C129.914 76.2671 129.465 76.0505 129.129 75.8264L129.593 73.9567L131.727 74.2951C131.72 74.4648 131.792 74.6117 131.943 74.7363C132.104 74.8622 132.307 74.9445 132.553 74.9836C132.857 75.0319 133.075 75.0212 133.207 74.9515C133.35 74.8739 133.432 74.7716 133.452 74.6442C133.482 74.4578 133.382 74.2918 133.154 74.1449C132.937 73.9901 132.511 73.7967 131.873 73.5652C131.188 73.316 130.666 72.9623 130.307 72.5034C129.947 72.0451 129.821 71.4774 129.928 70.802C130.05 70.0377 130.464 69.491 131.171 69.161C131.877 68.8314 132.76 68.7505 133.82 68.9183C134.399 69.0103 134.951 69.1479 135.475 69.3311C135.999 69.5147 136.419 69.717 136.736 69.9382C136.639 70.5454 136.504 71.2064 136.33 71.9223L134.387 71.6141C134.346 71.4268 134.237 71.2641 134.057 71.1251C133.888 70.9879 133.701 70.9029 133.494 70.8699C132.974 70.7876 132.692 70.8884 132.647 71.1725C132.618 71.3487 132.714 71.5044 132.934 71.6397C133.165 71.7671 133.599 71.946 134.237 72.1776C134.987 72.4574 135.528 72.8191 135.86 73.2635C136.192 73.7079 136.311 74.2188 136.22 74.7967C136.137 75.316 135.925 75.7594 135.585 76.1272C135.257 76.4865 134.813 76.7427 134.256 76.8951C133.7 77.0383 133.068 77.0537 132.362 76.9416Z" fill="black"/>
<path d="M160.014 48.9619L69.3979 34.5952L60.6303 89.69L151.247 104.057L160.014 48.9619Z" stroke="black"/>
<path d="M157.685 46.6374L67.0688 32.2708L58.3012 87.3656L148.917 101.732L157.685 46.6374Z" fill="white"/>
<path d="M82.678 60.5876C82.7497 60.1371 82.9407 59.7908 83.2509 59.5486C83.5624 59.2966 83.9341 59.2051 84.3659 59.2739L86.3676 59.5909L86.5078 60.6071L86.4282 61.1069L85.8986 61.0227C85.6238 60.9795 85.4613 61.1143 85.4115 61.4276L84.9136 64.5572L84.9872 64.5688L86.0575 63.2472L86.9703 63.3918L87.6368 64.9886L87.7104 65.0002L88.2316 61.7242C88.2409 61.6652 88.2381 61.6196 88.2232 61.5871C88.2083 61.5546 88.1678 61.5234 88.1025 61.4927L87.6228 61.2812L87.8543 59.8266L91.9757 60.4802L91.7442 61.9348L91.2231 61.9874C91.1513 61.9962 91.1029 62.0139 91.0787 62.0399C91.0545 62.0664 91.0377 62.1087 91.0284 62.1677L90.0745 68.1619L87.2628 67.7161L86.2242 65.1416L84.6574 67.3033L81.6841 66.8319L82.678 60.5876ZM86.3877 72.0962C85.5931 71.9702 84.9704 71.7108 84.5196 71.318C84.0594 70.9237 83.8819 70.3933 83.9881 69.7276L84.0301 69.4631L83.2355 69.3371L83.3053 68.8964L83.7283 68.1349L86.4072 68.5594L86.1897 69.9261C86.1525 70.1609 86.1646 70.3384 86.2256 70.4588C86.2759 70.5872 86.404 70.6676 86.6098 70.7006C86.8162 70.7331 86.9675 70.6969 87.0649 70.5918C87.1506 70.4951 87.2125 70.3292 87.2498 70.0939L87.4673 68.7276L89.7043 69.0823L89.4635 70.5955C89.3559 71.2715 89.0326 71.7224 88.4938 71.9479C87.9437 72.1822 87.2414 72.2314 86.3877 72.0962ZM88.3075 57.4734C88.3354 57.2972 88.2316 57.1903 87.9964 57.1531L86.8776 56.9755L86.9685 56.4028L87.4105 55.5237L89.5887 55.8691C90.0498 55.9421 90.3805 56.1099 90.5803 56.3725C90.7717 56.624 90.8383 56.9309 90.7806 57.293L90.7503 57.4841L93.0758 57.8527L92.9826 58.4408L92.536 59.3487L88.1202 58.6486L88.3075 57.4734ZM96.4622 61.0409C97.5712 61.2166 98.4156 61.6317 98.9954 62.2858C99.5851 62.9418 99.8007 63.7692 99.6414 64.7683L99.3774 66.4284C99.2791 67.0457 99.0504 67.5664 98.6909 67.9917C98.3415 68.418 97.8907 68.7235 97.3383 68.9066C96.7859 69.0903 96.1758 69.1293 95.5089 69.0233L93.3743 68.6849L93.2509 66.6171C93.2411 66.4246 93.2016 66.2931 93.1326 66.2215C93.0749 66.142 92.9673 66.0899 92.8103 66.0653L92.3688 65.9951L92.6259 64.3792L95.6877 64.8645L95.7143 67.0676C95.9332 67.0824 96.1134 67.0257 96.2545 66.8974C96.397 66.7593 96.4911 66.5483 96.5363 66.2643L96.8027 64.5893C96.9275 63.806 96.676 63.3643 96.0477 63.2649C95.4982 63.1775 95.1046 63.3759 94.8666 63.8604L92.7027 63.5177C92.7093 62.8455 92.7665 62.1668 92.876 61.4816C93.2924 61.2663 93.8052 61.1115 94.4134 61.0172C95.0333 60.9149 95.7161 60.9223 96.4622 61.0409ZM98.2405 60.2083C97.4361 60.0804 96.8875 59.828 96.5955 59.45C96.3039 59.0726 96.2066 58.5751 96.3048 57.9583L96.3728 57.532L97.0142 57.4831L98.3392 57.6933L98.2596 58.1926C98.219 58.4473 98.3215 58.5942 98.567 58.6333L102.217 59.212L102.126 59.7848L101.67 60.7517L98.2405 60.2083ZM109.519 69.7536L109.287 71.2078L105.313 70.5779L105.544 69.1233L106.066 69.0703C106.138 69.0619 106.186 69.0442 106.21 69.0182C106.235 68.9917 106.251 68.9494 106.261 68.8904L106.74 65.8784C106.8 65.4967 106.725 65.1834 106.512 64.9389C106.311 64.686 105.994 64.5251 105.562 64.4568C105.131 64.3885 104.78 64.4433 104.51 64.6214C104.242 64.7897 104.078 65.0649 104.017 65.447L103.479 68.8262C103.712 68.7523 103.89 68.6454 104.013 68.504C104.146 68.3646 104.225 68.2163 104.25 68.0596C104.27 67.9322 104.257 67.8295 104.209 67.7519C104.161 67.6738 104.083 67.6212 103.977 67.5943L104.331 65.8431L105.921 66.095C106.176 66.4469 106.26 66.9021 106.171 67.4604C106.084 68.0089 105.869 68.5068 105.526 68.9545C105.195 69.3943 104.749 69.7253 104.191 69.9479C103.644 70.1627 103.026 70.2153 102.34 70.1065L99.9405 69.7262L100.172 68.2716L100.694 68.2186C100.765 68.2098 100.813 68.1926 100.837 68.1661C100.862 68.14 100.878 68.0973 100.888 68.0387L101.367 65.0267C101.459 64.4489 101.71 63.9464 102.12 63.5196C102.532 63.0826 103.064 62.7753 103.716 62.5973C104.369 62.4099 105.089 62.3783 105.874 62.5029C106.659 62.627 107.333 62.8799 107.896 63.2602C108.461 63.6312 108.871 64.0877 109.127 64.6302C109.394 65.1648 109.481 65.7208 109.39 66.2987L108.91 69.3106C108.9 69.3692 108.903 69.4147 108.919 69.4473C108.934 69.4798 108.974 69.5114 109.039 69.5416L109.519 69.7536ZM110.031 69.8345L110.553 69.782C110.624 69.7732 110.672 69.7555 110.696 69.7295C110.721 69.703 110.738 69.6607 110.747 69.6016L110.965 68.2353C111.011 67.9415 111.145 67.7017 111.366 67.5157C111.588 67.32 111.854 67.1963 112.164 67.1452L111.077 66.2949L111.196 65.546C111.382 65.2039 111.691 64.9012 112.125 64.6386C112.561 64.3666 113.07 64.1709 113.653 64.0524C114.244 63.9352 114.849 63.9259 115.468 64.024C116.636 64.209 117.503 64.6074 118.069 65.2197C118.637 65.8217 118.85 66.5734 118.706 67.4748L118.181 70.7801C118.171 70.8391 118.174 70.8847 118.189 70.9172C118.204 70.9498 118.244 70.9809 118.31 71.0116L118.789 71.2231L118.557 72.6777L114.436 72.0241L114.667 70.57L115.189 70.517C115.261 70.5081 115.309 70.4909 115.333 70.4644C115.358 70.4379 115.374 70.3956 115.384 70.3371L115.91 67.0313C115.957 66.7375 115.899 66.4972 115.738 66.3112C115.586 66.1262 115.343 66.0076 115.01 65.9546C114.411 65.8598 114.014 66.0127 113.82 66.4135L114.61 67.1415L114.507 67.7877C114.1 67.8137 113.859 68.0619 113.785 68.5319L113.544 70.0451C113.534 70.1042 113.537 70.1497 113.552 70.1822C113.567 70.2143 113.607 70.2459 113.673 70.2766L114.152 70.4881L113.921 71.9428L109.799 71.2891L110.031 69.8345ZM122.026 71.7363L122.588 71.6145C122.64 71.6029 122.678 71.5885 122.701 71.5722C122.725 71.5457 122.742 71.5034 122.751 71.4449L123.268 68.1977C123.335 67.7765 123.187 67.5371 122.824 67.4794C122.637 67.4502 122.487 67.4767 122.374 67.5589C122.271 67.6329 122.185 67.7649 122.114 67.9545L119.936 67.6092L120.087 65.9012C120.458 65.6585 120.929 65.4772 121.501 65.3573C122.083 65.2387 122.669 65.2257 123.258 65.3191C124.327 65.4888 125.097 65.8668 125.567 66.4535C126.038 67.0401 126.203 67.7695 126.064 68.6412L125.548 71.8879C125.538 71.9469 125.541 71.9925 125.556 72.025C125.572 72.0478 125.604 72.0729 125.65 72.0999L126.147 72.39L125.916 73.8441L121.794 73.191L122.026 71.7363ZM130.033 74.6177C129.336 74.507 128.707 74.3522 128.145 74.1528C127.585 73.9431 127.136 73.7265 126.8 73.5024L127.264 71.6327L129.398 71.9711C129.391 72.1408 129.463 72.2877 129.614 72.4123C129.775 72.5383 129.978 72.6205 130.224 72.6596C130.528 72.7079 130.746 72.6972 130.878 72.6275C131.021 72.5499 131.103 72.4476 131.123 72.3202C131.153 72.1338 131.053 71.9679 130.825 71.821C130.608 71.6662 130.181 71.4728 129.544 71.2412C128.859 70.9921 128.337 70.6383 127.978 70.1795C127.618 69.7211 127.492 69.1535 127.599 68.478C127.721 67.7137 128.135 67.167 128.841 66.837C129.548 66.5074 130.431 66.4265 131.491 66.5943C132.07 66.6864 132.621 66.824 133.145 67.0071C133.669 67.1908 134.09 67.393 134.407 67.6143C134.31 68.2214 134.175 68.8825 134.001 69.5984L132.058 69.2902C132.017 69.1028 131.907 68.9401 131.728 68.8011C131.559 68.664 131.371 68.5789 131.165 68.5459C130.645 68.4636 130.363 68.5645 130.317 68.8485C130.289 69.0247 130.385 69.1804 130.605 69.3157C130.836 69.4431 131.27 69.6221 131.908 69.8536C132.658 70.1334 133.199 70.4951 133.531 70.9395C133.863 71.384 133.982 71.8949 133.891 72.4727C133.808 72.992 133.596 73.4355 133.256 73.8032C132.927 74.1625 132.484 74.4187 131.927 74.5712C131.37 74.7144 130.739 74.7297 130.033 74.6177Z" fill="black"/>
<path d="M157.685 46.6374L67.0688 32.2708L58.3012 87.3656L148.917 101.732L157.685 46.6374Z" stroke="black"/>
<path d="M155.357 44.313L64.7407 29.9463L55.9731 85.0411L146.589 99.4078L155.357 44.313Z" fill="white"/>
<path d="M80.3494 58.2632C80.4211 57.8127 80.6121 57.4663 80.9222 57.2241C81.2338 56.9722 81.6055 56.8806 82.0372 56.9494L84.039 57.2664L84.1792 58.2827L84.0996 58.7824L83.57 58.6983C83.2952 58.655 83.1327 58.7898 83.0828 59.1032L82.585 62.2328L82.6586 62.2444L83.7288 60.9227L84.6417 61.0673L85.3082 62.6642L85.3818 62.6758L85.903 59.3998C85.9123 59.3407 85.9095 59.2952 85.8946 59.2626C85.8797 59.2301 85.8391 59.1989 85.7739 59.1683L85.2942 58.9568L85.5257 57.5021L89.6471 58.1558L89.4156 59.6104L88.8944 59.6629C88.8227 59.6717 88.7743 59.6894 88.7501 59.7154C88.7258 59.7419 88.7091 59.7842 88.6998 59.8433L87.7459 65.8374L84.9342 65.3916L83.8956 62.8171L82.3288 64.9788L79.3555 64.5074L80.3494 58.2632ZM84.0591 69.7717C83.2645 69.6457 82.6418 69.3863 82.1909 68.9935C81.7308 68.5993 81.5533 68.0688 81.6595 67.4031L81.7014 67.1386L80.9069 67.0126L80.9767 66.5719L81.3996 65.8105L84.0786 66.2349L83.8611 67.6016C83.8239 67.8364 83.836 68.014 83.897 68.1344C83.9473 68.2627 84.0754 68.3431 84.2812 68.3761C84.4875 68.4087 84.6389 68.3724 84.7363 68.2673C84.8219 68.1707 84.8839 68.0047 84.9212 67.7695L85.1387 66.4032L87.3756 66.7579L87.1348 68.2711C87.0273 68.947 86.704 69.3979 86.1652 69.6234C85.6151 69.8577 84.9128 69.907 84.0591 69.7717ZM85.9789 55.1489C86.0068 54.9727 85.9029 54.8658 85.6677 54.8286L84.549 54.651L84.6398 54.0783L85.0818 53.1992L87.2601 53.5446C87.7212 53.6176 88.0519 53.7854 88.2517 54.0481C88.4431 54.2996 88.5097 54.6064 88.452 54.9685L88.4217 55.1596L90.7472 55.5283L90.654 56.1163L90.2074 57.0242L85.7916 56.3241L85.9789 55.1489ZM94.1336 58.7164C95.2426 58.8921 96.087 59.3073 96.6668 59.9613C97.2565 60.6173 97.4721 61.4448 97.3128 62.4438L97.0487 64.1039C96.9505 64.7213 96.7218 65.2419 96.3622 65.6673C96.0129 66.0936 95.5621 66.399 95.0097 66.5822C94.4573 66.7658 93.8472 66.8048 93.1803 66.6988L91.0457 66.3604L90.9223 64.2926C90.9125 64.1002 90.8729 63.9686 90.804 63.897C90.7463 63.8175 90.6387 63.7655 90.4817 63.7408L90.0402 63.6706L90.2973 62.0547L93.3591 62.54L93.3856 64.7431C93.6045 64.758 93.7848 64.7013 93.9259 64.573C94.0684 64.4349 94.1625 64.2238 94.2077 63.9398L94.4741 62.2648C94.5989 61.4815 94.3474 61.0399 93.7191 60.9404C93.1695 60.853 92.776 61.0515 92.538 61.5359L90.3741 61.1933C90.3806 60.5211 90.4379 59.8423 90.5474 59.1571C90.9638 58.9419 91.4765 58.7871 92.0848 58.6927C92.7047 58.5904 93.3875 58.5979 94.1336 58.7164ZM95.9119 57.8838C95.1075 57.756 94.5589 57.5035 94.2668 57.1256C93.9753 56.7481 93.8779 56.2507 93.9762 55.6338L94.0442 55.2075L94.6855 55.1587L96.0106 55.3688L95.931 55.8681C95.8904 56.1228 95.9929 56.2697 96.2383 56.3088L99.8884 56.8876L99.7976 57.4603L99.3416 58.4273L95.9119 57.8838ZM107.19 67.4292L106.958 68.8833L102.984 68.2534L103.216 66.7988L103.737 66.7458C103.809 66.7374 103.857 66.7198 103.881 66.6937C103.906 66.6672 103.923 66.6249 103.932 66.5659L104.411 63.5539C104.472 63.1723 104.396 62.8589 104.184 62.6144C103.982 62.3615 103.666 62.2007 103.234 62.1323C102.802 62.064 102.451 62.1189 102.182 62.2969C101.913 62.4652 101.749 62.7404 101.688 63.1225L101.151 66.5017C101.383 66.4278 101.561 66.3209 101.684 66.1796C101.818 66.0401 101.896 65.8918 101.921 65.7352C101.941 65.6078 101.928 65.505 101.88 65.4274C101.832 65.3493 101.755 65.2968 101.648 65.2698L102.002 63.5186L103.592 63.7706C103.848 64.1225 103.932 64.5776 103.843 65.1359C103.756 65.6845 103.54 66.1824 103.198 66.63C102.866 67.0698 102.421 67.4008 101.862 67.6235C101.315 67.8383 100.698 67.8908 100.011 67.782L97.6118 67.4017L97.8433 65.9471L98.3649 65.8941C98.4367 65.8853 98.4846 65.8681 98.5089 65.8416C98.5331 65.8156 98.5499 65.7728 98.5592 65.7142L99.0389 62.7023C99.1306 62.1244 99.3817 61.6219 99.7915 61.1951C100.203 60.7581 100.735 60.4509 101.387 60.2728C102.041 60.0855 102.76 60.0539 103.545 60.1785C104.33 60.3026 105.004 60.5555 105.567 60.9357C106.132 61.3067 106.543 61.7632 106.798 62.3057C107.065 62.8403 107.153 63.3963 107.061 63.9742L106.582 66.9861C106.572 67.0447 106.575 67.0903 106.59 67.1228C106.605 67.1554 106.645 67.187 106.711 67.2172L107.19 67.4292ZM107.702 67.5101L108.224 67.4575C108.296 67.4487 108.344 67.431 108.368 67.405C108.392 67.3785 108.409 67.3362 108.419 67.2772L108.636 65.9109C108.683 65.6171 108.816 65.3772 109.037 65.1912C109.259 64.9955 109.526 64.8719 109.835 64.8207L108.748 63.9705L108.868 63.2215C109.053 62.8794 109.363 62.5768 109.797 62.3141C110.233 62.0421 110.742 61.8464 111.324 61.7279C111.916 61.6107 112.521 61.6014 113.139 61.6995C114.307 61.8846 115.174 62.283 115.741 62.8952C116.309 63.4972 116.521 64.2489 116.378 65.1503L115.852 68.4556C115.843 68.5147 115.845 68.5602 115.86 68.5928C115.875 68.6253 115.915 68.6565 115.981 68.6871L116.46 68.8987L116.229 70.3533L112.107 69.6996L112.339 68.2455L112.86 68.1925C112.932 68.1837 112.98 68.1665 113.005 68.14C113.029 68.1135 113.046 68.0712 113.055 68.0126L113.581 64.7068C113.628 64.413 113.571 64.1727 113.409 63.9867C113.257 63.8017 113.015 63.6832 112.681 63.6302C112.083 63.5353 111.686 63.6883 111.491 64.089L112.281 64.817L112.178 65.4632C111.771 65.4892 111.531 65.7375 111.456 66.2075L111.215 67.7207C111.206 67.7797 111.208 67.8252 111.224 67.8578C111.239 67.8899 111.279 67.9215 111.344 67.9522L111.824 68.1637L111.592 69.6183L107.471 68.9647L107.702 67.5101ZM119.697 69.4119L120.26 69.2901C120.312 69.2785 120.349 69.2641 120.372 69.2478C120.396 69.2213 120.413 69.179 120.422 69.1204L120.939 65.8732C121.006 65.452 120.858 65.2126 120.495 65.155C120.309 65.1257 120.159 65.1522 120.045 65.2345C119.943 65.3084 119.856 65.4404 119.786 65.6301L117.607 65.2847L117.758 63.5767C118.129 63.3341 118.6 63.1527 119.173 63.0328C119.755 62.9143 120.341 62.9012 120.929 62.9947C121.999 63.1644 122.769 63.5423 123.239 64.129C123.709 64.7157 123.874 65.4451 123.736 66.3167L123.219 69.5634C123.21 69.6225 123.213 69.668 123.227 69.7006C123.244 69.7234 123.275 69.7484 123.321 69.7754L123.819 70.0655L123.587 71.5196L119.466 70.8665L119.697 69.4119ZM127.704 72.2932C127.007 72.1826 126.378 72.0278 125.817 71.8283C125.256 71.6187 124.808 71.402 124.471 71.178L124.935 69.3082L127.069 69.6466C127.062 69.8163 127.135 69.9632 127.286 70.0878C127.447 70.2138 127.65 70.2961 127.895 70.3351C128.199 70.3835 128.417 70.3728 128.549 70.3031C128.692 70.2254 128.774 70.1231 128.794 69.9958C128.824 69.8093 128.725 69.6434 128.496 69.4965C128.279 69.3417 127.853 69.1483 127.215 68.9168C126.531 68.6676 126.008 68.3138 125.649 67.855C125.289 67.3966 125.163 66.829 125.271 66.1535C125.392 65.3893 125.806 64.8426 126.513 64.5125C127.219 64.1829 128.102 64.102 129.162 64.2699C129.741 64.3619 130.293 64.4995 130.817 64.6827C131.341 64.8663 131.761 65.0685 132.079 65.2898C131.982 65.8969 131.847 66.558 131.672 67.2739L129.729 66.9657C129.689 66.7783 129.579 66.6156 129.4 66.4766C129.23 66.3395 129.043 66.2544 128.836 66.2214C128.316 66.1391 128.034 66.24 127.989 66.524C127.96 66.7002 128.056 66.856 128.276 66.9913C128.508 67.1186 128.942 67.2976 129.579 67.5291C130.329 67.809 130.87 68.1707 131.202 68.6151C131.534 69.0595 131.654 69.5704 131.562 70.1482C131.479 70.6675 131.268 71.111 130.928 71.4787C130.599 71.8381 130.155 72.0942 129.598 72.2467C129.042 72.3899 128.411 72.4052 127.704 72.2932Z" fill="black"/>
<path d="M155.357 44.313L64.7407 29.9463L55.9731 85.0411L146.589 99.4078L155.357 44.313Z" stroke="black"/>
<path d="M153.027 41.9885L62.4111 27.6218L53.6435 82.7166L144.26 97.0833L153.027 41.9885Z" fill="white"/>
<path d="M78.0203 55.9387C78.092 55.4882 78.283 55.1419 78.5931 54.8997C78.9047 54.6477 79.2764 54.5561 79.7081 54.6249L81.7099 54.942L81.8501 55.9582L81.7705 56.458L81.2409 56.3738C80.9661 56.3306 80.8036 56.4654 80.7537 56.7787L80.2559 59.9083L80.3295 59.9199L81.3997 58.5983L82.3126 58.7428L82.9791 60.3397L83.0527 60.3513L83.5738 57.0753C83.5832 57.0163 83.5804 56.9707 83.5655 56.9382C83.5506 56.9056 83.51 56.8745 83.4448 56.8438L82.9651 56.6323L83.1966 55.1777L87.318 55.8313L87.0865 57.2859L86.5653 57.3384C86.4936 57.3473 86.4452 57.3649 86.421 57.391C86.3967 57.4175 86.38 57.4598 86.3707 57.5188L85.4168 63.513L82.6051 63.0671L81.5665 60.4926L79.9997 62.6543L77.0264 62.1829L78.0203 55.9387ZM81.73 67.4472C80.9354 67.3212 80.3127 67.0619 79.8618 66.669C79.4017 66.2748 79.2242 65.7444 79.3304 65.0787L79.3723 64.8142L78.5778 64.6882L78.6476 64.2475L79.0705 63.486L81.7495 63.9104L81.532 65.2772C81.4948 65.5119 81.5069 65.6895 81.5679 65.8099C81.6182 65.9382 81.7463 66.0187 81.9521 66.0517C82.1584 66.0842 82.3098 66.0479 82.4071 65.9429C82.4928 65.8462 82.5548 65.6802 82.5921 65.445L82.8096 64.0787L85.0465 64.4334L84.8057 65.9466C84.6982 66.6225 84.3749 67.0735 83.8361 67.2989C83.286 67.5332 82.5837 67.5825 81.73 67.4472ZM83.6498 52.8245C83.6777 52.6483 83.5738 52.5414 83.3386 52.5042L82.2199 52.3266L82.3107 51.7538L82.7527 50.8748L84.931 51.2202C85.3921 51.2932 85.7228 51.461 85.9226 51.7236C86.114 51.9751 86.1806 52.2819 86.1229 52.6441L86.0926 52.8352L88.4181 53.2038L88.3249 53.7919L87.8783 54.6998L83.4625 53.9997L83.6498 52.8245ZM91.8045 56.3919C92.9135 56.5677 93.7579 56.9828 94.3377 57.6369C94.9274 58.2928 95.143 59.1203 94.9837 60.1193L94.7196 61.7794C94.6214 62.3968 94.3927 62.9175 94.0331 63.3428C93.6838 63.7691 93.233 64.0745 92.6806 64.2577C92.1282 64.4413 91.5181 64.4804 90.8512 64.3744L88.7166 64.036L88.5932 61.9682C88.5834 61.7757 88.5438 61.6441 88.4749 61.5726C88.4172 61.4931 88.3096 61.441 88.1526 61.4164L87.7111 61.3462L87.9682 59.7302L91.03 60.2156L91.0565 62.4186C91.2754 62.4335 91.4557 62.3768 91.5968 62.2485C91.7393 62.1104 91.8334 61.8994 91.8786 61.6153L92.145 59.9404C92.2698 59.157 92.0183 58.7154 91.39 58.6159C90.8404 58.5285 90.4469 58.727 90.2089 59.2114L88.045 58.8688C88.0515 58.1966 88.1088 57.5179 88.2183 56.8327C88.6347 56.6174 89.1474 56.4626 89.7557 56.3682C90.3756 56.266 91.0584 56.2734 91.8045 56.3919ZM93.5828 55.5593C92.7784 55.4315 92.2298 55.1791 91.9377 54.8011C91.6462 54.4236 91.5488 53.9262 91.6471 53.3093L91.7151 52.883L92.3564 52.8342L93.6815 53.0443L93.6019 53.5436C93.5613 53.7984 93.6638 53.9453 93.9092 53.9843L97.5593 54.5631L97.4685 55.1358L97.0125 56.1028L93.5828 55.5593ZM104.861 65.1047L104.629 66.5589L100.655 65.9289L100.887 64.4743L101.408 64.4213C101.48 64.413 101.528 64.3953 101.552 64.3693C101.577 64.3428 101.594 64.3005 101.603 64.2414L102.082 61.2295C102.143 60.8478 102.067 60.5345 101.854 60.29C101.653 60.0371 101.337 59.8762 100.905 59.8079C100.473 59.7395 100.122 59.7944 99.8526 59.9724C99.5844 60.1407 99.42 60.4159 99.359 60.7981L98.8215 64.1773C99.0544 64.1034 99.2323 63.9964 99.3552 63.8551C99.4884 63.7156 99.5671 63.5674 99.5923 63.4107C99.6123 63.2833 99.5988 63.1806 99.5508 63.1029C99.5029 63.0248 99.4256 62.9723 99.3189 62.9453L99.6733 61.1941L101.263 61.4461C101.519 61.798 101.602 62.2531 101.513 62.8115C101.426 63.36 101.211 63.8579 100.868 64.3056C100.537 64.7454 100.092 65.0763 99.5331 65.299C98.9859 65.5138 98.3688 65.5663 97.6818 65.4575L95.2827 65.0773L95.5142 63.6227L96.0358 63.5697C96.1076 63.5608 96.1555 63.5436 96.1798 63.5171C96.204 63.4911 96.2207 63.4483 96.2301 63.3898L96.7098 60.3778C96.8015 59.8 97.0526 59.2974 97.4624 58.8707C97.8742 58.4337 98.406 58.1264 99.0581 57.9484C99.7115 57.761 100.431 57.7294 101.216 57.854C102.001 57.9781 102.675 58.231 103.238 58.6113C103.803 58.9822 104.213 59.4388 104.469 59.9813C104.736 60.5159 104.824 61.0719 104.732 61.6497L104.253 64.6617C104.243 64.7202 104.246 64.7658 104.261 64.7983C104.276 64.8309 104.316 64.8625 104.382 64.8927L104.861 65.1047ZM105.373 65.1856L105.895 65.1331C105.967 65.1242 106.014 65.1066 106.039 65.0805C106.063 65.054 106.08 65.0117 106.089 64.9527L106.307 63.5864C106.354 63.2926 106.487 63.0527 106.708 62.8668C106.93 62.6711 107.197 62.5474 107.506 62.4963L106.419 61.646L106.538 60.8971C106.724 60.5549 107.034 60.2523 107.468 59.9896C107.904 59.7177 108.413 59.522 108.995 59.4034C109.587 59.2863 110.192 59.277 110.81 59.3751C111.978 59.5601 112.845 59.9585 113.411 60.5707C113.98 61.1728 114.192 61.9245 114.049 62.8259L113.523 66.1312C113.513 66.1902 113.516 66.2358 113.531 66.2683C113.546 66.3008 113.586 66.332 113.652 66.3627L114.131 66.5742L113.9 68.0288L109.778 67.3752L110.01 65.921L110.531 65.868C110.603 65.8592 110.651 65.842 110.676 65.8155C110.7 65.789 110.717 65.7467 110.726 65.6881L111.252 62.3824C111.299 62.0886 111.242 61.8482 111.08 61.6623C110.928 61.4773 110.685 61.3587 110.352 61.3057C109.753 61.2109 109.357 61.3638 109.162 61.7645L109.952 62.4926L109.849 63.1387C109.442 63.1648 109.202 63.413 109.127 63.883L108.886 65.3962C108.877 65.4552 108.879 65.5008 108.895 65.5333C108.91 65.5654 108.95 65.597 109.015 65.6277L109.495 65.8392L109.263 67.2938L105.142 66.6402L105.373 65.1856ZM117.368 67.0874L117.931 66.9656C117.983 66.954 118.02 66.9396 118.043 66.9233C118.067 66.8968 118.084 66.8545 118.093 66.7959L118.61 63.5488C118.677 63.1276 118.529 62.8882 118.166 62.8305C117.98 62.8012 117.83 62.8277 117.716 62.91C117.613 62.9839 117.527 63.116 117.457 63.3056L115.278 62.9602L115.429 61.2523C115.8 61.0096 116.271 60.8283 116.844 60.7083C117.426 60.5898 118.012 60.5768 118.6 60.6702C119.67 60.8399 120.44 61.2178 120.91 61.8045C121.38 62.3912 121.545 63.1206 121.407 63.9923L120.89 67.239C120.881 67.298 120.883 67.3436 120.898 67.3761C120.915 67.3989 120.946 67.424 120.992 67.4509L121.489 67.741L121.258 69.1952L117.137 68.542L117.368 67.0874ZM125.375 69.9687C124.678 69.8581 124.049 69.7033 123.487 69.5039C122.927 69.2942 122.479 69.0776 122.142 68.8535L122.606 66.9838L124.74 67.3222C124.733 67.4919 124.806 67.6388 124.956 67.7634C125.118 67.8893 125.321 67.9716 125.566 68.0107C125.87 68.059 126.088 68.0483 126.22 67.9786C126.363 67.901 126.445 67.7987 126.465 67.6713C126.495 67.4849 126.396 67.3189 126.167 67.172C125.95 67.0172 125.524 66.8238 124.886 66.5923C124.201 66.3431 123.679 65.9894 123.32 65.5305C122.96 65.0722 122.834 64.5045 122.942 63.8291C123.063 63.0648 123.477 62.5181 124.184 62.1881C124.89 61.8585 125.773 61.7776 126.833 61.9454C127.412 62.0374 127.964 62.175 128.488 62.3582C129.012 62.5418 129.432 62.7441 129.749 62.9653C129.653 63.5725 129.517 64.2335 129.343 64.9494L127.4 64.6412C127.36 64.4539 127.25 64.2912 127.07 64.1522C126.901 64.015 126.714 63.93 126.507 63.8969C125.987 63.8147 125.705 63.9155 125.66 64.1996C125.631 64.3758 125.727 64.5315 125.947 64.6668C126.179 64.7942 126.613 64.9731 127.25 65.2046C128 65.4845 128.541 65.8462 128.873 66.2906C129.205 66.735 129.325 67.2459 129.233 67.8238C129.15 68.3431 128.939 68.7865 128.599 69.1543C128.27 69.5136 127.826 69.7698 127.269 69.9222C126.713 70.0654 126.082 70.0808 125.375 69.9687Z" fill="black"/>
<path d="M153.027 41.9885L62.4111 27.6218L53.6435 82.7166L144.26 97.0833L153.027 41.9885Z" stroke="black"/>
<path d="M150.699 39.664L60.083 25.2974L51.3154 80.3922L141.932 94.7588L150.699 39.664Z" fill="white"/>
<path d="M75.6921 53.6142C75.7639 53.1638 75.9548 52.8174 76.265 52.5752C76.5766 52.3232 76.9483 52.2317 77.38 52.3005L79.3818 52.6175L79.522 53.6337L79.4423 54.1335L78.9128 54.0494C78.638 54.0061 78.4755 54.1409 78.4256 54.4543L77.9277 57.5838L78.0013 57.5954L79.0716 56.2738L79.9845 56.4184L80.651 58.0152L80.7246 58.0269L81.2457 54.7508C81.255 54.6918 81.2522 54.6463 81.2373 54.6137C81.2224 54.5812 81.1819 54.55 81.1167 54.5193L80.637 54.3078L80.8685 52.8532L84.9899 53.5068L84.7584 54.9614L84.2372 55.014C84.1655 55.0228 84.1171 55.0405 84.0928 55.0665C84.0686 55.093 84.0518 55.1353 84.0425 55.1943L83.0887 61.1885L80.277 60.7427L79.2383 58.1682L77.6716 60.3299L74.6982 59.8585L75.6921 53.6142ZM79.4018 65.1228C78.6073 64.9968 77.9846 64.7374 77.5337 64.3446C77.0736 63.9504 76.8961 63.4199 77.0023 62.7542L77.0442 62.4897L76.2497 62.3637L76.3195 61.923L76.7424 61.1615L79.4214 61.586L79.2039 62.9527C79.1666 63.1875 79.1787 63.3651 79.2397 63.4855C79.29 63.6138 79.4181 63.6942 79.624 63.7272C79.8303 63.7597 79.9817 63.7235 80.079 63.6184C80.1647 63.5217 80.2267 63.3558 80.2639 63.1205L80.4814 61.7543L82.7184 62.109L82.4776 63.6221C82.37 64.2981 82.0468 64.749 81.5079 64.9745C80.9579 65.2088 80.2555 65.258 79.4018 65.1228ZM81.3216 50.5C81.3496 50.3238 81.2457 50.2169 81.0105 50.1797L79.8918 50.0021L79.9826 49.4294L80.4246 48.5503L82.6029 48.8957C83.064 48.9687 83.3947 49.1365 83.5945 49.3992C83.7859 49.6507 83.8525 49.9575 83.7948 50.3196L83.7645 50.5107L86.09 50.8793L85.9968 51.4674L85.5502 52.3753L81.1344 51.6752L81.3216 50.5ZM89.4764 54.0675C90.5854 54.2432 91.4298 54.6583 92.0096 55.3124C92.5992 55.9684 92.8149 56.7958 92.6556 57.7949L92.3915 59.455C92.2932 60.0723 92.0646 60.593 91.705 61.0184C91.3557 61.4447 90.9049 61.7501 90.3525 61.9332C89.8001 62.1169 89.19 62.1559 88.523 62.0499L86.3885 61.7115L86.2651 59.6437C86.2553 59.4512 86.2157 59.3197 86.1468 59.2481C86.089 59.1686 85.9814 59.1165 85.8245 59.0919L85.383 59.0217L85.64 57.4058L88.7019 57.8911L88.7284 60.0942C88.9473 60.1091 89.1276 60.0523 89.2687 59.924C89.4112 59.786 89.5053 59.5749 89.5505 59.2909L89.8169 57.6159C89.9417 56.8326 89.6902 56.391 89.0619 56.2915C88.5123 56.2041 88.1188 56.4026 87.8808 56.887L85.7169 56.5443C85.7234 55.8721 85.7807 55.1934 85.8902 54.5082C86.3065 54.293 86.8193 54.1381 87.4276 54.0438C88.0475 53.9415 88.7303 53.9489 89.4764 54.0675ZM91.2546 53.2349C90.4503 53.107 89.9016 52.8546 89.6096 52.4767C89.3181 52.0992 89.2207 51.6018 89.319 50.9849L89.387 50.5586L90.0283 50.5098L91.3534 50.7199L91.2737 51.2192C91.2332 51.4739 91.3357 51.6208 91.5811 51.6599L95.2312 52.2386L95.1404 52.8114L94.6844 53.7783L91.2546 53.2349ZM102.533 62.7802L102.301 64.2344L98.327 63.6045L98.5585 62.1499L99.0801 62.0969C99.1518 62.0885 99.1998 62.0708 99.224 62.0448C99.2487 62.0183 99.2655 61.976 99.2748 61.917L99.7541 58.905C99.8146 58.5233 99.7387 58.21 99.5263 57.9655C99.3251 57.7126 99.0084 57.5518 98.5766 57.4834C98.1449 57.4151 97.7942 57.4699 97.5245 57.648C97.2563 57.8163 97.0918 58.0915 97.0308 58.4736L96.4934 61.8528C96.7262 61.7789 96.9041 61.672 97.0271 61.5307C97.1603 61.3912 97.239 61.2429 97.2642 61.0862C97.2842 60.9589 97.2707 60.8561 97.2227 60.7785C97.1747 60.7004 97.0974 60.6478 96.9908 60.6209L97.3452 58.8697L98.9348 59.1216C99.1905 59.4736 99.2743 59.9287 99.1854 60.487C99.0983 61.0356 98.8831 61.5334 98.5403 61.9811C98.2087 62.4209 97.7634 62.7519 97.205 62.9746C96.6578 63.1893 96.0407 63.2419 95.3537 63.1331L92.9546 62.7528L93.1861 61.2982L93.7077 61.2452C93.7794 61.2364 93.8274 61.2192 93.8516 61.1927C93.8759 61.1667 93.8926 61.1239 93.9019 61.0653L94.3817 58.0533C94.4734 57.4755 94.7244 56.973 95.1343 56.5462C95.546 56.1092 96.0779 55.8019 96.73 55.6239C97.3834 55.4366 98.103 55.4049 98.8878 55.5295C99.673 55.6536 100.347 55.9065 100.91 56.2868C101.475 56.6578 101.885 57.1143 102.141 57.6568C102.408 58.1914 102.495 58.7474 102.404 59.3253L101.924 62.3372C101.915 62.3958 101.917 62.4413 101.933 62.4739C101.948 62.5064 101.988 62.538 102.053 62.5683L102.533 62.7802ZM103.045 62.8611L103.567 62.8086C103.638 62.7998 103.686 62.7821 103.711 62.7561C103.735 62.7296 103.752 62.6873 103.761 62.6282L103.979 61.2619C104.025 60.9681 104.159 60.7283 104.38 60.5423C104.602 60.3466 104.868 60.2229 105.178 60.1718L104.091 59.3215L104.21 58.5726C104.396 58.2305 104.705 57.9278 105.139 57.6652C105.575 57.3932 106.084 57.1975 106.667 57.079C107.259 56.9618 107.864 56.9525 108.482 57.0506C109.65 57.2356 110.517 57.634 111.083 58.2463C111.652 58.8483 111.864 59.6 111.72 60.5014L111.195 63.8067C111.185 63.8657 111.188 63.9113 111.203 63.9438C111.218 63.9764 111.258 64.0075 111.324 64.0382L111.803 64.2497L111.571 65.7043L107.45 65.0507L107.682 63.5966L108.203 63.5436C108.275 63.5347 108.323 63.5175 108.348 63.4911C108.372 63.4646 108.389 63.4222 108.398 63.3637L108.924 60.0579C108.971 59.7641 108.913 59.5238 108.752 59.3378C108.6 59.1528 108.357 59.0342 108.024 58.9812C107.425 58.8864 107.029 59.0394 106.834 59.4401L107.624 60.1681L107.521 60.8143C107.114 60.8403 106.873 61.0885 106.799 61.5585L106.558 63.0717C106.548 63.1308 106.551 63.1763 106.567 63.2089C106.581 63.2409 106.621 63.2725 106.687 63.3032L107.166 63.5148L106.935 64.9694L102.814 64.3157L103.045 62.8611ZM115.04 64.763L115.602 64.6412C115.655 64.6295 115.692 64.6151 115.715 64.5989C115.739 64.5724 115.756 64.53 115.765 64.4715L116.282 61.2243C116.349 60.8031 116.201 60.5637 115.838 60.5061C115.651 60.4768 115.501 60.5033 115.388 60.5856C115.285 60.6595 115.199 60.7915 115.128 60.9812L112.95 60.6358L113.101 58.9278C113.472 58.6851 113.943 58.5038 114.515 58.3839C115.098 58.2653 115.684 58.2523 116.272 58.3458C117.342 58.5154 118.111 58.8934 118.581 59.4801C119.052 60.0667 119.217 60.7961 119.078 61.6678L118.562 64.9145C118.553 64.9735 118.555 65.0191 118.57 65.0516C118.587 65.0744 118.618 65.0995 118.664 65.1265L119.161 65.4166L118.93 66.8707L114.808 66.2176L115.04 64.763ZM123.047 67.6443C122.35 67.5336 121.721 67.3788 121.159 67.1794C120.599 66.9697 120.151 66.7531 119.814 66.529L120.278 64.6593L122.412 64.9977C122.405 65.1674 122.477 65.3143 122.628 65.4389C122.789 65.5649 122.993 65.6472 123.238 65.6862C123.542 65.7346 123.76 65.7239 123.892 65.6541C124.035 65.5765 124.117 65.4742 124.137 65.3468C124.167 65.1604 124.067 64.9945 123.839 64.8476C123.622 64.6928 123.196 64.4994 122.558 64.2679C121.873 64.0187 121.351 63.6649 120.992 63.2061C120.632 62.7477 120.506 62.1801 120.613 61.5046C120.735 60.7404 121.149 60.1937 121.856 59.8636C122.562 59.534 123.445 59.4531 124.505 59.6209C125.084 59.713 125.636 59.8506 126.16 60.0337C126.684 60.2174 127.104 60.4196 127.421 60.6409C127.324 61.248 127.189 61.9091 127.015 62.625L125.072 62.3168C125.032 62.1294 124.922 61.9667 124.742 61.8277C124.573 61.6906 124.386 61.6055 124.179 61.5725C123.659 61.4902 123.377 61.5911 123.332 61.8751C123.303 62.0513 123.399 62.2071 123.619 62.3423C123.85 62.4697 124.284 62.6487 124.922 62.8802C125.672 63.16 126.213 63.5217 126.545 63.9662C126.877 64.4106 126.997 64.9215 126.905 65.4993C126.822 66.0186 126.61 66.4621 126.27 66.8298C125.942 67.1892 125.498 67.4453 124.941 67.5978C124.385 67.741 123.754 67.7563 123.047 67.6443Z" fill="black"/>
<path d="M150.699 39.664L60.083 25.2974L51.3154 80.3922L141.932 94.7588L150.699 39.664Z" stroke="black"/>
<path d="M148.37 37.3396L57.7539 22.9729L48.9863 78.0677L139.603 92.4344L148.37 37.3396Z" fill="white"/>
<path d="M73.363 51.2898C73.4348 50.8393 73.6257 50.493 73.9359 50.2507C74.2475 49.9988 74.6192 49.9072 75.0509 49.976L77.0527 50.2931L77.1929 51.3093L77.1132 51.809L76.5837 51.7249C76.3089 51.6817 76.1464 51.8165 76.0965 52.1298L75.5986 55.2594L75.6722 55.271L76.7425 53.9493L77.6554 54.0939L78.3219 55.6908L78.3954 55.7024L78.9166 52.4264C78.9259 52.3673 78.9231 52.3218 78.9082 52.2892C78.8933 52.2567 78.8528 52.2256 78.7876 52.1949L78.3079 51.9834L78.5394 50.5287L82.6608 51.1824L82.4293 52.637L81.9081 52.6895C81.8364 52.6983 81.788 52.716 81.7637 52.742C81.7395 52.7685 81.7227 52.8108 81.7134 52.8699L80.7596 58.864L77.9479 58.4182L76.9092 55.8437L75.3425 58.0054L72.3691 57.534L73.363 51.2898ZM77.0727 62.7983C76.2782 62.6723 75.6555 62.4129 75.2046 62.0201C74.7445 61.6259 74.567 61.0955 74.6732 60.4297L74.7151 60.1652L73.9205 60.0392L73.9904 59.5985L74.4133 58.8371L77.0923 59.2615L76.8748 60.6282C76.8375 60.863 76.8496 61.0406 76.9106 61.161C76.9609 61.2893 77.089 61.3697 77.2949 61.4027C77.5012 61.4353 77.6526 61.399 77.7499 61.294C77.8356 61.1973 77.8976 61.0313 77.9348 60.7961L78.1523 59.4298L80.3893 59.7845L80.1485 61.2977C80.0409 61.9736 79.7177 62.4245 79.1788 62.65C78.6288 62.8843 77.9264 62.9336 77.0727 62.7983ZM78.9925 48.1755C79.0205 47.9993 78.9166 47.8924 78.6814 47.8552L77.5627 47.6776L77.6535 47.1049L78.0955 46.2258L80.2738 46.5712C80.7349 46.6442 81.0656 46.812 81.2654 47.0747C81.4568 47.3262 81.5234 47.633 81.4657 47.9952L81.4354 48.1862L83.7609 48.5549L83.6677 49.1429L83.2211 50.0509L78.8053 49.3507L78.9925 48.1755ZM87.1473 51.743C88.2563 51.9187 89.1006 52.3339 89.6805 52.988C90.2701 53.6439 90.4858 54.4714 90.3265 55.4704L90.0624 57.1305C89.9641 57.7479 89.7355 58.2685 89.3759 58.6939C89.0266 59.1202 88.5758 59.4256 88.0234 59.6088C87.471 59.7924 86.8609 59.8315 86.1939 59.7255L84.0594 59.387L83.936 57.3192C83.9262 57.1268 83.8866 56.9952 83.8177 56.9236C83.7599 56.8441 83.6523 56.7921 83.4954 56.7674L83.0539 56.6972L83.3109 55.0813L86.3728 55.5666L86.3993 57.7697C86.6182 57.7846 86.7985 57.7279 86.9396 57.5996C87.0821 57.4615 87.1762 57.2504 87.2214 56.9664L87.4878 55.2914C87.6126 54.5081 87.3611 54.0665 86.7328 53.967C86.1832 53.8796 85.7896 54.0781 85.5517 54.5625L83.3878 54.2199C83.3943 53.5477 83.4516 52.869 83.5611 52.1837C83.9774 51.9685 84.4902 51.8137 85.0985 51.7193C85.7184 51.617 86.4012 51.6245 87.1473 51.743ZM88.9255 50.9104C88.1212 50.7826 87.5725 50.5301 87.2805 50.1522C86.989 49.7747 86.8916 49.2773 86.9899 48.6604L87.0579 48.2341L87.6992 48.1853L89.0243 48.3954L88.9446 48.8947C88.9041 49.1495 89.0066 49.2964 89.252 49.3354L92.9021 49.9142L92.8113 50.4869L92.3553 51.4539L88.9255 50.9104ZM100.204 60.4558L99.9721 61.9099L95.9979 61.28L96.2294 59.8254L96.751 59.7724C96.8227 59.764 96.8707 59.7464 96.8949 59.7203C96.9196 59.6938 96.9364 59.6515 96.9457 59.5925L97.425 56.5805C97.4855 56.1989 97.4096 55.8856 97.1972 55.641C96.996 55.3881 96.6793 55.2273 96.2475 55.159C95.8158 55.0906 95.4651 55.1455 95.1954 55.3235C94.9271 55.4918 94.7627 55.767 94.7017 56.1491L94.1643 59.5283C94.3971 59.4544 94.575 59.3475 94.698 59.2062C94.8312 59.0667 94.9099 58.9184 94.9351 58.7618C94.9551 58.6344 94.9416 58.5316 94.8936 58.454C94.8456 58.3759 94.7683 58.3234 94.6617 58.2964L95.0161 56.5452L96.6057 56.7972C96.8614 57.1491 96.9452 57.6042 96.8563 58.1625C96.7692 58.7111 96.554 59.209 96.2112 59.6567C95.8796 60.0964 95.4343 60.4274 94.8759 60.6501C94.3287 60.8649 93.7116 60.9174 93.0246 60.8086L90.6255 60.4284L90.857 58.9737L91.3786 58.9207C91.4503 58.9119 91.4983 58.8947 91.5225 58.8682C91.5468 58.8422 91.5635 58.7994 91.5728 58.7408L92.0526 55.7289C92.1443 55.151 92.3953 54.6485 92.8052 54.2217C93.2169 53.7848 93.7488 53.4775 94.4009 53.2994C95.0543 53.1121 95.7739 53.0805 96.5587 53.2051C97.3439 53.3292 98.0178 53.5821 98.5809 53.9623C99.1459 54.3333 99.5562 54.7898 99.8119 55.3323C100.079 55.867 100.166 56.423 100.075 57.0008L99.5953 60.0127C99.5856 60.0713 99.5883 60.1169 99.6037 60.1494C99.6186 60.182 99.6587 60.2136 99.7243 60.2438L100.204 60.4558ZM100.716 60.5367L101.238 60.4841C101.309 60.4753 101.357 60.4576 101.381 60.4316C101.406 60.4051 101.423 60.3628 101.432 60.3038L101.65 58.9375C101.696 58.6437 101.83 58.4038 102.051 58.2179C102.273 58.0221 102.539 57.8985 102.849 57.8473L101.762 56.9971L101.881 56.2482C102.067 55.906 102.376 55.6034 102.81 55.3407C103.246 55.0688 103.755 54.8731 104.338 54.7545C104.93 54.6374 105.535 54.6281 106.153 54.7261C107.321 54.9112 108.188 55.3096 108.754 55.9218C109.322 56.5238 109.535 57.2755 109.391 58.1769L108.866 61.4822C108.856 61.5413 108.859 61.5868 108.874 61.6194C108.889 61.6519 108.929 61.6831 108.995 61.7138L109.474 61.9253L109.242 63.3799L105.121 62.7262L105.352 61.2721L105.874 61.2191C105.946 61.2103 105.994 61.1931 106.018 61.1666C106.043 61.1401 106.059 61.0978 106.069 61.0392L106.595 57.7334C106.642 57.4396 106.584 57.1993 106.423 57.0133C106.271 56.8283 106.028 56.7098 105.695 56.6568C105.096 56.5619 104.699 56.7149 104.505 57.1156L105.295 57.8436L105.192 58.4898C104.785 58.5158 104.544 58.7641 104.47 59.2341L104.229 60.7473C104.219 60.8063 104.222 60.8519 104.237 60.8844C104.252 60.9165 104.292 60.9481 104.358 60.9788L104.837 61.1903L104.606 62.6449L100.484 61.9913L100.716 60.5367ZM112.711 62.4385L113.273 62.3167C113.326 62.3051 113.363 62.2907 113.386 62.2744C113.41 62.2479 113.427 62.2056 113.436 62.147L113.953 58.8998C114.02 58.4787 113.872 58.2392 113.509 58.1816C113.322 58.1523 113.172 58.1788 113.059 58.2611C112.956 58.335 112.87 58.467 112.799 58.6567L110.621 58.3113L110.772 56.6033C111.143 56.3607 111.614 56.1794 112.186 56.0594C112.769 55.9409 113.354 55.9279 113.943 56.0213C115.013 56.191 115.782 56.5689 116.252 57.1556C116.723 57.7423 116.888 58.4717 116.749 59.3433L116.233 62.59C116.223 62.6491 116.226 62.6946 116.241 62.7272C116.257 62.75 116.289 62.7751 116.335 62.802L116.832 63.0921L116.601 64.5463L112.479 63.8931L112.711 62.4385ZM120.718 65.3198C120.021 65.2092 119.392 65.0544 118.83 64.8549C118.27 64.6453 117.821 64.4286 117.485 64.2046L117.949 62.3348L120.083 62.6733C120.076 62.8429 120.148 62.9898 120.299 63.1144C120.46 63.2404 120.663 63.3227 120.909 63.3617C121.213 63.4101 121.431 63.3994 121.563 63.3297C121.706 63.252 121.788 63.1497 121.808 63.0224C121.838 62.836 121.738 62.67 121.51 62.5231C121.293 62.3683 120.866 62.1749 120.229 61.9434C119.544 61.6942 119.022 61.3404 118.663 60.8816C118.303 60.4232 118.177 59.8556 118.284 59.1802C118.406 58.4159 118.82 57.8692 119.527 57.5391C120.233 57.2095 121.116 57.1286 122.176 57.2965C122.755 57.3885 123.307 57.5261 123.831 57.7093C124.354 57.8929 124.775 58.0951 125.092 58.3164C124.995 58.9235 124.86 59.5846 124.686 60.3005L122.743 59.9923C122.702 59.805 122.593 59.6422 122.413 59.5032C122.244 59.3661 122.056 59.281 121.85 59.248C121.33 59.1657 121.048 59.2666 121.002 59.5507C120.974 59.7269 121.07 59.8826 121.29 60.0179C121.521 60.1452 121.955 60.3242 122.593 60.5557C123.343 60.8356 123.884 61.1973 124.216 61.6417C124.548 62.0861 124.667 62.597 124.576 63.1749C124.493 63.6941 124.281 64.1376 123.941 64.5053C123.613 64.8647 123.169 65.1208 122.612 65.2733C122.056 65.4165 121.424 65.4319 120.718 65.3198Z" fill="black"/>
<path d="M148.37 37.3396L57.7539 22.9729L48.9863 78.0677L139.603 92.4344L148.37 37.3396Z" stroke="black"/>
<path d="M146.042 35.0151L55.4258 20.6484L46.6582 75.7432L137.274 90.1099L146.042 35.0151Z" fill="white"/>
<path d="M71.0344 48.9653C71.1062 48.5148 71.2971 48.1685 71.6073 47.9263C71.9189 47.6743 72.2906 47.5827 72.7223 47.6515L74.7241 47.9686L74.8643 48.9848L74.7846 49.4846L74.2551 49.4004C73.9803 49.3572 73.8177 49.492 73.7679 49.8053L73.27 52.9349L73.3436 52.9465L74.4139 51.6249L75.3268 51.7694L75.9932 53.3663L76.0668 53.3779L76.588 50.1019C76.5973 50.0429 76.5945 49.9973 76.5796 49.9648C76.5647 49.9322 76.5242 49.9011 76.459 49.8704L75.9793 49.6589L76.2107 48.2043L80.3321 48.8579L80.1007 50.3125L79.5795 50.365C79.5078 50.3739 79.4593 50.3915 79.4351 50.4176C79.4109 50.4441 79.3941 50.4864 79.3848 50.5454L78.431 56.5396L75.6193 56.0938L74.5806 53.5193L73.0139 55.6809L70.0405 55.2095L71.0344 48.9653ZM74.7441 60.4738C73.9496 60.3479 73.3268 60.0885 72.876 59.6956C72.4158 59.3014 72.2384 58.771 72.3446 58.1053L72.3865 57.8408L71.5919 57.7148L71.6618 57.2741L72.0847 56.5126L74.7637 56.937L74.5462 58.3038C74.5089 58.5385 74.521 58.7161 74.582 58.8365C74.6323 58.9648 74.7604 59.0453 74.9663 59.0783C75.1726 59.1108 75.324 59.0746 75.4213 58.9695C75.507 58.8728 75.569 58.7068 75.6062 58.4716L75.8237 57.1053L78.0607 57.46L77.8199 58.9732C77.7123 59.6491 77.3891 60.1001 76.8502 60.3255C76.3002 60.5598 75.5978 60.6091 74.7441 60.4738ZM76.6639 45.8511C76.6919 45.6749 76.588 45.568 76.3528 45.5308L75.2341 45.3532L75.3249 44.7804L75.7669 43.9014L77.9452 44.2468C78.4063 44.3198 78.737 44.4876 78.9368 44.7502C79.1282 45.0017 79.1948 45.3086 79.137 45.6707L79.1068 45.8618L81.4322 46.2304L81.3391 46.8185L80.8924 47.7264L76.4767 47.0263L76.6639 45.8511ZM84.8187 49.4186C85.9276 49.5943 86.772 50.0094 87.3519 50.6635C87.9415 51.3194 88.1572 52.1469 87.9979 53.1459L87.7338 54.806C87.6355 55.4234 87.4069 55.9441 87.0473 56.3694C86.698 56.7957 86.2471 57.1011 85.6948 57.2843C85.1424 57.4679 84.5323 57.507 83.8653 57.401L81.7308 57.0626L81.6074 54.9948C81.5976 54.8023 81.558 54.6708 81.4891 54.5992C81.4313 54.5197 81.3237 54.4676 81.1668 54.443L80.7252 54.3728L80.9823 52.7569L84.0442 53.2422L84.0707 55.4452C84.2896 55.4601 84.4698 55.4034 84.611 55.2751C84.7535 55.137 84.8476 54.926 84.8927 54.6419L85.1592 52.967C85.284 52.1837 85.0325 51.742 84.4042 51.6425C83.8546 51.5551 83.461 51.7536 83.223 52.238L81.0592 51.8954C81.0657 51.2232 81.123 50.5445 81.2324 49.8593C81.6488 49.644 82.1616 49.4892 82.7699 49.3948C83.3898 49.2926 84.0726 49.3 84.8187 49.4186ZM86.5969 48.586C85.7926 48.4581 85.2439 48.2057 84.9519 47.8277C84.6603 47.4503 84.563 46.9528 84.6613 46.3359L84.7293 45.9096L85.3706 45.8608L86.6957 46.071L86.616 46.5702C86.5755 46.825 86.678 46.9719 86.9234 47.0109L90.5735 47.5897L90.4826 48.1625L90.0267 49.1294L86.5969 48.586ZM97.875 58.1313L97.6435 59.5855L93.6693 58.9556L93.9008 57.5009L94.4224 57.4479C94.4941 57.4396 94.5421 57.4219 94.5663 57.3959C94.591 57.3694 94.6078 57.3271 94.6171 57.268L95.0963 54.2561C95.1569 53.8744 95.081 53.5611 94.8686 53.3166C94.6674 53.0637 94.3507 52.9028 93.9189 52.8345C93.4872 52.7662 93.1365 52.821 92.8668 52.9991C92.5985 53.1673 92.4341 53.4426 92.3731 53.8247L91.8356 57.2039C92.0685 57.13 92.2464 57.023 92.3694 56.8817C92.5026 56.7423 92.5813 56.594 92.6065 56.4373C92.6265 56.3099 92.613 56.2072 92.565 56.1295C92.517 56.0514 92.4397 55.9989 92.3331 55.972L92.6875 54.2208L94.2771 54.4727C94.5328 54.8246 94.6166 55.2798 94.5277 55.8381C94.4406 56.3866 94.2254 56.8845 93.8826 57.3322C93.551 57.772 93.1057 58.103 92.5473 58.3256C92 58.5404 91.3829 58.5929 90.696 58.4842L88.2969 58.1039L88.5284 56.6493L89.05 56.5963C89.1217 56.5874 89.1697 56.5703 89.1939 56.5438C89.2181 56.5177 89.2349 56.475 89.2442 56.4164L89.7239 53.4044C89.8157 52.8266 90.0667 52.324 90.4766 51.8973C90.8883 51.4603 91.4202 51.153 92.0722 50.975C92.7257 50.7876 93.4453 50.756 94.2301 50.8806C95.0153 51.0047 95.6892 51.2576 96.2523 51.6379C96.8173 52.0089 97.2276 52.4654 97.4833 53.0079C97.7502 53.5425 97.8377 54.0985 97.746 54.6763L97.2667 57.6883C97.2569 57.7469 97.2597 57.7924 97.2751 57.825C97.29 57.8575 97.3301 57.8891 97.3957 57.9193L97.875 58.1313ZM98.3873 58.2122L98.9089 58.1597C98.9807 58.1508 99.0286 58.1332 99.0529 58.1071C99.0775 58.0806 99.0943 58.0383 99.1036 57.9793L99.3211 56.613C99.3677 56.3192 99.5014 56.0793 99.7221 55.8934C99.9443 55.6977 100.211 55.574 100.52 55.5229L99.4334 54.6726L99.5526 53.9237C99.738 53.5815 100.048 53.2789 100.482 53.0163C100.918 52.7443 101.427 52.5486 102.009 52.43C102.601 52.3129 103.206 52.3036 103.824 52.4017C104.992 52.5867 105.859 52.9851 106.426 53.5974C106.994 54.1994 107.206 54.9511 107.063 55.8525L106.537 59.1578C106.528 59.2168 106.53 59.2624 106.545 59.2949C106.56 59.3275 106.6 59.3586 106.666 59.3893L107.145 59.6008L106.914 61.0554L102.792 60.4018L103.024 58.9476L103.545 58.8946C103.617 58.8858 103.665 58.8686 103.69 58.8421C103.714 58.8156 103.731 58.7733 103.74 58.7147L104.266 55.409C104.313 55.1152 104.256 54.8748 104.094 54.6889C103.942 54.5039 103.7 54.3853 103.366 54.3323C102.768 54.2375 102.371 54.3904 102.176 54.7912L102.966 55.5192L102.863 56.1653C102.457 56.1914 102.216 56.4396 102.141 56.9096L101.9 58.4228C101.891 58.4818 101.893 58.5274 101.909 58.5599C101.924 58.592 101.964 58.6236 102.029 58.6543L102.509 58.8658L102.277 60.3204L98.1558 59.6668L98.3873 58.2122ZM110.382 60.114L110.945 59.9922C110.997 59.9806 111.034 59.9662 111.057 59.9499C111.081 59.9234 111.098 59.8811 111.107 59.8225L111.624 56.5754C111.691 56.1542 111.543 55.9148 111.18 55.8571C110.994 55.8278 110.844 55.8543 110.73 55.9366C110.628 56.0105 110.541 56.1426 110.471 56.3322L108.292 55.9868L108.443 54.2789C108.814 54.0362 109.285 53.8549 109.858 53.735C110.44 53.6164 111.026 53.6034 111.615 53.6968C112.684 53.8665 113.454 54.2445 113.924 54.8311C114.394 55.4178 114.559 56.1472 114.421 57.0189L113.904 60.2656C113.895 60.3246 113.898 60.3702 113.913 60.4027C113.929 60.4255 113.96 60.4506 114.006 60.4776L114.504 60.7677L114.272 62.2218L110.151 61.5686L110.382 60.114ZM118.389 62.9954C117.693 62.8847 117.063 62.7299 116.502 62.5305C115.941 62.3208 115.493 62.1042 115.157 61.8801L115.62 60.0104L117.754 60.3488C117.747 60.5185 117.82 60.6654 117.971 60.79C118.132 60.916 118.335 60.9982 118.58 61.0373C118.884 61.0856 119.102 61.0749 119.234 61.0052C119.377 60.9276 119.459 60.8253 119.479 60.6979C119.509 60.5115 119.41 60.3455 119.182 60.1986C118.964 60.0438 118.538 59.8504 117.9 59.6189C117.216 59.3698 116.694 59.016 116.334 58.5572C115.974 58.0988 115.848 57.5312 115.956 56.8557C116.077 56.0914 116.491 55.5447 117.198 55.2147C117.904 54.8851 118.788 54.8042 119.847 54.972C120.426 55.064 120.978 55.2016 121.502 55.3848C122.026 55.5684 122.446 55.7707 122.764 55.9919C122.667 56.5991 122.532 57.2601 122.357 57.9761L120.414 57.6678C120.374 57.4805 120.264 57.3178 120.085 57.1788C119.916 57.0416 119.728 56.9566 119.522 56.9236C119.001 56.8413 118.719 56.9422 118.674 57.2262C118.645 57.4024 118.741 57.5581 118.961 57.6934C119.193 57.8208 119.627 57.9998 120.264 58.2313C121.014 58.5111 121.555 58.8728 121.887 59.3172C122.219 59.7617 122.339 60.2725 122.247 60.8504C122.164 61.3697 121.953 61.8132 121.613 62.1809C121.284 62.5402 120.841 62.7964 120.283 62.9489C119.727 63.092 119.096 63.1074 118.389 62.9954Z" fill="black"/>
<path d="M146.042 35.0151L55.4258 20.6484L46.6582 75.7432L137.274 90.1099L146.042 35.0151Z" stroke="black"/>
<path d="M143.713 32.6906L53.0967 18.324L44.3291 73.4188L134.945 87.7854L143.713 32.6906Z" fill="white"/>
<path d="M68.7053 46.6408C68.7771 46.1904 68.968 45.844 69.2782 45.6018C69.5898 45.3499 69.9615 45.2583 70.3932 45.3271L72.395 45.6441L72.5352 46.6604L72.4555 47.1601L71.926 47.076C71.6512 47.0327 71.4886 47.1675 71.4388 47.4809L70.9409 50.6104L71.0145 50.6221L72.0848 49.3004L72.9977 49.445L73.6641 51.0418L73.7377 51.0535L74.2589 47.7775C74.2682 47.7184 74.2654 47.6729 74.2505 47.6403C74.2356 47.6078 74.1951 47.5766 74.1299 47.546L73.6502 47.3344L73.8816 45.8798L78.003 46.5334L77.7716 47.9881L77.2504 48.0406C77.1787 48.0494 77.1302 48.0671 77.106 48.0931C77.0818 48.1196 77.065 48.1619 77.0557 48.221L76.1019 54.2151L73.2902 53.7693L72.2515 51.1948L70.6848 53.3565L67.7114 52.8851L68.7053 46.6408ZM72.415 58.1494C71.6204 58.0234 70.9977 57.764 70.5469 57.3712C70.0867 56.977 69.9093 56.4465 70.0155 55.7808L70.0574 55.5163L69.2628 55.3903L69.3327 54.9496L69.7556 54.1881L72.4346 54.6126L72.2171 55.9793C72.1798 56.2141 72.1919 56.3917 72.2529 56.5121C72.3032 56.6404 72.4313 56.7208 72.6372 56.7538C72.8435 56.7864 72.9949 56.7501 73.0922 56.645C73.1779 56.5483 73.2399 56.3824 73.2771 56.1472L73.4946 54.7809L75.7316 55.1356L75.4908 56.6487C75.3832 57.3247 75.06 57.7756 74.5211 58.0011C73.9711 58.2354 73.2687 58.2847 72.415 58.1494ZM74.3348 43.5266C74.3628 43.3504 74.2589 43.2435 74.0237 43.2063L72.905 43.0287L72.9958 42.456L73.4378 41.5769L75.6161 41.9223C76.0772 41.9953 76.4079 42.1631 76.6077 42.4258C76.7991 42.6773 76.8657 42.9841 76.8079 43.3462L76.7777 43.5373L79.1031 43.9059L79.01 44.494L78.5633 45.4019L74.1476 44.7018L74.3348 43.5266ZM82.4896 47.0941C83.5985 47.2698 84.4429 47.6849 85.0228 48.339C85.6124 48.995 85.8281 49.8225 85.6688 50.8215L85.4047 52.4816C85.3064 53.0989 85.0778 53.6196 84.7182 54.045C84.3689 54.4713 83.918 54.7767 83.3657 54.9598C82.8133 55.1435 82.2032 55.1825 81.5362 55.0765L79.4017 54.7381L79.2783 52.6703C79.2685 52.4779 79.2289 52.3463 79.16 52.2747C79.1022 52.1952 78.9946 52.1431 78.8377 52.1185L78.3961 52.0483L78.6532 50.4324L81.7151 50.9177L81.7416 53.1208C81.9605 53.1357 82.1407 53.0789 82.2819 52.9506C82.4244 52.8126 82.5185 52.6015 82.5636 52.3175L82.8301 50.6425C82.9549 49.8592 82.7034 49.4176 82.0751 49.3181C81.5255 49.2307 81.1319 49.4292 80.8939 49.9136L78.7301 49.571C78.7366 48.8987 78.7939 48.22 78.9033 47.5348C79.3197 47.3196 79.8325 47.1648 80.4408 47.0704C81.0607 46.9681 81.7435 46.9755 82.4896 47.0941ZM84.2678 46.2615C83.4635 46.1336 82.9148 45.8812 82.6228 45.5033C82.3312 45.1258 82.2339 44.6284 82.3322 44.0115L82.4002 43.5852L83.0415 43.5364L84.3666 43.7465L84.2869 44.2458C84.2464 44.5005 84.3489 44.6474 84.5943 44.6865L88.2444 45.2653L88.1535 45.838L87.6976 46.8049L84.2678 46.2615ZM95.5459 55.8069L95.3144 57.261L91.3402 56.6311L91.5717 55.1765L92.0933 55.1235C92.165 55.1151 92.213 55.0974 92.2372 55.0714C92.2619 55.0449 92.2787 55.0026 92.288 54.9436L92.7672 51.9316C92.8278 51.55 92.7519 51.2366 92.5395 50.9921C92.3383 50.7392 92.0216 50.5784 91.5898 50.51C91.1581 50.4417 90.8074 50.4965 90.5377 50.6746C90.2694 50.8429 90.105 51.1181 90.044 51.5002L89.5065 54.8794C89.7394 54.8055 89.9173 54.6986 90.0403 54.5573C90.1735 54.4178 90.2522 54.2695 90.2773 54.1128C90.2974 53.9855 90.2839 53.8827 90.2359 53.8051C90.1879 53.727 90.1106 53.6745 90.004 53.6475L90.3584 51.8963L91.948 52.1483C92.2037 52.5002 92.2875 52.9553 92.1986 53.5136C92.1115 54.0622 91.8963 54.56 91.5535 55.0077C91.2219 55.4475 90.7766 55.7785 90.2182 56.0012C89.6709 56.2159 89.0538 56.2685 88.3669 56.1597L85.9678 55.7794L86.1993 54.3248L86.7209 54.2718C86.7926 54.263 86.8406 54.2458 86.8648 54.2193C86.889 54.1933 86.9058 54.1505 86.9151 54.0919L87.3948 51.08C87.4866 50.5021 87.7376 49.9996 88.1475 49.5728C88.5592 49.1358 89.0911 48.8286 89.7431 48.6505C90.3966 48.4632 91.1162 48.4315 91.9009 48.5561C92.6862 48.6803 93.3601 48.9332 93.9232 49.3134C94.4882 49.6844 94.8985 50.1409 95.1542 50.6834C95.4211 51.218 95.5086 51.774 95.4169 52.3519L94.9376 55.3638C94.9278 55.4224 94.9306 55.468 94.946 55.5005C94.9609 55.533 95.001 55.5647 95.0666 55.5949L95.5459 55.8069ZM96.0582 55.8877L96.5798 55.8352C96.6516 55.8264 96.6995 55.8087 96.7238 55.7827C96.7484 55.7562 96.7652 55.7139 96.7745 55.6548L96.992 54.2886C97.0386 53.9948 97.1723 53.7549 97.393 53.5689C97.6152 53.3732 97.8816 53.2496 98.1913 53.1984L97.1043 52.3481L97.2235 51.5992C97.4089 51.2571 97.7186 50.9544 98.1527 50.6918C98.5886 50.4198 99.0977 50.2241 99.6799 50.1056C100.272 49.9884 100.877 49.9791 101.495 50.0772C102.663 50.2622 103.53 50.6606 104.097 51.2729C104.665 51.8749 104.877 52.6266 104.734 53.528L104.208 56.8333C104.199 56.8923 104.201 56.9379 104.216 56.9705C104.231 57.003 104.271 57.0341 104.337 57.0648L104.816 57.2763L104.585 58.7309L100.463 58.0773L100.695 56.6232L101.216 56.5702C101.288 56.5613 101.336 56.5442 101.361 56.5177C101.385 56.4912 101.402 56.4489 101.411 56.3903L101.937 53.0845C101.984 52.7907 101.927 52.5504 101.765 52.3644C101.613 52.1794 101.371 52.0609 101.037 52.0079C100.439 51.913 100.042 52.066 99.8471 52.4667L100.637 53.1947L100.534 53.8409C100.127 53.8669 99.8867 54.1152 99.8121 54.5852L99.5713 56.0983C99.5616 56.1574 99.5644 56.2029 99.5797 56.2355C99.5946 56.2675 99.6347 56.2992 99.7004 56.3298L100.18 56.5414L99.9481 57.996L95.8267 57.3424L96.0582 55.8877ZM108.053 57.7896L108.616 57.6678C108.668 57.6562 108.705 57.6417 108.728 57.6255C108.752 57.599 108.769 57.5567 108.778 57.4981L109.295 54.2509C109.362 53.8297 109.214 53.5903 108.851 53.5327C108.665 53.5034 108.515 53.5299 108.401 53.6122C108.299 53.6861 108.212 53.8181 108.142 54.0078L105.963 53.6624L106.114 51.9544C106.485 51.7117 106.956 51.5304 107.529 51.4105C108.111 51.2919 108.697 51.2789 109.285 51.3724C110.355 51.542 111.125 51.92 111.595 52.5067C112.065 53.0934 112.23 53.8228 112.092 54.6944L111.575 57.9411C111.566 58.0002 111.569 58.0457 111.583 58.0783C111.6 58.101 111.631 58.1261 111.677 58.1531L112.174 58.4432L111.943 59.8973L107.822 59.2442L108.053 57.7896ZM116.06 60.6709C115.363 60.5602 114.734 60.4054 114.173 60.206C113.612 59.9963 113.164 59.7797 112.827 59.5556L113.291 57.6859L115.425 58.0243C115.418 58.194 115.491 58.3409 115.641 58.4655C115.803 58.5915 116.006 58.6738 116.251 58.7128C116.555 58.7612 116.773 58.7505 116.905 58.6807C117.048 58.6031 117.13 58.5008 117.15 58.3734C117.18 58.187 117.081 58.0211 116.852 57.8742C116.635 57.7194 116.209 57.526 115.571 57.2945C114.887 57.0453 114.364 56.6915 114.005 56.2327C113.645 55.7743 113.519 55.2067 113.627 54.5312C113.748 53.767 114.162 53.2203 114.869 52.8902C115.575 52.5606 116.458 52.4797 117.518 52.6475C118.097 52.7396 118.649 52.8772 119.173 53.0603C119.697 53.244 120.117 53.4462 120.434 53.6675C120.338 54.2746 120.203 54.9357 120.028 55.6516L118.085 55.3434C118.045 55.156 117.935 54.9933 117.756 54.8543C117.586 54.7172 117.399 54.6321 117.192 54.5991C116.672 54.5168 116.39 54.6177 116.345 54.9017C116.316 55.0779 116.412 55.2337 116.632 55.3689C116.864 55.4963 117.298 55.6753 117.935 55.9068C118.685 56.1867 119.226 56.5483 119.558 56.9928C119.89 57.4372 120.01 57.9481 119.918 58.5259C119.835 59.0452 119.624 59.4887 119.284 59.8564C118.955 60.2158 118.511 60.4719 117.954 60.6244C117.398 60.7676 116.767 60.7829 116.06 60.6709Z" fill="black"/>
<path d="M143.713 32.6906L53.0967 18.324L44.3291 73.4188L134.945 87.7854L143.713 32.6906Z" stroke="black"/>
<path d="M141.384 30.3667L50.7676 16L42 71.0948L132.616 85.4615L141.384 30.3667Z" fill="white"/>
<path d="M141.384 30.3667L50.7676 16L42 71.0948L132.616 85.4615L141.384 30.3667Z" stroke="black"/>
<rect x="75.4839" y="54.7605" width="34.8358" height="8.70895" transform="rotate(-30 75.4839 54.7605)" fill="black"/>
<rect x="87.8062" y="32.561" width="34.8358" height="8.70895" transform="rotate(60 87.8062 32.561)" fill="black"/>
<rect x="16" y="87.8525" width="20.9399" height="5.23497" fill="black"/>
<rect x="29.0869" y="80" width="20.9399" height="5.23497" transform="rotate(90 29.0869 80)" fill="black"/>
<rect x="150" y="10.8525" width="20.9399" height="5.23497" fill="black"/>
<rect x="163.087" y="3" width="20.9399" height="5.23497" transform="rotate(90 163.087 3)" fill="black"/>
<rect x="176" y="84.8525" width="20.9399" height="5.23497" fill="black"/>
<rect x="189.087" y="77" width="20.9399" height="5.23497" transform="rotate(90 189.087 77)" fill="black"/>
<rect x="181" y="44.5198" width="20.9399" height="5.23497" transform="rotate(-30.1577 181 44.5198)" fill="black"/>
<rect x="9.95898" y="43" width="20.9399" height="5.23497" transform="rotate(21.9739 9.95898 43)" fill="black"/>
<rect x="16" y="16.1323" width="20.9399" height="5.23497" transform="rotate(-11.3813 16 16.1323)" fill="black"/>
</svg>
