<svg width="100" height="100" viewBox="0 0 100 100" fill="none" xmlns="http://www.w3.org/2000/svg">
<g clip-path="url(#clip0_69_50214)">
<path d="M50 0L58.7791 5.86466L69.1342 3.80602L75.0007 12.5839L85.3553 14.6447L87.4161 24.9993L96.194 30.8658L94.1353 41.2209L100 50L94.1353 58.7791L96.194 69.1342L87.4161 75.0007L85.3553 85.3553L75.0007 87.4161L69.1342 96.194L58.7791 94.1353L50 100L41.2209 94.1353L30.8658 96.194L24.9993 87.4161L14.6447 85.3553L12.5839 75.0007L3.80602 69.1342L5.86466 58.7791L0 50L5.86466 41.2209L3.80602 30.8658L12.5839 24.9993L14.6447 14.6447L24.9993 12.5839L30.8658 3.80602L41.2209 5.86466L50 0Z" fill="#676DFF"/>
<path fill-rule="evenodd" clip-rule="evenodd" d="M54.4316 36.6947C53.3874 36.6947 52.5391 35.8759 52.5391 34.8643C52.5391 33.8527 53.3874 33.0308 54.4316 33.0308C55.4757 33.0308 56.3208 33.8527 56.3208 34.8643C56.3208 35.8759 55.4757 36.6947 54.4316 36.6947ZM44.3723 36.6947C43.3281 36.6947 42.4798 35.8759 42.4798 34.8643C42.4798 33.8527 43.3281 33.0308 44.3723 33.0308C45.4164 33.0308 46.2648 33.8527 46.2648 34.8643C46.2648 35.8759 45.4164 36.6947 44.3723 36.6947ZM68.4526 35.3196H65.6497C64.4946 26.6735 57.6588 20 49.4004 20C41.1452 20 34.3093 26.6735 33.1543 35.3196H30.3481V40.4662H33.1543C34.3093 49.1154 41.1452 55.7889 49.4004 55.7889C57.6588 55.7889 64.4946 49.1154 65.6497 40.4662H68.4526V35.3196Z" fill="black"/>
<path fill-rule="evenodd" clip-rule="evenodd" d="M18.6564 73.9998H16.7021V63.8319L38.3896 58.1022L39.5309 53.8569C39.9218 54.1635 40.3309 54.4519 40.7608 54.7244C41.8787 55.4296 43.1268 55.9866 44.4505 56.4113L47.937 61.0572L44.1508 66.1018L46.3245 73.9998H43.9098L39.4579 59.4084L18.6564 64.9057V73.9998ZM80.7717 73.9998V64.9057L59.9702 59.4084L55.5183 73.9998H53.1053L55.2799 66.1018L51.4912 61.0572L54.9776 56.4133C56.3013 55.9866 57.5495 55.4296 58.6673 54.7244C59.0973 54.4519 59.509 54.1635 59.8998 53.8569L61.0385 58.1022L82.726 63.8319V73.9998H80.7717Z" fill="black"/>
</g>
<defs>
<clipPath id="clip0_69_50214">
<rect width="100" height="100" fill="white"/>
</clipPath>
</defs>
</svg>
