<svg width="319" height="24" viewBox="0 0 319 24" fill="none" xmlns="http://www.w3.org/2000/svg">
<path d="M5 11.5L2.52368e-07 9.11324L-2.52368e-07 14.8867L5 12.5L5 11.5ZM118 11.5L4.49999 11.5L4.49999 12.5L118 12.5L118 11.5Z" fill="white"/>
<path d="M129.995 17.192C129.334 17.192 128.742 17.112 128.219 16.952C127.707 16.7813 127.275 16.552 126.923 16.264C126.571 15.976 126.299 15.6347 126.107 15.24C125.926 14.8453 125.835 14.4133 125.835 13.944C125.835 13.2293 126.033 12.648 126.427 12.2C126.822 11.7413 127.355 11.4213 128.027 11.24V11.112C127.483 10.9093 127.035 10.6 126.683 10.184C126.342 9.768 126.171 9.23467 126.171 8.584C126.171 8.15733 126.251 7.76267 126.411 7.4C126.582 7.03733 126.827 6.728 127.147 6.472C127.478 6.20533 127.878 6.00267 128.347 5.864C128.827 5.71467 129.377 5.64 129.995 5.64C130.614 5.64 131.158 5.71467 131.627 5.864C132.107 6.00267 132.507 6.20533 132.827 6.472C133.158 6.728 133.403 7.03733 133.563 7.4C133.734 7.76267 133.819 8.15733 133.819 8.584C133.819 9.23467 133.643 9.768 133.291 10.184C132.95 10.6 132.507 10.9093 131.963 11.112V11.24C132.635 11.4213 133.169 11.7413 133.563 12.2C133.958 12.648 134.155 13.2293 134.155 13.944C134.155 14.4133 134.059 14.8453 133.867 15.24C133.686 15.6347 133.419 15.976 133.067 16.264C132.715 16.552 132.278 16.7813 131.755 16.952C131.243 17.112 130.657 17.192 129.995 17.192ZM129.995 15.352C130.529 15.352 130.934 15.2293 131.211 14.984C131.499 14.728 131.643 14.376 131.643 13.928V13.608C131.643 13.16 131.499 12.8133 131.211 12.568C130.934 12.312 130.529 12.184 129.995 12.184C129.462 12.184 129.051 12.312 128.763 12.568C128.486 12.8133 128.347 13.16 128.347 13.608V13.928C128.347 14.376 128.486 14.728 128.763 14.984C129.051 15.2293 129.462 15.352 129.995 15.352ZM129.995 10.424C130.507 10.424 130.897 10.3067 131.163 10.072C131.43 9.82667 131.563 9.496 131.563 9.08V8.824C131.563 8.408 131.43 8.08267 131.163 7.848C130.897 7.60267 130.507 7.48 129.995 7.48C129.483 7.48 129.094 7.60267 128.827 7.848C128.561 8.08267 128.427 8.408 128.427 8.824V9.08C128.427 9.496 128.561 9.82667 128.827 10.072C129.094 10.3067 129.483 10.424 129.995 10.424ZM143.546 17.192C142.928 17.192 142.373 17.1067 141.882 16.936C141.392 16.7653 140.976 16.5253 140.634 16.216C140.293 15.9067 140.032 15.528 139.85 15.08C139.669 14.632 139.578 14.136 139.578 13.592V8.136H141.946V13.48C141.946 14.0667 142.085 14.52 142.362 14.84C142.65 15.16 143.045 15.32 143.546 15.32C144.048 15.32 144.437 15.16 144.714 14.84C144.992 14.52 145.13 14.0667 145.13 13.48V5.048H147.498V13.592C147.498 14.136 147.408 14.632 147.226 15.08C147.045 15.528 146.784 15.9067 146.442 16.216C146.101 16.5253 145.685 16.7653 145.194 16.936C144.704 17.1067 144.154 17.192 143.546 17.192ZM138.317 5.048H141.949V3.64H144.093V6.776H138.317V5.048ZM156.481 10.248C157.078 10.248 157.51 10.136 157.777 9.912C158.054 9.67733 158.193 9.38933 158.193 9.048V8.936C158.193 8.53067 158.06 8.20533 157.793 7.96C157.537 7.71467 157.169 7.592 156.689 7.592C156.241 7.592 155.82 7.70933 155.425 7.944C155.03 8.168 154.694 8.49333 154.417 8.92L152.913 7.512C153.126 7.23467 153.356 6.984 153.601 6.76C153.846 6.52533 154.124 6.328 154.433 6.168C154.742 5.99733 155.089 5.86933 155.473 5.784C155.857 5.688 156.289 5.64 156.769 5.64C157.366 5.64 157.905 5.70933 158.385 5.848C158.876 5.98667 159.292 6.18933 159.633 6.456C159.985 6.712 160.252 7.02133 160.433 7.384C160.625 7.74667 160.721 8.152 160.721 8.6C160.721 8.952 160.662 9.272 160.545 9.56C160.438 9.848 160.284 10.0987 160.081 10.312C159.889 10.5253 159.665 10.7013 159.409 10.84C159.153 10.968 158.881 11.0587 158.593 11.112V11.208C158.924 11.272 159.228 11.3787 159.505 11.528C159.793 11.6667 160.038 11.848 160.241 12.072C160.454 12.296 160.62 12.5627 160.737 12.872C160.854 13.1707 160.913 13.512 160.913 13.896C160.913 14.3973 160.812 14.8507 160.609 15.256C160.406 15.6613 160.118 16.008 159.745 16.296C159.372 16.584 158.924 16.808 158.401 16.968C157.878 17.1173 157.302 17.192 156.673 17.192C156.108 17.192 155.606 17.1333 155.169 17.016C154.732 16.8987 154.348 16.744 154.017 16.552C153.697 16.3493 153.414 16.12 153.169 15.864C152.934 15.608 152.726 15.336 152.545 15.048L154.321 13.672C154.566 14.1307 154.865 14.5093 155.217 14.808C155.58 15.096 156.065 15.24 156.673 15.24C157.217 15.24 157.638 15.1067 157.937 14.84C158.246 14.5627 158.401 14.1893 158.401 13.72V13.624C158.401 13.1653 158.225 12.824 157.873 12.6C157.532 12.3653 157.057 12.248 156.449 12.248H155.441V10.248H156.481ZM166.683 17.192C166.021 17.192 165.429 17.112 164.907 16.952C164.395 16.7813 163.963 16.552 163.611 16.264C163.259 15.976 162.987 15.6347 162.795 15.24C162.613 14.8453 162.523 14.4133 162.523 13.944C162.523 13.2293 162.72 12.648 163.115 12.2C163.509 11.7413 164.043 11.4213 164.715 11.24V11.112C164.171 10.9093 163.723 10.6 163.371 10.184C163.029 9.768 162.859 9.23467 162.859 8.584C162.859 8.15733 162.939 7.76267 163.099 7.4C163.269 7.03733 163.515 6.728 163.835 6.472C164.165 6.20533 164.565 6.00267 165.035 5.864C165.515 5.71467 166.064 5.64 166.683 5.64C167.301 5.64 167.845 5.71467 168.315 5.864C168.795 6.00267 169.195 6.20533 169.515 6.472C169.845 6.728 170.091 7.03733 170.251 7.4C170.421 7.76267 170.507 8.15733 170.507 8.584C170.507 9.23467 170.331 9.768 169.979 10.184C169.637 10.6 169.195 10.9093 168.651 11.112V11.24C169.323 11.4213 169.856 11.7413 170.251 12.2C170.645 12.648 170.843 13.2293 170.843 13.944C170.843 14.4133 170.747 14.8453 170.555 15.24C170.373 15.6347 170.107 15.976 169.755 16.264C169.403 16.552 168.965 16.7813 168.443 16.952C167.931 17.112 167.344 17.192 166.683 17.192ZM166.683 15.352C167.216 15.352 167.621 15.2293 167.899 14.984C168.187 14.728 168.331 14.376 168.331 13.928V13.608C168.331 13.16 168.187 12.8133 167.899 12.568C167.621 12.312 167.216 12.184 166.683 12.184C166.149 12.184 165.739 12.312 165.451 12.568C165.173 12.8133 165.035 13.16 165.035 13.608V13.928C165.035 14.376 165.173 14.728 165.451 14.984C165.739 15.2293 166.149 15.352 166.683 15.352ZM166.683 10.424C167.195 10.424 167.584 10.3067 167.851 10.072C168.117 9.82667 168.251 9.496 168.251 9.08V8.824C168.251 8.408 168.117 8.08267 167.851 7.848C167.584 7.60267 167.195 7.48 166.683 7.48C166.171 7.48 165.781 7.60267 165.515 7.848C165.248 8.08267 165.115 8.408 165.115 8.824V9.08C165.115 9.496 165.248 9.82667 165.515 10.072C165.781 10.3067 166.171 10.424 166.683 10.424ZM179.162 17.192C178.671 17.192 178.207 17.1333 177.77 17.016C177.332 16.8987 176.943 16.7173 176.602 16.472L177.482 14.808C177.663 14.9253 177.876 15.0427 178.122 15.16C178.367 15.2667 178.671 15.32 179.034 15.32C179.546 15.32 179.93 15.1493 180.186 14.808C180.452 14.456 180.586 13.9867 180.586 13.4V11.752C180.586 11.1653 180.458 10.696 180.202 10.344C179.946 9.992 179.562 9.816 179.05 9.816C178.591 9.816 178.228 9.93867 177.962 10.184C177.695 10.4293 177.519 10.728 177.434 11.08L175.514 10.248C175.78 9.52267 176.223 8.95733 176.842 8.552C177.471 8.14667 178.244 7.944 179.162 7.944C179.791 7.944 180.346 8.056 180.826 8.28C181.316 8.49333 181.727 8.80267 182.058 9.208C182.388 9.60267 182.639 10.0827 182.81 10.648C182.98 11.2133 183.066 11.848 183.066 12.552C183.066 13.256 182.98 13.896 182.81 14.472C182.639 15.048 182.388 15.5387 182.058 15.944C181.727 16.3387 181.316 16.648 180.826 16.872C180.346 17.0853 179.791 17.192 179.162 17.192ZM180.534 6.776C179.873 6.776 179.372 6.62133 179.03 6.312C178.678 6.00267 178.502 5.54933 178.502 4.952V3.64H180.374V5.048H184.662V6.776H180.534ZM187.519 17.192C186.602 17.192 185.903 16.8933 185.423 16.296C184.954 15.688 184.719 14.824 184.719 13.704V8.136H187.087V13.496C187.087 13.752 187.108 13.992 187.151 14.216C187.194 14.4293 187.268 14.616 187.375 14.776C187.482 14.9253 187.626 15.048 187.807 15.144C187.999 15.2293 188.234 15.272 188.511 15.272C188.703 15.272 188.895 15.2453 189.087 15.192C189.29 15.128 189.466 15.0373 189.615 14.92C189.764 14.8027 189.887 14.6587 189.983 14.488C190.079 14.3173 190.127 14.12 190.127 13.896V8.136H192.495V15.16H193.279V17H191.855C190.895 17 190.399 16.4507 190.367 15.352H190.255C190.17 15.5973 190.052 15.832 189.903 16.056C189.764 16.2693 189.583 16.4613 189.359 16.632C189.146 16.8027 188.884 16.936 188.575 17.032C188.276 17.1387 187.924 17.192 187.519 17.192Z" fill="white"/>
<path d="M314 12.5L319 14.8868L319 9.11325L314 11.5L314 12.5ZM314.5 11.5L201 11.5L201 12.5L314.5 12.5L314.5 11.5Z" fill="white"/>
</svg>
