<svg width="73" height="48" viewBox="0 0 73 48" fill="none" xmlns="http://www.w3.org/2000/svg">
<path d="M5 23.5L2.52368e-07 21.1132L-2.52368e-07 26.8868L5 24.5L5 23.5ZM5 23.5L4.5 23.5L4.5 24.5L5 24.5L5 23.5Z" fill="white"/>
<path d="M31.7691 17H23.8651V14.808L27.3051 11.864C27.6145 11.5973 27.8758 11.3573 28.0891 11.144C28.3025 10.92 28.4731 10.7067 28.6011 10.504C28.7398 10.2907 28.8358 10.0827 28.8891 9.88C28.9531 9.67733 28.9851 9.45867 28.9851 9.224V9C28.9851 8.78667 28.9425 8.6 28.8571 8.44C28.7718 8.28 28.6598 8.14667 28.5211 8.04C28.3825 7.93333 28.2225 7.85333 28.0411 7.8C27.8705 7.74667 27.6945 7.72 27.5131 7.72C27.2465 7.72 27.0118 7.76267 26.8091 7.848C26.6171 7.93333 26.4465 8.05067 26.2971 8.2C26.1585 8.33867 26.0411 8.504 25.9451 8.696C25.8491 8.87733 25.7745 9.07467 25.7211 9.288L23.6251 8.488C23.7531 8.104 23.9291 7.74133 24.1531 7.4C24.3771 7.048 24.6545 6.744 24.9851 6.488C25.3265 6.22133 25.7265 6.01333 26.1851 5.864C26.6438 5.71467 27.1611 5.64 27.7371 5.64C28.3451 5.64 28.8838 5.72533 29.3531 5.896C29.8225 6.06667 30.2171 6.30133 30.5371 6.6C30.8678 6.89867 31.1185 7.256 31.2891 7.672C31.4598 8.07733 31.5451 8.52 31.5451 9C31.5451 9.48 31.4651 9.91733 31.3051 10.312C31.1451 10.7067 30.9265 11.08 30.6491 11.432C30.3825 11.7733 30.0678 12.0987 29.7051 12.408C29.3425 12.7173 28.9638 13.032 28.5691 13.352L26.4891 14.984H31.7691V17ZM41.3041 17.192C40.6855 17.192 40.1308 17.1067 39.6401 16.936C39.1495 16.7653 38.7335 16.5253 38.3921 16.216C38.0508 15.9067 37.7895 15.528 37.6081 15.08C37.4268 14.632 37.3361 14.136 37.3361 13.592V8.136H39.7041V13.48C39.7041 14.0667 39.8428 14.52 40.1201 14.84C40.4081 15.16 40.8028 15.32 41.3041 15.32C41.8055 15.32 42.1948 15.16 42.4721 14.84C42.7495 14.52 42.8881 14.0667 42.8881 13.48V5.048H45.2561V13.592C45.2561 14.136 45.1655 14.632 44.9841 15.08C44.8028 15.528 44.5415 15.9067 44.2001 16.216C43.8588 16.5253 43.4428 16.7653 42.9521 16.936C42.4615 17.1067 41.9121 17.192 41.3041 17.192ZM36.0746 5.048H39.7066V3.64H41.8506V6.776H36.0746V5.048ZM17.1843 41.192C16.523 41.192 15.931 41.0907 15.4083 40.888C14.8856 40.6747 14.443 40.376 14.0803 39.992C13.7283 39.5973 13.4563 39.128 13.2643 38.584C13.083 38.04 12.9923 37.432 12.9923 36.76C12.9923 35.9813 13.1096 35.2453 13.3443 34.552C13.5896 33.848 13.899 33.2027 14.2723 32.616C14.6563 32.0187 15.083 31.4853 15.5523 31.016C16.0323 30.5467 16.5123 30.152 16.9923 29.832H20.3043C19.6216 30.3227 19.0083 30.792 18.4643 31.24C17.9203 31.6773 17.4456 32.12 17.0403 32.568C16.6456 33.016 16.315 33.4747 16.0483 33.944C15.7923 34.4027 15.611 34.8987 15.5043 35.432L15.6483 35.48C15.7443 35.2667 15.8563 35.0587 15.9843 34.856C16.123 34.6533 16.2883 34.4773 16.4803 34.328C16.683 34.168 16.9176 34.04 17.1843 33.944C17.451 33.848 17.7603 33.8 18.1123 33.8C18.571 33.8 18.9976 33.8853 19.3923 34.056C19.7976 34.216 20.1443 34.4453 20.4323 34.744C20.731 35.0427 20.9603 35.4107 21.1203 35.848C21.291 36.2747 21.3763 36.7493 21.3763 37.272C21.3763 37.848 21.275 38.376 21.0723 38.856C20.8803 39.336 20.5976 39.752 20.2243 40.104C19.8616 40.4453 19.4243 40.712 18.9123 40.904C18.4003 41.096 17.8243 41.192 17.1843 41.192ZM17.1843 39.32C17.7176 39.32 18.1336 39.176 18.4323 38.888C18.731 38.5893 18.8803 38.168 18.8803 37.624V37.336C18.8803 36.792 18.731 36.376 18.4323 36.088C18.1336 35.7893 17.7176 35.64 17.1843 35.64C16.651 35.64 16.235 35.7893 15.9363 36.088C15.6376 36.376 15.4883 36.792 15.4883 37.336V37.624C15.4883 38.168 15.6376 38.5893 15.9363 38.888C16.235 39.176 16.651 39.32 17.1843 39.32ZM29.3753 41C28.5646 41 27.9673 40.8027 27.5833 40.408C27.21 40.0133 27.0233 39.4427 27.0233 38.696V32.136H29.3913V39.16H30.4953V41H29.3753ZM35.5221 41.192C34.9034 41.192 34.3487 41.0853 33.8581 40.872C33.3674 40.6587 32.9514 40.3547 32.6101 39.96C32.2687 39.5653 32.0074 39.0853 31.8261 38.52C31.6447 37.944 31.5541 37.2933 31.5541 36.568C31.5541 35.864 31.6554 35.2293 31.8581 34.664C32.0607 34.088 32.3487 33.6027 32.7221 33.208C33.1061 32.8027 33.5647 32.4933 34.0981 32.28C34.6314 32.056 35.2287 31.944 35.8901 31.944C36.5194 31.944 37.0901 32.0347 37.6021 32.216C38.1141 32.3867 38.5461 32.6373 38.8981 32.968C39.2607 33.2987 39.5381 33.6987 39.7301 34.168C39.9327 34.6373 40.0341 35.1653 40.0341 35.752V41H37.6661V35.864C37.6661 35.2133 37.5061 34.712 37.1861 34.36C36.8767 33.9973 36.4394 33.816 35.8741 33.816C35.2981 33.816 34.8447 34.008 34.5141 34.392C34.1941 34.7653 34.0341 35.288 34.0341 35.96V37.144C34.0341 38.5947 34.6207 39.32 35.7941 39.32C35.9007 39.32 35.9914 39.32 36.0661 39.32C36.1514 39.3093 36.2367 39.2933 36.3221 39.272L36.5941 41.096C36.4341 41.1387 36.2474 41.1653 36.0341 41.176C35.8207 41.1867 35.6501 41.192 35.5221 41.192ZM32.6471 29.048H35.2071V27.64H36.9831V29.256H38.2151V27.64H40.0391V30.776H32.6471V29.048ZM45.6951 41.192C45.1297 41.192 44.6071 41.1173 44.1271 40.968C43.6471 40.808 43.2311 40.5947 42.8791 40.328C42.5377 40.0507 42.2657 39.7253 42.0631 39.352C41.8711 38.9787 41.7751 38.568 41.7751 38.12V37.336C41.7751 36.8987 41.8924 36.552 42.1271 36.296C42.3724 36.04 42.7351 35.912 43.2151 35.912H45.1351V37.656H43.9031V37.912C43.9031 38.392 44.0631 38.76 44.3831 39.016C44.7031 39.2613 45.1671 39.384 45.7751 39.384C46.3191 39.384 46.7351 39.2027 47.0231 38.84C47.3217 38.4667 47.4711 37.96 47.4711 37.32V35.848C47.4711 35.208 47.3004 34.712 46.9591 34.36C46.6177 33.9973 46.1377 33.816 45.5191 33.816C45.2204 33.816 44.9377 33.8533 44.6711 33.928C44.4151 34.0027 44.1804 34.0987 43.9671 34.216C43.7644 34.3333 43.5831 34.4667 43.4231 34.616C43.2737 34.7547 43.1564 34.888 43.0711 35.016L41.6311 33.736C41.9617 33.2347 42.4577 32.8133 43.1191 32.472C43.7911 32.12 44.6231 31.944 45.6151 31.944C46.2871 31.944 46.8897 32.0507 47.4231 32.264C47.9671 32.4667 48.4257 32.7707 48.7991 33.176C49.1724 33.5707 49.4551 34.056 49.6471 34.632C49.8497 35.1973 49.9511 35.8427 49.9511 36.568C49.9511 37.2933 49.8551 37.944 49.6631 38.52C49.4711 39.0853 49.1884 39.5707 48.8151 39.976C48.4524 40.3707 48.0044 40.6747 47.4711 40.888C46.9484 41.0907 46.3564 41.192 45.6951 41.192ZM54.3939 41.192C53.4766 41.192 52.7779 40.8933 52.2979 40.296C51.8286 39.688 51.5939 38.824 51.5939 37.704V32.136H53.9619V37.496C53.9619 37.752 53.9833 37.992 54.0259 38.216C54.0686 38.4293 54.1433 38.616 54.2499 38.776C54.3566 38.9253 54.5006 39.048 54.6819 39.144C54.8739 39.2293 55.1086 39.272 55.3859 39.272C55.5779 39.272 55.7699 39.2453 55.9619 39.192C56.1646 39.128 56.3406 39.0373 56.4899 38.92C56.6393 38.8027 56.7619 38.6587 56.8579 38.488C56.9539 38.3173 57.0019 38.12 57.0019 37.896V32.136H59.3699V39.16H60.1539V41H58.7299C57.7699 41 57.2739 40.4507 57.2419 39.352H57.1299C57.0446 39.5973 56.9273 39.832 56.7779 40.056C56.6393 40.2693 56.4579 40.4613 56.2339 40.632C56.0206 40.8027 55.7593 40.936 55.4499 41.032C55.1513 41.1387 54.7993 41.192 54.3939 41.192Z" fill="white"/>
<path d="M68 24.5L73 26.8868L73 21.1132L68 23.5L68 24.5ZM68.5 23.5L68 23.5L68 24.5L68.5 24.5L68.5 23.5Z" fill="white"/>
</svg>
