<svg width="49" height="94" viewBox="0 0 49 94" fill="none" xmlns="http://www.w3.org/2000/svg">
<path d="M10.2333 12.144C9.59331 12.144 9.04931 12.04 8.60131 11.832C8.16131 11.624 7.77331 11.332 7.43731 10.956L8.50531 9.924C8.73731 10.18 9.00131 10.388 9.29731 10.548C9.60131 10.7 9.94131 10.776 10.3173 10.776C10.6853 10.776 10.9533 10.716 11.1213 10.596C11.2893 10.476 11.3733 10.32 11.3733 10.128C11.3733 9.92 11.3053 9.772 11.1693 9.684C11.0333 9.588 10.8493 9.524 10.6173 9.492L9.93331 9.408C9.20531 9.32 8.64531 9.108 8.25331 8.772C7.86931 8.436 7.67731 7.968 7.67731 7.368C7.67731 7.032 7.73731 6.732 7.85731 6.468C7.98531 6.204 8.16131 5.98 8.38531 5.796C8.61731 5.604 8.88931 5.46 9.20131 5.364C9.52131 5.26 9.87331 5.208 10.2573 5.208C10.5773 5.208 10.8653 5.232 11.1213 5.28C11.3773 5.32 11.6093 5.384 11.8173 5.472C12.0333 5.56 12.2293 5.668 12.4053 5.796C12.5813 5.924 12.7533 6.072 12.9213 6.24L11.8773 7.272C11.6853 7.064 11.4493 6.896 11.1693 6.768C10.8893 6.64 10.5973 6.576 10.2933 6.576C9.96531 6.576 9.72531 6.636 9.57331 6.756C9.42131 6.876 9.34531 7.032 9.34531 7.224C9.34531 7.416 9.40531 7.572 9.52531 7.692C9.65331 7.804 9.86931 7.88 10.1733 7.92L10.8573 8.016C11.2013 8.064 11.5053 8.136 11.7693 8.232C12.0413 8.328 12.2693 8.456 12.4533 8.616C12.6453 8.768 12.7893 8.956 12.8853 9.18C12.9893 9.404 13.0413 9.672 13.0413 9.984C13.0413 10.296 12.9733 10.584 12.8373 10.848C12.7013 11.112 12.5093 11.34 12.2613 11.532C12.0213 11.724 11.7253 11.876 11.3733 11.988C11.0293 12.092 10.6493 12.144 10.2333 12.144ZM11.3245 4.332C10.8285 4.332 10.4525 4.216 10.1965 3.984C9.93247 3.752 9.80047 3.412 9.80047 2.964V1.98H11.2045V3.036H14.4205V4.332H11.3245ZM14.8984 9.552H14.2624V8.172H15.1744C15.4784 8.172 15.7144 8.232 15.8824 8.352C16.0504 8.472 16.1824 8.668 16.2784 8.94L16.8904 10.68H17.2144C17.4624 10.68 17.6624 10.552 17.8144 10.296C17.9664 10.032 18.0424 9.664 18.0424 9.192V8.088C18.0424 7.624 17.9104 7.264 17.6464 7.008C17.3904 6.744 17.0264 6.612 16.5544 6.612C16.2984 6.612 16.0704 6.648 15.8704 6.72C15.6784 6.792 15.5064 6.88 15.3544 6.984C15.2024 7.08 15.0744 7.188 14.9704 7.308C14.8664 7.428 14.7824 7.536 14.7184 7.632L13.6384 6.672C13.7664 6.48 13.9184 6.296 14.0944 6.12C14.2784 5.944 14.4904 5.788 14.7304 5.652C14.9784 5.516 15.2584 5.408 15.5704 5.328C15.8824 5.248 16.2384 5.208 16.6384 5.208C17.0304 5.208 17.3904 5.256 17.7184 5.352C18.0464 5.44 18.3384 5.572 18.5944 5.748C18.6424 5.492 18.7544 5.304 18.9304 5.184C19.1064 5.064 19.3344 5.004 19.6144 5.004H21.0784V6.468H19.3504V6.54C19.7104 7.108 19.8904 7.808 19.8904 8.64C19.8904 9.168 19.8264 9.64 19.6984 10.056C19.5704 10.472 19.3864 10.824 19.1464 11.112C18.9144 11.4 18.6304 11.62 18.2944 11.772C17.9664 11.924 17.5944 12 17.1784 12H15.7984L14.8984 9.552ZM14.0824 13.62H14.6344C14.9144 13.62 15.1024 13.548 15.1984 13.404C15.3024 13.268 15.3624 13.08 15.3784 12.84H16.5904C16.6064 13.048 16.6584 13.228 16.7464 13.38C16.8344 13.54 16.9944 13.62 17.2264 13.62C17.3864 13.62 17.5144 13.568 17.6104 13.464C17.7144 13.36 17.7664 13.2 17.7664 12.984V12.504H19.5424V12.948C19.5424 13.612 19.3824 14.12 19.0624 14.472C18.7424 14.824 18.2824 15 17.6824 15C17.2264 15 16.8544 14.9 16.5664 14.7C16.2784 14.5 16.0984 14.26 16.0264 13.98H15.9544C15.9144 14.116 15.8624 14.244 15.7984 14.364C15.7424 14.492 15.6624 14.6 15.5584 14.688C15.4544 14.784 15.3264 14.86 15.1744 14.916C15.0304 14.972 14.8504 15 14.6344 15H14.0824V13.62ZM24.9156 12.144C24.4516 12.144 24.0356 12.08 23.6676 11.952C23.2996 11.824 22.9876 11.644 22.7316 11.412C22.4756 11.18 22.2796 10.896 22.1436 10.56C22.0076 10.224 21.9396 9.852 21.9396 9.444V5.352H23.7156V9.36C23.7156 9.8 23.8196 10.14 24.0276 10.38C24.2436 10.62 24.5396 10.74 24.9156 10.74C25.2916 10.74 25.5836 10.62 25.7916 10.38C25.9996 10.14 26.1036 9.8 26.1036 9.36V5.352H27.8796V9.444C27.8796 9.852 27.8116 10.224 27.6756 10.56C27.5396 10.896 27.3436 11.18 27.0876 11.412C26.8316 11.644 26.5196 11.824 26.1516 11.952C25.7836 12.08 25.3716 12.144 24.9156 12.144ZM32.3327 7.596C32.3327 7.292 32.2527 7.052 32.0927 6.876C31.9407 6.7 31.6847 6.612 31.3247 6.612C30.9807 6.612 30.7087 6.688 30.5087 6.84C30.3087 6.984 30.1407 7.152 30.0047 7.344L28.9487 6.408C29.2047 6.032 29.5207 5.74 29.8967 5.532C30.2807 5.316 30.8007 5.208 31.4567 5.208C32.3287 5.208 32.9887 5.404 33.4367 5.796C33.8847 6.188 34.1087 6.76 34.1087 7.512V12H32.3327V7.596ZM37.5474 12.12C36.9074 12.12 36.3954 11.964 36.0114 11.652C35.6354 11.332 35.4474 10.836 35.4474 10.164C35.4474 9.54 35.6274 9.056 35.9874 8.712C36.3474 8.368 36.8674 8.196 37.5474 8.196H39.5274V7.848C39.5274 7.448 39.4194 7.144 39.2034 6.936C38.9954 6.72 38.6514 6.612 38.1714 6.612C37.9394 6.612 37.7354 6.64 37.5594 6.696C37.3834 6.752 37.2234 6.828 37.0794 6.924C36.9354 7.012 36.8074 7.116 36.6954 7.236C36.5834 7.348 36.4834 7.468 36.3954 7.596L35.2674 6.612C35.5714 6.18 35.9554 5.84 36.4194 5.592C36.8834 5.336 37.5074 5.208 38.2914 5.208C39.2914 5.208 40.0434 5.428 40.5474 5.868C41.0514 6.3 41.3034 6.94 41.3034 7.788V12H39.5274V9.324H38.1834C37.5594 9.324 37.2474 9.58 37.2474 10.092V10.296C37.2474 10.544 37.3114 10.744 37.4394 10.896C37.5674 11.04 37.7554 11.112 38.0034 11.112C38.0514 11.112 38.0994 11.112 38.1474 11.112C38.1954 11.112 38.2434 11.104 38.2914 11.088L38.4114 12.036C38.3714 12.052 38.3154 12.064 38.2434 12.072C38.1794 12.088 38.1034 12.096 38.0154 12.096C37.9354 12.104 37.8514 12.108 37.7634 12.108C37.6834 12.116 37.6114 12.12 37.5474 12.12ZM3.70095 30.144C2.82895 30.144 2.14495 29.976 1.64895 29.64C1.15295 29.296 0.904953 28.812 0.904953 28.188C0.904953 27.804 1.01695 27.476 1.24095 27.204C1.47295 26.932 1.76895 26.74 2.12895 26.628V26.556C1.72895 26.452 1.41695 26.256 1.19295 25.968C0.968953 25.68 0.856953 25.336 0.856953 24.936C0.856953 24.68 0.904953 24.448 1.00095 24.24C1.09695 24.024 1.22895 23.84 1.39695 23.688C1.57295 23.536 1.78095 23.42 2.02095 23.34C2.26895 23.252 2.53695 23.208 2.82495 23.208C3.00895 23.208 3.21695 23.228 3.44895 23.268C3.68895 23.3 3.90095 23.368 4.08495 23.472L3.71295 24.744C3.61695 24.688 3.52095 24.652 3.42495 24.636C3.33695 24.612 3.24095 24.6 3.13695 24.6C2.95295 24.6 2.78895 24.656 2.64495 24.768C2.50895 24.872 2.44095 25.028 2.44095 25.236C2.44095 25.676 2.72095 25.896 3.28095 25.896H3.90495V27.072H3.28095C3.10495 27.072 2.96095 27.132 2.84895 27.252C2.73695 27.364 2.68095 27.516 2.68095 27.708V27.936C2.68095 28.208 2.77295 28.412 2.95695 28.548C3.14095 28.676 3.40895 28.74 3.76095 28.74C4.16095 28.74 4.47695 28.632 4.70895 28.416C4.94095 28.192 5.05695 27.868 5.05695 27.444V23.352H6.83295V27.672C6.83295 28.048 6.75695 28.388 6.60495 28.692C6.46095 28.996 6.25295 29.256 5.98095 29.472C5.70895 29.688 5.38095 29.856 4.99695 29.976C4.61295 30.088 4.18095 30.144 3.70095 30.144ZM1.28998 21.036H6.83398V22.332H1.28998V21.036ZM5.34598 18.544H6.83398V20.464H5.34598V18.544ZM7.72798 25.248H9.45598L10.896 28.596H10.956C11.236 28.596 11.456 28.476 11.616 28.236C11.776 27.996 11.856 27.66 11.856 27.228V26.124C11.856 25.692 11.772 25.356 11.604 25.116C11.436 24.876 11.204 24.756 10.908 24.756H10.464V23.352H10.944C11.376 23.352 11.76 23.428 12.096 23.58C12.44 23.732 12.728 23.952 12.96 24.24C13.2 24.52 13.384 24.868 13.512 25.284C13.64 25.692 13.704 26.156 13.704 26.676C13.704 27.196 13.64 27.664 13.512 28.08C13.392 28.488 13.212 28.836 12.972 29.124C12.74 29.404 12.452 29.62 12.108 29.772C11.772 29.924 11.392 30 10.968 30H9.80398L7.72798 25.248ZM16.8696 30.12C16.2296 30.12 15.7176 29.964 15.3336 29.652C14.9576 29.332 14.7696 28.836 14.7696 28.164C14.7696 27.54 14.9496 27.056 15.3096 26.712C15.6696 26.368 16.1896 26.196 16.8696 26.196H18.8496V25.848C18.8496 25.448 18.7416 25.144 18.5256 24.936C18.3176 24.72 17.9736 24.612 17.4936 24.612C17.2616 24.612 17.0576 24.64 16.8816 24.696C16.7056 24.752 16.5456 24.828 16.4016 24.924C16.2576 25.012 16.1296 25.116 16.0176 25.236C15.9056 25.348 15.8056 25.468 15.7176 25.596L14.5896 24.612C14.8936 24.18 15.2776 23.84 15.7416 23.592C16.2056 23.336 16.8296 23.208 17.6136 23.208C18.6136 23.208 19.3656 23.428 19.8696 23.868C20.3736 24.3 20.6256 24.94 20.6256 25.788V30H18.8496V27.324H17.5056C16.8816 27.324 16.5696 27.58 16.5696 28.092V28.296C16.5696 28.544 16.6336 28.744 16.7616 28.896C16.8896 29.04 17.0776 29.112 17.3256 29.112C17.3736 29.112 17.4216 29.112 17.4696 29.112C17.5176 29.112 17.5656 29.104 17.6136 29.088L17.7336 30.036C17.6936 30.052 17.6376 30.064 17.5656 30.072C17.5016 30.088 17.4256 30.096 17.3376 30.096C17.2576 30.104 17.1736 30.108 17.0856 30.108C17.0056 30.116 16.9336 30.12 16.8696 30.12ZM18.971 22.332C18.475 22.332 18.099 22.216 17.843 21.984C17.579 21.752 17.447 21.412 17.447 20.964V19.98H18.851V21.036H22.067V22.332H18.971ZM22.781 26.508L21.737 26.088C21.769 25.648 21.873 25.252 22.049 24.9C22.233 24.54 22.473 24.236 22.769 23.988C23.065 23.74 23.413 23.548 23.813 23.412C24.221 23.276 24.665 23.208 25.145 23.208C25.633 23.208 26.069 23.276 26.453 23.412C26.845 23.54 27.177 23.728 27.449 23.976C27.721 24.216 27.929 24.512 28.073 24.864C28.225 25.208 28.301 25.592 28.301 26.016V30H26.525V26.244C26.525 25.732 26.393 25.332 26.129 25.044C25.873 24.756 25.493 24.612 24.989 24.612C24.605 24.612 24.273 24.692 23.993 24.852C23.721 25.012 23.521 25.212 23.393 25.452L23.813 25.608C24.101 25.72 24.297 25.848 24.401 25.992C24.505 26.136 24.557 26.352 24.557 26.64V30H22.781V26.508ZM32.8567 30.144C32.3847 30.144 31.9607 30.08 31.5847 29.952C31.2087 29.824 30.8887 29.644 30.6247 29.412C30.3607 29.18 30.1567 28.896 30.0127 28.56C29.8767 28.224 29.8087 27.852 29.8087 27.444V23.352H31.5847V27.36C31.5847 27.8 31.6927 28.14 31.9087 28.38C32.1327 28.62 32.4487 28.74 32.8567 28.74C33.2647 28.74 33.5767 28.62 33.7927 28.38C34.0167 28.14 34.1287 27.8 34.1287 27.36V27.06H33.4327C32.5927 27.06 32.1727 26.7 32.1727 25.98V25.176H33.5407V25.86H34.1287V23.352H35.9047V25.86H36.6727V27.06H35.9047V27.444C35.9047 27.852 35.8327 28.224 35.6887 28.56C35.5527 28.896 35.3527 29.18 35.0887 29.412C34.8247 29.644 34.5047 29.824 34.1287 29.952C33.7527 30.08 33.3287 30.144 32.8567 30.144ZM44.0135 30.144C43.3815 30.144 42.8975 29.924 42.5615 29.484C42.2335 29.044 42.0615 28.416 42.0455 27.6V26.244C42.0455 25.716 41.9375 25.312 41.7215 25.032C41.5055 24.752 41.1455 24.612 40.6415 24.612C40.2815 24.612 39.9775 24.692 39.7295 24.852C39.4815 25.012 39.3015 25.208 39.1895 25.44L39.6215 25.608C39.9095 25.72 40.1055 25.848 40.2095 25.992C40.3135 26.136 40.3655 26.352 40.3655 26.64V28.62H40.9535V30H40.3535C39.7455 30 39.2975 29.852 39.0095 29.556C38.7295 29.26 38.5895 28.832 38.5895 28.272V26.508L37.5455 26.088C37.5775 25.648 37.6775 25.252 37.8455 24.9C38.0135 24.54 38.2335 24.236 38.5055 23.988C38.7775 23.74 39.0975 23.548 39.4655 23.412C39.8335 23.276 40.2375 23.208 40.6775 23.208C41.1895 23.208 41.6415 23.28 42.0335 23.424C42.4255 23.568 42.7535 23.768 43.0175 24.024C43.2815 24.272 43.4815 24.568 43.6175 24.912C43.7535 25.248 43.8215 25.616 43.8215 26.016V27.372C43.8215 27.556 43.8335 27.728 43.8575 27.888C43.8895 28.048 43.9375 28.188 44.0015 28.308C44.0735 28.428 44.1695 28.524 44.2895 28.596C44.4175 28.668 44.5775 28.704 44.7695 28.704C45.0415 28.704 45.2855 28.616 45.5015 28.44C45.7255 28.264 45.8375 28.008 45.8375 27.672V23.352H47.6135V28.62H48.2015V30H47.1335C46.4215 30 46.0535 29.588 46.0295 28.764H45.9455C45.8815 28.948 45.7975 29.124 45.6935 29.292C45.5975 29.452 45.4695 29.596 45.3095 29.724C45.1575 29.852 44.9735 29.952 44.7575 30.024C44.5415 30.104 44.2935 30.144 44.0135 30.144ZM44.4352 21.348C44.4352 20.9 44.5672 20.56 44.8312 20.328C45.0872 20.096 45.4632 19.98 45.9592 19.98H48.4552V21.276H45.8392V22.332H44.4352V21.348Z" fill="white"/>
<path d="M8.16852 48.12C7.50452 48.12 6.97652 47.956 6.58452 47.628C6.19252 47.3 5.99652 46.824 5.99652 46.2C5.99652 45.592 6.18852 45.124 6.57252 44.796C6.96452 44.468 7.49652 44.304 8.16852 44.304H10.2565V43.68C10.2565 42.648 9.69252 42.132 8.56452 42.132C8.08452 42.132 7.68052 42.232 7.35252 42.432C7.03252 42.624 6.77252 42.892 6.57252 43.236L5.96052 42.696C6.16852 42.304 6.48852 41.976 6.92052 41.712C7.35252 41.44 7.91652 41.304 8.61252 41.304C9.30052 41.304 9.85652 41.448 10.2805 41.736C10.3125 41.32 10.5365 41.112 10.9525 41.112H12.5485V42H10.6165C11.0165 42.4 11.2165 42.944 11.2165 43.632V48H10.2565V44.988H8.38452C7.95252 44.988 7.61652 45.08 7.37652 45.264C7.13652 45.448 7.01652 45.708 7.01652 46.044V46.32C7.01652 46.68 7.12452 46.956 7.34052 47.148C7.56452 47.332 7.86452 47.424 8.24052 47.424C8.35252 47.424 8.44452 47.42 8.51652 47.412C8.59652 47.404 8.66052 47.396 8.70852 47.388L8.79252 48.048C8.74452 48.072 8.65252 48.088 8.51652 48.096C8.38852 48.112 8.27252 48.12 8.16852 48.12ZM14.009 48.144C13.753 48.144 13.565 48.08 13.445 47.952C13.333 47.824 13.277 47.656 13.277 47.448V47.292C13.277 47.084 13.333 46.916 13.445 46.788C13.565 46.66 13.753 46.596 14.009 46.596C14.265 46.596 14.449 46.66 14.561 46.788C14.681 46.916 14.741 47.084 14.741 47.292V47.448C14.741 47.656 14.681 47.824 14.561 47.952C14.449 48.08 14.265 48.144 14.009 48.144ZM16.6065 43.896C16.6065 43.504 16.6705 43.148 16.7985 42.828C16.9345 42.508 17.1265 42.236 17.3745 42.012C17.6225 41.78 17.9225 41.604 18.2745 41.484C18.6265 41.364 19.0225 41.304 19.4625 41.304C19.8945 41.304 20.2865 41.364 20.6385 41.484C20.9905 41.604 21.2905 41.78 21.5385 42.012C21.7865 42.236 21.9785 42.508 22.1145 42.828C22.2505 43.148 22.3185 43.504 22.3185 43.896V48H21.3585V43.992C21.3585 43.392 21.1905 42.932 20.8545 42.612C20.5265 42.292 20.0625 42.132 19.4625 42.132C18.8625 42.132 18.3945 42.292 18.0585 42.612C17.7305 42.932 17.5665 43.392 17.5665 43.992V45.552H17.6265C17.6825 45.4 17.7585 45.256 17.8545 45.12C17.9505 44.976 18.0705 44.852 18.2145 44.748C18.3585 44.636 18.5265 44.548 18.7185 44.484C18.9185 44.42 19.1465 44.388 19.4025 44.388H19.7985V45.348H19.2465C18.7345 45.348 18.3265 45.448 18.0225 45.648C17.7185 45.848 17.5665 46.124 17.5665 46.476V48H16.6065V43.896ZM24.9074 48.144C24.6514 48.144 24.4634 48.08 24.3434 47.952C24.2314 47.824 24.1754 47.656 24.1754 47.448V47.292C24.1754 47.084 24.2314 46.916 24.3434 46.788C24.4634 46.66 24.6514 46.596 24.9074 46.596C25.1634 46.596 25.3474 46.66 25.4594 46.788C25.5794 46.916 25.6394 47.084 25.6394 47.292V47.448C25.6394 47.656 25.5794 47.824 25.4594 47.952C25.3474 48.08 25.1634 48.144 24.9074 48.144ZM35.3569 40.512H31.6849L31.4449 43.704H31.5289C31.7289 43.424 31.9529 43.2 32.2009 43.032C32.4569 42.864 32.8049 42.78 33.2449 42.78C33.6049 42.78 33.9369 42.84 34.2409 42.96C34.5449 43.08 34.8089 43.252 35.0329 43.476C35.2569 43.692 35.4289 43.96 35.5489 44.28C35.6769 44.6 35.7409 44.964 35.7409 45.372C35.7409 45.78 35.6769 46.156 35.5489 46.5C35.4209 46.836 35.2329 47.128 34.9849 47.376C34.7449 47.616 34.4489 47.804 34.0969 47.94C33.7529 48.076 33.3609 48.144 32.9209 48.144C32.5689 48.144 32.2569 48.104 31.9849 48.024C31.7209 47.944 31.4849 47.836 31.2769 47.7C31.0689 47.564 30.8849 47.412 30.7249 47.244C30.5729 47.076 30.4329 46.9 30.3049 46.716L31.0609 46.14C31.1649 46.308 31.2729 46.46 31.3849 46.596C31.5049 46.732 31.6329 46.848 31.7689 46.944C31.9129 47.04 32.0769 47.116 32.2609 47.172C32.4449 47.22 32.6649 47.244 32.9209 47.244C33.4969 47.244 33.9329 47.092 34.2289 46.788C34.5249 46.484 34.6729 46.056 34.6729 45.504V45.384C34.6729 44.832 34.5249 44.404 34.2289 44.1C33.9329 43.796 33.4969 43.644 32.9209 43.644C32.5369 43.644 32.2329 43.716 32.0089 43.86C31.7929 43.996 31.5969 44.16 31.4209 44.352L30.5689 44.232L30.8689 39.624H35.3569V40.512ZM41.0762 48V46.356H37.0322V45.468L40.5362 39.624H42.0362V45.516H43.2482V46.356H42.0362V48H41.0762ZM37.9802 45.516H41.0762V40.404H41.0162L37.9802 45.516Z" fill="white"/>
<path d="M35.2301 64.1358L43.7279 66.5864L39.0748 74.1075L38.9209 74.3563L39.0623 74.6123L43.3383 82.354L34.7299 84.382L34.4452 84.449L34.3642 84.7301L31.9136 93.2279L24.3925 88.5748L24.1437 88.4209L23.8877 88.5623L16.146 92.8383L14.1181 84.2299L14.051 83.9452L13.7699 83.8642L5.27214 81.4136L9.9252 73.8925L10.0791 73.6437L9.93768 73.3877L5.66166 65.646L14.2701 63.6181L14.5548 63.551L14.6358 63.2699L17.0864 54.7721L24.6075 59.4252L24.8563 59.5791L25.1123 59.4377L32.854 55.1617L34.882 63.7701L34.949 64.0548L35.2301 64.1358Z" fill="white" stroke="white"/>
<path d="M17.999 76.7017L18.4517 78.0882" stroke="black" stroke-width="0.75" stroke-linecap="round" stroke-linejoin="round"/>
<path d="M24.1991 78.7751C24.2043 78.744 24.1077 78.7018 23.9833 78.6809C23.8589 78.66 23.754 78.6682 23.7487 78.6993C23.7435 78.7304 23.84 78.7726 23.9644 78.7935C24.0887 78.8144 24.1938 78.8062 24.1991 78.7751Z" stroke="black" stroke-width="0.75" stroke-linecap="round" stroke-linejoin="round"/>
<path d="M23.9814 78.7039C24.1325 78.7406 24.2724 78.8133 24.3892 78.9159C24.5441 79.0458 24.7378 79.1204 24.9397 79.128" stroke="black" stroke-width="0.75" stroke-linecap="round" stroke-linejoin="round"/>
<path d="M25.9414 78.8208C26.0658 78.7999 26.1624 78.7577 26.1571 78.7266C26.1519 78.6955 26.0468 78.6873 25.9225 78.7082C25.7981 78.7291 25.7015 78.7713 25.7067 78.8023C25.712 78.8334 25.817 78.8417 25.9414 78.8208Z" stroke="black" stroke-width="0.75" stroke-linecap="round" stroke-linejoin="round"/>
<path d="M25.9428 78.7039C25.7918 78.7406 25.6519 78.8133 25.5351 78.9159C25.379 79.0464 25.1838 79.121 24.9805 79.128" stroke="black" stroke-width="0.75" stroke-linecap="round" stroke-linejoin="round"/>
<path d="M23.0315 78.7039C23.0315 78.7039 22.7379 78.3655 23.3088 77.7742" stroke="black" stroke-width="0.5" stroke-linecap="round" stroke-linejoin="round"/>
<path d="M22.6807 81.2444H27.2438" stroke="black" stroke-width="0.5" stroke-linecap="round" stroke-linejoin="round"/>
<path d="M22.9902 81.2444C22.9902 81.2444 24.2666 82.06 24.9598 82.06C25.6888 82.0094 26.3815 81.7231 26.9335 81.2444" fill="black"/>
<path d="M22.9902 81.2444C22.9902 81.2444 24.2666 82.06 24.9598 82.06C25.6888 82.0094 26.3815 81.7231 26.9335 81.2444" stroke="black" stroke-width="0.5" stroke-linecap="round" stroke-linejoin="round"/>
<path d="M26.9047 81.2444C26.3787 81.2444 25.7262 80.3064 24.9596 80.7753C24.1971 80.3064 23.5976 81.2444 23.0186 81.2444" fill="black"/>
<path d="M26.9047 81.2444C26.3787 81.2444 25.7262 80.3064 24.9596 80.7753C24.1971 80.3064 23.5976 81.2444 23.0186 81.2444" stroke="black" stroke-width="0.5" stroke-linecap="round" stroke-linejoin="round"/>
<path d="M20.2217 74.6505C20.2217 74.6505 22.1913 73.472 23.1333 74.8585" stroke="black" stroke-width="0.75" stroke-linecap="round" stroke-linejoin="round"/>
<path d="M21.9424 75.0256C22.1473 75.0256 22.3135 74.8594 22.3135 74.6545C22.3135 74.4496 22.1473 74.2834 21.9424 74.2834C21.7374 74.2834 21.5713 74.4496 21.5713 74.6545C21.5713 74.8594 21.7374 75.0256 21.9424 75.0256Z" fill="black" stroke="black" stroke-width="0.75" stroke-linecap="round" stroke-linejoin="round"/>
<path d="M29.7026 74.6505C29.7026 74.6505 27.733 73.472 26.791 74.8585" stroke="black" stroke-width="0.75" stroke-linecap="round" stroke-linejoin="round"/>
<path d="M27.9814 75.0256C28.1864 75.0256 28.3525 74.8594 28.3525 74.6545C28.3525 74.4496 28.1864 74.2834 27.9814 74.2834C27.7765 74.2834 27.6104 74.4496 27.6104 74.6545C27.6104 74.8594 27.7765 75.0256 27.9814 75.0256Z" fill="black" stroke="black" stroke-width="0.75" stroke-linecap="round" stroke-linejoin="round"/>
<path d="M19.4756 73.2313C19.4756 73.2313 20.7438 72.2404 23.4474 73.2313L23.1334 72.7216C23.1334 72.7216 21.2087 72.4158 21.017 72.4158C20.4829 72.6474 19.9676 72.9201 19.4756 73.2313Z" fill="black" stroke="black" stroke-width="0.75" stroke-linecap="round" stroke-linejoin="round"/>
<path d="M24.9599 67.2655C32.3001 67.2655 31.9208 76.6975 31.9208 76.6975C31.9208 76.6975 32.4428 76.249 32.7364 76.457C33.03 76.665 32.8424 77.2522 32.3286 77.8802C31.8148 78.5082 31.7577 80.1311 30.9258 79.7845C30.3361 81.2945 29.4642 82.6785 28.3568 83.8623C26.6237 85.6281 25.3636 85.6648 24.9681 85.6648C24.5725 85.6648 23.3369 85.6281 21.5835 83.8623C20.476 82.6785 19.6041 81.2945 19.0144 79.7845C18.1988 80.1311 18.1132 78.5041 17.6116 77.8802C17.1101 77.2563 16.9347 76.6568 17.2038 76.457C17.473 76.2572 18.0194 76.6975 18.0194 76.6975C18.0194 76.6975 17.632 67.2655 24.9599 67.2655Z" stroke="black" stroke-width="0.75" stroke-linecap="round" stroke-linejoin="round"/>
<path d="M31.9212 76.7017L31.4727 78.0882" stroke="black" stroke-width="0.75" stroke-linecap="round" stroke-linejoin="round"/>
<path d="M26.8925 78.7039C26.8925 78.7039 27.1861 78.3655 26.6152 77.7742" stroke="black" stroke-width="0.5" stroke-linecap="round" stroke-linejoin="round"/>
<path d="M30.4494 73.2313C30.4494 73.2313 29.1812 72.2404 26.4775 73.2313L26.7915 72.7216C26.7915 72.7216 28.7163 72.4158 28.9079 72.4158C29.442 72.6474 29.9574 72.9201 30.4494 73.2313Z" fill="black" stroke="black" stroke-width="0.75" stroke-linecap="round" stroke-linejoin="round"/>
<path d="M18.1215 77.0728C18.2031 74.4956 19.2266 67.2655 24.9601 67.2655C31.293 67.2655 31.7579 75.0583 31.7987 76.9749L32.6142 76.2776C32.9812 75.8331 33.7071 73.2315 32.8467 68.8396C31.9373 64.199 27.2396 63.7219 27.2396 63.7219C22.8151 60.4963 18.0644 63.1061 16.8329 66.7436C14.3699 74.0348 17.9625 76.9953 18.1215 77.0728Z" fill="black" stroke="black" stroke-width="0.75" stroke-linecap="round" stroke-linejoin="round"/>
<path d="M19.4756 71.8939C24.6545 61.0142 26.6852 67.0371 26.6852 67.0371" stroke="white" stroke-width="0.5" stroke-linecap="round" stroke-linejoin="round"/>
<path d="M18.4514 80.7591C18.6338 80.7591 18.7817 80.6113 18.7817 80.4288C18.7817 80.2464 18.6338 80.0985 18.4514 80.0985C18.269 80.0985 18.1211 80.2464 18.1211 80.4288C18.1211 80.6113 18.269 80.7591 18.4514 80.7591Z" fill="black" stroke="black" stroke-width="0.75" stroke-linecap="round" stroke-linejoin="round"/>
<path d="M31.4729 80.7591C31.6553 80.7591 31.8032 80.6113 31.8032 80.4288C31.8032 80.2464 31.6553 80.0985 31.4729 80.0985C31.2905 80.0985 31.1426 80.2464 31.1426 80.4288C31.1426 80.6113 31.2905 80.7591 31.4729 80.7591Z" fill="black" stroke="black" stroke-width="0.75" stroke-linecap="round" stroke-linejoin="round"/>
<path d="M17.498 76.9749C17.6898 77.0427 17.8649 77.1504 18.0118 77.291C18.1588 77.4316 18.2741 77.6019 18.3503 77.7904" stroke="black" stroke-width="0.5" stroke-linecap="round" stroke-linejoin="round"/>
<path d="M32.4265 76.9749C32.2348 77.0427 32.0596 77.1504 31.9127 77.291C31.7658 77.4316 31.6504 77.6019 31.5742 77.7904" stroke="black" stroke-width="0.5" stroke-linecap="round" stroke-linejoin="round"/>
</svg>
