<svg width="80" height="81" viewBox="0 0 80 81" fill="none" xmlns="http://www.w3.org/2000/svg">
<path d="M61.5987 20.4429L79.2279 25.5268L69.5748 41.1297L69.4209 41.3784L69.5623 41.6345L78.4332 57.695L60.5745 61.9022L60.2898 61.9693L60.2087 62.2503L55.1249 79.8795L39.5219 70.2264L39.2732 70.0725L39.0171 70.2139L22.9566 79.0848L18.7494 61.2261L18.6824 60.9414L18.4013 60.8603L0.772136 55.7765L10.4252 40.1735L10.5791 39.9248L10.4377 39.6687L1.56683 23.6082L19.4255 19.401L19.7102 19.334L19.7913 19.0529L24.8751 1.42375L40.4781 11.0768L40.7268 11.2307L40.9829 11.0893L57.0434 2.21844L61.2506 20.0771L61.3177 20.3618L61.5987 20.4429Z" fill="white" stroke="black"/>
<path d="M26.9987 46.0548L27.9039 48.8279" stroke="black" stroke-width="0.75" stroke-linecap="round" stroke-linejoin="round"/>
<path d="M39.3975 50.2017C39.408 50.1395 39.2148 50.0551 38.966 50.0133C38.7173 49.9714 38.5073 49.9879 38.4968 50.0501C38.4864 50.1123 38.6794 50.1966 38.9281 50.2385C39.1769 50.2803 39.3871 50.2638 39.3975 50.2017Z" stroke="black" stroke-width="0.75" stroke-linecap="round" stroke-linejoin="round"/>
<path d="M38.9631 50.0594C39.2653 50.1329 39.5451 50.2784 39.7787 50.4836C40.0884 50.7434 40.4758 50.8926 40.8797 50.9077" stroke="black" stroke-width="0.75" stroke-linecap="round" stroke-linejoin="round"/>
<path d="M42.8832 50.2932C43.1319 50.2514 43.3251 50.1669 43.3146 50.1048C43.3041 50.0426 43.094 50.0262 42.8453 50.068C42.5965 50.1099 42.4034 50.1941 42.4138 50.2563C42.4243 50.3185 42.6344 50.3351 42.8832 50.2932Z" stroke="black" stroke-width="0.75" stroke-linecap="round" stroke-linejoin="round"/>
<path d="M42.8859 50.0594C42.5838 50.1329 42.304 50.2784 42.0704 50.4836C41.7582 50.7445 41.3678 50.8938 40.9612 50.9077" stroke="black" stroke-width="0.75" stroke-linecap="round" stroke-linejoin="round"/>
<path d="M37.0627 50.0595C37.0627 50.0595 36.4755 49.3825 37.6173 48.2" stroke="black" stroke-width="0.5" stroke-linecap="round" stroke-linejoin="round"/>
<path d="M36.3613 55.1404H45.4876" stroke="black" stroke-width="0.5" stroke-linecap="round" stroke-linejoin="round"/>
<path d="M36.9812 55.1404C36.9812 55.1404 39.5339 56.7715 40.9204 56.7715C42.3783 56.6704 43.7637 56.0979 44.8678 55.1404" fill="black"/>
<path d="M36.9812 55.1404C36.9812 55.1404 39.5339 56.7715 40.9204 56.7715C42.3783 56.6704 43.7637 56.0979 44.8678 55.1404" stroke="black" stroke-width="0.5" stroke-linecap="round" stroke-linejoin="round"/>
<path d="M44.8107 55.1403C43.7586 55.1403 42.4537 53.2644 40.9204 54.2023C39.3953 53.2644 38.1964 55.1403 37.0383 55.1403" fill="black"/>
<path d="M44.8107 55.1403C43.7586 55.1403 42.4537 53.2644 40.9204 54.2023C39.3953 53.2644 38.1964 55.1403 37.0383 55.1403" stroke="black" stroke-width="0.5" stroke-linecap="round" stroke-linejoin="round"/>
<path d="M31.4435 41.9527C31.4435 41.9527 35.3827 39.5957 37.2667 42.3686" stroke="black" stroke-width="0.75" stroke-linecap="round" stroke-linejoin="round"/>
<path d="M34.8852 42.7029C35.2951 42.7029 35.6274 42.3705 35.6274 41.9606C35.6274 41.5507 35.2951 41.2185 34.8852 41.2185C34.4753 41.2185 34.1431 41.5507 34.1431 41.9606C34.1431 42.3705 34.4753 42.7029 34.8852 42.7029Z" fill="black" stroke="black" stroke-width="0.75" stroke-linecap="round" stroke-linejoin="round"/>
<path d="M50.4056 41.9527C50.4056 41.9527 46.4664 39.5957 44.5824 42.3686" stroke="black" stroke-width="0.75" stroke-linecap="round" stroke-linejoin="round"/>
<path d="M46.9638 42.7029C47.3737 42.7029 47.706 42.3705 47.706 41.9606C47.706 41.5507 47.3737 41.2185 46.9638 41.2185C46.554 41.2185 46.2217 41.5507 46.2217 41.9606C46.2217 42.3705 46.554 42.7029 46.9638 42.7029Z" fill="black" stroke="black" stroke-width="0.75" stroke-linecap="round" stroke-linejoin="round"/>
<path d="M29.9509 39.1143C29.9509 39.1143 32.4874 37.1325 37.8946 39.1143L37.2666 38.0948C37.2666 38.0948 33.4171 37.4832 33.0338 37.4832C31.9656 37.9464 30.9349 38.4918 29.9509 39.1143V39.1143Z" fill="black" stroke="black" stroke-width="0.75" stroke-linecap="round" stroke-linejoin="round"/>
<path d="M40.9205 27.1826C55.6007 27.1826 54.8423 46.0467 54.8423 46.0467C54.8423 46.0467 55.8862 45.1497 56.4734 45.5656C57.0606 45.9816 56.6854 47.156 55.6578 48.4119C54.6302 49.6679 54.516 52.9138 52.8523 52.2206C51.6729 55.2407 49.9291 58.0086 47.7142 60.3763C44.248 63.9077 41.7279 63.9813 40.9368 63.9813C40.1457 63.9813 37.6745 63.9077 34.1675 60.3763C31.9526 58.0086 30.2088 55.2407 29.0294 52.2206C27.3983 52.9138 27.227 49.6598 26.2239 48.4119C25.2207 47.1641 24.87 45.9652 25.4083 45.5656C25.9466 45.166 27.0394 46.0467 27.0394 46.0467C27.0394 46.0467 26.2646 27.1826 40.9205 27.1826Z" stroke="black" stroke-width="0.75" stroke-linecap="round" stroke-linejoin="round"/>
<path d="M54.8422 46.0548L53.9451 48.8279" stroke="black" stroke-width="0.75" stroke-linecap="round" stroke-linejoin="round"/>
<path d="M44.7863 50.0595C44.7863 50.0595 45.3735 49.3825 44.2317 48.2" stroke="black" stroke-width="0.5" stroke-linecap="round" stroke-linejoin="round"/>
<path d="M51.898 39.1143C51.898 39.1143 49.3616 37.1325 43.9543 39.1143L44.5823 38.0948C44.5823 38.0948 48.4318 37.4832 48.8151 37.4832C49.8834 37.9464 50.9141 38.4918 51.898 39.1143V39.1143Z" fill="black" stroke="black" stroke-width="0.75" stroke-linecap="round" stroke-linejoin="round"/>
<path d="M27.2433 46.7972C27.4064 41.6428 29.4535 27.1827 40.9204 27.1827C53.5862 27.1827 54.516 42.7683 54.5975 46.6015L56.2287 45.2069C56.9627 44.3179 58.4144 39.1146 56.6936 30.3309C54.8748 21.0497 45.4795 20.0954 45.4795 20.0954C36.6305 13.6442 27.1291 18.8638 24.6661 26.1387C19.7401 40.7211 26.9252 46.6422 27.2433 46.7972Z" fill="black" stroke="black" stroke-width="0.75" stroke-linecap="round" stroke-linejoin="round"/>
<path d="M29.9509 36.4395C40.3087 14.68 44.3702 26.7259 44.3702 26.7259" stroke="white" stroke-width="0.5" stroke-linecap="round" stroke-linejoin="round"/>
<path d="M27.904 54.1698C28.2689 54.1698 28.5646 53.8741 28.5646 53.5093C28.5646 53.1444 28.2689 52.8486 27.904 52.8486C27.5392 52.8486 27.2434 53.1444 27.2434 53.5093C27.2434 53.8741 27.5392 54.1698 27.904 54.1698Z" fill="black" stroke="black" stroke-width="0.75" stroke-linecap="round" stroke-linejoin="round"/>
<path d="M53.945 54.1698C54.3099 54.1698 54.6057 53.8741 54.6057 53.5093C54.6057 53.1444 54.3099 52.8486 53.945 52.8486C53.5802 52.8486 53.2844 53.1444 53.2844 53.5093C53.2844 53.8741 53.5802 54.1698 53.945 54.1698Z" fill="black" stroke="black" stroke-width="0.75" stroke-linecap="round" stroke-linejoin="round"/>
<path d="M25.9955 46.6014C26.3789 46.7371 26.7292 46.9526 27.0231 47.2338C27.3169 47.515 27.5477 47.8555 27.7 48.2326" stroke="black" stroke-width="0.5" stroke-linecap="round" stroke-linejoin="round"/>
<path d="M55.8536 46.6014C55.4701 46.7371 55.1199 46.9526 54.826 47.2338C54.5322 47.515 54.3014 47.8555 54.149 48.2326" stroke="black" stroke-width="0.5" stroke-linecap="round" stroke-linejoin="round"/>
</svg>
